G04 #@! TF.GenerationSoftware,KiCad,Pcbnew,(6.0.2-0)*
G04 #@! TF.CreationDate,2022-05-19T22:51:58+02:00*
G04 #@! TF.ProjectId,nixie,6e697869-652e-46b6-9963-61645f706362,rev?*
G04 #@! TF.SameCoordinates,Original*
G04 #@! TF.FileFunction,Legend,Bot*
G04 #@! TF.FilePolarity,Positive*
%FSLAX46Y46*%
G04 Gerber Fmt 4.6, Leading zero omitted, Abs format (unit mm)*
G04 Created by KiCad (PCBNEW (6.0.2-0)) date 2022-05-19 22:51:58*
%MOMM*%
%LPD*%
G01*
G04 APERTURE LIST*
%ADD10C,0.120000*%
G04 APERTURE END LIST*
D10*
G04 #@! TO.C,CP4*
X139100000Y-113400000D02*
X139100000Y-115600000D01*
X139100000Y-113400000D02*
X137900000Y-113400000D01*
X137900000Y-115600000D02*
X137900000Y-113400000D01*
X137900000Y-115600000D02*
X139100000Y-115600000D01*
G04 #@! TO.C,CP34*
X127900000Y-76600000D02*
X127900000Y-74400000D01*
X129100000Y-74400000D02*
X127900000Y-74400000D01*
X129100000Y-74400000D02*
X129100000Y-76600000D01*
X127900000Y-76600000D02*
X129100000Y-76600000D01*
G04 #@! TO.C,CP38*
X103900000Y-115600000D02*
X103900000Y-113400000D01*
X105100000Y-113400000D02*
X103900000Y-113400000D01*
X103900000Y-115600000D02*
X105100000Y-115600000D01*
X105100000Y-113400000D02*
X105100000Y-115600000D01*
G04 #@! TO.C,CP72*
X141100000Y-112600000D02*
X138900000Y-112600000D01*
X141100000Y-112600000D02*
X141100000Y-111400000D01*
X138900000Y-111400000D02*
X138900000Y-112600000D01*
X138900000Y-111400000D02*
X141100000Y-111400000D01*
G04 #@! TO.C,CP111*
X116900000Y-135400000D02*
X116900000Y-136600000D01*
X119100000Y-136600000D02*
X116900000Y-136600000D01*
X116900000Y-135400000D02*
X119100000Y-135400000D01*
X119100000Y-136600000D02*
X119100000Y-135400000D01*
G04 #@! TO.C,CP63*
X119100000Y-118400000D02*
X119100000Y-120600000D01*
X117900000Y-120600000D02*
X119100000Y-120600000D01*
X119100000Y-118400000D02*
X117900000Y-118400000D01*
X117900000Y-120600000D02*
X117900000Y-118400000D01*
G04 #@! TO.C,CP110*
X97100000Y-98600000D02*
X94900000Y-98600000D01*
X94900000Y-97400000D02*
X97100000Y-97400000D01*
X97100000Y-98600000D02*
X97100000Y-97400000D01*
X94900000Y-97400000D02*
X94900000Y-98600000D01*
G04 #@! TO.C,CP24*
X153900000Y-76600000D02*
X153900000Y-74400000D01*
X155100000Y-74400000D02*
X153900000Y-74400000D01*
X153900000Y-76600000D02*
X155100000Y-76600000D01*
X155100000Y-74400000D02*
X155100000Y-76600000D01*
G04 #@! TO.C,CP58*
X121100000Y-74400000D02*
X119900000Y-74400000D01*
X119900000Y-76600000D02*
X119900000Y-74400000D01*
X121100000Y-74400000D02*
X121100000Y-76600000D01*
X119900000Y-76600000D02*
X121100000Y-76600000D01*
G04 #@! TO.C,CP31*
X105900000Y-159600000D02*
X107100000Y-159600000D01*
X107100000Y-157400000D02*
X105900000Y-157400000D01*
X105900000Y-159600000D02*
X105900000Y-157400000D01*
X107100000Y-157400000D02*
X107100000Y-159600000D01*
G04 #@! TO.C,CP102*
X141100000Y-102600000D02*
X138900000Y-102600000D01*
X138900000Y-101400000D02*
X141100000Y-101400000D01*
X138900000Y-101400000D02*
X138900000Y-102600000D01*
X141100000Y-102600000D02*
X141100000Y-101400000D01*
G04 #@! TO.C,CP130*
X116900000Y-91400000D02*
X116900000Y-92600000D01*
X119100000Y-92600000D02*
X119100000Y-91400000D01*
X119100000Y-92600000D02*
X116900000Y-92600000D01*
X116900000Y-91400000D02*
X119100000Y-91400000D01*
G04 #@! TO.C,CP220*
X160900000Y-89400000D02*
X160900000Y-90600000D01*
X163100000Y-90600000D02*
X163100000Y-89400000D01*
X163100000Y-90600000D02*
X160900000Y-90600000D01*
X160900000Y-89400000D02*
X163100000Y-89400000D01*
G04 #@! TO.C,CP232*
X163100000Y-78600000D02*
X160900000Y-78600000D01*
X160900000Y-77400000D02*
X163100000Y-77400000D01*
X163100000Y-78600000D02*
X163100000Y-77400000D01*
X160900000Y-77400000D02*
X160900000Y-78600000D01*
G04 #@! TO.C,CP100*
X119100000Y-102600000D02*
X116900000Y-102600000D01*
X116900000Y-101400000D02*
X119100000Y-101400000D01*
X119100000Y-102600000D02*
X119100000Y-101400000D01*
X116900000Y-101400000D02*
X116900000Y-102600000D01*
G04 #@! TO.C,CP114*
X141100000Y-98600000D02*
X141100000Y-97400000D01*
X138900000Y-97400000D02*
X138900000Y-98600000D01*
X138900000Y-97400000D02*
X141100000Y-97400000D01*
X141100000Y-98600000D02*
X138900000Y-98600000D01*
G04 #@! TO.C,CP10*
X135900000Y-76600000D02*
X135900000Y-74400000D01*
X137100000Y-74400000D02*
X137100000Y-76600000D01*
X135900000Y-76600000D02*
X137100000Y-76600000D01*
X137100000Y-74400000D02*
X135900000Y-74400000D01*
G04 #@! TO.C,CP167*
X141100000Y-154600000D02*
X141100000Y-153400000D01*
X141100000Y-154600000D02*
X138900000Y-154600000D01*
X138900000Y-153400000D02*
X138900000Y-154600000D01*
X138900000Y-153400000D02*
X141100000Y-153400000D01*
G04 #@! TO.C,CP122*
X94900000Y-93400000D02*
X94900000Y-94600000D01*
X97100000Y-94600000D02*
X94900000Y-94600000D01*
X97100000Y-94600000D02*
X97100000Y-93400000D01*
X94900000Y-93400000D02*
X97100000Y-93400000D01*
G04 #@! TO.C,CP104*
X94900000Y-99400000D02*
X97100000Y-99400000D01*
X97100000Y-100600000D02*
X94900000Y-100600000D01*
X94900000Y-99400000D02*
X94900000Y-100600000D01*
X97100000Y-100600000D02*
X97100000Y-99400000D01*
G04 #@! TO.C,CP174*
X138900000Y-77400000D02*
X138900000Y-78600000D01*
X141100000Y-78600000D02*
X138900000Y-78600000D01*
X138900000Y-77400000D02*
X141100000Y-77400000D01*
X141100000Y-78600000D02*
X141100000Y-77400000D01*
G04 #@! TO.C,CP56*
X97900000Y-76600000D02*
X97900000Y-74400000D01*
X97900000Y-76600000D02*
X99100000Y-76600000D01*
X99100000Y-74400000D02*
X97900000Y-74400000D01*
X99100000Y-74400000D02*
X99100000Y-76600000D01*
G04 #@! TO.C,CP11*
X157900000Y-159600000D02*
X159100000Y-159600000D01*
X157900000Y-159600000D02*
X157900000Y-157400000D01*
X159100000Y-157400000D02*
X159100000Y-159600000D01*
X159100000Y-157400000D02*
X157900000Y-157400000D01*
G04 #@! TO.C,CP60*
X143100000Y-74400000D02*
X143100000Y-76600000D01*
X143100000Y-74400000D02*
X141900000Y-74400000D01*
X141900000Y-76600000D02*
X143100000Y-76600000D01*
X141900000Y-76600000D02*
X141900000Y-74400000D01*
G04 #@! TO.C,CP214*
X160900000Y-95400000D02*
X163100000Y-95400000D01*
X163100000Y-96600000D02*
X163100000Y-95400000D01*
X160900000Y-95400000D02*
X160900000Y-96600000D01*
X163100000Y-96600000D02*
X160900000Y-96600000D01*
G04 #@! TO.C,CP159*
X116900000Y-151400000D02*
X116900000Y-152600000D01*
X119100000Y-152600000D02*
X116900000Y-152600000D01*
X116900000Y-151400000D02*
X119100000Y-151400000D01*
X119100000Y-152600000D02*
X119100000Y-151400000D01*
G04 #@! TO.C,CP85*
X97100000Y-128600000D02*
X94900000Y-128600000D01*
X94900000Y-127400000D02*
X97100000Y-127400000D01*
X94900000Y-127400000D02*
X94900000Y-128600000D01*
X97100000Y-128600000D02*
X97100000Y-127400000D01*
G04 #@! TO.C,CP105*
X119100000Y-134600000D02*
X116900000Y-134600000D01*
X116900000Y-133400000D02*
X116900000Y-134600000D01*
X119100000Y-134600000D02*
X119100000Y-133400000D01*
X116900000Y-133400000D02*
X119100000Y-133400000D01*
G04 #@! TO.C,CP116*
X94900000Y-95400000D02*
X94900000Y-96600000D01*
X97100000Y-96600000D02*
X94900000Y-96600000D01*
X97100000Y-96600000D02*
X97100000Y-95400000D01*
X94900000Y-95400000D02*
X97100000Y-95400000D01*
G04 #@! TO.C,CP186*
X173100000Y-74400000D02*
X171900000Y-74400000D01*
X171900000Y-76600000D02*
X171900000Y-74400000D01*
X171900000Y-76600000D02*
X173100000Y-76600000D01*
X173100000Y-74400000D02*
X173100000Y-76600000D01*
G04 #@! TO.C,CP46*
X125100000Y-74400000D02*
X123900000Y-74400000D01*
X125100000Y-74400000D02*
X125100000Y-76600000D01*
X123900000Y-76600000D02*
X125100000Y-76600000D01*
X123900000Y-76600000D02*
X123900000Y-74400000D01*
G04 #@! TO.C,CP203*
X163100000Y-128600000D02*
X160900000Y-128600000D01*
X163100000Y-128600000D02*
X163100000Y-127400000D01*
X160900000Y-127400000D02*
X163100000Y-127400000D01*
X160900000Y-127400000D02*
X160900000Y-128600000D01*
G04 #@! TO.C,CP141*
X119100000Y-146600000D02*
X119100000Y-145400000D01*
X119100000Y-146600000D02*
X116900000Y-146600000D01*
X116900000Y-145400000D02*
X116900000Y-146600000D01*
X116900000Y-145400000D02*
X119100000Y-145400000D01*
G04 #@! TO.C,CP97*
X94900000Y-131400000D02*
X94900000Y-132600000D01*
X97100000Y-132600000D02*
X97100000Y-131400000D01*
X97100000Y-132600000D02*
X94900000Y-132600000D01*
X94900000Y-131400000D02*
X97100000Y-131400000D01*
G04 #@! TO.C,CP204*
X163100000Y-106600000D02*
X160900000Y-106600000D01*
X163100000Y-106600000D02*
X163100000Y-105400000D01*
X160900000Y-105400000D02*
X163100000Y-105400000D01*
X160900000Y-105400000D02*
X160900000Y-106600000D01*
G04 #@! TO.C,CP155*
X138900000Y-149400000D02*
X138900000Y-150600000D01*
X138900000Y-149400000D02*
X141100000Y-149400000D01*
X141100000Y-150600000D02*
X141100000Y-149400000D01*
X141100000Y-150600000D02*
X138900000Y-150600000D01*
G04 #@! TO.C,CP79*
X94900000Y-125400000D02*
X94900000Y-126600000D01*
X97100000Y-126600000D02*
X97100000Y-125400000D01*
X94900000Y-125400000D02*
X97100000Y-125400000D01*
X97100000Y-126600000D02*
X94900000Y-126600000D01*
G04 #@! TO.C,CP124*
X116900000Y-93400000D02*
X119100000Y-93400000D01*
X119100000Y-94600000D02*
X119100000Y-93400000D01*
X116900000Y-93400000D02*
X116900000Y-94600000D01*
X119100000Y-94600000D02*
X116900000Y-94600000D01*
G04 #@! TO.C,CP66*
X139900000Y-115600000D02*
X141100000Y-115600000D01*
X139900000Y-115600000D02*
X139900000Y-113400000D01*
X141100000Y-113400000D02*
X139900000Y-113400000D01*
X141100000Y-113400000D02*
X141100000Y-115600000D01*
G04 #@! TO.C,CP2*
X115900000Y-115600000D02*
X117100000Y-115600000D01*
X115900000Y-115600000D02*
X115900000Y-113400000D01*
X117100000Y-113400000D02*
X115900000Y-113400000D01*
X117100000Y-113400000D02*
X117100000Y-115600000D01*
G04 #@! TO.C,CP229*
X160900000Y-153400000D02*
X163100000Y-153400000D01*
X160900000Y-153400000D02*
X160900000Y-154600000D01*
X163100000Y-154600000D02*
X160900000Y-154600000D01*
X163100000Y-154600000D02*
X163100000Y-153400000D01*
G04 #@! TO.C,CP77*
X138900000Y-123400000D02*
X141100000Y-123400000D01*
X141100000Y-124600000D02*
X141100000Y-123400000D01*
X138900000Y-123400000D02*
X138900000Y-124600000D01*
X141100000Y-124600000D02*
X138900000Y-124600000D01*
G04 #@! TO.C,CP59*
X143100000Y-157400000D02*
X141900000Y-157400000D01*
X143100000Y-157400000D02*
X143100000Y-159600000D01*
X141900000Y-159600000D02*
X141900000Y-157400000D01*
X141900000Y-159600000D02*
X143100000Y-159600000D01*
G04 #@! TO.C,CP33*
X129100000Y-157400000D02*
X127900000Y-157400000D01*
X127900000Y-159600000D02*
X127900000Y-157400000D01*
X129100000Y-157400000D02*
X129100000Y-159600000D01*
X127900000Y-159600000D02*
X129100000Y-159600000D01*
G04 #@! TO.C,CP51*
X121900000Y-120600000D02*
X121900000Y-118400000D01*
X123100000Y-118400000D02*
X121900000Y-118400000D01*
X123100000Y-118400000D02*
X123100000Y-120600000D01*
X121900000Y-120600000D02*
X123100000Y-120600000D01*
G04 #@! TO.C,CP149*
X141100000Y-148600000D02*
X141100000Y-147400000D01*
X138900000Y-147400000D02*
X141100000Y-147400000D01*
X141100000Y-148600000D02*
X138900000Y-148600000D01*
X138900000Y-147400000D02*
X138900000Y-148600000D01*
G04 #@! TO.C,CP216*
X160900000Y-93400000D02*
X160900000Y-94600000D01*
X163100000Y-94600000D02*
X163100000Y-93400000D01*
X160900000Y-93400000D02*
X163100000Y-93400000D01*
X163100000Y-94600000D02*
X160900000Y-94600000D01*
G04 #@! TO.C,CP5*
X159900000Y-120600000D02*
X161100000Y-120600000D01*
X159900000Y-120600000D02*
X159900000Y-118400000D01*
X161100000Y-118400000D02*
X161100000Y-120600000D01*
X161100000Y-118400000D02*
X159900000Y-118400000D01*
G04 #@! TO.C,CP18*
X155900000Y-115600000D02*
X155900000Y-113400000D01*
X157100000Y-113400000D02*
X155900000Y-113400000D01*
X155900000Y-115600000D02*
X157100000Y-115600000D01*
X157100000Y-113400000D02*
X157100000Y-115600000D01*
G04 #@! TO.C,CP62*
X97100000Y-113400000D02*
X95900000Y-113400000D01*
X97100000Y-113400000D02*
X97100000Y-115600000D01*
X95900000Y-115600000D02*
X97100000Y-115600000D01*
X95900000Y-115600000D02*
X95900000Y-113400000D01*
G04 #@! TO.C,CP64*
X117900000Y-115600000D02*
X117900000Y-113400000D01*
X119100000Y-113400000D02*
X119100000Y-115600000D01*
X119100000Y-113400000D02*
X117900000Y-113400000D01*
X117900000Y-115600000D02*
X119100000Y-115600000D01*
G04 #@! TO.C,CP215*
X163100000Y-140600000D02*
X160900000Y-140600000D01*
X163100000Y-140600000D02*
X163100000Y-139400000D01*
X160900000Y-139400000D02*
X163100000Y-139400000D01*
X160900000Y-139400000D02*
X160900000Y-140600000D01*
G04 #@! TO.C,CP205*
X163100000Y-130600000D02*
X160900000Y-130600000D01*
X160900000Y-129400000D02*
X163100000Y-129400000D01*
X163100000Y-130600000D02*
X163100000Y-129400000D01*
X160900000Y-129400000D02*
X160900000Y-130600000D01*
G04 #@! TO.C,CP15*
X135100000Y-118400000D02*
X135100000Y-120600000D01*
X135100000Y-118400000D02*
X133900000Y-118400000D01*
X133900000Y-120600000D02*
X135100000Y-120600000D01*
X133900000Y-120600000D02*
X133900000Y-118400000D01*
G04 #@! TO.C,CP198*
X160900000Y-111400000D02*
X163100000Y-111400000D01*
X163100000Y-112600000D02*
X160900000Y-112600000D01*
X160900000Y-111400000D02*
X160900000Y-112600000D01*
X163100000Y-112600000D02*
X163100000Y-111400000D01*
G04 #@! TO.C,CP178*
X179900000Y-76600000D02*
X181100000Y-76600000D01*
X179900000Y-76600000D02*
X179900000Y-74400000D01*
X181100000Y-74400000D02*
X179900000Y-74400000D01*
X181100000Y-74400000D02*
X181100000Y-76600000D01*
G04 #@! TO.C,CP144*
X138900000Y-87400000D02*
X138900000Y-88600000D01*
X141100000Y-88600000D02*
X138900000Y-88600000D01*
X141100000Y-88600000D02*
X141100000Y-87400000D01*
X138900000Y-87400000D02*
X141100000Y-87400000D01*
G04 #@! TO.C,CP109*
X97100000Y-136600000D02*
X94900000Y-136600000D01*
X94900000Y-135400000D02*
X97100000Y-135400000D01*
X97100000Y-136600000D02*
X97100000Y-135400000D01*
X94900000Y-135400000D02*
X94900000Y-136600000D01*
G04 #@! TO.C,CP183*
X173900000Y-120600000D02*
X175100000Y-120600000D01*
X175100000Y-118400000D02*
X175100000Y-120600000D01*
X175100000Y-118400000D02*
X173900000Y-118400000D01*
X173900000Y-120600000D02*
X173900000Y-118400000D01*
G04 #@! TO.C,CP173*
X141100000Y-156600000D02*
X138900000Y-156600000D01*
X138900000Y-155400000D02*
X141100000Y-155400000D01*
X141100000Y-156600000D02*
X141100000Y-155400000D01*
X138900000Y-155400000D02*
X138900000Y-156600000D01*
G04 #@! TO.C,CP19*
X109900000Y-159600000D02*
X111100000Y-159600000D01*
X111100000Y-157400000D02*
X111100000Y-159600000D01*
X109900000Y-159600000D02*
X109900000Y-157400000D01*
X111100000Y-157400000D02*
X109900000Y-157400000D01*
G04 #@! TO.C,CP231*
X160900000Y-155400000D02*
X163100000Y-155400000D01*
X160900000Y-155400000D02*
X160900000Y-156600000D01*
X163100000Y-156600000D02*
X163100000Y-155400000D01*
X163100000Y-156600000D02*
X160900000Y-156600000D01*
G04 #@! TO.C,CP47*
X145900000Y-159600000D02*
X147100000Y-159600000D01*
X147100000Y-157400000D02*
X145900000Y-157400000D01*
X147100000Y-157400000D02*
X147100000Y-159600000D01*
X145900000Y-159600000D02*
X145900000Y-157400000D01*
G04 #@! TO.C,CP176*
X183100000Y-113400000D02*
X183100000Y-115600000D01*
X181900000Y-115600000D02*
X181900000Y-113400000D01*
X183100000Y-113400000D02*
X181900000Y-113400000D01*
X181900000Y-115600000D02*
X183100000Y-115600000D01*
G04 #@! TO.C,CP127*
X97100000Y-142600000D02*
X94900000Y-142600000D01*
X94900000Y-141400000D02*
X97100000Y-141400000D01*
X94900000Y-141400000D02*
X94900000Y-142600000D01*
X97100000Y-142600000D02*
X97100000Y-141400000D01*
G04 #@! TO.C,CP218*
X163100000Y-92600000D02*
X163100000Y-91400000D01*
X163100000Y-92600000D02*
X160900000Y-92600000D01*
X160900000Y-91400000D02*
X163100000Y-91400000D01*
X160900000Y-91400000D02*
X160900000Y-92600000D01*
G04 #@! TO.C,CP226*
X160900000Y-83400000D02*
X160900000Y-84600000D01*
X160900000Y-83400000D02*
X163100000Y-83400000D01*
X163100000Y-84600000D02*
X163100000Y-83400000D01*
X163100000Y-84600000D02*
X160900000Y-84600000D01*
G04 #@! TO.C,CP115*
X97100000Y-138600000D02*
X97100000Y-137400000D01*
X94900000Y-137400000D02*
X94900000Y-138600000D01*
X97100000Y-138600000D02*
X94900000Y-138600000D01*
X94900000Y-137400000D02*
X97100000Y-137400000D01*
G04 #@! TO.C,CP16*
X135100000Y-113400000D02*
X135100000Y-115600000D01*
X133900000Y-115600000D02*
X135100000Y-115600000D01*
X133900000Y-115600000D02*
X133900000Y-113400000D01*
X135100000Y-113400000D02*
X133900000Y-113400000D01*
G04 #@! TO.C,CP13*
X111900000Y-120600000D02*
X113100000Y-120600000D01*
X113100000Y-118400000D02*
X111900000Y-118400000D01*
X113100000Y-118400000D02*
X113100000Y-120600000D01*
X111900000Y-120600000D02*
X111900000Y-118400000D01*
G04 #@! TO.C,CP210*
X163100000Y-100600000D02*
X160900000Y-100600000D01*
X163100000Y-100600000D02*
X163100000Y-99400000D01*
X160900000Y-99400000D02*
X160900000Y-100600000D01*
X160900000Y-99400000D02*
X163100000Y-99400000D01*
G04 #@! TO.C,CP188*
X169900000Y-115600000D02*
X169900000Y-113400000D01*
X169900000Y-115600000D02*
X171100000Y-115600000D01*
X171100000Y-113400000D02*
X169900000Y-113400000D01*
X171100000Y-113400000D02*
X171100000Y-115600000D01*
G04 #@! TO.C,CP86*
X97100000Y-106600000D02*
X94900000Y-106600000D01*
X94900000Y-105400000D02*
X97100000Y-105400000D01*
X94900000Y-105400000D02*
X94900000Y-106600000D01*
X97100000Y-106600000D02*
X97100000Y-105400000D01*
G04 #@! TO.C,CP28*
X131100000Y-113400000D02*
X129900000Y-113400000D01*
X131100000Y-113400000D02*
X131100000Y-115600000D01*
X129900000Y-115600000D02*
X129900000Y-113400000D01*
X129900000Y-115600000D02*
X131100000Y-115600000D01*
G04 #@! TO.C,CP139*
X94900000Y-145400000D02*
X94900000Y-146600000D01*
X94900000Y-145400000D02*
X97100000Y-145400000D01*
X97100000Y-146600000D02*
X94900000Y-146600000D01*
X97100000Y-146600000D02*
X97100000Y-145400000D01*
G04 #@! TO.C,CP201*
X163100000Y-126600000D02*
X160900000Y-126600000D01*
X160900000Y-125400000D02*
X160900000Y-126600000D01*
X160900000Y-125400000D02*
X163100000Y-125400000D01*
X163100000Y-126600000D02*
X163100000Y-125400000D01*
G04 #@! TO.C,CP118*
X119100000Y-96600000D02*
X116900000Y-96600000D01*
X116900000Y-95400000D02*
X119100000Y-95400000D01*
X116900000Y-95400000D02*
X116900000Y-96600000D01*
X119100000Y-96600000D02*
X119100000Y-95400000D01*
G04 #@! TO.C,CP7*
X115100000Y-157400000D02*
X113900000Y-157400000D01*
X113900000Y-159600000D02*
X113900000Y-157400000D01*
X115100000Y-157400000D02*
X115100000Y-159600000D01*
X113900000Y-159600000D02*
X115100000Y-159600000D01*
G04 #@! TO.C,CP74*
X97100000Y-110600000D02*
X97100000Y-109400000D01*
X97100000Y-110600000D02*
X94900000Y-110600000D01*
X94900000Y-109400000D02*
X94900000Y-110600000D01*
X94900000Y-109400000D02*
X97100000Y-109400000D01*
G04 #@! TO.C,CP69*
X119100000Y-122600000D02*
X119100000Y-121400000D01*
X116900000Y-121400000D02*
X116900000Y-122600000D01*
X116900000Y-121400000D02*
X119100000Y-121400000D01*
X119100000Y-122600000D02*
X116900000Y-122600000D01*
G04 #@! TO.C,CP75*
X119100000Y-124600000D02*
X119100000Y-123400000D01*
X116900000Y-123400000D02*
X119100000Y-123400000D01*
X116900000Y-123400000D02*
X116900000Y-124600000D01*
X119100000Y-124600000D02*
X116900000Y-124600000D01*
G04 #@! TO.C,CP96*
X138900000Y-103400000D02*
X141100000Y-103400000D01*
X141100000Y-104600000D02*
X141100000Y-103400000D01*
X141100000Y-104600000D02*
X138900000Y-104600000D01*
X138900000Y-103400000D02*
X138900000Y-104600000D01*
G04 #@! TO.C,CP194*
X165100000Y-74400000D02*
X163900000Y-74400000D01*
X163900000Y-76600000D02*
X165100000Y-76600000D01*
X165100000Y-74400000D02*
X165100000Y-76600000D01*
X163900000Y-76600000D02*
X163900000Y-74400000D01*
G04 #@! TO.C,CP117*
X116900000Y-137400000D02*
X119100000Y-137400000D01*
X116900000Y-137400000D02*
X116900000Y-138600000D01*
X119100000Y-138600000D02*
X119100000Y-137400000D01*
X119100000Y-138600000D02*
X116900000Y-138600000D01*
G04 #@! TO.C,CP138*
X138900000Y-89400000D02*
X138900000Y-90600000D01*
X138900000Y-89400000D02*
X141100000Y-89400000D01*
X141100000Y-90600000D02*
X141100000Y-89400000D01*
X141100000Y-90600000D02*
X138900000Y-90600000D01*
G04 #@! TO.C,CP223*
X160900000Y-147400000D02*
X160900000Y-148600000D01*
X163100000Y-148600000D02*
X163100000Y-147400000D01*
X163100000Y-148600000D02*
X160900000Y-148600000D01*
X160900000Y-147400000D02*
X163100000Y-147400000D01*
G04 #@! TO.C,CP145*
X97100000Y-148600000D02*
X94900000Y-148600000D01*
X94900000Y-147400000D02*
X94900000Y-148600000D01*
X97100000Y-148600000D02*
X97100000Y-147400000D01*
X94900000Y-147400000D02*
X97100000Y-147400000D01*
G04 #@! TO.C,CP199*
X160900000Y-123400000D02*
X163100000Y-123400000D01*
X163100000Y-124600000D02*
X163100000Y-123400000D01*
X163100000Y-124600000D02*
X160900000Y-124600000D01*
X160900000Y-123400000D02*
X160900000Y-124600000D01*
G04 #@! TO.C,CP172*
X119100000Y-78600000D02*
X119100000Y-77400000D01*
X119100000Y-78600000D02*
X116900000Y-78600000D01*
X116900000Y-77400000D02*
X119100000Y-77400000D01*
X116900000Y-77400000D02*
X116900000Y-78600000D01*
G04 #@! TO.C,CP125*
X138900000Y-139400000D02*
X138900000Y-140600000D01*
X141100000Y-140600000D02*
X141100000Y-139400000D01*
X141100000Y-140600000D02*
X138900000Y-140600000D01*
X138900000Y-139400000D02*
X141100000Y-139400000D01*
G04 #@! TO.C,CP67*
X94900000Y-121400000D02*
X94900000Y-122600000D01*
X97100000Y-122600000D02*
X94900000Y-122600000D01*
X94900000Y-121400000D02*
X97100000Y-121400000D01*
X97100000Y-122600000D02*
X97100000Y-121400000D01*
G04 #@! TO.C,CP121*
X97100000Y-140600000D02*
X94900000Y-140600000D01*
X94900000Y-139400000D02*
X97100000Y-139400000D01*
X94900000Y-139400000D02*
X94900000Y-140600000D01*
X97100000Y-140600000D02*
X97100000Y-139400000D01*
G04 #@! TO.C,CP153*
X119100000Y-150600000D02*
X119100000Y-149400000D01*
X116900000Y-149400000D02*
X116900000Y-150600000D01*
X119100000Y-150600000D02*
X116900000Y-150600000D01*
X116900000Y-149400000D02*
X119100000Y-149400000D01*
G04 #@! TO.C,CP189*
X169100000Y-157400000D02*
X169100000Y-159600000D01*
X167900000Y-159600000D02*
X167900000Y-157400000D01*
X167900000Y-159600000D02*
X169100000Y-159600000D01*
X169100000Y-157400000D02*
X167900000Y-157400000D01*
G04 #@! TO.C,CP40*
X125900000Y-115600000D02*
X125900000Y-113400000D01*
X127100000Y-113400000D02*
X127100000Y-115600000D01*
X125900000Y-115600000D02*
X127100000Y-115600000D01*
X127100000Y-113400000D02*
X125900000Y-113400000D01*
G04 #@! TO.C,CP55*
X97900000Y-159600000D02*
X99100000Y-159600000D01*
X99100000Y-157400000D02*
X99100000Y-159600000D01*
X97900000Y-159600000D02*
X97900000Y-157400000D01*
X99100000Y-157400000D02*
X97900000Y-157400000D01*
G04 #@! TO.C,CP140*
X97100000Y-88600000D02*
X94900000Y-88600000D01*
X97100000Y-88600000D02*
X97100000Y-87400000D01*
X94900000Y-87400000D02*
X94900000Y-88600000D01*
X94900000Y-87400000D02*
X97100000Y-87400000D01*
G04 #@! TO.C,CP160*
X116900000Y-81400000D02*
X119100000Y-81400000D01*
X119100000Y-82600000D02*
X116900000Y-82600000D01*
X116900000Y-81400000D02*
X116900000Y-82600000D01*
X119100000Y-82600000D02*
X119100000Y-81400000D01*
G04 #@! TO.C,CP151*
X97100000Y-150600000D02*
X94900000Y-150600000D01*
X94900000Y-149400000D02*
X97100000Y-149400000D01*
X97100000Y-150600000D02*
X97100000Y-149400000D01*
X94900000Y-149400000D02*
X94900000Y-150600000D01*
G04 #@! TO.C,CP211*
X160900000Y-135400000D02*
X163100000Y-135400000D01*
X160900000Y-135400000D02*
X160900000Y-136600000D01*
X163100000Y-136600000D02*
X163100000Y-135400000D01*
X163100000Y-136600000D02*
X160900000Y-136600000D01*
G04 #@! TO.C,CP30*
X153100000Y-113400000D02*
X153100000Y-115600000D01*
X151900000Y-115600000D02*
X151900000Y-113400000D01*
X151900000Y-115600000D02*
X153100000Y-115600000D01*
X153100000Y-113400000D02*
X151900000Y-113400000D01*
G04 #@! TO.C,CP146*
X97100000Y-86600000D02*
X97100000Y-85400000D01*
X97100000Y-86600000D02*
X94900000Y-86600000D01*
X94900000Y-85400000D02*
X97100000Y-85400000D01*
X94900000Y-85400000D02*
X94900000Y-86600000D01*
G04 #@! TO.C,CP94*
X116900000Y-103400000D02*
X116900000Y-104600000D01*
X119100000Y-104600000D02*
X116900000Y-104600000D01*
X119100000Y-104600000D02*
X119100000Y-103400000D01*
X116900000Y-103400000D02*
X119100000Y-103400000D01*
G04 #@! TO.C,CP177*
X179900000Y-159600000D02*
X179900000Y-157400000D01*
X181100000Y-157400000D02*
X181100000Y-159600000D01*
X179900000Y-159600000D02*
X181100000Y-159600000D01*
X181100000Y-157400000D02*
X179900000Y-157400000D01*
G04 #@! TO.C,CP161*
X141100000Y-152600000D02*
X141100000Y-151400000D01*
X141100000Y-152600000D02*
X138900000Y-152600000D01*
X138900000Y-151400000D02*
X138900000Y-152600000D01*
X138900000Y-151400000D02*
X141100000Y-151400000D01*
G04 #@! TO.C,CP76*
X119100000Y-110600000D02*
X116900000Y-110600000D01*
X116900000Y-109400000D02*
X116900000Y-110600000D01*
X119100000Y-110600000D02*
X119100000Y-109400000D01*
X116900000Y-109400000D02*
X119100000Y-109400000D01*
G04 #@! TO.C,CP81*
X119100000Y-126600000D02*
X119100000Y-125400000D01*
X119100000Y-126600000D02*
X116900000Y-126600000D01*
X116900000Y-125400000D02*
X116900000Y-126600000D01*
X116900000Y-125400000D02*
X119100000Y-125400000D01*
G04 #@! TO.C,CP169*
X94900000Y-155400000D02*
X97100000Y-155400000D01*
X97100000Y-156600000D02*
X97100000Y-155400000D01*
X94900000Y-155400000D02*
X94900000Y-156600000D01*
X97100000Y-156600000D02*
X94900000Y-156600000D01*
G04 #@! TO.C,CP95*
X141100000Y-130600000D02*
X141100000Y-129400000D01*
X141100000Y-130600000D02*
X138900000Y-130600000D01*
X138900000Y-129400000D02*
X138900000Y-130600000D01*
X138900000Y-129400000D02*
X141100000Y-129400000D01*
G04 #@! TO.C,CP133*
X94900000Y-143400000D02*
X94900000Y-144600000D01*
X94900000Y-143400000D02*
X97100000Y-143400000D01*
X97100000Y-144600000D02*
X97100000Y-143400000D01*
X97100000Y-144600000D02*
X94900000Y-144600000D01*
G04 #@! TO.C,CP135*
X119100000Y-144600000D02*
X119100000Y-143400000D01*
X116900000Y-143400000D02*
X116900000Y-144600000D01*
X119100000Y-144600000D02*
X116900000Y-144600000D01*
X116900000Y-143400000D02*
X119100000Y-143400000D01*
G04 #@! TO.C,CP92*
X97100000Y-104600000D02*
X94900000Y-104600000D01*
X97100000Y-104600000D02*
X97100000Y-103400000D01*
X94900000Y-103400000D02*
X94900000Y-104600000D01*
X94900000Y-103400000D02*
X97100000Y-103400000D01*
G04 #@! TO.C,CP45*
X125100000Y-157400000D02*
X123900000Y-157400000D01*
X125100000Y-157400000D02*
X125100000Y-159600000D01*
X123900000Y-159600000D02*
X125100000Y-159600000D01*
X123900000Y-159600000D02*
X123900000Y-157400000D01*
G04 #@! TO.C,CP119*
X141100000Y-138600000D02*
X138900000Y-138600000D01*
X141100000Y-138600000D02*
X141100000Y-137400000D01*
X138900000Y-137400000D02*
X138900000Y-138600000D01*
X138900000Y-137400000D02*
X141100000Y-137400000D01*
G04 #@! TO.C,CP166*
X116900000Y-79400000D02*
X119100000Y-79400000D01*
X119100000Y-80600000D02*
X116900000Y-80600000D01*
X119100000Y-80600000D02*
X119100000Y-79400000D01*
X116900000Y-79400000D02*
X116900000Y-80600000D01*
G04 #@! TO.C,CP120*
X141100000Y-96600000D02*
X138900000Y-96600000D01*
X138900000Y-95400000D02*
X138900000Y-96600000D01*
X141100000Y-96600000D02*
X141100000Y-95400000D01*
X138900000Y-95400000D02*
X141100000Y-95400000D01*
G04 #@! TO.C,CP142*
X119100000Y-88600000D02*
X119100000Y-87400000D01*
X116900000Y-87400000D02*
X119100000Y-87400000D01*
X116900000Y-87400000D02*
X116900000Y-88600000D01*
X119100000Y-88600000D02*
X116900000Y-88600000D01*
G04 #@! TO.C,CP71*
X141100000Y-122600000D02*
X141100000Y-121400000D01*
X141100000Y-122600000D02*
X138900000Y-122600000D01*
X138900000Y-121400000D02*
X138900000Y-122600000D01*
X138900000Y-121400000D02*
X141100000Y-121400000D01*
G04 #@! TO.C,CP112*
X119100000Y-98600000D02*
X119100000Y-97400000D01*
X116900000Y-97400000D02*
X116900000Y-98600000D01*
X116900000Y-97400000D02*
X119100000Y-97400000D01*
X119100000Y-98600000D02*
X116900000Y-98600000D01*
G04 #@! TO.C,CP48*
X145900000Y-76600000D02*
X147100000Y-76600000D01*
X147100000Y-74400000D02*
X145900000Y-74400000D01*
X145900000Y-76600000D02*
X145900000Y-74400000D01*
X147100000Y-74400000D02*
X147100000Y-76600000D01*
G04 #@! TO.C,CP143*
X141100000Y-146600000D02*
X138900000Y-146600000D01*
X138900000Y-145400000D02*
X141100000Y-145400000D01*
X138900000Y-145400000D02*
X138900000Y-146600000D01*
X141100000Y-146600000D02*
X141100000Y-145400000D01*
G04 #@! TO.C,CP49*
X101100000Y-118400000D02*
X101100000Y-120600000D01*
X101100000Y-118400000D02*
X99900000Y-118400000D01*
X99900000Y-120600000D02*
X99900000Y-118400000D01*
X99900000Y-120600000D02*
X101100000Y-120600000D01*
G04 #@! TO.C,CP137*
X138900000Y-143400000D02*
X141100000Y-143400000D01*
X138900000Y-143400000D02*
X138900000Y-144600000D01*
X141100000Y-144600000D02*
X138900000Y-144600000D01*
X141100000Y-144600000D02*
X141100000Y-143400000D01*
G04 #@! TO.C,CP158*
X97100000Y-82600000D02*
X97100000Y-81400000D01*
X94900000Y-81400000D02*
X97100000Y-81400000D01*
X94900000Y-81400000D02*
X94900000Y-82600000D01*
X97100000Y-82600000D02*
X94900000Y-82600000D01*
G04 #@! TO.C,CP6*
X161100000Y-113400000D02*
X161100000Y-115600000D01*
X159900000Y-115600000D02*
X159900000Y-113400000D01*
X159900000Y-115600000D02*
X161100000Y-115600000D01*
X161100000Y-113400000D02*
X159900000Y-113400000D01*
G04 #@! TO.C,CP156*
X141100000Y-84600000D02*
X141100000Y-83400000D01*
X141100000Y-84600000D02*
X138900000Y-84600000D01*
X138900000Y-83400000D02*
X141100000Y-83400000D01*
X138900000Y-83400000D02*
X138900000Y-84600000D01*
G04 #@! TO.C,CP88*
X119100000Y-106600000D02*
X119100000Y-105400000D01*
X116900000Y-105400000D02*
X119100000Y-105400000D01*
X119100000Y-106600000D02*
X116900000Y-106600000D01*
X116900000Y-105400000D02*
X116900000Y-106600000D01*
G04 #@! TO.C,CP164*
X94900000Y-79400000D02*
X97100000Y-79400000D01*
X97100000Y-80600000D02*
X97100000Y-79400000D01*
X97100000Y-80600000D02*
X94900000Y-80600000D01*
X94900000Y-79400000D02*
X94900000Y-80600000D01*
G04 #@! TO.C,CP131*
X138900000Y-141400000D02*
X138900000Y-142600000D01*
X138900000Y-141400000D02*
X141100000Y-141400000D01*
X141100000Y-142600000D02*
X141100000Y-141400000D01*
X141100000Y-142600000D02*
X138900000Y-142600000D01*
G04 #@! TO.C,CP157*
X97100000Y-152600000D02*
X97100000Y-151400000D01*
X94900000Y-151400000D02*
X97100000Y-151400000D01*
X97100000Y-152600000D02*
X94900000Y-152600000D01*
X94900000Y-151400000D02*
X94900000Y-152600000D01*
G04 #@! TO.C,CP43*
X103100000Y-157400000D02*
X101900000Y-157400000D01*
X101900000Y-159600000D02*
X103100000Y-159600000D01*
X103100000Y-157400000D02*
X103100000Y-159600000D01*
X101900000Y-159600000D02*
X101900000Y-157400000D01*
G04 #@! TO.C,CP12*
X159100000Y-74400000D02*
X157900000Y-74400000D01*
X159100000Y-74400000D02*
X159100000Y-76600000D01*
X157900000Y-76600000D02*
X157900000Y-74400000D01*
X157900000Y-76600000D02*
X159100000Y-76600000D01*
G04 #@! TO.C,CP83*
X141100000Y-126600000D02*
X138900000Y-126600000D01*
X138900000Y-125400000D02*
X138900000Y-126600000D01*
X138900000Y-125400000D02*
X141100000Y-125400000D01*
X141100000Y-126600000D02*
X141100000Y-125400000D01*
G04 #@! TO.C,CP148*
X116900000Y-85400000D02*
X119100000Y-85400000D01*
X119100000Y-86600000D02*
X116900000Y-86600000D01*
X119100000Y-86600000D02*
X119100000Y-85400000D01*
X116900000Y-85400000D02*
X116900000Y-86600000D01*
G04 #@! TO.C,CP91*
X94900000Y-129400000D02*
X94900000Y-130600000D01*
X94900000Y-129400000D02*
X97100000Y-129400000D01*
X97100000Y-130600000D02*
X94900000Y-130600000D01*
X97100000Y-130600000D02*
X97100000Y-129400000D01*
G04 #@! TO.C,CP36*
X151100000Y-74400000D02*
X151100000Y-76600000D01*
X149900000Y-76600000D02*
X149900000Y-74400000D01*
X151100000Y-74400000D02*
X149900000Y-74400000D01*
X149900000Y-76600000D02*
X151100000Y-76600000D01*
G04 #@! TO.C,CP175*
X183100000Y-118400000D02*
X181900000Y-118400000D01*
X181900000Y-120600000D02*
X181900000Y-118400000D01*
X183100000Y-118400000D02*
X183100000Y-120600000D01*
X181900000Y-120600000D02*
X183100000Y-120600000D01*
G04 #@! TO.C,CP90*
X141100000Y-106600000D02*
X138900000Y-106600000D01*
X138900000Y-105400000D02*
X138900000Y-106600000D01*
X138900000Y-105400000D02*
X141100000Y-105400000D01*
X141100000Y-106600000D02*
X141100000Y-105400000D01*
G04 #@! TO.C,CP89*
X138900000Y-127400000D02*
X138900000Y-128600000D01*
X141100000Y-128600000D02*
X141100000Y-127400000D01*
X138900000Y-127400000D02*
X141100000Y-127400000D01*
X141100000Y-128600000D02*
X138900000Y-128600000D01*
G04 #@! TO.C,CP136*
X116900000Y-89400000D02*
X119100000Y-89400000D01*
X119100000Y-90600000D02*
X119100000Y-89400000D01*
X116900000Y-89400000D02*
X116900000Y-90600000D01*
X119100000Y-90600000D02*
X116900000Y-90600000D01*
G04 #@! TO.C,CP50*
X101100000Y-113400000D02*
X99900000Y-113400000D01*
X101100000Y-113400000D02*
X101100000Y-115600000D01*
X99900000Y-115600000D02*
X101100000Y-115600000D01*
X99900000Y-115600000D02*
X99900000Y-113400000D01*
G04 #@! TO.C,CP192*
X165900000Y-115600000D02*
X165900000Y-113400000D01*
X167100000Y-113400000D02*
X165900000Y-113400000D01*
X165900000Y-115600000D02*
X167100000Y-115600000D01*
X167100000Y-113400000D02*
X167100000Y-115600000D01*
G04 #@! TO.C,CP128*
X97100000Y-92600000D02*
X97100000Y-91400000D01*
X94900000Y-91400000D02*
X94900000Y-92600000D01*
X97100000Y-92600000D02*
X94900000Y-92600000D01*
X94900000Y-91400000D02*
X97100000Y-91400000D01*
G04 #@! TO.C,CP163*
X94900000Y-153400000D02*
X94900000Y-154600000D01*
X97100000Y-154600000D02*
X97100000Y-153400000D01*
X97100000Y-154600000D02*
X94900000Y-154600000D01*
X94900000Y-153400000D02*
X97100000Y-153400000D01*
G04 #@! TO.C,CP179*
X177900000Y-120600000D02*
X177900000Y-118400000D01*
X179100000Y-118400000D02*
X177900000Y-118400000D01*
X179100000Y-118400000D02*
X179100000Y-120600000D01*
X177900000Y-120600000D02*
X179100000Y-120600000D01*
G04 #@! TO.C,CP132*
X138900000Y-91400000D02*
X138900000Y-92600000D01*
X138900000Y-91400000D02*
X141100000Y-91400000D01*
X141100000Y-92600000D02*
X138900000Y-92600000D01*
X141100000Y-92600000D02*
X141100000Y-91400000D01*
G04 #@! TO.C,CP21*
X131900000Y-159600000D02*
X133100000Y-159600000D01*
X133100000Y-157400000D02*
X131900000Y-157400000D01*
X131900000Y-159600000D02*
X131900000Y-157400000D01*
X133100000Y-157400000D02*
X133100000Y-159600000D01*
G04 #@! TO.C,CP219*
X163100000Y-144600000D02*
X163100000Y-143400000D01*
X160900000Y-143400000D02*
X163100000Y-143400000D01*
X163100000Y-144600000D02*
X160900000Y-144600000D01*
X160900000Y-143400000D02*
X160900000Y-144600000D01*
G04 #@! TO.C,CP57*
X121100000Y-157400000D02*
X121100000Y-159600000D01*
X119900000Y-159600000D02*
X121100000Y-159600000D01*
X121100000Y-157400000D02*
X119900000Y-157400000D01*
X119900000Y-159600000D02*
X119900000Y-157400000D01*
G04 #@! TO.C,CP180*
X179100000Y-113400000D02*
X177900000Y-113400000D01*
X177900000Y-115600000D02*
X177900000Y-113400000D01*
X177900000Y-115600000D02*
X179100000Y-115600000D01*
X179100000Y-113400000D02*
X179100000Y-115600000D01*
G04 #@! TO.C,CP129*
X119100000Y-142600000D02*
X119100000Y-141400000D01*
X116900000Y-141400000D02*
X119100000Y-141400000D01*
X119100000Y-142600000D02*
X116900000Y-142600000D01*
X116900000Y-141400000D02*
X116900000Y-142600000D01*
G04 #@! TO.C,CP150*
X138900000Y-85400000D02*
X138900000Y-86600000D01*
X141100000Y-86600000D02*
X138900000Y-86600000D01*
X138900000Y-85400000D02*
X141100000Y-85400000D01*
X141100000Y-86600000D02*
X141100000Y-85400000D01*
G04 #@! TO.C,CP42*
X147900000Y-115600000D02*
X147900000Y-113400000D01*
X147900000Y-115600000D02*
X149100000Y-115600000D01*
X149100000Y-113400000D02*
X149100000Y-115600000D01*
X149100000Y-113400000D02*
X147900000Y-113400000D01*
G04 #@! TO.C,CP107*
X141100000Y-134600000D02*
X138900000Y-134600000D01*
X141100000Y-134600000D02*
X141100000Y-133400000D01*
X138900000Y-133400000D02*
X141100000Y-133400000D01*
X138900000Y-133400000D02*
X138900000Y-134600000D01*
G04 #@! TO.C,CP196*
X163100000Y-113400000D02*
X163100000Y-115600000D01*
X163100000Y-113400000D02*
X161900000Y-113400000D01*
X161900000Y-115600000D02*
X161900000Y-113400000D01*
X161900000Y-115600000D02*
X163100000Y-115600000D01*
G04 #@! TO.C,CP29*
X153100000Y-118400000D02*
X153100000Y-120600000D01*
X151900000Y-120600000D02*
X153100000Y-120600000D01*
X153100000Y-118400000D02*
X151900000Y-118400000D01*
X151900000Y-120600000D02*
X151900000Y-118400000D01*
G04 #@! TO.C,CP103*
X94900000Y-133400000D02*
X97100000Y-133400000D01*
X97100000Y-134600000D02*
X94900000Y-134600000D01*
X97100000Y-134600000D02*
X97100000Y-133400000D01*
X94900000Y-133400000D02*
X94900000Y-134600000D01*
G04 #@! TO.C,CP99*
X119100000Y-132600000D02*
X116900000Y-132600000D01*
X116900000Y-131400000D02*
X119100000Y-131400000D01*
X116900000Y-131400000D02*
X116900000Y-132600000D01*
X119100000Y-132600000D02*
X119100000Y-131400000D01*
G04 #@! TO.C,CP154*
X116900000Y-83400000D02*
X119100000Y-83400000D01*
X119100000Y-84600000D02*
X119100000Y-83400000D01*
X116900000Y-83400000D02*
X116900000Y-84600000D01*
X119100000Y-84600000D02*
X116900000Y-84600000D01*
G04 #@! TO.C,CP106*
X119100000Y-100600000D02*
X119100000Y-99400000D01*
X116900000Y-99400000D02*
X119100000Y-99400000D01*
X119100000Y-100600000D02*
X116900000Y-100600000D01*
X116900000Y-99400000D02*
X116900000Y-100600000D01*
G04 #@! TO.C,CP208*
X160900000Y-101400000D02*
X160900000Y-102600000D01*
X163100000Y-102600000D02*
X160900000Y-102600000D01*
X163100000Y-102600000D02*
X163100000Y-101400000D01*
X160900000Y-101400000D02*
X163100000Y-101400000D01*
G04 #@! TO.C,CP217*
X163100000Y-142600000D02*
X160900000Y-142600000D01*
X160900000Y-141400000D02*
X160900000Y-142600000D01*
X160900000Y-141400000D02*
X163100000Y-141400000D01*
X163100000Y-142600000D02*
X163100000Y-141400000D01*
G04 #@! TO.C,CP184*
X175100000Y-113400000D02*
X173900000Y-113400000D01*
X173900000Y-115600000D02*
X173900000Y-113400000D01*
X175100000Y-113400000D02*
X175100000Y-115600000D01*
X173900000Y-115600000D02*
X175100000Y-115600000D01*
G04 #@! TO.C,CP170*
X94900000Y-77400000D02*
X94900000Y-78600000D01*
X97100000Y-78600000D02*
X97100000Y-77400000D01*
X94900000Y-77400000D02*
X97100000Y-77400000D01*
X97100000Y-78600000D02*
X94900000Y-78600000D01*
G04 #@! TO.C,CP22*
X131900000Y-76600000D02*
X131900000Y-74400000D01*
X131900000Y-76600000D02*
X133100000Y-76600000D01*
X133100000Y-74400000D02*
X133100000Y-76600000D01*
X133100000Y-74400000D02*
X131900000Y-74400000D01*
G04 #@! TO.C,CP8*
X115100000Y-74400000D02*
X115100000Y-76600000D01*
X113900000Y-76600000D02*
X115100000Y-76600000D01*
X113900000Y-76600000D02*
X113900000Y-74400000D01*
X115100000Y-74400000D02*
X113900000Y-74400000D01*
G04 #@! TO.C,CP227*
X160900000Y-151400000D02*
X160900000Y-152600000D01*
X163100000Y-152600000D02*
X160900000Y-152600000D01*
X160900000Y-151400000D02*
X163100000Y-151400000D01*
X163100000Y-152600000D02*
X163100000Y-151400000D01*
G04 #@! TO.C,CP200*
X163100000Y-110600000D02*
X163100000Y-109400000D01*
X163100000Y-110600000D02*
X160900000Y-110600000D01*
X160900000Y-109400000D02*
X160900000Y-110600000D01*
X160900000Y-109400000D02*
X163100000Y-109400000D01*
G04 #@! TO.C,CP193*
X163900000Y-159600000D02*
X165100000Y-159600000D01*
X163900000Y-159600000D02*
X163900000Y-157400000D01*
X165100000Y-157400000D02*
X163900000Y-157400000D01*
X165100000Y-157400000D02*
X165100000Y-159600000D01*
G04 #@! TO.C,CP101*
X138900000Y-131400000D02*
X138900000Y-132600000D01*
X138900000Y-131400000D02*
X141100000Y-131400000D01*
X141100000Y-132600000D02*
X138900000Y-132600000D01*
X141100000Y-132600000D02*
X141100000Y-131400000D01*
G04 #@! TO.C,CP209*
X163100000Y-134600000D02*
X160900000Y-134600000D01*
X163100000Y-134600000D02*
X163100000Y-133400000D01*
X160900000Y-133400000D02*
X160900000Y-134600000D01*
X160900000Y-133400000D02*
X163100000Y-133400000D01*
G04 #@! TO.C,CP87*
X119100000Y-128600000D02*
X116900000Y-128600000D01*
X116900000Y-127400000D02*
X119100000Y-127400000D01*
X116900000Y-127400000D02*
X116900000Y-128600000D01*
X119100000Y-128600000D02*
X119100000Y-127400000D01*
G04 #@! TO.C,CP228*
X163100000Y-82600000D02*
X160900000Y-82600000D01*
X163100000Y-82600000D02*
X163100000Y-81400000D01*
X160900000Y-81400000D02*
X163100000Y-81400000D01*
X160900000Y-81400000D02*
X160900000Y-82600000D01*
G04 #@! TO.C,CP70*
X116900000Y-111400000D02*
X116900000Y-112600000D01*
X116900000Y-111400000D02*
X119100000Y-111400000D01*
X119100000Y-112600000D02*
X119100000Y-111400000D01*
X119100000Y-112600000D02*
X116900000Y-112600000D01*
G04 #@! TO.C,CP225*
X160900000Y-149400000D02*
X160900000Y-150600000D01*
X163100000Y-150600000D02*
X163100000Y-149400000D01*
X163100000Y-150600000D02*
X160900000Y-150600000D01*
X160900000Y-149400000D02*
X163100000Y-149400000D01*
G04 #@! TO.C,CP93*
X119100000Y-130600000D02*
X116900000Y-130600000D01*
X116900000Y-129400000D02*
X119100000Y-129400000D01*
X119100000Y-130600000D02*
X119100000Y-129400000D01*
X116900000Y-129400000D02*
X116900000Y-130600000D01*
G04 #@! TO.C,CP52*
X123100000Y-113400000D02*
X123100000Y-115600000D01*
X121900000Y-115600000D02*
X123100000Y-115600000D01*
X123100000Y-113400000D02*
X121900000Y-113400000D01*
X121900000Y-115600000D02*
X121900000Y-113400000D01*
G04 #@! TO.C,CP171*
X119100000Y-156600000D02*
X116900000Y-156600000D01*
X116900000Y-155400000D02*
X116900000Y-156600000D01*
X119100000Y-156600000D02*
X119100000Y-155400000D01*
X116900000Y-155400000D02*
X119100000Y-155400000D01*
G04 #@! TO.C,CP182*
X177100000Y-74400000D02*
X177100000Y-76600000D01*
X175900000Y-76600000D02*
X177100000Y-76600000D01*
X175900000Y-76600000D02*
X175900000Y-74400000D01*
X177100000Y-74400000D02*
X175900000Y-74400000D01*
G04 #@! TO.C,CP98*
X94900000Y-101400000D02*
X97100000Y-101400000D01*
X94900000Y-101400000D02*
X94900000Y-102600000D01*
X97100000Y-102600000D02*
X97100000Y-101400000D01*
X97100000Y-102600000D02*
X94900000Y-102600000D01*
G04 #@! TO.C,CP126*
X138900000Y-93400000D02*
X138900000Y-94600000D01*
X138900000Y-93400000D02*
X141100000Y-93400000D01*
X141100000Y-94600000D02*
X138900000Y-94600000D01*
X141100000Y-94600000D02*
X141100000Y-93400000D01*
G04 #@! TO.C,CP213*
X163100000Y-138600000D02*
X163100000Y-137400000D01*
X160900000Y-137400000D02*
X160900000Y-138600000D01*
X163100000Y-138600000D02*
X160900000Y-138600000D01*
X160900000Y-137400000D02*
X163100000Y-137400000D01*
G04 #@! TO.C,CP27*
X131100000Y-118400000D02*
X131100000Y-120600000D01*
X129900000Y-120600000D02*
X131100000Y-120600000D01*
X129900000Y-120600000D02*
X129900000Y-118400000D01*
X131100000Y-118400000D02*
X129900000Y-118400000D01*
G04 #@! TO.C,CP224*
X160900000Y-85400000D02*
X163100000Y-85400000D01*
X163100000Y-86600000D02*
X163100000Y-85400000D01*
X160900000Y-85400000D02*
X160900000Y-86600000D01*
X163100000Y-86600000D02*
X160900000Y-86600000D01*
G04 #@! TO.C,CP53*
X143900000Y-120600000D02*
X143900000Y-118400000D01*
X145100000Y-118400000D02*
X143900000Y-118400000D01*
X143900000Y-120600000D02*
X145100000Y-120600000D01*
X145100000Y-118400000D02*
X145100000Y-120600000D01*
G04 #@! TO.C,CP152*
X94900000Y-83400000D02*
X94900000Y-84600000D01*
X94900000Y-83400000D02*
X97100000Y-83400000D01*
X97100000Y-84600000D02*
X94900000Y-84600000D01*
X97100000Y-84600000D02*
X97100000Y-83400000D01*
G04 #@! TO.C,CP37*
X103900000Y-120600000D02*
X103900000Y-118400000D01*
X105100000Y-118400000D02*
X105100000Y-120600000D01*
X103900000Y-120600000D02*
X105100000Y-120600000D01*
X105100000Y-118400000D02*
X103900000Y-118400000D01*
G04 #@! TO.C,CP165*
X116900000Y-153400000D02*
X119100000Y-153400000D01*
X119100000Y-154600000D02*
X119100000Y-153400000D01*
X119100000Y-154600000D02*
X116900000Y-154600000D01*
X116900000Y-153400000D02*
X116900000Y-154600000D01*
G04 #@! TO.C,CP207*
X163100000Y-132600000D02*
X163100000Y-131400000D01*
X163100000Y-132600000D02*
X160900000Y-132600000D01*
X160900000Y-131400000D02*
X163100000Y-131400000D01*
X160900000Y-131400000D02*
X160900000Y-132600000D01*
G04 #@! TO.C,CP195*
X163100000Y-118400000D02*
X163100000Y-120600000D01*
X161900000Y-120600000D02*
X163100000Y-120600000D01*
X163100000Y-118400000D02*
X161900000Y-118400000D01*
X161900000Y-120600000D02*
X161900000Y-118400000D01*
G04 #@! TO.C,CP162*
X141100000Y-82600000D02*
X138900000Y-82600000D01*
X138900000Y-81400000D02*
X138900000Y-82600000D01*
X141100000Y-82600000D02*
X141100000Y-81400000D01*
X138900000Y-81400000D02*
X141100000Y-81400000D01*
G04 #@! TO.C,CP54*
X145100000Y-113400000D02*
X143900000Y-113400000D01*
X143900000Y-115600000D02*
X145100000Y-115600000D01*
X145100000Y-113400000D02*
X145100000Y-115600000D01*
X143900000Y-115600000D02*
X143900000Y-113400000D01*
G04 #@! TO.C,CP147*
X116900000Y-147400000D02*
X119100000Y-147400000D01*
X119100000Y-148600000D02*
X119100000Y-147400000D01*
X119100000Y-148600000D02*
X116900000Y-148600000D01*
X116900000Y-147400000D02*
X116900000Y-148600000D01*
G04 #@! TO.C,CP44*
X103100000Y-74400000D02*
X101900000Y-74400000D01*
X103100000Y-74400000D02*
X103100000Y-76600000D01*
X101900000Y-76600000D02*
X101900000Y-74400000D01*
X101900000Y-76600000D02*
X103100000Y-76600000D01*
G04 #@! TO.C,CP25*
X107900000Y-120600000D02*
X109100000Y-120600000D01*
X109100000Y-118400000D02*
X107900000Y-118400000D01*
X107900000Y-120600000D02*
X107900000Y-118400000D01*
X109100000Y-118400000D02*
X109100000Y-120600000D01*
G04 #@! TO.C,CP206*
X160900000Y-103400000D02*
X160900000Y-104600000D01*
X163100000Y-104600000D02*
X160900000Y-104600000D01*
X160900000Y-103400000D02*
X163100000Y-103400000D01*
X163100000Y-104600000D02*
X163100000Y-103400000D01*
G04 #@! TO.C,CP212*
X163100000Y-98600000D02*
X160900000Y-98600000D01*
X160900000Y-97400000D02*
X160900000Y-98600000D01*
X160900000Y-97400000D02*
X163100000Y-97400000D01*
X163100000Y-98600000D02*
X163100000Y-97400000D01*
G04 #@! TO.C,CP32*
X105900000Y-76600000D02*
X107100000Y-76600000D01*
X107100000Y-74400000D02*
X107100000Y-76600000D01*
X107100000Y-74400000D02*
X105900000Y-74400000D01*
X105900000Y-76600000D02*
X105900000Y-74400000D01*
G04 #@! TO.C,CP1*
X115900000Y-120600000D02*
X115900000Y-118400000D01*
X115900000Y-120600000D02*
X117100000Y-120600000D01*
X117100000Y-118400000D02*
X117100000Y-120600000D01*
X117100000Y-118400000D02*
X115900000Y-118400000D01*
G04 #@! TO.C,CP230*
X163100000Y-80600000D02*
X160900000Y-80600000D01*
X160900000Y-79400000D02*
X163100000Y-79400000D01*
X163100000Y-80600000D02*
X163100000Y-79400000D01*
X160900000Y-79400000D02*
X160900000Y-80600000D01*
G04 #@! TO.C,CP73*
X97100000Y-124600000D02*
X94900000Y-124600000D01*
X94900000Y-123400000D02*
X94900000Y-124600000D01*
X94900000Y-123400000D02*
X97100000Y-123400000D01*
X97100000Y-124600000D02*
X97100000Y-123400000D01*
G04 #@! TO.C,CP26*
X109100000Y-113400000D02*
X109100000Y-115600000D01*
X107900000Y-115600000D02*
X107900000Y-113400000D01*
X109100000Y-113400000D02*
X107900000Y-113400000D01*
X107900000Y-115600000D02*
X109100000Y-115600000D01*
G04 #@! TO.C,CP222*
X160900000Y-87400000D02*
X163100000Y-87400000D01*
X163100000Y-88600000D02*
X163100000Y-87400000D01*
X160900000Y-87400000D02*
X160900000Y-88600000D01*
X163100000Y-88600000D02*
X160900000Y-88600000D01*
G04 #@! TO.C,CP221*
X160900000Y-145400000D02*
X160900000Y-146600000D01*
X163100000Y-146600000D02*
X163100000Y-145400000D01*
X160900000Y-145400000D02*
X163100000Y-145400000D01*
X163100000Y-146600000D02*
X160900000Y-146600000D01*
G04 #@! TO.C,CP61*
X95900000Y-120600000D02*
X95900000Y-118400000D01*
X97100000Y-118400000D02*
X97100000Y-120600000D01*
X95900000Y-120600000D02*
X97100000Y-120600000D01*
X97100000Y-118400000D02*
X95900000Y-118400000D01*
G04 #@! TO.C,CP197*
X163100000Y-122600000D02*
X163100000Y-121400000D01*
X160900000Y-121400000D02*
X160900000Y-122600000D01*
X160900000Y-121400000D02*
X163100000Y-121400000D01*
X163100000Y-122600000D02*
X160900000Y-122600000D01*
G04 #@! TO.C,CP41*
X149100000Y-118400000D02*
X149100000Y-120600000D01*
X147900000Y-120600000D02*
X149100000Y-120600000D01*
X147900000Y-120600000D02*
X147900000Y-118400000D01*
X149100000Y-118400000D02*
X147900000Y-118400000D01*
G04 #@! TO.C,CP123*
X116900000Y-139400000D02*
X119100000Y-139400000D01*
X119100000Y-140600000D02*
X116900000Y-140600000D01*
X119100000Y-140600000D02*
X119100000Y-139400000D01*
X116900000Y-139400000D02*
X116900000Y-140600000D01*
G04 #@! TO.C,CP14*
X113100000Y-113400000D02*
X111900000Y-113400000D01*
X111900000Y-115600000D02*
X111900000Y-113400000D01*
X113100000Y-113400000D02*
X113100000Y-115600000D01*
X111900000Y-115600000D02*
X113100000Y-115600000D01*
G04 #@! TO.C,CP68*
X97100000Y-112600000D02*
X94900000Y-112600000D01*
X94900000Y-111400000D02*
X97100000Y-111400000D01*
X94900000Y-111400000D02*
X94900000Y-112600000D01*
X97100000Y-112600000D02*
X97100000Y-111400000D01*
G04 #@! TO.C,CP3*
X137900000Y-120600000D02*
X137900000Y-118400000D01*
X139100000Y-118400000D02*
X137900000Y-118400000D01*
X139100000Y-118400000D02*
X139100000Y-120600000D01*
X137900000Y-120600000D02*
X139100000Y-120600000D01*
G04 #@! TO.C,CP108*
X138900000Y-99400000D02*
X138900000Y-100600000D01*
X141100000Y-100600000D02*
X138900000Y-100600000D01*
X138900000Y-99400000D02*
X141100000Y-99400000D01*
X141100000Y-100600000D02*
X141100000Y-99400000D01*
G04 #@! TO.C,CP78*
X141100000Y-110600000D02*
X138900000Y-110600000D01*
X138900000Y-109400000D02*
X138900000Y-110600000D01*
X138900000Y-109400000D02*
X141100000Y-109400000D01*
X141100000Y-110600000D02*
X141100000Y-109400000D01*
G04 #@! TO.C,CP84*
X141100000Y-108600000D02*
X138900000Y-108600000D01*
X138900000Y-107400000D02*
X141100000Y-107400000D01*
X138900000Y-107400000D02*
X138900000Y-108600000D01*
X141100000Y-108600000D02*
X141100000Y-107400000D01*
G04 #@! TO.C,CP191*
X167100000Y-118400000D02*
X167100000Y-120600000D01*
X165900000Y-120600000D02*
X165900000Y-118400000D01*
X167100000Y-118400000D02*
X165900000Y-118400000D01*
X165900000Y-120600000D02*
X167100000Y-120600000D01*
G04 #@! TO.C,CP23*
X155100000Y-157400000D02*
X153900000Y-157400000D01*
X153900000Y-159600000D02*
X155100000Y-159600000D01*
X153900000Y-159600000D02*
X153900000Y-157400000D01*
X155100000Y-157400000D02*
X155100000Y-159600000D01*
G04 #@! TO.C,CP113*
X141100000Y-136600000D02*
X141100000Y-135400000D01*
X141100000Y-136600000D02*
X138900000Y-136600000D01*
X138900000Y-135400000D02*
X138900000Y-136600000D01*
X138900000Y-135400000D02*
X141100000Y-135400000D01*
G04 #@! TO.C,CP185*
X173100000Y-157400000D02*
X173100000Y-159600000D01*
X173100000Y-157400000D02*
X171900000Y-157400000D01*
X171900000Y-159600000D02*
X171900000Y-157400000D01*
X171900000Y-159600000D02*
X173100000Y-159600000D01*
G04 #@! TO.C,CP190*
X169100000Y-74400000D02*
X167900000Y-74400000D01*
X167900000Y-76600000D02*
X167900000Y-74400000D01*
X169100000Y-74400000D02*
X169100000Y-76600000D01*
X167900000Y-76600000D02*
X169100000Y-76600000D01*
G04 #@! TO.C,CP82*
X116900000Y-107400000D02*
X119100000Y-107400000D01*
X116900000Y-107400000D02*
X116900000Y-108600000D01*
X119100000Y-108600000D02*
X116900000Y-108600000D01*
X119100000Y-108600000D02*
X119100000Y-107400000D01*
G04 #@! TO.C,CP187*
X171100000Y-118400000D02*
X171100000Y-120600000D01*
X169900000Y-120600000D02*
X169900000Y-118400000D01*
X169900000Y-120600000D02*
X171100000Y-120600000D01*
X171100000Y-118400000D02*
X169900000Y-118400000D01*
G04 #@! TO.C,CP20*
X109900000Y-76600000D02*
X109900000Y-74400000D01*
X111100000Y-74400000D02*
X109900000Y-74400000D01*
X109900000Y-76600000D02*
X111100000Y-76600000D01*
X111100000Y-74400000D02*
X111100000Y-76600000D01*
G04 #@! TO.C,CP65*
X139900000Y-120600000D02*
X141100000Y-120600000D01*
X141100000Y-118400000D02*
X139900000Y-118400000D01*
X141100000Y-118400000D02*
X141100000Y-120600000D01*
X139900000Y-120600000D02*
X139900000Y-118400000D01*
G04 #@! TO.C,CP181*
X177100000Y-157400000D02*
X177100000Y-159600000D01*
X175900000Y-159600000D02*
X175900000Y-157400000D01*
X175900000Y-159600000D02*
X177100000Y-159600000D01*
X177100000Y-157400000D02*
X175900000Y-157400000D01*
G04 #@! TO.C,CP168*
X138900000Y-79400000D02*
X141100000Y-79400000D01*
X138900000Y-79400000D02*
X138900000Y-80600000D01*
X141100000Y-80600000D02*
X141100000Y-79400000D01*
X141100000Y-80600000D02*
X138900000Y-80600000D01*
G04 #@! TO.C,CP134*
X97100000Y-90600000D02*
X94900000Y-90600000D01*
X94900000Y-89400000D02*
X97100000Y-89400000D01*
X97100000Y-90600000D02*
X97100000Y-89400000D01*
X94900000Y-89400000D02*
X94900000Y-90600000D01*
G04 #@! TO.C,CP80*
X97100000Y-108600000D02*
X94900000Y-108600000D01*
X94900000Y-107400000D02*
X94900000Y-108600000D01*
X94900000Y-107400000D02*
X97100000Y-107400000D01*
X97100000Y-108600000D02*
X97100000Y-107400000D01*
G04 #@! TO.C,CP39*
X127100000Y-118400000D02*
X125900000Y-118400000D01*
X125900000Y-120600000D02*
X125900000Y-118400000D01*
X127100000Y-118400000D02*
X127100000Y-120600000D01*
X125900000Y-120600000D02*
X127100000Y-120600000D01*
G04 #@! TO.C,CP9*
X137100000Y-157400000D02*
X137100000Y-159600000D01*
X137100000Y-157400000D02*
X135900000Y-157400000D01*
X135900000Y-159600000D02*
X135900000Y-157400000D01*
X135900000Y-159600000D02*
X137100000Y-159600000D01*
G04 #@! TO.C,CP202*
X160900000Y-107400000D02*
X160900000Y-108600000D01*
X163100000Y-108600000D02*
X163100000Y-107400000D01*
X163100000Y-108600000D02*
X160900000Y-108600000D01*
X160900000Y-107400000D02*
X163100000Y-107400000D01*
G04 #@! TO.C,CP35*
X151100000Y-157400000D02*
X151100000Y-159600000D01*
X151100000Y-157400000D02*
X149900000Y-157400000D01*
X149900000Y-159600000D02*
X149900000Y-157400000D01*
X149900000Y-159600000D02*
X151100000Y-159600000D01*
G04 #@! TO.C,CP17*
X157100000Y-118400000D02*
X157100000Y-120600000D01*
X155900000Y-120600000D02*
X157100000Y-120600000D01*
X157100000Y-118400000D02*
X155900000Y-118400000D01*
X155900000Y-120600000D02*
X155900000Y-118400000D01*
G04 #@! TD*
M02*
