G04 #@! TF.GenerationSoftware,KiCad,Pcbnew,(6.0.2-0)*
G04 #@! TF.CreationDate,2022-05-19T22:51:58+02:00*
G04 #@! TF.ProjectId,nixie,6e697869-652e-46b6-9963-61645f706362,rev?*
G04 #@! TF.SameCoordinates,Original*
G04 #@! TF.FileFunction,Paste,Top*
G04 #@! TF.FilePolarity,Positive*
%FSLAX46Y46*%
G04 Gerber Fmt 4.6, Leading zero omitted, Abs format (unit mm)*
G04 Created by KiCad (PCBNEW (6.0.2-0)) date 2022-05-19 22:51:58*
%MOMM*%
%LPD*%
G01*
G04 APERTURE LIST*
G04 Aperture macros list*
%AMRoundRect*
0 Rectangle with rounded corners*
0 $1 Rounding radius*
0 $2 $3 $4 $5 $6 $7 $8 $9 X,Y pos of 4 corners*
0 Add a 4 corners polygon primitive as box body*
4,1,4,$2,$3,$4,$5,$6,$7,$8,$9,$2,$3,0*
0 Add four circle primitives for the rounded corners*
1,1,$1+$1,$2,$3*
1,1,$1+$1,$4,$5*
1,1,$1+$1,$6,$7*
1,1,$1+$1,$8,$9*
0 Add four rect primitives between the rounded corners*
20,1,$1+$1,$2,$3,$4,$5,0*
20,1,$1+$1,$4,$5,$6,$7,0*
20,1,$1+$1,$6,$7,$8,$9,0*
20,1,$1+$1,$8,$9,$2,$3,0*%
G04 Aperture macros list end*
%ADD10RoundRect,0.187500X0.053033X-0.318198X0.318198X-0.053033X-0.053033X0.318198X-0.318198X0.053033X0*%
%ADD11RoundRect,0.125000X-0.125000X-0.175000X0.125000X-0.175000X0.125000X0.175000X-0.125000X0.175000X0*%
%ADD12RoundRect,0.125000X-0.175000X0.125000X-0.175000X-0.125000X0.175000X-0.125000X0.175000X0.125000X0*%
%ADD13RoundRect,0.125000X0.175000X-0.125000X0.175000X0.125000X-0.175000X0.125000X-0.175000X-0.125000X0*%
%ADD14RoundRect,0.242500X0.242500X0.242500X-0.242500X0.242500X-0.242500X-0.242500X0.242500X-0.242500X0*%
%ADD15RoundRect,0.055000X0.357500X0.055000X-0.357500X0.055000X-0.357500X-0.055000X0.357500X-0.055000X0*%
%ADD16RoundRect,0.055000X0.055000X0.357500X-0.055000X0.357500X-0.055000X-0.357500X0.055000X-0.357500X0*%
%ADD17RoundRect,0.125000X0.125000X0.175000X-0.125000X0.175000X-0.125000X-0.175000X0.125000X-0.175000X0*%
%ADD18RoundRect,0.150000X0.150000X0.700000X-0.150000X0.700000X-0.150000X-0.700000X0.150000X-0.700000X0*%
%ADD19RoundRect,0.250000X0.250000X1.150000X-0.250000X1.150000X-0.250000X-1.150000X0.250000X-1.150000X0*%
G04 APERTURE END LIST*
D10*
G04 #@! TO.C,D493*
X149505025Y-90494975D03*
X150494975Y-89505025D03*
G04 #@! TD*
G04 #@! TO.C,D432*
X141505025Y-112494975D03*
X142494975Y-111505025D03*
G04 #@! TD*
G04 #@! TO.C,D439*
X143505025Y-90494975D03*
X144494975Y-89505025D03*
G04 #@! TD*
G04 #@! TO.C,D679*
X169505025Y-102494975D03*
X170494975Y-101505025D03*
G04 #@! TD*
G04 #@! TO.C,D700*
X171505025Y-108494975D03*
X172494975Y-107505025D03*
G04 #@! TD*
G04 #@! TO.C,D255*
X123505025Y-82494975D03*
X124494975Y-81505025D03*
G04 #@! TD*
G04 #@! TO.C,D564*
X157505025Y-88494975D03*
X158494975Y-87505025D03*
G04 #@! TD*
G04 #@! TO.C,D570*
X157505025Y-100494975D03*
X158494975Y-99505025D03*
G04 #@! TD*
G04 #@! TO.C,D57*
X101505025Y-82494975D03*
X102494975Y-81505025D03*
G04 #@! TD*
G04 #@! TO.C,D709*
X173505025Y-90494975D03*
X174494975Y-89505025D03*
G04 #@! TD*
G04 #@! TO.C,D748*
X177505025Y-96494975D03*
X178494975Y-95505025D03*
G04 #@! TD*
D11*
G04 #@! TO.C,C5*
X132900000Y-135600000D03*
X133900000Y-135600000D03*
G04 #@! TD*
D10*
G04 #@! TO.C,D394*
X137505025Y-108494975D03*
X138494975Y-107505025D03*
G04 #@! TD*
G04 #@! TO.C,D52*
X99505025Y-108494975D03*
X100494975Y-107505025D03*
G04 #@! TD*
G04 #@! TO.C,D627*
X163505025Y-106494975D03*
X164494975Y-105505025D03*
G04 #@! TD*
G04 #@! TO.C,D172*
X113505025Y-96494975D03*
X114494975Y-95505025D03*
G04 #@! TD*
G04 #@! TO.C,D176*
X113505025Y-104494975D03*
X114494975Y-103505025D03*
G04 #@! TD*
G04 #@! TO.C,D573*
X157505025Y-106494975D03*
X158494975Y-105505025D03*
G04 #@! TD*
G04 #@! TO.C,D769*
X179505025Y-102494975D03*
X180494975Y-101505025D03*
G04 #@! TD*
G04 #@! TO.C,D30*
X97505025Y-100494975D03*
X98494975Y-99505025D03*
G04 #@! TD*
D11*
G04 #@! TO.C,C2*
X110900000Y-136600000D03*
X111900000Y-136600000D03*
G04 #@! TD*
D10*
G04 #@! TO.C,D738*
X175505025Y-112494975D03*
X176494975Y-111505025D03*
G04 #@! TD*
G04 #@! TO.C,D300*
X127505025Y-100494975D03*
X128494975Y-99505025D03*
G04 #@! TD*
G04 #@! TO.C,D123*
X107505025Y-106494975D03*
X108494975Y-105505025D03*
G04 #@! TD*
G04 #@! TO.C,D362*
X135505025Y-80494975D03*
X136494975Y-79505025D03*
G04 #@! TD*
G04 #@! TO.C,D288*
X125505025Y-112494975D03*
X126494975Y-111505025D03*
G04 #@! TD*
G04 #@! TO.C,D301*
X127505025Y-102494975D03*
X128494975Y-101505025D03*
G04 #@! TD*
G04 #@! TO.C,D139*
X109505025Y-102494975D03*
X110494975Y-101505025D03*
G04 #@! TD*
G04 #@! TO.C,D546*
X155505025Y-88494975D03*
X156494975Y-87505025D03*
G04 #@! TD*
G04 #@! TO.C,D351*
X133505025Y-94494975D03*
X134494975Y-93505025D03*
G04 #@! TD*
G04 #@! TO.C,D672*
X169505025Y-88494975D03*
X170494975Y-87505025D03*
G04 #@! TD*
G04 #@! TO.C,D533*
X153505025Y-98494975D03*
X154494975Y-97505025D03*
G04 #@! TD*
G04 #@! TO.C,D250*
X121505025Y-108494975D03*
X122494975Y-107505025D03*
G04 #@! TD*
G04 #@! TO.C,D61*
X101505025Y-90494975D03*
X102494975Y-89505025D03*
G04 #@! TD*
G04 #@! TO.C,D127*
X109505025Y-78494975D03*
X110494975Y-77505025D03*
G04 #@! TD*
G04 #@! TO.C,D630*
X163505025Y-112494975D03*
X164494975Y-111505025D03*
G04 #@! TD*
G04 #@! TO.C,D320*
X129505025Y-104494975D03*
X130494975Y-103505025D03*
G04 #@! TD*
D11*
G04 #@! TO.C,R8*
X99450000Y-141400000D03*
X100450000Y-141400000D03*
G04 #@! TD*
D10*
G04 #@! TO.C,D722*
X175505025Y-80494975D03*
X176494975Y-79505025D03*
G04 #@! TD*
G04 #@! TO.C,D488*
X149505025Y-80494975D03*
X150494975Y-79505025D03*
G04 #@! TD*
G04 #@! TO.C,D496*
X149505025Y-96494975D03*
X150494975Y-95505025D03*
G04 #@! TD*
G04 #@! TO.C,D436*
X143505025Y-84494975D03*
X144494975Y-83505025D03*
G04 #@! TD*
G04 #@! TO.C,D152*
X111505025Y-92494975D03*
X112494975Y-91505025D03*
G04 #@! TD*
G04 #@! TO.C,D340*
X131505025Y-108494975D03*
X132494975Y-107505025D03*
G04 #@! TD*
G04 #@! TO.C,D149*
X111505025Y-86494975D03*
X112494975Y-85505025D03*
G04 #@! TD*
G04 #@! TO.C,D145*
X111505025Y-78494975D03*
X112494975Y-77505025D03*
G04 #@! TD*
G04 #@! TO.C,D527*
X153505025Y-86494975D03*
X154494975Y-85505025D03*
G04 #@! TD*
G04 #@! TO.C,D64*
X101505025Y-96494975D03*
X102494975Y-95505025D03*
G04 #@! TD*
G04 #@! TO.C,D492*
X149505025Y-88494975D03*
X150494975Y-87505025D03*
G04 #@! TD*
G04 #@! TO.C,D32*
X97505025Y-104494975D03*
X98494975Y-103505025D03*
G04 #@! TD*
G04 #@! TO.C,D571*
X157505025Y-102494975D03*
X158494975Y-101505025D03*
G04 #@! TD*
G04 #@! TO.C,D43*
X99505025Y-90494975D03*
X100494975Y-89505025D03*
G04 #@! TD*
G04 #@! TO.C,D572*
X157505025Y-104494975D03*
X158494975Y-103505025D03*
G04 #@! TD*
G04 #@! TO.C,D355*
X133505025Y-102494975D03*
X134494975Y-101505025D03*
G04 #@! TD*
G04 #@! TO.C,D639*
X165505025Y-94494975D03*
X166494975Y-93505025D03*
G04 #@! TD*
G04 #@! TO.C,D293*
X127505025Y-86494975D03*
X128494975Y-85505025D03*
G04 #@! TD*
G04 #@! TO.C,D506*
X151505025Y-80494975D03*
X152494975Y-79505025D03*
G04 #@! TD*
G04 #@! TO.C,D668*
X169505025Y-80494975D03*
X170494975Y-79505025D03*
G04 #@! TD*
G04 #@! TO.C,D338*
X131505025Y-104494975D03*
X132494975Y-103505025D03*
G04 #@! TD*
G04 #@! TO.C,D337*
X131505025Y-102494975D03*
X132494975Y-101505025D03*
G04 #@! TD*
G04 #@! TO.C,D220*
X119505025Y-84494975D03*
X120494975Y-83505025D03*
G04 #@! TD*
G04 #@! TO.C,D433*
X143505025Y-78494975D03*
X144494975Y-77505025D03*
G04 #@! TD*
G04 #@! TO.C,D537*
X153505025Y-106494975D03*
X154494975Y-105505025D03*
G04 #@! TD*
G04 #@! TO.C,D699*
X171505025Y-106494975D03*
X172494975Y-105505025D03*
G04 #@! TD*
G04 #@! TO.C,D267*
X123505025Y-106494975D03*
X124494975Y-105505025D03*
G04 #@! TD*
G04 #@! TO.C,D560*
X157505025Y-80494975D03*
X158494975Y-79505025D03*
G04 #@! TD*
G04 #@! TO.C,D14*
X95505025Y-104494975D03*
X96494975Y-103505025D03*
G04 #@! TD*
G04 #@! TO.C,D615*
X163505025Y-82494975D03*
X164494975Y-81505025D03*
G04 #@! TD*
G04 #@! TO.C,D308*
X129505025Y-80494975D03*
X130494975Y-79505025D03*
G04 #@! TD*
G04 #@! TO.C,D222*
X119505025Y-88494975D03*
X120494975Y-87505025D03*
G04 #@! TD*
G04 #@! TO.C,D782*
X181505025Y-92494975D03*
X182494975Y-91505025D03*
G04 #@! TD*
G04 #@! TO.C,D89*
X103505025Y-110494975D03*
X104494975Y-109505025D03*
G04 #@! TD*
G04 #@! TO.C,D548*
X155505025Y-92494975D03*
X156494975Y-91505025D03*
G04 #@! TD*
D12*
G04 #@! TO.C,R11*
X134800000Y-140100000D03*
X134800000Y-141100000D03*
G04 #@! TD*
D10*
G04 #@! TO.C,D26*
X97505025Y-92494975D03*
X98494975Y-91505025D03*
G04 #@! TD*
G04 #@! TO.C,D45*
X99505025Y-94494975D03*
X100494975Y-93505025D03*
G04 #@! TD*
G04 #@! TO.C,D90*
X103505025Y-112494975D03*
X104494975Y-111505025D03*
G04 #@! TD*
G04 #@! TO.C,D524*
X153505025Y-80494975D03*
X154494975Y-79505025D03*
G04 #@! TD*
G04 #@! TO.C,D285*
X125505025Y-106494975D03*
X126494975Y-105505025D03*
G04 #@! TD*
D13*
G04 #@! TO.C,R33*
X177900000Y-143000000D03*
X177900000Y-142000000D03*
G04 #@! TD*
D10*
G04 #@! TO.C,D404*
X139505025Y-92494975D03*
X140494975Y-91505025D03*
G04 #@! TD*
G04 #@! TO.C,D530*
X153505025Y-92494975D03*
X154494975Y-91505025D03*
G04 #@! TD*
G04 #@! TO.C,D302*
X127505025Y-104494975D03*
X128494975Y-103505025D03*
G04 #@! TD*
G04 #@! TO.C,D336*
X131505025Y-100494975D03*
X132494975Y-99505025D03*
G04 #@! TD*
G04 #@! TO.C,D711*
X173505025Y-94494975D03*
X174494975Y-93505025D03*
G04 #@! TD*
G04 #@! TO.C,D428*
X141505025Y-104494975D03*
X142494975Y-103505025D03*
G04 #@! TD*
G04 #@! TO.C,D756*
X177505025Y-112494975D03*
X178494975Y-111505025D03*
G04 #@! TD*
G04 #@! TO.C,D737*
X175505025Y-110494975D03*
X176494975Y-109505025D03*
G04 #@! TD*
G04 #@! TO.C,D611*
X161505025Y-110494975D03*
X162494975Y-109505025D03*
G04 #@! TD*
G04 #@! TO.C,D112*
X107500000Y-84500000D03*
X108489950Y-83510050D03*
G04 #@! TD*
G04 #@! TO.C,D486*
X147505025Y-112494975D03*
X148494975Y-111505025D03*
G04 #@! TD*
G04 #@! TO.C,D317*
X129505025Y-98494975D03*
X130494975Y-97505025D03*
G04 #@! TD*
G04 #@! TO.C,D242*
X121505025Y-92494975D03*
X122494975Y-91505025D03*
G04 #@! TD*
G04 #@! TO.C,D471*
X147505025Y-82494975D03*
X148494975Y-81505025D03*
G04 #@! TD*
G04 #@! TO.C,D721*
X175505025Y-78494975D03*
X176494975Y-77505025D03*
G04 #@! TD*
D13*
G04 #@! TO.C,C20*
X136600000Y-139200000D03*
X136600000Y-138200000D03*
G04 #@! TD*
D10*
G04 #@! TO.C,D644*
X165505025Y-104494975D03*
X166494975Y-103505025D03*
G04 #@! TD*
G04 #@! TO.C,D495*
X149505025Y-94494975D03*
X150494975Y-93505025D03*
G04 #@! TD*
G04 #@! TO.C,D31*
X97505025Y-102494975D03*
X98494975Y-101505025D03*
G04 #@! TD*
G04 #@! TO.C,D501*
X149505025Y-106494975D03*
X150494975Y-105505025D03*
G04 #@! TD*
G04 #@! TO.C,D369*
X135505025Y-94494975D03*
X136494975Y-93505025D03*
G04 #@! TD*
G04 #@! TO.C,D676*
X169505025Y-96494975D03*
X170494975Y-95505025D03*
G04 #@! TD*
G04 #@! TO.C,D534*
X153505025Y-100494975D03*
X154494975Y-99505025D03*
G04 #@! TD*
G04 #@! TO.C,D403*
X139505025Y-90494975D03*
X140494975Y-89505025D03*
G04 #@! TD*
G04 #@! TO.C,D324*
X129505025Y-112494975D03*
X130494975Y-111505025D03*
G04 #@! TD*
D11*
G04 #@! TO.C,R20*
X121450000Y-139600000D03*
X122450000Y-139600000D03*
G04 #@! TD*
D10*
G04 #@! TO.C,D377*
X135505025Y-110494975D03*
X136494975Y-109505025D03*
G04 #@! TD*
D13*
G04 #@! TO.C,C39*
X179700000Y-139200000D03*
X179700000Y-138200000D03*
G04 #@! TD*
D10*
G04 #@! TO.C,D124*
X107505025Y-108494975D03*
X108494975Y-107505025D03*
G04 #@! TD*
G04 #@! TO.C,D217*
X119505025Y-78494975D03*
X120494975Y-77505025D03*
G04 #@! TD*
G04 #@! TO.C,D665*
X167505025Y-110494975D03*
X168494975Y-109505025D03*
G04 #@! TD*
G04 #@! TO.C,D370*
X135505025Y-96494975D03*
X136494975Y-95505025D03*
G04 #@! TD*
G04 #@! TO.C,D704*
X173505025Y-80494975D03*
X174494975Y-79505025D03*
G04 #@! TD*
G04 #@! TO.C,D556*
X155505025Y-108494975D03*
X156494975Y-107505025D03*
G04 #@! TD*
G04 #@! TO.C,D133*
X109505025Y-90494975D03*
X110494975Y-89505025D03*
G04 #@! TD*
G04 #@! TO.C,D482*
X147505025Y-104494975D03*
X148494975Y-103505025D03*
G04 #@! TD*
G04 #@! TO.C,D3*
X95505025Y-82494975D03*
X96494975Y-81505025D03*
G04 #@! TD*
G04 #@! TO.C,D322*
X129505025Y-108494975D03*
X130494975Y-107505025D03*
G04 #@! TD*
G04 #@! TO.C,D689*
X171505025Y-86494975D03*
X172494975Y-85505025D03*
G04 #@! TD*
G04 #@! TO.C,D609*
X161505025Y-106494975D03*
X162494975Y-105505025D03*
G04 #@! TD*
G04 #@! TO.C,D407*
X139505025Y-98494975D03*
X140494975Y-97505025D03*
G04 #@! TD*
G04 #@! TO.C,D514*
X151505025Y-96494975D03*
X152494975Y-95505025D03*
G04 #@! TD*
G04 #@! TO.C,D632*
X165505025Y-80494975D03*
X166494975Y-79505025D03*
G04 #@! TD*
G04 #@! TO.C,D504*
X149505025Y-112494975D03*
X150494975Y-111505025D03*
G04 #@! TD*
G04 #@! TO.C,D419*
X141505025Y-86494975D03*
X142494975Y-85505025D03*
G04 #@! TD*
G04 #@! TO.C,D348*
X133505025Y-88494975D03*
X134494975Y-87505025D03*
G04 #@! TD*
G04 #@! TO.C,D120*
X107505025Y-100494975D03*
X108494975Y-99505025D03*
G04 #@! TD*
G04 #@! TO.C,D199*
X117505025Y-78494975D03*
X118494975Y-77505025D03*
G04 #@! TD*
G04 #@! TO.C,D770*
X179505025Y-104494975D03*
X180494975Y-103505025D03*
G04 #@! TD*
G04 #@! TO.C,D116*
X107505025Y-92494975D03*
X108494975Y-91505025D03*
G04 #@! TD*
G04 #@! TO.C,D154*
X111505025Y-96494975D03*
X112494975Y-95505025D03*
G04 #@! TD*
G04 #@! TO.C,D607*
X161505025Y-102494975D03*
X162494975Y-101505025D03*
G04 #@! TD*
G04 #@! TO.C,D523*
X153505025Y-78494975D03*
X154494975Y-77505025D03*
G04 #@! TD*
G04 #@! TO.C,D391*
X137505025Y-102494975D03*
X138494975Y-101505025D03*
G04 #@! TD*
G04 #@! TO.C,D253*
X123505025Y-78494975D03*
X124494975Y-77505025D03*
G04 #@! TD*
G04 #@! TO.C,D350*
X133505025Y-92494975D03*
X134494975Y-91505025D03*
G04 #@! TD*
G04 #@! TO.C,D792*
X181505025Y-112494975D03*
X182494975Y-111505025D03*
G04 #@! TD*
G04 #@! TO.C,D777*
X181505025Y-82494975D03*
X182494975Y-81505025D03*
G04 #@! TD*
G04 #@! TO.C,D633*
X165505025Y-82494975D03*
X166494975Y-81505025D03*
G04 #@! TD*
G04 #@! TO.C,D175*
X113505025Y-102494975D03*
X114494975Y-101505025D03*
G04 #@! TD*
G04 #@! TO.C,D157*
X111505025Y-102494975D03*
X112494975Y-101505025D03*
G04 #@! TD*
G04 #@! TO.C,D59*
X101505025Y-86494975D03*
X102494975Y-85505025D03*
G04 #@! TD*
G04 #@! TO.C,D641*
X165505025Y-98494975D03*
X166494975Y-97505025D03*
G04 #@! TD*
G04 #@! TO.C,D211*
X117505025Y-102494975D03*
X118494975Y-101505025D03*
G04 #@! TD*
D13*
G04 #@! TO.C,R24*
X156800000Y-143000000D03*
X156800000Y-142000000D03*
G04 #@! TD*
D10*
G04 #@! TO.C,D508*
X151505025Y-84494975D03*
X152494975Y-83505025D03*
G04 #@! TD*
G04 #@! TO.C,D485*
X147505025Y-110494975D03*
X148494975Y-109505025D03*
G04 #@! TD*
G04 #@! TO.C,D378*
X135505025Y-112494975D03*
X136494975Y-111505025D03*
G04 #@! TD*
G04 #@! TO.C,D50*
X99505025Y-104494975D03*
X100494975Y-103505025D03*
G04 #@! TD*
G04 #@! TO.C,D484*
X147505025Y-108494975D03*
X148494975Y-107505025D03*
G04 #@! TD*
G04 #@! TO.C,D164*
X113505025Y-80494975D03*
X114494975Y-79505025D03*
G04 #@! TD*
G04 #@! TO.C,D637*
X165505025Y-90494975D03*
X166494975Y-89505025D03*
G04 #@! TD*
G04 #@! TO.C,D257*
X123505025Y-86494975D03*
X124494975Y-85505025D03*
G04 #@! TD*
G04 #@! TO.C,D449*
X143505025Y-110494975D03*
X144494975Y-109505025D03*
G04 #@! TD*
G04 #@! TO.C,D216*
X117505025Y-112494975D03*
X118494975Y-111505025D03*
G04 #@! TD*
G04 #@! TO.C,D128*
X109505025Y-80494975D03*
X110494975Y-79505025D03*
G04 #@! TD*
G04 #@! TO.C,D353*
X133505025Y-98494975D03*
X134494975Y-97505025D03*
G04 #@! TD*
G04 #@! TO.C,D732*
X175505025Y-100494975D03*
X176494975Y-99505025D03*
G04 #@! TD*
G04 #@! TO.C,D97*
X105505025Y-90494975D03*
X106494975Y-89505025D03*
G04 #@! TD*
G04 #@! TO.C,D475*
X147505025Y-90494975D03*
X148494975Y-89505025D03*
G04 #@! TD*
G04 #@! TO.C,D509*
X151505025Y-86494975D03*
X152494975Y-85505025D03*
G04 #@! TD*
G04 #@! TO.C,D325*
X131505025Y-78494975D03*
X132494975Y-77505025D03*
G04 #@! TD*
G04 #@! TO.C,D148*
X111505025Y-84494975D03*
X112494975Y-83505025D03*
G04 #@! TD*
G04 #@! TO.C,D628*
X163505025Y-108494975D03*
X164494975Y-107505025D03*
G04 #@! TD*
G04 #@! TO.C,D606*
X161505025Y-100494975D03*
X162494975Y-99505025D03*
G04 #@! TD*
G04 #@! TO.C,D733*
X175505025Y-102494975D03*
X176494975Y-101505025D03*
G04 #@! TD*
G04 #@! TO.C,D35*
X97505025Y-110494975D03*
X98494975Y-109505025D03*
G04 #@! TD*
D11*
G04 #@! TO.C,R38*
X165450000Y-141400000D03*
X166450000Y-141400000D03*
G04 #@! TD*
D12*
G04 #@! TO.C,R6*
X114600000Y-141900000D03*
X114600000Y-142900000D03*
G04 #@! TD*
D10*
G04 #@! TO.C,D507*
X151505025Y-82494975D03*
X152494975Y-81505025D03*
G04 #@! TD*
G04 #@! TO.C,D757*
X179505025Y-78494975D03*
X180494975Y-77505025D03*
G04 #@! TD*
D13*
G04 #@! TO.C,C13*
X114600000Y-139200000D03*
X114600000Y-138200000D03*
G04 #@! TD*
D10*
G04 #@! TO.C,D786*
X181505025Y-100494975D03*
X182494975Y-99505025D03*
G04 #@! TD*
G04 #@! TO.C,D640*
X165505025Y-96494975D03*
X166494975Y-95505025D03*
G04 #@! TD*
G04 #@! TO.C,D342*
X131505025Y-112494975D03*
X132494975Y-111505025D03*
G04 #@! TD*
G04 #@! TO.C,D790*
X181505025Y-108494975D03*
X182494975Y-107505025D03*
G04 #@! TD*
G04 #@! TO.C,D429*
X141505025Y-106494975D03*
X142494975Y-105505025D03*
G04 #@! TD*
G04 #@! TO.C,D476*
X147505025Y-92494975D03*
X148494975Y-91505025D03*
G04 #@! TD*
G04 #@! TO.C,D190*
X115505025Y-96494975D03*
X116494975Y-95505025D03*
G04 #@! TD*
G04 #@! TO.C,D497*
X149505025Y-98494975D03*
X150494975Y-97505025D03*
G04 #@! TD*
G04 #@! TO.C,D724*
X175505025Y-84494975D03*
X176494975Y-83505025D03*
G04 #@! TD*
G04 #@! TO.C,D254*
X123505025Y-80494975D03*
X124494975Y-79505025D03*
G04 #@! TD*
G04 #@! TO.C,D194*
X115505025Y-104494975D03*
X116494975Y-103505025D03*
G04 #@! TD*
G04 #@! TO.C,D386*
X137505025Y-92494975D03*
X138494975Y-91505025D03*
G04 #@! TD*
G04 #@! TO.C,D247*
X121505025Y-102494975D03*
X122494975Y-101505025D03*
G04 #@! TD*
G04 #@! TO.C,D307*
X129505025Y-78494975D03*
X130494975Y-77505025D03*
G04 #@! TD*
D11*
G04 #@! TO.C,R39*
X165450000Y-138700000D03*
X166450000Y-138700000D03*
G04 #@! TD*
D10*
G04 #@! TO.C,D762*
X179505025Y-88494975D03*
X180494975Y-87505025D03*
G04 #@! TD*
G04 #@! TO.C,D515*
X151505025Y-98494975D03*
X152494975Y-97505025D03*
G04 #@! TD*
G04 #@! TO.C,D619*
X163505025Y-90494975D03*
X164494975Y-89505025D03*
G04 #@! TD*
G04 #@! TO.C,D683*
X169505025Y-110494975D03*
X170494975Y-109505025D03*
G04 #@! TD*
G04 #@! TO.C,D763*
X179505025Y-90494975D03*
X180494975Y-89505025D03*
G04 #@! TD*
G04 #@! TO.C,D240*
X121505025Y-88494975D03*
X122494975Y-87505025D03*
G04 #@! TD*
G04 #@! TO.C,D720*
X173505025Y-112494975D03*
X174494975Y-111505025D03*
G04 #@! TD*
G04 #@! TO.C,D674*
X169505025Y-92494975D03*
X170494975Y-91505025D03*
G04 #@! TD*
G04 #@! TO.C,D747*
X177505025Y-94494975D03*
X178494975Y-93505025D03*
G04 #@! TD*
D12*
G04 #@! TO.C,C42*
X166400000Y-136850000D03*
X166400000Y-137850000D03*
G04 #@! TD*
D10*
G04 #@! TO.C,D384*
X137505025Y-88494975D03*
X138494975Y-87505025D03*
G04 #@! TD*
G04 #@! TO.C,D294*
X127505025Y-88494975D03*
X128494975Y-87505025D03*
G04 #@! TD*
G04 #@! TO.C,D517*
X151505025Y-102494975D03*
X152494975Y-101505025D03*
G04 #@! TD*
G04 #@! TO.C,D519*
X151505025Y-106494975D03*
X152494975Y-105505025D03*
G04 #@! TD*
G04 #@! TO.C,D401*
X139505025Y-86494975D03*
X140494975Y-85505025D03*
G04 #@! TD*
G04 #@! TO.C,D558*
X155505025Y-112494975D03*
X156494975Y-111505025D03*
G04 #@! TD*
G04 #@! TO.C,D117*
X107505025Y-94494975D03*
X108494975Y-93505025D03*
G04 #@! TD*
G04 #@! TO.C,D511*
X151505025Y-90494975D03*
X152494975Y-89505025D03*
G04 #@! TD*
G04 #@! TO.C,D767*
X179505025Y-98494975D03*
X180494975Y-97505025D03*
G04 #@! TD*
G04 #@! TO.C,D675*
X169505025Y-94494975D03*
X170494975Y-93505025D03*
G04 #@! TD*
G04 #@! TO.C,D24*
X97505025Y-88494975D03*
X98494975Y-87505025D03*
G04 #@! TD*
G04 #@! TO.C,D791*
X181505025Y-110494975D03*
X182494975Y-109505025D03*
G04 #@! TD*
G04 #@! TO.C,D621*
X163505025Y-94494975D03*
X164494975Y-93505025D03*
G04 #@! TD*
G04 #@! TO.C,D188*
X115505025Y-92494975D03*
X116494975Y-91505025D03*
G04 #@! TD*
D13*
G04 #@! TO.C,R34*
X178800000Y-143000000D03*
X178800000Y-142000000D03*
G04 #@! TD*
D10*
G04 #@! TO.C,D179*
X113505025Y-110494975D03*
X114494975Y-109505025D03*
G04 #@! TD*
G04 #@! TO.C,D323*
X129505025Y-110494975D03*
X130494975Y-109505025D03*
G04 #@! TD*
D13*
G04 #@! TO.C,C15*
X112800000Y-139200000D03*
X112800000Y-138200000D03*
G04 #@! TD*
D10*
G04 #@! TO.C,D129*
X109505025Y-82494975D03*
X110494975Y-81505025D03*
G04 #@! TD*
G04 #@! TO.C,D95*
X105505025Y-86494975D03*
X106494975Y-85505025D03*
G04 #@! TD*
D13*
G04 #@! TO.C,C21*
X135700000Y-139200000D03*
X135700000Y-138200000D03*
G04 #@! TD*
D10*
G04 #@! TO.C,D568*
X157505025Y-96494975D03*
X158494975Y-95505025D03*
G04 #@! TD*
G04 #@! TO.C,D478*
X147505025Y-96494975D03*
X148494975Y-95505025D03*
G04 #@! TD*
G04 #@! TO.C,D778*
X181505025Y-84494975D03*
X182494975Y-83505025D03*
G04 #@! TD*
G04 #@! TO.C,D425*
X141505025Y-98494975D03*
X142494975Y-97505025D03*
G04 #@! TD*
G04 #@! TO.C,D20*
X97505025Y-80489950D03*
X98494975Y-79500000D03*
G04 #@! TD*
G04 #@! TO.C,D221*
X119505025Y-86494975D03*
X120494975Y-85505025D03*
G04 #@! TD*
G04 #@! TO.C,D525*
X153505025Y-82494975D03*
X154494975Y-81505025D03*
G04 #@! TD*
G04 #@! TO.C,D198*
X115505025Y-112494975D03*
X116494975Y-111505025D03*
G04 #@! TD*
G04 #@! TO.C,D376*
X135505025Y-108494975D03*
X136494975Y-107505025D03*
G04 #@! TD*
G04 #@! TO.C,D771*
X179505025Y-106494975D03*
X180494975Y-105505025D03*
G04 #@! TD*
G04 #@! TO.C,D132*
X109505025Y-88494975D03*
X110494975Y-87505025D03*
G04 #@! TD*
G04 #@! TO.C,D319*
X129505025Y-102494975D03*
X130494975Y-101505025D03*
G04 #@! TD*
G04 #@! TO.C,D731*
X175505025Y-98494975D03*
X176494975Y-97505025D03*
G04 #@! TD*
G04 #@! TO.C,D10*
X95505025Y-96494975D03*
X96494975Y-95505025D03*
G04 #@! TD*
D11*
G04 #@! TO.C,C6*
X132900000Y-136600000D03*
X133900000Y-136600000D03*
G04 #@! TD*
D10*
G04 #@! TO.C,D109*
X107505025Y-78494975D03*
X108494975Y-77505025D03*
G04 #@! TD*
G04 #@! TO.C,D180*
X113505025Y-112494975D03*
X114494975Y-111505025D03*
G04 #@! TD*
D11*
G04 #@! TO.C,R29*
X143450000Y-138700000D03*
X144450000Y-138700000D03*
G04 #@! TD*
D10*
G04 #@! TO.C,D246*
X121505025Y-100494975D03*
X122494975Y-99505025D03*
G04 #@! TD*
G04 #@! TO.C,D373*
X135505025Y-102494975D03*
X136494975Y-101505025D03*
G04 #@! TD*
G04 #@! TO.C,D647*
X165505025Y-110494975D03*
X166494975Y-109505025D03*
G04 #@! TD*
G04 #@! TO.C,D434*
X143505025Y-80494975D03*
X144494975Y-79505025D03*
G04 #@! TD*
G04 #@! TO.C,D210*
X117505025Y-100494975D03*
X118494975Y-99505025D03*
G04 #@! TD*
G04 #@! TO.C,D565*
X157505025Y-90494975D03*
X158494975Y-89505025D03*
G04 #@! TD*
G04 #@! TO.C,D629*
X163505025Y-110494975D03*
X164494975Y-109505025D03*
G04 #@! TD*
G04 #@! TO.C,D388*
X137505025Y-96494975D03*
X138494975Y-95505025D03*
G04 #@! TD*
G04 #@! TO.C,D344*
X133505025Y-80494975D03*
X134494975Y-79505025D03*
G04 #@! TD*
G04 #@! TO.C,D645*
X165505025Y-106494975D03*
X166494975Y-105505025D03*
G04 #@! TD*
G04 #@! TO.C,D155*
X111505025Y-98494975D03*
X112494975Y-97505025D03*
G04 #@! TD*
G04 #@! TO.C,D470*
X147505025Y-80494975D03*
X148494975Y-79505025D03*
G04 #@! TD*
D11*
G04 #@! TO.C,C37*
X176900000Y-138600000D03*
X177900000Y-138600000D03*
G04 #@! TD*
D10*
G04 #@! TO.C,D667*
X169505025Y-78494975D03*
X170494975Y-77505025D03*
G04 #@! TD*
G04 #@! TO.C,D717*
X173505025Y-106494975D03*
X174494975Y-105505025D03*
G04 #@! TD*
G04 #@! TO.C,D417*
X141505025Y-82494975D03*
X142494975Y-81505025D03*
G04 #@! TD*
G04 #@! TO.C,D269*
X123505025Y-110494975D03*
X124494975Y-109505025D03*
G04 #@! TD*
G04 #@! TO.C,D187*
X115505025Y-90494975D03*
X116494975Y-89505025D03*
G04 #@! TD*
G04 #@! TO.C,D399*
X139505025Y-82494975D03*
X140494975Y-81505025D03*
G04 #@! TD*
G04 #@! TO.C,D375*
X135505025Y-106494975D03*
X136494975Y-105505025D03*
G04 #@! TD*
G04 #@! TO.C,D460*
X145505025Y-96494975D03*
X146494975Y-95505025D03*
G04 #@! TD*
G04 #@! TO.C,D658*
X167505025Y-96494975D03*
X168494975Y-95505025D03*
G04 #@! TD*
G04 #@! TO.C,D494*
X149505025Y-92494975D03*
X150494975Y-91505025D03*
G04 #@! TD*
G04 #@! TO.C,D582*
X159505025Y-88494975D03*
X160494975Y-87505025D03*
G04 #@! TD*
G04 #@! TO.C,D580*
X159505025Y-84494975D03*
X160494975Y-83505025D03*
G04 #@! TD*
D12*
G04 #@! TO.C,R1*
X112800000Y-140100000D03*
X112800000Y-141100000D03*
G04 #@! TD*
D10*
G04 #@! TO.C,D1*
X95505025Y-78494975D03*
X96494975Y-77505025D03*
G04 #@! TD*
G04 #@! TO.C,D463*
X145505025Y-102494975D03*
X146494975Y-101505025D03*
G04 #@! TD*
G04 #@! TO.C,D705*
X173505025Y-82494975D03*
X174494975Y-81505025D03*
G04 #@! TD*
G04 #@! TO.C,D333*
X131505025Y-94494975D03*
X132494975Y-93505025D03*
G04 #@! TD*
G04 #@! TO.C,D680*
X169505025Y-104494975D03*
X170494975Y-103505025D03*
G04 #@! TD*
G04 #@! TO.C,D631*
X165505025Y-78494975D03*
X166494975Y-77505025D03*
G04 #@! TD*
D11*
G04 #@! TO.C,C7*
X132900000Y-137600000D03*
X133900000Y-137600000D03*
G04 #@! TD*
D10*
G04 #@! TO.C,D15*
X95505025Y-106494975D03*
X96494975Y-105505025D03*
G04 #@! TD*
G04 #@! TO.C,D21*
X97505025Y-82494975D03*
X98494975Y-81505025D03*
G04 #@! TD*
G04 #@! TO.C,D96*
X105505025Y-88494975D03*
X106494975Y-87505025D03*
G04 #@! TD*
G04 #@! TO.C,D144*
X109505025Y-112494975D03*
X110494975Y-111505025D03*
G04 #@! TD*
G04 #@! TO.C,D63*
X101505025Y-94494975D03*
X102494975Y-93505025D03*
G04 #@! TD*
G04 #@! TO.C,D331*
X131505025Y-90494975D03*
X132494975Y-89505025D03*
G04 #@! TD*
G04 #@! TO.C,D714*
X173505025Y-100494975D03*
X174494975Y-99505025D03*
G04 #@! TD*
G04 #@! TO.C,D341*
X131505025Y-110494975D03*
X132494975Y-109505025D03*
G04 #@! TD*
G04 #@! TO.C,D77*
X103505025Y-86494975D03*
X104494975Y-85505025D03*
G04 #@! TD*
G04 #@! TO.C,D209*
X117505025Y-98494975D03*
X118494975Y-97505025D03*
G04 #@! TD*
G04 #@! TO.C,D505*
X151505025Y-78494975D03*
X152494975Y-77505025D03*
G04 #@! TD*
G04 #@! TO.C,D643*
X165505025Y-102494975D03*
X166494975Y-101505025D03*
G04 #@! TD*
G04 #@! TO.C,D583*
X159505025Y-90494975D03*
X160494975Y-89505025D03*
G04 #@! TD*
G04 #@! TO.C,D591*
X159505025Y-106494975D03*
X160494975Y-105505025D03*
G04 #@! TD*
G04 #@! TO.C,D304*
X127505025Y-108494975D03*
X128494975Y-107505025D03*
G04 #@! TD*
G04 #@! TO.C,D349*
X133505025Y-90494975D03*
X134494975Y-89505025D03*
G04 #@! TD*
G04 #@! TO.C,D744*
X177505025Y-88494975D03*
X178494975Y-87505025D03*
G04 #@! TD*
G04 #@! TO.C,D82*
X103505025Y-96494975D03*
X104494975Y-95505025D03*
G04 #@! TD*
G04 #@! TO.C,D422*
X141505025Y-92494975D03*
X142494975Y-91505025D03*
G04 #@! TD*
G04 #@! TO.C,D759*
X179505025Y-82494975D03*
X180494975Y-81505025D03*
G04 #@! TD*
G04 #@! TO.C,D85*
X103505025Y-102494975D03*
X104494975Y-101505025D03*
G04 #@! TD*
G04 #@! TO.C,D441*
X143505025Y-94494975D03*
X144494975Y-93505025D03*
G04 #@! TD*
G04 #@! TO.C,D522*
X151505025Y-112494975D03*
X152494975Y-111505025D03*
G04 #@! TD*
G04 #@! TO.C,D397*
X139505025Y-78494975D03*
X140494975Y-77505025D03*
G04 #@! TD*
G04 #@! TO.C,D673*
X169505025Y-90494975D03*
X170494975Y-89505025D03*
G04 #@! TD*
G04 #@! TO.C,D649*
X167505025Y-78494975D03*
X168494975Y-77505025D03*
G04 #@! TD*
G04 #@! TO.C,D138*
X109505025Y-100494975D03*
X110494975Y-99505025D03*
G04 #@! TD*
G04 #@! TO.C,D424*
X141505025Y-96494975D03*
X142494975Y-95505025D03*
G04 #@! TD*
G04 #@! TO.C,D131*
X109505025Y-86494975D03*
X110494975Y-85505025D03*
G04 #@! TD*
G04 #@! TO.C,D192*
X115505025Y-100494975D03*
X116494975Y-99505025D03*
G04 #@! TD*
D14*
G04 #@! TO.C,U3*
X151200000Y-140200000D03*
X148800000Y-139000000D03*
X148800000Y-137800000D03*
X150000000Y-139000000D03*
X148800000Y-140200000D03*
X150000000Y-137800000D03*
X151200000Y-139000000D03*
X151200000Y-137800000D03*
X150000000Y-140200000D03*
D15*
X152437500Y-140800000D03*
X152437500Y-140400000D03*
X152437500Y-140000000D03*
X152437500Y-139600000D03*
X152437500Y-139200000D03*
X152437500Y-138800000D03*
X152437500Y-138400000D03*
X152437500Y-138000000D03*
X152437500Y-137600000D03*
X152437500Y-137200000D03*
D16*
X151800000Y-136562500D03*
X151400000Y-136562500D03*
X151000000Y-136562500D03*
X150600000Y-136562500D03*
X150200000Y-136562500D03*
X149800000Y-136562500D03*
X149400000Y-136562500D03*
X149000000Y-136562500D03*
X148600000Y-136562500D03*
X148200000Y-136562500D03*
D15*
X147562500Y-137200000D03*
X147562500Y-137600000D03*
X147562500Y-138000000D03*
X147562500Y-138400000D03*
X147562500Y-138800000D03*
X147562500Y-139200000D03*
X147562500Y-139600000D03*
X147562500Y-140000000D03*
X147562500Y-140400000D03*
X147562500Y-140800000D03*
D16*
X148200000Y-141437500D03*
X148600000Y-141437500D03*
X149000000Y-141437500D03*
X149400000Y-141437500D03*
X149800000Y-141437500D03*
X150200000Y-141437500D03*
X150600000Y-141437500D03*
X151000000Y-141437500D03*
X151400000Y-141437500D03*
X151800000Y-141437500D03*
G04 #@! TD*
D12*
G04 #@! TO.C,C16*
X101300000Y-136850000D03*
X101300000Y-137850000D03*
G04 #@! TD*
D10*
G04 #@! TO.C,D372*
X135505025Y-100494975D03*
X136494975Y-99505025D03*
G04 #@! TD*
G04 #@! TO.C,D712*
X173505025Y-96494975D03*
X174494975Y-95505025D03*
G04 #@! TD*
G04 #@! TO.C,D768*
X179505025Y-100494975D03*
X180494975Y-99505025D03*
G04 #@! TD*
G04 #@! TO.C,D443*
X143505025Y-98494975D03*
X144494975Y-97505025D03*
G04 #@! TD*
G04 #@! TO.C,D290*
X127505025Y-80494975D03*
X128494975Y-79505025D03*
G04 #@! TD*
G04 #@! TO.C,D125*
X107505025Y-110494975D03*
X108494975Y-109505025D03*
G04 #@! TD*
D13*
G04 #@! TO.C,R7*
X111000000Y-142900000D03*
X111000000Y-141900000D03*
G04 #@! TD*
D10*
G04 #@! TO.C,D598*
X161505025Y-84494975D03*
X162494975Y-83505025D03*
G04 #@! TD*
G04 #@! TO.C,D328*
X131505025Y-84494975D03*
X132494975Y-83505025D03*
G04 #@! TD*
D13*
G04 #@! TO.C,C27*
X156800000Y-139200000D03*
X156800000Y-138200000D03*
G04 #@! TD*
D12*
G04 #@! TO.C,C30*
X143500000Y-136850000D03*
X143500000Y-137850000D03*
G04 #@! TD*
D10*
G04 #@! TO.C,D53*
X99505025Y-110494975D03*
X100494975Y-109505025D03*
G04 #@! TD*
G04 #@! TO.C,D442*
X143505025Y-96494975D03*
X144494975Y-95505025D03*
G04 #@! TD*
D12*
G04 #@! TO.C,C24*
X122400000Y-136850000D03*
X122400000Y-137850000D03*
G04 #@! TD*
D10*
G04 #@! TO.C,D550*
X155505025Y-96494975D03*
X156494975Y-95505025D03*
G04 #@! TD*
D12*
G04 #@! TO.C,C32*
X145300000Y-136850000D03*
X145300000Y-137850000D03*
G04 #@! TD*
D10*
G04 #@! TO.C,D158*
X111505025Y-104494975D03*
X112494975Y-103505025D03*
G04 #@! TD*
G04 #@! TO.C,D706*
X173505025Y-84494975D03*
X174494975Y-83505025D03*
G04 #@! TD*
G04 #@! TO.C,D772*
X179505025Y-108494975D03*
X180494975Y-107505025D03*
G04 #@! TD*
D11*
G04 #@! TO.C,R9*
X99450000Y-138700000D03*
X100450000Y-138700000D03*
G04 #@! TD*
D10*
G04 #@! TO.C,D781*
X181505025Y-90494975D03*
X182494975Y-89505025D03*
G04 #@! TD*
D13*
G04 #@! TO.C,R13*
X133900000Y-142900000D03*
X133900000Y-141900000D03*
G04 #@! TD*
D10*
G04 #@! TO.C,D405*
X139505025Y-94494975D03*
X140494975Y-93505025D03*
G04 #@! TD*
D17*
G04 #@! TO.C,C44*
X166450000Y-140500000D03*
X165450000Y-140500000D03*
G04 #@! TD*
D10*
G04 #@! TO.C,D653*
X167505025Y-86494975D03*
X168494975Y-85505025D03*
G04 #@! TD*
G04 #@! TO.C,D283*
X125505025Y-102494975D03*
X126494975Y-101505025D03*
G04 #@! TD*
G04 #@! TO.C,D600*
X161505025Y-88494975D03*
X162494975Y-87505025D03*
G04 #@! TD*
G04 #@! TO.C,D761*
X179505025Y-86494975D03*
X180494975Y-85505025D03*
G04 #@! TD*
G04 #@! TO.C,D490*
X149505025Y-84494975D03*
X150494975Y-83505025D03*
G04 #@! TD*
G04 #@! TO.C,D298*
X127505025Y-96494975D03*
X128494975Y-95505025D03*
G04 #@! TD*
G04 #@! TO.C,D745*
X177505025Y-90494975D03*
X178494975Y-89505025D03*
G04 #@! TD*
G04 #@! TO.C,D18*
X95505025Y-112494975D03*
X96494975Y-111505025D03*
G04 #@! TD*
D13*
G04 #@! TO.C,R27*
X155000000Y-143000000D03*
X155000000Y-142000000D03*
G04 #@! TD*
D10*
G04 #@! TO.C,D104*
X105505025Y-104494975D03*
X106494975Y-103505025D03*
G04 #@! TD*
G04 #@! TO.C,D200*
X117505025Y-80494975D03*
X118494975Y-79505025D03*
G04 #@! TD*
G04 #@! TO.C,D411*
X139505025Y-106494975D03*
X140494975Y-105505025D03*
G04 #@! TD*
G04 #@! TO.C,D663*
X167505025Y-106494975D03*
X168494975Y-105505025D03*
G04 #@! TD*
G04 #@! TO.C,D779*
X181505025Y-86494975D03*
X182494975Y-85505025D03*
G04 #@! TD*
G04 #@! TO.C,D352*
X133505025Y-96494975D03*
X134494975Y-95505025D03*
G04 #@! TD*
G04 #@! TO.C,D91*
X105505025Y-78494975D03*
X106494975Y-77505025D03*
G04 #@! TD*
D11*
G04 #@! TO.C,C35*
X176900000Y-136600000D03*
X177900000Y-136600000D03*
G04 #@! TD*
D10*
G04 #@! TO.C,D638*
X165505025Y-92494975D03*
X166494975Y-91505025D03*
G04 #@! TD*
G04 #@! TO.C,D48*
X99505025Y-100494975D03*
X100494975Y-99505025D03*
G04 #@! TD*
G04 #@! TO.C,D581*
X159505025Y-86494975D03*
X160494975Y-85505025D03*
G04 #@! TD*
G04 #@! TO.C,D588*
X159505025Y-100494975D03*
X160494975Y-99505025D03*
G04 #@! TD*
G04 #@! TO.C,D585*
X159505025Y-94494975D03*
X160494975Y-93505025D03*
G04 #@! TD*
G04 #@! TO.C,D177*
X113505025Y-106494975D03*
X114494975Y-105505025D03*
G04 #@! TD*
G04 #@! TO.C,D510*
X151505025Y-88494975D03*
X152494975Y-87505025D03*
G04 #@! TD*
G04 #@! TO.C,D480*
X147505025Y-100494975D03*
X148494975Y-99505025D03*
G04 #@! TD*
D17*
G04 #@! TO.C,C26*
X122450000Y-140500000D03*
X121450000Y-140500000D03*
G04 #@! TD*
D10*
G04 #@! TO.C,D202*
X117505025Y-84494975D03*
X118494975Y-83505025D03*
G04 #@! TD*
G04 #@! TO.C,D410*
X139505025Y-104494975D03*
X140494975Y-103505025D03*
G04 #@! TD*
G04 #@! TO.C,D108*
X105505025Y-112494975D03*
X106494975Y-111505025D03*
G04 #@! TD*
G04 #@! TO.C,D551*
X155505025Y-98494975D03*
X156494975Y-97505025D03*
G04 #@! TD*
G04 #@! TO.C,D382*
X137505025Y-84494975D03*
X138494975Y-83505025D03*
G04 #@! TD*
G04 #@! TO.C,D473*
X147505025Y-86494975D03*
X148494975Y-85505025D03*
G04 #@! TD*
G04 #@! TO.C,D418*
X141505025Y-84494975D03*
X142494975Y-83505025D03*
G04 #@! TD*
G04 #@! TO.C,D702*
X171505025Y-112494975D03*
X172494975Y-111505025D03*
G04 #@! TD*
G04 #@! TO.C,D248*
X121505025Y-104494975D03*
X122494975Y-103505025D03*
G04 #@! TD*
G04 #@! TO.C,D23*
X97505025Y-86494975D03*
X98494975Y-85505025D03*
G04 #@! TD*
G04 #@! TO.C,D364*
X135505025Y-84494975D03*
X136494975Y-83505025D03*
G04 #@! TD*
G04 #@! TO.C,D186*
X115505025Y-88494975D03*
X116494975Y-87505025D03*
G04 #@! TD*
G04 #@! TO.C,D652*
X167505025Y-84494975D03*
X168494975Y-83505025D03*
G04 #@! TD*
G04 #@! TO.C,D614*
X163505025Y-80494975D03*
X164494975Y-79505025D03*
G04 #@! TD*
G04 #@! TO.C,D684*
X169505025Y-112494975D03*
X170494975Y-111505025D03*
G04 #@! TD*
G04 #@! TO.C,D618*
X163505025Y-88494975D03*
X164494975Y-87505025D03*
G04 #@! TD*
G04 #@! TO.C,D450*
X143505025Y-112494975D03*
X144494975Y-111505025D03*
G04 #@! TD*
G04 #@! TO.C,D225*
X119505025Y-94494975D03*
X120494975Y-93505025D03*
G04 #@! TD*
G04 #@! TO.C,D723*
X175505025Y-82494975D03*
X176494975Y-81505025D03*
G04 #@! TD*
G04 #@! TO.C,D420*
X141505025Y-88494975D03*
X142494975Y-87505025D03*
G04 #@! TD*
G04 #@! TO.C,D135*
X109505025Y-94494975D03*
X110494975Y-93505025D03*
G04 #@! TD*
G04 #@! TO.C,D292*
X127505025Y-84494975D03*
X128494975Y-83505025D03*
G04 #@! TD*
G04 #@! TO.C,D251*
X121505025Y-110494975D03*
X122494975Y-109505025D03*
G04 #@! TD*
G04 #@! TO.C,D469*
X147505025Y-78494975D03*
X148494975Y-77505025D03*
G04 #@! TD*
G04 #@! TO.C,D415*
X141505025Y-78494975D03*
X142494975Y-77505025D03*
G04 #@! TD*
G04 #@! TO.C,D396*
X137505025Y-112494975D03*
X138494975Y-111505025D03*
G04 #@! TD*
G04 #@! TO.C,D725*
X175505025Y-86460732D03*
X176494975Y-85470782D03*
G04 #@! TD*
G04 #@! TO.C,D612*
X161505025Y-112494975D03*
X162494975Y-111505025D03*
G04 #@! TD*
G04 #@! TO.C,D613*
X163505025Y-78494975D03*
X164494975Y-77505025D03*
G04 #@! TD*
G04 #@! TO.C,D367*
X135505025Y-90494975D03*
X136494975Y-89505025D03*
G04 #@! TD*
D13*
G04 #@! TO.C,R25*
X157700000Y-143000000D03*
X157700000Y-142000000D03*
G04 #@! TD*
D10*
G04 #@! TO.C,D666*
X167505025Y-112494975D03*
X168494975Y-111505025D03*
G04 #@! TD*
G04 #@! TO.C,D361*
X135505025Y-78494975D03*
X136494975Y-77505025D03*
G04 #@! TD*
G04 #@! TO.C,D282*
X125505025Y-100494975D03*
X126494975Y-99505025D03*
G04 #@! TD*
G04 #@! TO.C,D287*
X125505025Y-110494975D03*
X126494975Y-109505025D03*
G04 #@! TD*
G04 #@! TO.C,D224*
X119505025Y-92494975D03*
X120494975Y-91505025D03*
G04 #@! TD*
G04 #@! TO.C,D710*
X173505025Y-92494975D03*
X174494975Y-91505025D03*
G04 #@! TD*
G04 #@! TO.C,D764*
X179505025Y-92494975D03*
X180494975Y-91505025D03*
G04 #@! TD*
G04 #@! TO.C,D664*
X167505025Y-108494975D03*
X168494975Y-107505025D03*
G04 #@! TD*
G04 #@! TO.C,D115*
X107505025Y-90494975D03*
X108494975Y-89505025D03*
G04 #@! TD*
G04 #@! TO.C,D223*
X119505025Y-90494975D03*
X120494975Y-89505025D03*
G04 #@! TD*
G04 #@! TO.C,D36*
X97505025Y-112494975D03*
X98494975Y-111505025D03*
G04 #@! TD*
G04 #@! TO.C,D736*
X175505025Y-108494975D03*
X176494975Y-107505025D03*
G04 #@! TD*
G04 #@! TO.C,D147*
X111505025Y-82494975D03*
X112494975Y-81505025D03*
G04 #@! TD*
G04 #@! TO.C,D276*
X125505025Y-88494975D03*
X126494975Y-87505025D03*
G04 #@! TD*
G04 #@! TO.C,D671*
X169505025Y-86494975D03*
X170494975Y-85505025D03*
G04 #@! TD*
G04 #@! TO.C,D438*
X143505025Y-88494975D03*
X144494975Y-87505025D03*
G04 #@! TD*
G04 #@! TO.C,D393*
X137505025Y-106494975D03*
X138494975Y-105505025D03*
G04 #@! TD*
G04 #@! TO.C,D646*
X165505025Y-108494975D03*
X166494975Y-107505025D03*
G04 #@! TD*
G04 #@! TO.C,D345*
X133505025Y-82494975D03*
X134494975Y-81505025D03*
G04 #@! TD*
G04 #@! TO.C,D159*
X111505025Y-106494975D03*
X112494975Y-105505025D03*
G04 #@! TD*
D11*
G04 #@! TO.C,C10*
X154900000Y-136600000D03*
X155900000Y-136600000D03*
G04 #@! TD*
G04 #@! TO.C,C8*
X132900000Y-138600000D03*
X133900000Y-138600000D03*
G04 #@! TD*
D10*
G04 #@! TO.C,D435*
X143505025Y-82494975D03*
X144494975Y-81505025D03*
G04 #@! TD*
G04 #@! TO.C,D173*
X113505025Y-98494975D03*
X114494975Y-97505025D03*
G04 #@! TD*
G04 #@! TO.C,D141*
X109505025Y-106494975D03*
X110494975Y-105505025D03*
G04 #@! TD*
G04 #@! TO.C,D93*
X105505025Y-82494975D03*
X106494975Y-81505025D03*
G04 #@! TD*
G04 #@! TO.C,D597*
X161505025Y-82494975D03*
X162494975Y-81505025D03*
G04 #@! TD*
G04 #@! TO.C,D94*
X105505025Y-84494975D03*
X106494975Y-83505025D03*
G04 #@! TD*
G04 #@! TO.C,D427*
X141505025Y-102494975D03*
X142494975Y-101505025D03*
G04 #@! TD*
G04 #@! TO.C,D489*
X149505025Y-82494975D03*
X150494975Y-81505025D03*
G04 #@! TD*
G04 #@! TO.C,D541*
X155505025Y-78494975D03*
X156494975Y-77505025D03*
G04 #@! TD*
G04 #@! TO.C,D243*
X121505025Y-94494975D03*
X122494975Y-93505025D03*
G04 #@! TD*
G04 #@! TO.C,D461*
X145505025Y-98494975D03*
X146494975Y-97505025D03*
G04 #@! TD*
G04 #@! TO.C,D19*
X97505025Y-78494975D03*
X98494975Y-77505025D03*
G04 #@! TD*
G04 #@! TO.C,D780*
X181505025Y-88494975D03*
X182494975Y-87505025D03*
G04 #@! TD*
G04 #@! TO.C,D409*
X139505025Y-102494975D03*
X140494975Y-101505025D03*
G04 #@! TD*
G04 #@! TO.C,D130*
X109505025Y-84494975D03*
X110494975Y-83505025D03*
G04 #@! TD*
G04 #@! TO.C,D539*
X153505025Y-110494975D03*
X154494975Y-109505025D03*
G04 #@! TD*
G04 #@! TO.C,D586*
X159505025Y-96494975D03*
X160494975Y-95505025D03*
G04 #@! TD*
G04 #@! TO.C,D529*
X153505025Y-90494975D03*
X154494975Y-89505025D03*
G04 #@! TD*
G04 #@! TO.C,D363*
X135505025Y-82494975D03*
X136494975Y-81505025D03*
G04 #@! TD*
G04 #@! TO.C,D626*
X163505025Y-104494975D03*
X164494975Y-103505025D03*
G04 #@! TD*
G04 #@! TO.C,D785*
X181505025Y-98494975D03*
X182494975Y-97505025D03*
G04 #@! TD*
G04 #@! TO.C,D452*
X145505025Y-80494975D03*
X146494975Y-79505025D03*
G04 #@! TD*
G04 #@! TO.C,D110*
X107505025Y-80494975D03*
X108494975Y-79505025D03*
G04 #@! TD*
G04 #@! TO.C,D236*
X121505025Y-80494975D03*
X122494975Y-79505025D03*
G04 #@! TD*
G04 #@! TO.C,D101*
X105505025Y-98494975D03*
X106494975Y-97505025D03*
G04 #@! TD*
G04 #@! TO.C,D457*
X145505025Y-90494975D03*
X146494975Y-89505025D03*
G04 #@! TD*
G04 #@! TO.C,D170*
X113505025Y-92494975D03*
X114494975Y-91505025D03*
G04 #@! TD*
G04 #@! TO.C,D277*
X125505025Y-90494975D03*
X126494975Y-89505025D03*
G04 #@! TD*
G04 #@! TO.C,D540*
X153505025Y-112494975D03*
X154494975Y-111505025D03*
G04 #@! TD*
G04 #@! TO.C,D185*
X115505025Y-86494975D03*
X116494975Y-85505025D03*
G04 #@! TD*
G04 #@! TO.C,D624*
X163505025Y-100494975D03*
X164494975Y-99505025D03*
G04 #@! TD*
G04 #@! TO.C,D245*
X121505025Y-98494975D03*
X122494975Y-97505025D03*
G04 #@! TD*
G04 #@! TO.C,D81*
X103505025Y-94494975D03*
X104494975Y-93505025D03*
G04 #@! TD*
G04 #@! TO.C,D78*
X103505025Y-88494975D03*
X104494975Y-87505025D03*
G04 #@! TD*
G04 #@! TO.C,D306*
X127505025Y-112494975D03*
X128494975Y-111505025D03*
G04 #@! TD*
G04 #@! TO.C,D335*
X131505025Y-98494975D03*
X132494975Y-97505025D03*
G04 #@! TD*
G04 #@! TO.C,D354*
X133505025Y-100494975D03*
X134494975Y-99505025D03*
G04 #@! TD*
G04 #@! TO.C,D483*
X147505025Y-106494975D03*
X148494975Y-105505025D03*
G04 #@! TD*
G04 #@! TO.C,D58*
X101505025Y-84494975D03*
X102494975Y-83505025D03*
G04 #@! TD*
G04 #@! TO.C,D765*
X179505025Y-94494975D03*
X180494975Y-93505025D03*
G04 #@! TD*
G04 #@! TO.C,D270*
X123505025Y-112494975D03*
X124494975Y-111505025D03*
G04 #@! TD*
G04 #@! TO.C,D740*
X177505025Y-80494975D03*
X178494975Y-79505025D03*
G04 #@! TD*
G04 #@! TO.C,D237*
X121505025Y-82494975D03*
X122494975Y-81505025D03*
G04 #@! TD*
G04 #@! TO.C,D696*
X171505025Y-100494975D03*
X172494975Y-99505025D03*
G04 #@! TD*
G04 #@! TO.C,D389*
X137505025Y-98494975D03*
X138494975Y-97505025D03*
G04 #@! TD*
G04 #@! TO.C,D741*
X177505025Y-82494975D03*
X178494975Y-81505025D03*
G04 #@! TD*
G04 #@! TO.C,D686*
X171505025Y-80494975D03*
X172494975Y-79505025D03*
G04 #@! TD*
G04 #@! TO.C,D28*
X97505025Y-96494975D03*
X98494975Y-95505025D03*
G04 #@! TD*
G04 #@! TO.C,D167*
X113505025Y-86494975D03*
X114494975Y-85505025D03*
G04 #@! TD*
G04 #@! TO.C,D659*
X167505025Y-98494975D03*
X168494975Y-97505025D03*
G04 #@! TD*
G04 #@! TO.C,D286*
X125505025Y-108494975D03*
X126494975Y-107505025D03*
G04 #@! TD*
D13*
G04 #@! TO.C,R5*
X113700000Y-142900000D03*
X113700000Y-141900000D03*
G04 #@! TD*
D12*
G04 #@! TO.C,R22*
X155900000Y-140200000D03*
X155900000Y-141200000D03*
G04 #@! TD*
D10*
G04 #@! TO.C,D623*
X163505025Y-98494975D03*
X164494975Y-97505025D03*
G04 #@! TD*
G04 #@! TO.C,D191*
X115505025Y-98494975D03*
X116494975Y-97505025D03*
G04 #@! TD*
G04 #@! TO.C,D682*
X169505025Y-108494975D03*
X170494975Y-107505025D03*
G04 #@! TD*
G04 #@! TO.C,D339*
X131505025Y-106494975D03*
X132494975Y-105505025D03*
G04 #@! TD*
G04 #@! TO.C,D68*
X101505025Y-104494975D03*
X102494975Y-103505025D03*
G04 #@! TD*
G04 #@! TO.C,D75*
X103505025Y-82494975D03*
X104494975Y-81505025D03*
G04 #@! TD*
D17*
G04 #@! TO.C,C19*
X100450000Y-140500000D03*
X99450000Y-140500000D03*
G04 #@! TD*
D10*
G04 #@! TO.C,D29*
X97505025Y-98494975D03*
X98494975Y-97505025D03*
G04 #@! TD*
G04 #@! TO.C,D468*
X145505025Y-112494975D03*
X146494975Y-111505025D03*
G04 #@! TD*
G04 #@! TO.C,D305*
X127505025Y-110494975D03*
X128494975Y-109505025D03*
G04 #@! TD*
G04 #@! TO.C,D654*
X167505025Y-88494975D03*
X168494975Y-87505025D03*
G04 #@! TD*
G04 #@! TO.C,D406*
X139505025Y-96494975D03*
X140494975Y-95505025D03*
G04 #@! TD*
G04 #@! TO.C,D753*
X177505025Y-106494975D03*
X178494975Y-105505025D03*
G04 #@! TD*
G04 #@! TO.C,D788*
X181505025Y-104494975D03*
X182494975Y-103505025D03*
G04 #@! TD*
G04 #@! TO.C,D444*
X143505025Y-100494975D03*
X144494975Y-99505025D03*
G04 #@! TD*
G04 #@! TO.C,D703*
X173505025Y-78494975D03*
X174494975Y-77505025D03*
G04 #@! TD*
G04 #@! TO.C,D47*
X99505025Y-98494975D03*
X100494975Y-97505025D03*
G04 #@! TD*
G04 #@! TO.C,D402*
X139505025Y-88494975D03*
X140494975Y-87505025D03*
G04 #@! TD*
G04 #@! TO.C,D685*
X171505025Y-78494975D03*
X172494975Y-77505025D03*
G04 #@! TD*
G04 #@! TO.C,D552*
X155505025Y-100494975D03*
X156494975Y-99505025D03*
G04 #@! TD*
G04 #@! TO.C,D512*
X151505025Y-92494975D03*
X152494975Y-91505025D03*
G04 #@! TD*
D17*
G04 #@! TO.C,C33*
X144450000Y-140500000D03*
X143450000Y-140500000D03*
G04 #@! TD*
D10*
G04 #@! TO.C,D620*
X163505025Y-92494975D03*
X164494975Y-91505025D03*
G04 #@! TD*
D11*
G04 #@! TO.C,C11*
X154900000Y-137600000D03*
X155900000Y-137600000D03*
G04 #@! TD*
D10*
G04 #@! TO.C,D113*
X107505025Y-86494975D03*
X108494975Y-85505025D03*
G04 #@! TD*
G04 #@! TO.C,D313*
X129505025Y-90494975D03*
X130494975Y-89505025D03*
G04 #@! TD*
G04 #@! TO.C,D562*
X157505025Y-84494975D03*
X158494975Y-83505025D03*
G04 #@! TD*
D13*
G04 #@! TO.C,R17*
X133000000Y-142900000D03*
X133000000Y-141900000D03*
G04 #@! TD*
D10*
G04 #@! TO.C,D260*
X123505025Y-92494975D03*
X124494975Y-91505025D03*
G04 #@! TD*
G04 #@! TO.C,D183*
X115505025Y-82494975D03*
X116494975Y-81505025D03*
G04 #@! TD*
G04 #@! TO.C,D232*
X119505025Y-108494975D03*
X120494975Y-107505025D03*
G04 #@! TD*
G04 #@! TO.C,D264*
X123505025Y-100494975D03*
X124494975Y-99505025D03*
G04 #@! TD*
G04 #@! TO.C,D605*
X161505025Y-98494975D03*
X162494975Y-97505025D03*
G04 #@! TD*
G04 #@! TO.C,D84*
X103505025Y-100494975D03*
X104494975Y-99505025D03*
G04 #@! TD*
G04 #@! TO.C,D784*
X181505025Y-96494975D03*
X182494975Y-95505025D03*
G04 #@! TD*
G04 #@! TO.C,D238*
X121505025Y-84494975D03*
X122494975Y-83505025D03*
G04 #@! TD*
G04 #@! TO.C,D719*
X173505025Y-110494975D03*
X174494975Y-109505025D03*
G04 #@! TD*
D13*
G04 #@! TO.C,R15*
X135700000Y-142900000D03*
X135700000Y-141900000D03*
G04 #@! TD*
D10*
G04 #@! TO.C,D544*
X155505025Y-84494975D03*
X156494975Y-83505025D03*
G04 #@! TD*
G04 #@! TO.C,D371*
X135505025Y-98494975D03*
X136494975Y-97505025D03*
G04 #@! TD*
G04 #@! TO.C,D207*
X117505025Y-94494975D03*
X118494975Y-93505025D03*
G04 #@! TD*
G04 #@! TO.C,D454*
X145505025Y-84494975D03*
X146494975Y-83505025D03*
G04 #@! TD*
D11*
G04 #@! TO.C,R40*
X165450000Y-139600000D03*
X166450000Y-139600000D03*
G04 #@! TD*
D10*
G04 #@! TO.C,D297*
X127505025Y-94494975D03*
X128494975Y-93505025D03*
G04 #@! TD*
G04 #@! TO.C,D92*
X105505025Y-80494975D03*
X106494975Y-79505025D03*
G04 #@! TD*
G04 #@! TO.C,D249*
X121505025Y-106494975D03*
X122494975Y-105505025D03*
G04 #@! TD*
D13*
G04 #@! TO.C,C14*
X113700000Y-139200000D03*
X113700000Y-138200000D03*
G04 #@! TD*
D11*
G04 #@! TO.C,R28*
X143450000Y-141400000D03*
X144450000Y-141400000D03*
G04 #@! TD*
D10*
G04 #@! TO.C,D466*
X145505025Y-108494975D03*
X146494975Y-107505025D03*
G04 #@! TD*
G04 #@! TO.C,D521*
X151505025Y-110494975D03*
X152494975Y-109505025D03*
G04 #@! TD*
G04 #@! TO.C,D557*
X155505025Y-110494975D03*
X156494975Y-109505025D03*
G04 #@! TD*
G04 #@! TO.C,D136*
X109505025Y-96494975D03*
X110494975Y-95505025D03*
G04 #@! TD*
G04 #@! TO.C,D5*
X95505025Y-86494975D03*
X96494975Y-85505025D03*
G04 #@! TD*
G04 #@! TO.C,D467*
X145505025Y-110494975D03*
X146494975Y-109505025D03*
G04 #@! TD*
G04 #@! TO.C,D566*
X157505025Y-92494975D03*
X158494975Y-91505025D03*
G04 #@! TD*
G04 #@! TO.C,D563*
X157505025Y-86494975D03*
X158494975Y-85505025D03*
G04 #@! TD*
G04 #@! TO.C,D39*
X99505025Y-82494975D03*
X100494975Y-81505025D03*
G04 #@! TD*
G04 #@! TO.C,D462*
X145505025Y-100494975D03*
X146494975Y-99505025D03*
G04 #@! TD*
G04 #@! TO.C,D329*
X131505025Y-86494975D03*
X132494975Y-85505025D03*
G04 #@! TD*
G04 #@! TO.C,D256*
X123505025Y-84494975D03*
X124494975Y-83505025D03*
G04 #@! TD*
G04 #@! TO.C,D760*
X179505025Y-84494975D03*
X180494975Y-83505025D03*
G04 #@! TD*
G04 #@! TO.C,D474*
X147505025Y-88494975D03*
X148494975Y-87505025D03*
G04 #@! TD*
D12*
G04 #@! TO.C,R21*
X156800000Y-140200000D03*
X156800000Y-141200000D03*
G04 #@! TD*
D10*
G04 #@! TO.C,D400*
X139505025Y-84494975D03*
X140494975Y-83505025D03*
G04 #@! TD*
G04 #@! TO.C,D642*
X165505025Y-100494975D03*
X166494975Y-99505025D03*
G04 #@! TD*
G04 #@! TO.C,D273*
X125505025Y-82494975D03*
X126494975Y-81505025D03*
G04 #@! TD*
G04 #@! TO.C,D601*
X161505025Y-90494975D03*
X162494975Y-89505025D03*
G04 #@! TD*
G04 #@! TO.C,D596*
X161505025Y-80494975D03*
X162494975Y-79505025D03*
G04 #@! TD*
G04 #@! TO.C,D754*
X177505025Y-108494975D03*
X178494975Y-107505025D03*
G04 #@! TD*
G04 #@! TO.C,D416*
X141505025Y-80494975D03*
X142494975Y-79505025D03*
G04 #@! TD*
G04 #@! TO.C,D513*
X151505025Y-94494975D03*
X152494975Y-93505025D03*
G04 #@! TD*
G04 #@! TO.C,D347*
X133505025Y-86494975D03*
X134494975Y-85505025D03*
G04 #@! TD*
G04 #@! TO.C,D310*
X129505025Y-84494975D03*
X130494975Y-83505025D03*
G04 #@! TD*
G04 #@! TO.C,D244*
X121505025Y-96494975D03*
X122494975Y-95505025D03*
G04 #@! TD*
G04 #@! TO.C,D569*
X157505025Y-98494975D03*
X158494975Y-97505025D03*
G04 #@! TD*
G04 #@! TO.C,D46*
X99505025Y-96494975D03*
X100494975Y-95505025D03*
G04 #@! TD*
G04 #@! TO.C,D423*
X141505025Y-94494975D03*
X142494975Y-93505025D03*
G04 #@! TD*
G04 #@! TO.C,D79*
X103505025Y-90494975D03*
X104494975Y-89505025D03*
G04 #@! TD*
G04 #@! TO.C,D212*
X117505025Y-104494975D03*
X118494975Y-103505025D03*
G04 #@! TD*
G04 #@! TO.C,D445*
X143505025Y-102494975D03*
X144494975Y-101505025D03*
G04 #@! TD*
G04 #@! TO.C,D88*
X103505025Y-108494975D03*
X104494975Y-107505025D03*
G04 #@! TD*
D11*
G04 #@! TO.C,C3*
X110900000Y-137600000D03*
X111900000Y-137600000D03*
G04 #@! TD*
D10*
G04 #@! TO.C,D746*
X177505025Y-92494975D03*
X178494975Y-91505025D03*
G04 #@! TD*
G04 #@! TO.C,D33*
X97505025Y-106494975D03*
X98494975Y-105505025D03*
G04 #@! TD*
G04 #@! TO.C,D387*
X137505025Y-94494975D03*
X138494975Y-93505025D03*
G04 #@! TD*
G04 #@! TO.C,D543*
X155505025Y-82494975D03*
X156494975Y-81505025D03*
G04 #@! TD*
G04 #@! TO.C,D103*
X105505025Y-102494975D03*
X106494975Y-101505025D03*
G04 #@! TD*
G04 #@! TO.C,D381*
X137505025Y-82494975D03*
X138494975Y-81505025D03*
G04 #@! TD*
D11*
G04 #@! TO.C,C4*
X110900000Y-138600000D03*
X111900000Y-138600000D03*
G04 #@! TD*
D10*
G04 #@! TO.C,D309*
X129505025Y-82494975D03*
X130494975Y-81505025D03*
G04 #@! TD*
G04 #@! TO.C,D459*
X145505025Y-94494975D03*
X146494975Y-93505025D03*
G04 #@! TD*
G04 #@! TO.C,D66*
X101505025Y-100494975D03*
X102494975Y-99505025D03*
G04 #@! TD*
G04 #@! TO.C,D677*
X169505025Y-98494975D03*
X170494975Y-97505025D03*
G04 #@! TD*
G04 #@! TO.C,D690*
X171505025Y-88494975D03*
X172494975Y-87505025D03*
G04 #@! TD*
D12*
G04 #@! TO.C,R31*
X178800000Y-140200000D03*
X178800000Y-141200000D03*
G04 #@! TD*
D10*
G04 #@! TO.C,D426*
X141505025Y-100494975D03*
X142494975Y-99505025D03*
G04 #@! TD*
G04 #@! TO.C,D295*
X127505025Y-90494975D03*
X128494975Y-89505025D03*
G04 #@! TD*
G04 #@! TO.C,D697*
X171505025Y-102494975D03*
X172494975Y-101505025D03*
G04 #@! TD*
G04 #@! TO.C,D698*
X171505025Y-104494975D03*
X172494975Y-103505025D03*
G04 #@! TD*
G04 #@! TO.C,D263*
X123505025Y-98494975D03*
X124494975Y-97505025D03*
G04 #@! TD*
G04 #@! TO.C,D241*
X121505025Y-90494975D03*
X122494975Y-89505025D03*
G04 #@! TD*
G04 #@! TO.C,D83*
X103505025Y-98494975D03*
X104494975Y-97505025D03*
G04 #@! TD*
G04 #@! TO.C,D193*
X115505025Y-102494975D03*
X116494975Y-101505025D03*
G04 #@! TD*
G04 #@! TO.C,D291*
X127505025Y-82494975D03*
X128494975Y-81505025D03*
G04 #@! TD*
G04 #@! TO.C,D365*
X135505025Y-86494975D03*
X136494975Y-85505025D03*
G04 #@! TD*
G04 #@! TO.C,D610*
X161505025Y-108494975D03*
X162494975Y-107505025D03*
G04 #@! TD*
D13*
G04 #@! TO.C,C29*
X158600000Y-139200000D03*
X158600000Y-138200000D03*
G04 #@! TD*
D10*
G04 #@! TO.C,D261*
X123505025Y-94494975D03*
X124494975Y-93505025D03*
G04 #@! TD*
G04 #@! TO.C,D692*
X171505025Y-92494975D03*
X172494975Y-91505025D03*
G04 #@! TD*
D11*
G04 #@! TO.C,R10*
X99450000Y-139600000D03*
X100450000Y-139600000D03*
G04 #@! TD*
D10*
G04 #@! TO.C,D174*
X113505025Y-100494975D03*
X114494975Y-99505025D03*
G04 #@! TD*
D12*
G04 #@! TO.C,R2*
X111900000Y-140100000D03*
X111900000Y-141100000D03*
G04 #@! TD*
D13*
G04 #@! TO.C,R14*
X134800000Y-142900000D03*
X134800000Y-141900000D03*
G04 #@! TD*
D10*
G04 #@! TO.C,D414*
X139505025Y-112494975D03*
X140494975Y-111505025D03*
G04 #@! TD*
G04 #@! TO.C,D106*
X105505025Y-108494975D03*
X106494975Y-107505025D03*
G04 #@! TD*
G04 #@! TO.C,D312*
X129505025Y-88494975D03*
X130494975Y-87505025D03*
G04 #@! TD*
G04 #@! TO.C,D360*
X133505025Y-112494975D03*
X134494975Y-111505025D03*
G04 #@! TD*
G04 #@! TO.C,D118*
X107505025Y-96494975D03*
X108494975Y-95505025D03*
G04 #@! TD*
G04 #@! TO.C,D203*
X117505025Y-86494975D03*
X118494975Y-85505025D03*
G04 #@! TD*
D12*
G04 #@! TO.C,C17*
X100400000Y-136850000D03*
X100400000Y-137850000D03*
G04 #@! TD*
D10*
G04 #@! TO.C,D625*
X163505025Y-102494975D03*
X164494975Y-101505025D03*
G04 #@! TD*
G04 #@! TO.C,D42*
X99505025Y-88494975D03*
X100494975Y-87505025D03*
G04 #@! TD*
G04 #@! TO.C,D201*
X117510050Y-82489950D03*
X118500000Y-81500000D03*
G04 #@! TD*
G04 #@! TO.C,D755*
X177505025Y-110494975D03*
X178494975Y-109505025D03*
G04 #@! TD*
G04 #@! TO.C,D168*
X113505025Y-88494975D03*
X114494975Y-87505025D03*
G04 #@! TD*
G04 #@! TO.C,D6*
X95505025Y-88494975D03*
X96494975Y-87505025D03*
G04 #@! TD*
G04 #@! TO.C,D526*
X153505025Y-84494975D03*
X154494975Y-83505025D03*
G04 #@! TD*
G04 #@! TO.C,D726*
X175505025Y-88494975D03*
X176494975Y-87505025D03*
G04 #@! TD*
G04 #@! TO.C,D166*
X113505025Y-84494975D03*
X114494975Y-83505025D03*
G04 #@! TD*
G04 #@! TO.C,D184*
X115505025Y-84494975D03*
X116494975Y-83505025D03*
G04 #@! TD*
G04 #@! TO.C,D265*
X123505025Y-102494975D03*
X124494975Y-101505025D03*
G04 #@! TD*
D12*
G04 #@! TO.C,R12*
X133900000Y-140100000D03*
X133900000Y-141100000D03*
G04 #@! TD*
G04 #@! TO.C,C25*
X123300000Y-136850000D03*
X123300000Y-137850000D03*
G04 #@! TD*
D10*
G04 #@! TO.C,D661*
X167505025Y-102494975D03*
X168494975Y-101505025D03*
G04 #@! TD*
G04 #@! TO.C,D528*
X153505025Y-88494975D03*
X154494975Y-87505025D03*
G04 #@! TD*
G04 #@! TO.C,D38*
X99505025Y-80494975D03*
X100494975Y-79505025D03*
G04 #@! TD*
G04 #@! TO.C,D189*
X115505025Y-94494975D03*
X116494975Y-93505025D03*
G04 #@! TD*
G04 #@! TO.C,D487*
X149505025Y-78494975D03*
X150494975Y-77505025D03*
G04 #@! TD*
G04 #@! TO.C,D100*
X105505025Y-96494975D03*
X106494975Y-95505025D03*
G04 #@! TD*
G04 #@! TO.C,D62*
X101505025Y-92494975D03*
X102494975Y-91505025D03*
G04 #@! TD*
G04 #@! TO.C,D229*
X119505025Y-102494975D03*
X120494975Y-101505025D03*
G04 #@! TD*
G04 #@! TO.C,D592*
X159505025Y-108494975D03*
X160494975Y-107505025D03*
G04 #@! TD*
G04 #@! TO.C,D553*
X155505025Y-102494975D03*
X156494975Y-101505025D03*
G04 #@! TD*
D13*
G04 #@! TO.C,R23*
X155900000Y-143000000D03*
X155900000Y-142000000D03*
G04 #@! TD*
D10*
G04 #@! TO.C,D728*
X175505025Y-92494975D03*
X176494975Y-91505025D03*
G04 #@! TD*
G04 #@! TO.C,D735*
X175505025Y-106494975D03*
X176494975Y-105505025D03*
G04 #@! TD*
G04 #@! TO.C,D49*
X99505025Y-102494975D03*
X100494975Y-101505025D03*
G04 #@! TD*
G04 #@! TO.C,D380*
X137505025Y-80494975D03*
X138494975Y-79505025D03*
G04 #@! TD*
D14*
G04 #@! TO.C,U1*
X107200000Y-139000000D03*
X106000000Y-140200000D03*
X106000000Y-139000000D03*
X104800000Y-137800000D03*
X104800000Y-140200000D03*
X104800000Y-139000000D03*
X107200000Y-137800000D03*
X107200000Y-140200000D03*
X106000000Y-137800000D03*
D15*
X108437500Y-140800000D03*
X108437500Y-140400000D03*
X108437500Y-140000000D03*
X108437500Y-139600000D03*
X108437500Y-139200000D03*
X108437500Y-138800000D03*
X108437500Y-138400000D03*
X108437500Y-138000000D03*
X108437500Y-137600000D03*
X108437500Y-137200000D03*
D16*
X107800000Y-136562500D03*
X107400000Y-136562500D03*
X107000000Y-136562500D03*
X106600000Y-136562500D03*
X106200000Y-136562500D03*
X105800000Y-136562500D03*
X105400000Y-136562500D03*
X105000000Y-136562500D03*
X104600000Y-136562500D03*
X104200000Y-136562500D03*
D15*
X103562500Y-137200000D03*
X103562500Y-137600000D03*
X103562500Y-138000000D03*
X103562500Y-138400000D03*
X103562500Y-138800000D03*
X103562500Y-139200000D03*
X103562500Y-139600000D03*
X103562500Y-140000000D03*
X103562500Y-140400000D03*
X103562500Y-140800000D03*
D16*
X104200000Y-141437500D03*
X104600000Y-141437500D03*
X105000000Y-141437500D03*
X105400000Y-141437500D03*
X105800000Y-141437500D03*
X106200000Y-141437500D03*
X106600000Y-141437500D03*
X107000000Y-141437500D03*
X107400000Y-141437500D03*
X107800000Y-141437500D03*
G04 #@! TD*
D10*
G04 #@! TO.C,D219*
X119505025Y-82494975D03*
X120494975Y-81505025D03*
G04 #@! TD*
G04 #@! TO.C,D303*
X127505025Y-106494975D03*
X128494975Y-105505025D03*
G04 #@! TD*
G04 #@! TO.C,D584*
X159505025Y-92494975D03*
X160494975Y-91505025D03*
G04 #@! TD*
G04 #@! TO.C,D749*
X177505025Y-98494975D03*
X178494975Y-97505025D03*
G04 #@! TD*
G04 #@! TO.C,D681*
X169505025Y-106494975D03*
X170494975Y-105505025D03*
G04 #@! TD*
G04 #@! TO.C,D233*
X119505025Y-110494975D03*
X120494975Y-109505025D03*
G04 #@! TD*
G04 #@! TO.C,D729*
X175505025Y-94494975D03*
X176494975Y-93505025D03*
G04 #@! TD*
G04 #@! TO.C,D332*
X131505025Y-92494975D03*
X132494975Y-91505025D03*
G04 #@! TD*
G04 #@! TO.C,D574*
X157505025Y-108494975D03*
X158494975Y-107505025D03*
G04 #@! TD*
D11*
G04 #@! TO.C,R19*
X121450000Y-138700000D03*
X122450000Y-138700000D03*
G04 #@! TD*
D10*
G04 #@! TO.C,D555*
X155505025Y-106494975D03*
X156494975Y-105505025D03*
G04 #@! TD*
G04 #@! TO.C,D787*
X181505025Y-102494975D03*
X182494975Y-101505025D03*
G04 #@! TD*
G04 #@! TO.C,D67*
X101505025Y-102494975D03*
X102494975Y-101505025D03*
G04 #@! TD*
G04 #@! TO.C,D346*
X133505025Y-84494975D03*
X134494975Y-83505025D03*
G04 #@! TD*
G04 #@! TO.C,D80*
X103505025Y-92494975D03*
X104494975Y-91505025D03*
G04 #@! TD*
G04 #@! TO.C,D316*
X129505025Y-96494975D03*
X130494975Y-95505025D03*
G04 #@! TD*
G04 #@! TO.C,D783*
X181505025Y-94494975D03*
X182494975Y-93505025D03*
G04 #@! TD*
G04 #@! TO.C,D196*
X115505025Y-108494975D03*
X116494975Y-107505025D03*
G04 #@! TD*
G04 #@! TO.C,D150*
X111505025Y-88494975D03*
X112494975Y-87505025D03*
G04 #@! TD*
D13*
G04 #@! TO.C,C28*
X157700000Y-139200000D03*
X157700000Y-138200000D03*
G04 #@! TD*
D10*
G04 #@! TO.C,D54*
X99505025Y-112494975D03*
X100494975Y-111505025D03*
G04 #@! TD*
G04 #@! TO.C,D775*
X181505025Y-78494975D03*
X182494975Y-77505025D03*
G04 #@! TD*
G04 #@! TO.C,D392*
X137505025Y-104494975D03*
X138494975Y-103505025D03*
G04 #@! TD*
G04 #@! TO.C,D603*
X161505025Y-94494975D03*
X162494975Y-93505025D03*
G04 #@! TD*
G04 #@! TO.C,D567*
X157505025Y-94494975D03*
X158494975Y-93505025D03*
G04 #@! TD*
G04 #@! TO.C,D590*
X159505025Y-104494975D03*
X160494975Y-103505025D03*
G04 #@! TD*
G04 #@! TO.C,D12*
X95505025Y-100494975D03*
X96494975Y-99505025D03*
G04 #@! TD*
G04 #@! TO.C,D499*
X149505025Y-102494975D03*
X150494975Y-101505025D03*
G04 #@! TD*
G04 #@! TO.C,D561*
X157505025Y-82494975D03*
X158494975Y-81505025D03*
G04 #@! TD*
G04 #@! TO.C,D481*
X147505025Y-102494975D03*
X148494975Y-101505025D03*
G04 #@! TD*
G04 #@! TO.C,D73*
X103505025Y-78494975D03*
X104494975Y-77505025D03*
G04 #@! TD*
G04 #@! TO.C,D208*
X117505025Y-96494975D03*
X118494975Y-95505025D03*
G04 #@! TD*
D12*
G04 #@! TO.C,C41*
X165500000Y-136850000D03*
X165500000Y-137850000D03*
G04 #@! TD*
D10*
G04 #@! TO.C,D107*
X105505025Y-110494975D03*
X106494975Y-109505025D03*
G04 #@! TD*
G04 #@! TO.C,D727*
X175505025Y-90494975D03*
X176494975Y-89505025D03*
G04 #@! TD*
G04 #@! TO.C,D660*
X167505025Y-100494975D03*
X168494975Y-99505025D03*
G04 #@! TD*
G04 #@! TO.C,D479*
X147505025Y-98494975D03*
X148494975Y-97505025D03*
G04 #@! TD*
D12*
G04 #@! TO.C,C43*
X167300000Y-136850000D03*
X167300000Y-137850000D03*
G04 #@! TD*
D10*
G04 #@! TO.C,D356*
X133505025Y-104494975D03*
X134494975Y-103505025D03*
G04 #@! TD*
G04 #@! TO.C,D60*
X101505025Y-88494975D03*
X102494975Y-87505025D03*
G04 #@! TD*
G04 #@! TO.C,D518*
X151505025Y-104494975D03*
X152494975Y-103505025D03*
G04 #@! TD*
G04 #@! TO.C,D142*
X109505025Y-108494975D03*
X110494975Y-107505025D03*
G04 #@! TD*
G04 #@! TO.C,D635*
X165505025Y-86494975D03*
X166494975Y-85505025D03*
G04 #@! TD*
G04 #@! TO.C,D160*
X111505025Y-108494975D03*
X112494975Y-107505025D03*
G04 #@! TD*
G04 #@! TO.C,D105*
X105505025Y-106494975D03*
X106494975Y-105505025D03*
G04 #@! TD*
G04 #@! TO.C,D750*
X177505025Y-100494975D03*
X178494975Y-99505025D03*
G04 #@! TD*
G04 #@! TO.C,D315*
X129505025Y-94494975D03*
X130494975Y-93505025D03*
G04 #@! TD*
G04 #@! TO.C,D622*
X163505025Y-96494975D03*
X164494975Y-95505025D03*
G04 #@! TD*
G04 #@! TO.C,D758*
X179505025Y-80494975D03*
X180494975Y-79505025D03*
G04 #@! TD*
G04 #@! TO.C,D651*
X167505025Y-82494975D03*
X168494975Y-81505025D03*
G04 #@! TD*
G04 #@! TO.C,D65*
X101505025Y-98494975D03*
X102494975Y-97505025D03*
G04 #@! TD*
G04 #@! TO.C,D617*
X163505025Y-86494975D03*
X164494975Y-85505025D03*
G04 #@! TD*
G04 #@! TO.C,D284*
X125505025Y-104494975D03*
X126494975Y-103505025D03*
G04 #@! TD*
G04 #@! TO.C,D502*
X149505025Y-108494975D03*
X150494975Y-107505025D03*
G04 #@! TD*
G04 #@! TO.C,D688*
X171505025Y-84494975D03*
X172494975Y-83505025D03*
G04 #@! TD*
G04 #@! TO.C,D516*
X151505025Y-100494975D03*
X152494975Y-99505025D03*
G04 #@! TD*
G04 #@! TO.C,D739*
X177505025Y-78494975D03*
X178494975Y-77505025D03*
G04 #@! TD*
G04 #@! TO.C,D616*
X163505025Y-84494975D03*
X164494975Y-83505025D03*
G04 #@! TD*
D13*
G04 #@! TO.C,R3*
X111900000Y-142900000D03*
X111900000Y-141900000D03*
G04 #@! TD*
D10*
G04 #@! TO.C,D25*
X97505025Y-90494975D03*
X98494975Y-89505025D03*
G04 #@! TD*
G04 #@! TO.C,D72*
X101505025Y-112494975D03*
X102494975Y-111505025D03*
G04 #@! TD*
G04 #@! TO.C,D538*
X153505025Y-108494975D03*
X154494975Y-107505025D03*
G04 #@! TD*
G04 #@! TO.C,D465*
X145505025Y-106494975D03*
X146494975Y-105505025D03*
G04 #@! TD*
G04 #@! TO.C,D163*
X113505025Y-78494975D03*
X114494975Y-77505025D03*
G04 #@! TD*
G04 #@! TO.C,D22*
X97505025Y-84494975D03*
X98494975Y-83505025D03*
G04 #@! TD*
D14*
G04 #@! TO.C,U2*
X128000000Y-140200000D03*
X126800000Y-140200000D03*
X128000000Y-139000000D03*
X129200000Y-140200000D03*
X129200000Y-137800000D03*
X129200000Y-139000000D03*
X126800000Y-137800000D03*
X126800000Y-139000000D03*
X128000000Y-137800000D03*
D15*
X130437500Y-140800000D03*
X130437500Y-140400000D03*
X130437500Y-140000000D03*
X130437500Y-139600000D03*
X130437500Y-139200000D03*
X130437500Y-138800000D03*
X130437500Y-138400000D03*
X130437500Y-138000000D03*
X130437500Y-137600000D03*
X130437500Y-137200000D03*
D16*
X129800000Y-136562500D03*
X129400000Y-136562500D03*
X129000000Y-136562500D03*
X128600000Y-136562500D03*
X128200000Y-136562500D03*
X127800000Y-136562500D03*
X127400000Y-136562500D03*
X127000000Y-136562500D03*
X126600000Y-136562500D03*
X126200000Y-136562500D03*
D15*
X125562500Y-137200000D03*
X125562500Y-137600000D03*
X125562500Y-138000000D03*
X125562500Y-138400000D03*
X125562500Y-138800000D03*
X125562500Y-139200000D03*
X125562500Y-139600000D03*
X125562500Y-140000000D03*
X125562500Y-140400000D03*
X125562500Y-140800000D03*
D16*
X126200000Y-141437500D03*
X126600000Y-141437500D03*
X127000000Y-141437500D03*
X127400000Y-141437500D03*
X127800000Y-141437500D03*
X128200000Y-141437500D03*
X128600000Y-141437500D03*
X129000000Y-141437500D03*
X129400000Y-141437500D03*
X129800000Y-141437500D03*
G04 #@! TD*
D10*
G04 #@! TO.C,D578*
X159505025Y-80494975D03*
X160494975Y-79505025D03*
G04 #@! TD*
G04 #@! TO.C,D121*
X107505025Y-102494975D03*
X108494975Y-101505025D03*
G04 #@! TD*
G04 #@! TO.C,D636*
X165505025Y-88494975D03*
X166494975Y-87505025D03*
G04 #@! TD*
G04 #@! TO.C,D576*
X157505025Y-112494975D03*
X158494975Y-111505025D03*
G04 #@! TD*
G04 #@! TO.C,D40*
X99505025Y-84494975D03*
X100494975Y-83505025D03*
G04 #@! TD*
D13*
G04 #@! TO.C,C38*
X178800000Y-139200000D03*
X178800000Y-138200000D03*
G04 #@! TD*
D10*
G04 #@! TO.C,D477*
X147505025Y-94494975D03*
X148494975Y-93505025D03*
G04 #@! TD*
G04 #@! TO.C,D545*
X155505025Y-86494975D03*
X156494975Y-85505025D03*
G04 #@! TD*
G04 #@! TO.C,D451*
X145505025Y-78494975D03*
X146494975Y-77505025D03*
G04 #@! TD*
G04 #@! TO.C,D275*
X125505025Y-86494975D03*
X126494975Y-85505025D03*
G04 #@! TD*
G04 #@! TO.C,D604*
X161505025Y-96494975D03*
X162494975Y-95505025D03*
G04 #@! TD*
G04 #@! TO.C,D55*
X101505025Y-78494975D03*
X102494975Y-77505025D03*
G04 #@! TD*
G04 #@! TO.C,D231*
X119505025Y-106494975D03*
X120494975Y-105505025D03*
G04 #@! TD*
G04 #@! TO.C,D655*
X167505025Y-90494975D03*
X168494975Y-89505025D03*
G04 #@! TD*
G04 #@! TO.C,D227*
X119505025Y-98494975D03*
X120494975Y-97505025D03*
G04 #@! TD*
G04 #@! TO.C,D708*
X173505025Y-88494975D03*
X174494975Y-87505025D03*
G04 #@! TD*
G04 #@! TO.C,D634*
X165505025Y-84494975D03*
X166494975Y-83505025D03*
G04 #@! TD*
G04 #@! TO.C,D687*
X171505025Y-82494975D03*
X172494975Y-81505025D03*
G04 #@! TD*
G04 #@! TO.C,D398*
X139505025Y-80494975D03*
X140494975Y-79505025D03*
G04 #@! TD*
G04 #@! TO.C,D656*
X167505025Y-92494975D03*
X168494975Y-91505025D03*
G04 #@! TD*
G04 #@! TO.C,D707*
X173505025Y-86494975D03*
X174494975Y-85505025D03*
G04 #@! TD*
G04 #@! TO.C,D743*
X177505025Y-86494975D03*
X178494975Y-85505025D03*
G04 #@! TD*
G04 #@! TO.C,D326*
X131505025Y-80494975D03*
X132494975Y-79505025D03*
G04 #@! TD*
G04 #@! TO.C,D734*
X175505025Y-104494975D03*
X176494975Y-103505025D03*
G04 #@! TD*
G04 #@! TO.C,D358*
X133505025Y-108494975D03*
X134494975Y-107505025D03*
G04 #@! TD*
G04 #@! TO.C,D536*
X153505025Y-104494975D03*
X154494975Y-103505025D03*
G04 #@! TD*
D12*
G04 #@! TO.C,C31*
X144400000Y-136850000D03*
X144400000Y-137850000D03*
G04 #@! TD*
D10*
G04 #@! TO.C,D577*
X159505025Y-78494975D03*
X160494975Y-77505025D03*
G04 #@! TD*
G04 #@! TO.C,D430*
X141505025Y-108494975D03*
X142494975Y-107505025D03*
G04 #@! TD*
D13*
G04 #@! TO.C,R35*
X179700000Y-143000000D03*
X179700000Y-142000000D03*
G04 #@! TD*
D10*
G04 #@! TO.C,D383*
X137505025Y-86494975D03*
X138494975Y-85505025D03*
G04 #@! TD*
G04 #@! TO.C,D593*
X159505025Y-110494975D03*
X160494975Y-109505025D03*
G04 #@! TD*
G04 #@! TO.C,D140*
X109505025Y-104494975D03*
X110494975Y-103505025D03*
G04 #@! TD*
G04 #@! TO.C,D134*
X109505025Y-92494975D03*
X110494975Y-91505025D03*
G04 #@! TD*
G04 #@! TO.C,D71*
X101505025Y-110494975D03*
X102494975Y-109505025D03*
G04 #@! TD*
D12*
G04 #@! TO.C,R26*
X158600000Y-142000000D03*
X158600000Y-143000000D03*
G04 #@! TD*
D10*
G04 #@! TO.C,D716*
X173505025Y-104494975D03*
X174494975Y-103505025D03*
G04 #@! TD*
G04 #@! TO.C,D228*
X119505025Y-100494975D03*
X120494975Y-99505025D03*
G04 #@! TD*
D12*
G04 #@! TO.C,C18*
X99500000Y-136850000D03*
X99500000Y-137850000D03*
G04 #@! TD*
D10*
G04 #@! TO.C,D694*
X171505025Y-96494975D03*
X172494975Y-95505025D03*
G04 #@! TD*
G04 #@! TO.C,D385*
X137505025Y-90494975D03*
X138494975Y-89505025D03*
G04 #@! TD*
G04 #@! TO.C,D2*
X95505025Y-80494975D03*
X96494975Y-79505025D03*
G04 #@! TD*
G04 #@! TO.C,D4*
X95505025Y-84494975D03*
X96494975Y-83505025D03*
G04 #@! TD*
G04 #@! TO.C,D318*
X129505025Y-100494975D03*
X130494975Y-99505025D03*
G04 #@! TD*
G04 #@! TO.C,D730*
X175505025Y-96494975D03*
X176494975Y-95505025D03*
G04 #@! TD*
G04 #@! TO.C,D27*
X97505025Y-94525346D03*
X98494975Y-93535396D03*
G04 #@! TD*
G04 #@! TO.C,D126*
X107505025Y-112494975D03*
X108494975Y-111505025D03*
G04 #@! TD*
G04 #@! TO.C,D368*
X135505025Y-92494975D03*
X136494975Y-91505025D03*
G04 #@! TD*
G04 #@! TO.C,D9*
X95505025Y-94494975D03*
X96494975Y-93505025D03*
G04 #@! TD*
G04 #@! TO.C,D579*
X159505025Y-82494975D03*
X160494975Y-81505025D03*
G04 #@! TD*
G04 #@! TO.C,D503*
X149505025Y-110494975D03*
X150494975Y-109505025D03*
G04 #@! TD*
G04 #@! TO.C,D774*
X179505025Y-112494975D03*
X180494975Y-111505025D03*
G04 #@! TD*
G04 #@! TO.C,D122*
X107505025Y-104494975D03*
X108494975Y-103505025D03*
G04 #@! TD*
G04 #@! TO.C,D751*
X177505025Y-102494975D03*
X178494975Y-101505025D03*
G04 #@! TD*
G04 #@! TO.C,D206*
X117505025Y-92494975D03*
X118494975Y-91505025D03*
G04 #@! TD*
G04 #@! TO.C,D69*
X101505025Y-106494975D03*
X102494975Y-105505025D03*
G04 #@! TD*
G04 #@! TO.C,D431*
X141505025Y-110494975D03*
X142494975Y-109505025D03*
G04 #@! TD*
D12*
G04 #@! TO.C,R36*
X180600000Y-142000000D03*
X180600000Y-143000000D03*
G04 #@! TD*
D11*
G04 #@! TO.C,C12*
X154900000Y-138600000D03*
X155900000Y-138600000D03*
G04 #@! TD*
D10*
G04 #@! TO.C,D7*
X95505025Y-90494975D03*
X96494975Y-89505025D03*
G04 #@! TD*
G04 #@! TO.C,D102*
X105505025Y-100494975D03*
X106494975Y-99505025D03*
G04 #@! TD*
G04 #@! TO.C,D542*
X155505025Y-80494975D03*
X156494975Y-79505025D03*
G04 #@! TD*
G04 #@! TO.C,D214*
X117505025Y-108494975D03*
X118494975Y-107505025D03*
G04 #@! TD*
G04 #@! TO.C,D266*
X123505025Y-104494975D03*
X124494975Y-103505025D03*
G04 #@! TD*
G04 #@! TO.C,D491*
X149505025Y-86494975D03*
X150494975Y-85505025D03*
G04 #@! TD*
G04 #@! TO.C,D464*
X145505025Y-104494975D03*
X146494975Y-103505025D03*
G04 #@! TD*
G04 #@! TO.C,D455*
X145505025Y-86494975D03*
X146494975Y-85505025D03*
G04 #@! TD*
G04 #@! TO.C,D197*
X115505025Y-110494975D03*
X116494975Y-109505025D03*
G04 #@! TD*
G04 #@! TO.C,D17*
X95505025Y-110494975D03*
X96494975Y-109505025D03*
G04 #@! TD*
G04 #@! TO.C,D412*
X139505025Y-108494975D03*
X140494975Y-107505025D03*
G04 #@! TD*
G04 #@! TO.C,D259*
X123505025Y-90494975D03*
X124494975Y-89505025D03*
G04 #@! TD*
G04 #@! TO.C,D178*
X113505025Y-108494975D03*
X114494975Y-107505025D03*
G04 #@! TD*
G04 #@! TO.C,D235*
X121505025Y-78494975D03*
X122494975Y-77505025D03*
G04 #@! TD*
G04 #@! TO.C,D281*
X125505025Y-98494975D03*
X126494975Y-97505025D03*
G04 #@! TD*
G04 #@! TO.C,D776*
X181505025Y-80494975D03*
X182494975Y-79505025D03*
G04 #@! TD*
G04 #@! TO.C,D453*
X145505025Y-82494975D03*
X146494975Y-81505025D03*
G04 #@! TD*
G04 #@! TO.C,D215*
X117505025Y-110494975D03*
X118494975Y-109505025D03*
G04 #@! TD*
G04 #@! TO.C,D98*
X105505025Y-92494975D03*
X106494975Y-91505025D03*
G04 #@! TD*
G04 #@! TO.C,D114*
X107505025Y-88494975D03*
X108494975Y-87505025D03*
G04 #@! TD*
G04 #@! TO.C,D448*
X143505025Y-108494975D03*
X144494975Y-107505025D03*
G04 #@! TD*
G04 #@! TO.C,D234*
X119505025Y-112494975D03*
X120494975Y-111505025D03*
G04 #@! TD*
G04 #@! TO.C,D252*
X121505025Y-112494975D03*
X122494975Y-111505025D03*
G04 #@! TD*
G04 #@! TO.C,D472*
X147505025Y-84494975D03*
X148494975Y-83505025D03*
G04 #@! TD*
G04 #@! TO.C,D218*
X119505025Y-80494975D03*
X120494975Y-79505025D03*
G04 #@! TD*
G04 #@! TO.C,D670*
X169505025Y-84494975D03*
X170494975Y-83505025D03*
G04 #@! TD*
G04 #@! TO.C,D330*
X131505025Y-88494975D03*
X132494975Y-87505025D03*
G04 #@! TD*
D14*
G04 #@! TO.C,U4*
X172000000Y-139000000D03*
X173200000Y-137800000D03*
X172000000Y-140200000D03*
X170800000Y-139000000D03*
X170800000Y-140200000D03*
X173200000Y-139000000D03*
X170800000Y-137800000D03*
X173200000Y-140200000D03*
X172000000Y-137800000D03*
D15*
X174437500Y-140800000D03*
X174437500Y-140400000D03*
X174437500Y-140000000D03*
X174437500Y-139600000D03*
X174437500Y-139200000D03*
X174437500Y-138800000D03*
X174437500Y-138400000D03*
X174437500Y-138000000D03*
X174437500Y-137600000D03*
X174437500Y-137200000D03*
D16*
X173800000Y-136562500D03*
X173400000Y-136562500D03*
X173000000Y-136562500D03*
X172600000Y-136562500D03*
X172200000Y-136562500D03*
X171800000Y-136562500D03*
X171400000Y-136562500D03*
X171000000Y-136562500D03*
X170600000Y-136562500D03*
X170200000Y-136562500D03*
D15*
X169562500Y-137200000D03*
X169562500Y-137600000D03*
X169562500Y-138000000D03*
X169562500Y-138400000D03*
X169562500Y-138800000D03*
X169562500Y-139200000D03*
X169562500Y-139600000D03*
X169562500Y-140000000D03*
X169562500Y-140400000D03*
X169562500Y-140800000D03*
D16*
X170200000Y-141437500D03*
X170600000Y-141437500D03*
X171000000Y-141437500D03*
X171400000Y-141437500D03*
X171800000Y-141437500D03*
X172200000Y-141437500D03*
X172600000Y-141437500D03*
X173000000Y-141437500D03*
X173400000Y-141437500D03*
X173800000Y-141437500D03*
G04 #@! TD*
D10*
G04 #@! TO.C,D608*
X161505025Y-104494975D03*
X162494975Y-103505025D03*
G04 #@! TD*
G04 #@! TO.C,D258*
X123505025Y-88494975D03*
X124494975Y-87505025D03*
G04 #@! TD*
D13*
G04 #@! TO.C,R4*
X112800000Y-142900000D03*
X112800000Y-141900000D03*
G04 #@! TD*
D10*
G04 #@! TO.C,D171*
X113505025Y-94494975D03*
X114494975Y-93505025D03*
G04 #@! TD*
G04 #@! TO.C,D274*
X125505025Y-84494975D03*
X126494975Y-83505025D03*
G04 #@! TD*
G04 #@! TO.C,D13*
X95505025Y-102494975D03*
X96494975Y-101505025D03*
G04 #@! TD*
G04 #@! TO.C,D390*
X137505025Y-100494975D03*
X138494975Y-99505025D03*
G04 #@! TD*
G04 #@! TO.C,D715*
X173505025Y-102494975D03*
X174494975Y-101505025D03*
G04 #@! TD*
G04 #@! TO.C,D602*
X161505025Y-92494975D03*
X162494975Y-91505025D03*
G04 #@! TD*
G04 #@! TO.C,D37*
X99505025Y-78494975D03*
X100494975Y-77505025D03*
G04 #@! TD*
D11*
G04 #@! TO.C,R30*
X143450000Y-139600000D03*
X144450000Y-139600000D03*
G04 #@! TD*
D10*
G04 #@! TO.C,D742*
X177505025Y-84494975D03*
X178494975Y-83505025D03*
G04 #@! TD*
G04 #@! TO.C,D87*
X103505025Y-106494975D03*
X104494975Y-105505025D03*
G04 #@! TD*
G04 #@! TO.C,D357*
X133505025Y-106494975D03*
X134494975Y-105505025D03*
G04 #@! TD*
G04 #@! TO.C,D268*
X123505025Y-108494975D03*
X124494975Y-107505025D03*
G04 #@! TD*
G04 #@! TO.C,D271*
X125505025Y-78494975D03*
X126494975Y-77505025D03*
G04 #@! TD*
G04 #@! TO.C,D713*
X173505025Y-98494975D03*
X174494975Y-97505025D03*
G04 #@! TD*
G04 #@! TO.C,D456*
X145505025Y-88494975D03*
X146494975Y-87505025D03*
G04 #@! TD*
G04 #@! TO.C,D278*
X125505025Y-92494975D03*
X126494975Y-91505025D03*
G04 #@! TD*
D13*
G04 #@! TO.C,R37*
X177000000Y-143000000D03*
X177000000Y-142000000D03*
G04 #@! TD*
D10*
G04 #@! TO.C,D195*
X115505025Y-106494975D03*
X116494975Y-105505025D03*
G04 #@! TD*
G04 #@! TO.C,D34*
X97505025Y-108494975D03*
X98494975Y-107505025D03*
G04 #@! TD*
G04 #@! TO.C,D169*
X113505025Y-90494975D03*
X114494975Y-89505025D03*
G04 #@! TD*
G04 #@! TO.C,D575*
X157505025Y-110494975D03*
X158494975Y-109505025D03*
G04 #@! TD*
G04 #@! TO.C,D379*
X137505025Y-78494975D03*
X138494975Y-77505025D03*
G04 #@! TD*
G04 #@! TO.C,D789*
X181505025Y-106494975D03*
X182494975Y-105505025D03*
G04 #@! TD*
G04 #@! TO.C,D662*
X167505025Y-104494975D03*
X168494975Y-103505025D03*
G04 #@! TD*
G04 #@! TO.C,D440*
X143505025Y-92494975D03*
X144494975Y-91505025D03*
G04 #@! TD*
D11*
G04 #@! TO.C,C36*
X176900000Y-137600000D03*
X177900000Y-137600000D03*
G04 #@! TD*
D10*
G04 #@! TO.C,D11*
X95505025Y-98494975D03*
X96494975Y-97505025D03*
G04 #@! TD*
G04 #@! TO.C,D146*
X111505025Y-80494975D03*
X112494975Y-79505025D03*
G04 #@! TD*
G04 #@! TO.C,D447*
X143505025Y-106494975D03*
X144494975Y-105505025D03*
G04 #@! TD*
G04 #@! TO.C,D8*
X95505025Y-92494975D03*
X96494975Y-91505025D03*
G04 #@! TD*
G04 #@! TO.C,D205*
X117505025Y-90494975D03*
X118494975Y-89505025D03*
G04 #@! TD*
G04 #@! TO.C,D773*
X179505025Y-110494975D03*
X180494975Y-109505025D03*
G04 #@! TD*
D18*
G04 #@! TO.C,J1*
X140875000Y-151150000D03*
X139625000Y-151150000D03*
X138375000Y-151150000D03*
X137125000Y-151150000D03*
D19*
X135275000Y-154500000D03*
X142725000Y-154500000D03*
G04 #@! TD*
D10*
G04 #@! TO.C,D701*
X171505025Y-110494975D03*
X172494975Y-109505025D03*
G04 #@! TD*
G04 #@! TO.C,D374*
X135505025Y-104494975D03*
X136494975Y-103505025D03*
G04 #@! TD*
G04 #@! TO.C,D413*
X139505025Y-110494975D03*
X140494975Y-109505025D03*
G04 #@! TD*
G04 #@! TO.C,D76*
X103505025Y-84494975D03*
X104494975Y-83505025D03*
G04 #@! TD*
G04 #@! TO.C,D296*
X127505025Y-92494975D03*
X128494975Y-91505025D03*
G04 #@! TD*
G04 #@! TO.C,D498*
X149505025Y-100494975D03*
X150494975Y-99505025D03*
G04 #@! TD*
G04 #@! TO.C,D161*
X111505025Y-110494975D03*
X112494975Y-109505025D03*
G04 #@! TD*
G04 #@! TO.C,D446*
X143505025Y-104494975D03*
X144494975Y-103505025D03*
G04 #@! TD*
G04 #@! TO.C,D162*
X111505025Y-112494975D03*
X112494975Y-111505025D03*
G04 #@! TD*
G04 #@! TO.C,D143*
X109505025Y-110494975D03*
X110494975Y-109505025D03*
G04 #@! TD*
D12*
G04 #@! TO.C,R16*
X136600000Y-141900000D03*
X136600000Y-142900000D03*
G04 #@! TD*
D10*
G04 #@! TO.C,D532*
X153505025Y-96494975D03*
X154494975Y-95505025D03*
G04 #@! TD*
G04 #@! TO.C,D182*
X115505025Y-80494975D03*
X116494975Y-79505025D03*
G04 #@! TD*
G04 #@! TO.C,D111*
X107505025Y-82494975D03*
X108494975Y-81505025D03*
G04 #@! TD*
D11*
G04 #@! TO.C,C1*
X110900000Y-135600000D03*
X111900000Y-135600000D03*
G04 #@! TD*
D10*
G04 #@! TO.C,D334*
X131505025Y-96494975D03*
X132494975Y-95505025D03*
G04 #@! TD*
G04 #@! TO.C,D44*
X99505025Y-92494975D03*
X100494975Y-91505025D03*
G04 #@! TD*
G04 #@! TO.C,D137*
X109505025Y-98494975D03*
X110494975Y-97505025D03*
G04 #@! TD*
G04 #@! TO.C,D648*
X165505025Y-112494975D03*
X166494975Y-111505025D03*
G04 #@! TD*
G04 #@! TO.C,D151*
X111505025Y-90494975D03*
X112494975Y-89505025D03*
G04 #@! TD*
G04 #@! TO.C,D343*
X133505025Y-78494975D03*
X134494975Y-77505025D03*
G04 #@! TD*
G04 #@! TO.C,D678*
X169505025Y-100494975D03*
X170494975Y-99505025D03*
G04 #@! TD*
G04 #@! TO.C,D408*
X139505025Y-100494975D03*
X140494975Y-99505025D03*
G04 #@! TD*
G04 #@! TO.C,D599*
X161505025Y-86494975D03*
X162494975Y-85505025D03*
G04 #@! TD*
G04 #@! TO.C,D718*
X173505025Y-108494975D03*
X174494975Y-107505025D03*
G04 #@! TD*
G04 #@! TO.C,D41*
X99505025Y-86494975D03*
X100494975Y-85505025D03*
G04 #@! TD*
G04 #@! TO.C,D549*
X155505025Y-94494975D03*
X156494975Y-93505025D03*
G04 #@! TD*
D13*
G04 #@! TO.C,C40*
X180600000Y-139200000D03*
X180600000Y-138200000D03*
G04 #@! TD*
D10*
G04 #@! TO.C,D554*
X155505025Y-104494975D03*
X156494975Y-103505025D03*
G04 #@! TD*
G04 #@! TO.C,D669*
X169505025Y-82494975D03*
X170494975Y-81505025D03*
G04 #@! TD*
D11*
G04 #@! TO.C,C34*
X176900000Y-135600000D03*
X177900000Y-135600000D03*
G04 #@! TD*
D10*
G04 #@! TO.C,D595*
X161505025Y-78494975D03*
X162494975Y-77505025D03*
G04 #@! TD*
G04 #@! TO.C,D691*
X171505025Y-90494975D03*
X172494975Y-89505025D03*
G04 #@! TD*
D12*
G04 #@! TO.C,R32*
X177900000Y-140200000D03*
X177900000Y-141200000D03*
G04 #@! TD*
D10*
G04 #@! TO.C,D589*
X159505025Y-102494975D03*
X160494975Y-101505025D03*
G04 #@! TD*
G04 #@! TO.C,D535*
X153505025Y-102494975D03*
X154494975Y-101505025D03*
G04 #@! TD*
G04 #@! TO.C,D752*
X177505025Y-104494975D03*
X178494975Y-103505025D03*
G04 #@! TD*
G04 #@! TO.C,D153*
X111505025Y-94494975D03*
X112494975Y-93505025D03*
G04 #@! TD*
G04 #@! TO.C,D547*
X155505025Y-90494975D03*
X156494975Y-89505025D03*
G04 #@! TD*
G04 #@! TO.C,D181*
X115505025Y-78494975D03*
X116494975Y-77505025D03*
G04 #@! TD*
G04 #@! TO.C,D693*
X171505025Y-94494975D03*
X172494975Y-93505025D03*
G04 #@! TD*
G04 #@! TO.C,D421*
X141505025Y-90494975D03*
X142494975Y-89505025D03*
G04 #@! TD*
G04 #@! TO.C,D657*
X167505025Y-94494975D03*
X168494975Y-93505025D03*
G04 #@! TD*
G04 #@! TO.C,D70*
X101505025Y-108494975D03*
X102494975Y-107505025D03*
G04 #@! TD*
G04 #@! TO.C,D321*
X129505025Y-106494975D03*
X130494975Y-105505025D03*
G04 #@! TD*
G04 #@! TO.C,D366*
X135505025Y-88494975D03*
X136494975Y-87505025D03*
G04 #@! TD*
G04 #@! TO.C,D280*
X125505025Y-96494975D03*
X126494975Y-95505025D03*
G04 #@! TD*
G04 #@! TO.C,D74*
X103505025Y-80494975D03*
X104494975Y-79505025D03*
G04 #@! TD*
D13*
G04 #@! TO.C,C22*
X134800000Y-139200000D03*
X134800000Y-138200000D03*
G04 #@! TD*
D10*
G04 #@! TO.C,D156*
X111505025Y-100494975D03*
X112494975Y-99505025D03*
G04 #@! TD*
G04 #@! TO.C,D531*
X153505025Y-94494975D03*
X154494975Y-93505025D03*
G04 #@! TD*
G04 #@! TO.C,D279*
X125505025Y-94494975D03*
X126494975Y-93505025D03*
G04 #@! TD*
G04 #@! TO.C,D226*
X119505025Y-96494975D03*
X120494975Y-95505025D03*
G04 #@! TD*
G04 #@! TO.C,D766*
X179505025Y-96494975D03*
X180494975Y-95505025D03*
G04 #@! TD*
G04 #@! TO.C,D119*
X107505025Y-98494975D03*
X108494975Y-97505025D03*
G04 #@! TD*
G04 #@! TO.C,D458*
X145505025Y-92494975D03*
X146494975Y-91505025D03*
G04 #@! TD*
G04 #@! TO.C,D239*
X121505025Y-86494975D03*
X122494975Y-85505025D03*
G04 #@! TD*
G04 #@! TO.C,D86*
X103505025Y-104494975D03*
X104494975Y-103505025D03*
G04 #@! TD*
G04 #@! TO.C,D51*
X99505025Y-106494975D03*
X100494975Y-105505025D03*
G04 #@! TD*
G04 #@! TO.C,D520*
X151505025Y-108494975D03*
X152494975Y-107505025D03*
G04 #@! TD*
G04 #@! TO.C,D500*
X149505025Y-104494975D03*
X150494975Y-103505025D03*
G04 #@! TD*
G04 #@! TO.C,D213*
X117505025Y-106494975D03*
X118494975Y-105505025D03*
G04 #@! TD*
D12*
G04 #@! TO.C,C23*
X121500000Y-136850000D03*
X121500000Y-137850000D03*
G04 #@! TD*
D10*
G04 #@! TO.C,D587*
X159505025Y-98494975D03*
X160494975Y-97505025D03*
G04 #@! TD*
G04 #@! TO.C,D204*
X117505025Y-88494975D03*
X118494975Y-87505025D03*
G04 #@! TD*
G04 #@! TO.C,D327*
X131505025Y-82494975D03*
X132494975Y-81505025D03*
G04 #@! TD*
G04 #@! TO.C,D230*
X119505025Y-104494975D03*
X120494975Y-103505025D03*
G04 #@! TD*
G04 #@! TO.C,D262*
X123505025Y-96494975D03*
X124494975Y-95505025D03*
G04 #@! TD*
G04 #@! TO.C,D395*
X137505025Y-110494975D03*
X138494975Y-109505025D03*
G04 #@! TD*
G04 #@! TO.C,D437*
X143505025Y-86494975D03*
X144494975Y-85505025D03*
G04 #@! TD*
D11*
G04 #@! TO.C,R18*
X121450000Y-141400000D03*
X122450000Y-141400000D03*
G04 #@! TD*
D10*
G04 #@! TO.C,D695*
X171505025Y-98494975D03*
X172494975Y-97505025D03*
G04 #@! TD*
G04 #@! TO.C,D272*
X125505025Y-80494975D03*
X126494975Y-79505025D03*
G04 #@! TD*
G04 #@! TO.C,D289*
X127505025Y-78494975D03*
X128494975Y-77505025D03*
G04 #@! TD*
G04 #@! TO.C,D359*
X133505025Y-110494975D03*
X134494975Y-109505025D03*
G04 #@! TD*
G04 #@! TO.C,D165*
X113505025Y-82494975D03*
X114494975Y-81505025D03*
G04 #@! TD*
G04 #@! TO.C,D56*
X101505025Y-80494975D03*
X102494975Y-79505025D03*
G04 #@! TD*
G04 #@! TO.C,D559*
X157505025Y-78494975D03*
X158494975Y-77505025D03*
G04 #@! TD*
G04 #@! TO.C,D99*
X105505025Y-94494975D03*
X106494975Y-93505025D03*
G04 #@! TD*
G04 #@! TO.C,D314*
X129505025Y-92494975D03*
X130494975Y-91505025D03*
G04 #@! TD*
G04 #@! TO.C,D594*
X159505025Y-112494975D03*
X160494975Y-111505025D03*
G04 #@! TD*
G04 #@! TO.C,D299*
X127505025Y-98494975D03*
X128494975Y-97505025D03*
G04 #@! TD*
G04 #@! TO.C,D311*
X129505025Y-86494975D03*
X130494975Y-85505025D03*
G04 #@! TD*
G04 #@! TO.C,D16*
X95505025Y-108494975D03*
X96494975Y-107505025D03*
G04 #@! TD*
G04 #@! TO.C,D650*
X167505025Y-80494975D03*
X168494975Y-79505025D03*
G04 #@! TD*
D11*
G04 #@! TO.C,C9*
X154900000Y-135600000D03*
X155900000Y-135600000D03*
G04 #@! TD*
M02*
