M48
; DRILL file {KiCad (6.0.2-0)} date 2022 May 19, Thursday 22:52:03
; FORMAT={-:-/ absolute / inch / decimal}
; #@! TF.CreationDate,2022-05-19T22:52:03+02:00
; #@! TF.GenerationSoftware,Kicad,Pcbnew,(6.0.2-0)
; #@! TF.FileFunction,Plated,1,2,PTH
FMAT,2
INCH
; #@! TA.AperFunction,Plated,PTH,ViaDrill
T1C0.0118
%
G90
G05
T1
X3.7439Y-3.1065
X3.7439Y-3.1852
X3.7439Y-3.264
X3.7439Y-3.3427
X3.7439Y-3.4214
X3.7439Y-3.5002
X3.7439Y-3.5789
X3.7439Y-3.6577
X3.7439Y-3.7364
X3.7439Y-3.8151
X3.7439Y-3.8939
X3.7439Y-3.9726
X3.7439Y-4.0514
X3.7439Y-4.1301
X3.7439Y-4.2088
X3.7439Y-4.2876
X3.7439Y-4.3663
X3.7439Y-4.4451
X3.7795Y-4.4685
X3.8225Y-3.1853
X3.8225Y-3.2641
X3.8225Y-3.3428
X3.8225Y-3.5003
X3.8225Y-3.579
X3.8225Y-3.6578
X3.8225Y-3.8152
X3.8225Y-3.894
X3.8225Y-3.9727
X3.8225Y-4.1302
X3.8225Y-4.2089
X3.8225Y-4.2877
X3.8225Y-4.4452
X3.8227Y-3.1064
X3.8227Y-3.4213
X3.8227Y-3.7363
X3.8227Y-4.0513
X3.8227Y-4.3662
X3.8228Y-4.748
X3.8268Y-4.8031
X3.8268Y-4.8819
X3.8268Y-4.9606
X3.8268Y-5.0394
X3.8268Y-5.1181
X3.8268Y-5.1969
X3.8268Y-5.2756
X3.8268Y-5.3543
X3.8268Y-5.4331
X3.8268Y-5.5118
X3.8268Y-5.5906
X3.8268Y-5.6693
X3.8268Y-5.748
X3.8268Y-5.8268
X3.8268Y-5.9055
X3.8268Y-5.9843
X3.8268Y-6.063
X3.8268Y-6.1417
X3.8583Y-5.0787
X3.878Y-3.0217
X3.878Y-5.8661
X3.878Y-6.1929
X3.8976Y-4.9606
X3.8976Y-5.4272
X3.8976Y-5.4606
X3.8976Y-5.4961
X3.8976Y-5.5315
X3.8976Y-6.0039
X3.9014Y-3.1852
X3.9014Y-3.264
X3.9014Y-3.3427
X3.9014Y-3.5002
X3.9014Y-3.5789
X3.9014Y-3.6577
X3.9014Y-3.8151
X3.9014Y-3.8939
X3.9014Y-3.9726
X3.9014Y-4.1301
X3.9014Y-4.2088
X3.9014Y-4.2876
X3.9014Y-4.4451
X3.9016Y-3.1063
X3.9016Y-3.4212
X3.9016Y-3.7362
X3.9016Y-4.0512
X3.9016Y-4.3661
X3.9134Y-4.5748
X3.9134Y-4.6417
X3.9173Y-5.1575
X3.935Y-5.3898
X3.937Y-4.4689
X3.937Y-4.5748
X3.937Y-4.6417
X3.937Y-5.7874
X3.9567Y-4.752
X3.9606Y-4.5748
X3.9606Y-4.6417
X3.9705Y-5.3898
X3.9705Y-5.5315
X3.9764Y-5.2362
X3.98Y-3.1066
X3.98Y-3.1853
X3.98Y-3.2641
X3.98Y-3.3428
X3.98Y-3.4215
X3.98Y-3.5003
X3.98Y-3.579
X3.98Y-3.6578
X3.98Y-3.7365
X3.98Y-3.8152
X3.98Y-3.894
X3.98Y-3.9727
X3.98Y-4.0515
X3.98Y-4.1302
X3.98Y-4.2089
X3.98Y-4.2877
X3.98Y-4.3664
X3.98Y-4.4452
X3.9961Y-5.7087
X4.0001Y-5.5182
X4.0016Y-5.566
X4.0256Y-5.315
X4.0315Y-5.5188
X4.0354Y-3.0217
X4.0354Y-6.1929
X4.0453Y-5.6398
X4.0589Y-3.1065
X4.0589Y-3.1852
X4.0589Y-3.264
X4.0589Y-3.3427
X4.0589Y-3.4214
X4.0589Y-3.5002
X4.0589Y-3.5789
X4.0589Y-3.6577
X4.0589Y-3.7364
X4.0589Y-3.8151
X4.0589Y-3.8939
X4.0589Y-3.9726
X4.0589Y-4.0514
X4.0589Y-4.1301
X4.0589Y-4.2088
X4.0589Y-4.2876
X4.0589Y-4.3663
X4.0589Y-4.4451
X4.0945Y-4.4688
X4.1142Y-4.752
X4.1181Y-5.4173
X4.1181Y-5.4449
X4.1181Y-5.4724
X4.1181Y-5.5
X4.1181Y-5.5276
X4.1376Y-3.1065
X4.1376Y-3.1852
X4.1376Y-3.264
X4.1376Y-3.3427
X4.1376Y-3.4214
X4.1376Y-3.5002
X4.1376Y-3.5789
X4.1376Y-3.6577
X4.1376Y-3.7364
X4.1376Y-3.8151
X4.1376Y-3.8939
X4.1376Y-3.9726
X4.1376Y-4.0514
X4.1376Y-4.1301
X4.1376Y-4.2088
X4.1376Y-4.2876
X4.1376Y-4.3663
X4.1376Y-4.4451
X4.1457Y-5.4173
X4.1457Y-5.4449
X4.1457Y-5.4724
X4.1457Y-5.5
X4.1457Y-5.5276
X4.1535Y-6.1417
X4.1732Y-5.4173
X4.1732Y-5.4449
X4.1732Y-5.4724
X4.1732Y-5.5
X4.1732Y-5.5276
X4.1929Y-3.0217
X4.1929Y-6.1929
X4.2008Y-5.4173
X4.2008Y-5.4449
X4.2008Y-5.4724
X4.2008Y-5.5
X4.2008Y-5.5276
X4.2163Y-3.1853
X4.2163Y-3.2641
X4.2163Y-3.3428
X4.2163Y-3.5003
X4.2163Y-3.579
X4.2163Y-3.6578
X4.2163Y-3.8152
X4.2163Y-3.894
X4.2163Y-3.9727
X4.2163Y-4.1302
X4.2163Y-4.2089
X4.2163Y-4.2877
X4.2163Y-4.4452
X4.2164Y-3.1064
X4.2164Y-3.4213
X4.2164Y-3.7363
X4.2164Y-4.0513
X4.2164Y-4.3662
X4.2283Y-5.4173
X4.2283Y-5.4449
X4.2283Y-5.4724
X4.2283Y-5.5
X4.2283Y-5.5276
X4.2323Y-4.8327
X4.2421Y-5.315
X4.2421Y-5.6693
X4.252Y-4.4688
X4.2717Y-4.752
X4.2815Y-6.1319
X4.2951Y-3.1852
X4.2951Y-3.264
X4.2951Y-3.3427
X4.2951Y-3.5002
X4.2951Y-3.5789
X4.2951Y-3.6577
X4.2951Y-3.8151
X4.2951Y-3.8939
X4.2951Y-3.9726
X4.2951Y-4.1301
X4.2951Y-4.2088
X4.2951Y-4.2876
X4.2951Y-4.4451
X4.2953Y-3.1063
X4.2953Y-3.4212
X4.2953Y-3.7362
X4.2953Y-4.0512
X4.2953Y-4.3661
X4.3406Y-4.813
X4.3504Y-3.0217
X4.3504Y-6.1929
X4.3602Y-5.6693
X4.3602Y-6.1319
X4.3701Y-4.8819
X4.3701Y-5.5709
X4.3737Y-3.1066
X4.3737Y-3.1853
X4.3737Y-3.2641
X4.3737Y-3.3428
X4.3737Y-3.4215
X4.3737Y-3.5003
X4.3737Y-3.579
X4.3737Y-3.6578
X4.3737Y-3.7365
X4.3737Y-3.8152
X4.3737Y-3.894
X4.3737Y-3.9727
X4.3737Y-4.0515
X4.3737Y-4.1302
X4.3737Y-4.2089
X4.3737Y-4.2877
X4.3737Y-4.3664
X4.3737Y-4.4452
X4.4055Y-5.5709
X4.4094Y-4.4688
X4.4252Y-5.3386
X4.4252Y-5.378
X4.4252Y-5.4252
X4.4291Y-4.752
X4.4409Y-5.498
X4.4409Y-5.5709
X4.4526Y-3.1065
X4.4526Y-3.1852
X4.4526Y-3.264
X4.4526Y-3.3427
X4.4526Y-3.4214
X4.4526Y-3.5002
X4.4526Y-3.5789
X4.4526Y-3.6577
X4.4526Y-3.7364
X4.4526Y-3.8151
X4.4526Y-3.8939
X4.4526Y-3.9726
X4.4526Y-4.0514
X4.4526Y-4.1301
X4.4526Y-4.2088
X4.4526Y-4.2876
X4.4526Y-4.3663
X4.4526Y-4.4451
X4.4764Y-5.4213
X4.4764Y-5.498
X4.4764Y-5.5709
X4.4882Y-5.7874
X4.5079Y-3.0217
X4.5079Y-6.1929
X4.5118Y-5.4213
X4.5118Y-5.498
X4.5118Y-5.6457
X4.5313Y-3.1065
X4.5313Y-3.1852
X4.5313Y-3.264
X4.5313Y-3.3427
X4.5313Y-3.4214
X4.5313Y-3.5002
X4.5313Y-3.5789
X4.5313Y-3.6577
X4.5313Y-3.7364
X4.5313Y-3.8151
X4.5313Y-3.8939
X4.5313Y-3.9726
X4.5313Y-4.0514
X4.5313Y-4.1301
X4.5313Y-4.2088
X4.5313Y-4.2876
X4.5313Y-4.3663
X4.5313Y-4.4451
X4.5669Y-4.4685
X4.5866Y-4.752
X4.61Y-3.1853
X4.61Y-3.2641
X4.61Y-3.3428
X4.61Y-3.5003
X4.61Y-3.579
X4.61Y-3.6578
X4.61Y-3.8152
X4.61Y-3.894
X4.61Y-3.9727
X4.61Y-4.1302
X4.61Y-4.2089
X4.61Y-4.2877
X4.61Y-4.4452
X4.6101Y-3.1064
X4.6101Y-3.4213
X4.6101Y-3.7363
X4.6101Y-4.0513
X4.6101Y-4.3662
X4.6457Y-4.4685
X4.6888Y-3.264
X4.6888Y-3.3427
X4.6888Y-3.5002
X4.6888Y-3.5789
X4.6888Y-3.6577
X4.6888Y-3.8151
X4.6888Y-3.8939
X4.6888Y-3.9726
X4.6888Y-4.1301
X4.6888Y-4.2088
X4.6888Y-4.2876
X4.6888Y-4.4451
X4.689Y-3.185
X4.689Y-4.748
X4.689Y-3.1063
X4.689Y-3.4212
X4.689Y-3.7362
X4.689Y-4.0512
X4.689Y-4.3661
X4.6929Y-4.8031
X4.6929Y-4.8819
X4.6929Y-4.9606
X4.6929Y-5.0394
X4.6929Y-5.1181
X4.6929Y-5.1969
X4.6929Y-5.2756
X4.6929Y-5.3543
X4.6929Y-5.4331
X4.6929Y-5.5118
X4.6929Y-5.5906
X4.6929Y-5.6693
X4.6929Y-5.748
X4.6929Y-5.8268
X4.6929Y-5.9055
X4.6929Y-5.9843
X4.6929Y-6.063
X4.6929Y-6.1417
X4.7244Y-5.0787
X4.7441Y-3.0217
X4.7441Y-6.1772
X4.7539Y-5.8661
X4.7638Y-4.9705
X4.7638Y-5.4961
X4.7638Y-5.5315
X4.7638Y-5.9941
X4.7674Y-3.1066
X4.7674Y-3.1853
X4.7674Y-3.2641
X4.7674Y-3.3428
X4.7674Y-3.4215
X4.7674Y-3.5003
X4.7674Y-3.579
X4.7674Y-3.6578
X4.7674Y-3.7365
X4.7674Y-3.8152
X4.7674Y-3.894
X4.7674Y-3.9727
X4.7674Y-4.0515
X4.7674Y-4.1302
X4.7674Y-4.2089
X4.7674Y-4.2877
X4.7674Y-4.3664
X4.7674Y-4.4452
X4.7835Y-5.1575
X4.8012Y-5.3898
X4.8012Y-5.4272
X4.8031Y-4.4688
X4.8031Y-5.7874
X4.8228Y-4.752
X4.8366Y-5.3898
X4.8366Y-5.4272
X4.8386Y-5.5315
X4.8425Y-5.2362
X4.8463Y-3.1065
X4.8463Y-3.1852
X4.8463Y-3.264
X4.8463Y-3.3427
X4.8463Y-3.4214
X4.8463Y-3.5002
X4.8463Y-3.5789
X4.8463Y-3.6577
X4.8463Y-3.7364
X4.8463Y-3.8151
X4.8463Y-3.8939
X4.8463Y-3.9726
X4.8463Y-4.0514
X4.8463Y-4.1301
X4.8463Y-4.2088
X4.8463Y-4.2876
X4.8463Y-4.3663
X4.8463Y-4.4451
X4.8622Y-5.7087
X4.8668Y-5.5177
X4.8698Y-5.5646
X4.8974Y-5.5191
X4.9016Y-3.0217
X4.9016Y-5.315
X4.9016Y-6.1772
X4.9114Y-5.6398
X4.925Y-3.1065
X4.925Y-3.1852
X4.925Y-3.264
X4.925Y-3.3427
X4.925Y-3.4214
X4.925Y-3.5002
X4.925Y-3.5789
X4.925Y-3.6577
X4.925Y-3.7364
X4.925Y-3.8151
X4.925Y-3.8939
X4.925Y-3.9726
X4.925Y-4.0514
X4.925Y-4.1301
X4.925Y-4.2088
X4.925Y-4.2876
X4.925Y-4.3663
X4.925Y-4.4451
X4.9606Y-4.4689
X4.9803Y-4.752
X4.9843Y-5.4173
X4.9843Y-5.4449
X4.9843Y-5.4724
X4.9843Y-5.5
X4.9843Y-5.5276
X5.0037Y-3.1853
X5.0037Y-3.2641
X5.0037Y-3.3428
X5.0037Y-3.5003
X5.0037Y-3.579
X5.0037Y-3.6578
X5.0037Y-3.8152
X5.0037Y-3.894
X5.0037Y-3.9727
X5.0037Y-4.1302
X5.0037Y-4.2089
X5.0037Y-4.2877
X5.0037Y-4.4452
X5.0038Y-3.1064
X5.0038Y-3.4213
X5.0038Y-3.7363
X5.0038Y-4.0513
X5.0038Y-4.3662
X5.0118Y-5.4173
X5.0118Y-5.4449
X5.0118Y-5.4724
X5.0118Y-5.5
X5.0118Y-5.5276
X5.0394Y-5.4173
X5.0394Y-5.4449
X5.0394Y-5.4724
X5.0394Y-5.5
X5.0394Y-5.5276
X5.0591Y-3.0217
X5.0591Y-6.1772
X5.0669Y-5.4173
X5.0669Y-5.4449
X5.0669Y-5.4724
X5.0669Y-5.5
X5.0669Y-5.5276
X5.0825Y-3.1852
X5.0825Y-3.264
X5.0825Y-3.3427
X5.0825Y-3.5002
X5.0825Y-3.5789
X5.0825Y-3.6577
X5.0825Y-3.8151
X5.0825Y-3.8939
X5.0825Y-3.9726
X5.0825Y-4.1301
X5.0825Y-4.2088
X5.0825Y-4.2876
X5.0825Y-4.4451
X5.0827Y-3.1063
X5.0827Y-3.4212
X5.0827Y-3.7362
X5.0827Y-4.0512
X5.0827Y-4.3661
X5.0945Y-5.4173
X5.0945Y-5.4449
X5.0945Y-5.4724
X5.0945Y-5.5
X5.0945Y-5.5276
X5.0984Y-4.8327
X5.1083Y-5.315
X5.1083Y-5.6496
X5.1083Y-6.0335
X5.1181Y-4.4689
X5.1378Y-4.752
X5.1476Y-6.1122
X5.1611Y-3.1066
X5.1611Y-3.1853
X5.1611Y-3.2641
X5.1611Y-3.3428
X5.1611Y-3.4215
X5.1611Y-3.5003
X5.1611Y-3.579
X5.1611Y-3.6578
X5.1611Y-3.7365
X5.1611Y-3.8152
X5.1611Y-3.894
X5.1611Y-3.9727
X5.1611Y-4.0515
X5.1611Y-4.1302
X5.1611Y-4.2089
X5.1611Y-4.2877
X5.1611Y-4.3664
X5.1611Y-4.4452
X5.2067Y-4.813
X5.2165Y-3.0217
X5.2165Y-6.1772
X5.2362Y-5.5709
X5.24Y-3.1065
X5.24Y-3.1852
X5.24Y-3.264
X5.24Y-3.3427
X5.24Y-3.4214
X5.24Y-3.5002
X5.24Y-3.5789
X5.24Y-3.6577
X5.24Y-3.7364
X5.24Y-3.8151
X5.24Y-3.8939
X5.24Y-3.9726
X5.24Y-4.0514
X5.24Y-4.1301
X5.24Y-4.2088
X5.24Y-4.2876
X5.24Y-4.3663
X5.24Y-4.4451
X5.2461Y-4.8819
X5.2461Y-5.6693
X5.2717Y-5.5709
X5.2756Y-4.4688
X5.2913Y-5.3386
X5.2913Y-5.378
X5.2913Y-5.4252
X5.2953Y-4.752
X5.2992Y-6.0354
X5.2992Y-6.0591
X5.2992Y-6.0827
X5.2992Y-6.1063
X5.2992Y-6.1299
X5.3071Y-5.498
X5.3071Y-5.5709
X5.3187Y-3.1065
X5.3187Y-3.1852
X5.3187Y-3.264
X5.3187Y-3.3427
X5.3187Y-3.4214
X5.3187Y-3.5002
X5.3187Y-3.5789
X5.3187Y-3.6577
X5.3187Y-3.7364
X5.3187Y-3.8151
X5.3187Y-3.8939
X5.3187Y-3.9726
X5.3187Y-4.0514
X5.3187Y-4.1301
X5.3187Y-4.2088
X5.3187Y-4.2876
X5.3187Y-4.3663
X5.3187Y-4.4451
X5.3425Y-5.4213
X5.3425Y-5.498
X5.3425Y-5.5709
X5.3543Y-6.0354
X5.3543Y-6.0591
X5.3543Y-6.0827
X5.3543Y-6.1063
X5.3543Y-6.1299
X5.374Y-3.0217
X5.374Y-6.1772
X5.378Y-5.4213
X5.378Y-5.498
X5.378Y-5.6457
X5.3974Y-3.1853
X5.3974Y-3.2641
X5.3974Y-3.3428
X5.3974Y-3.5003
X5.3974Y-3.579
X5.3974Y-3.6578
X5.3974Y-3.8152
X5.3974Y-3.894
X5.3974Y-3.9727
X5.3974Y-4.1302
X5.3974Y-4.2089
X5.3974Y-4.2877
X5.3974Y-4.4452
X5.3976Y-3.1064
X5.3976Y-3.4213
X5.3976Y-3.7363
X5.3976Y-4.0513
X5.3976Y-4.3662
X5.4331Y-4.4685
X5.4331Y-6.1764
X5.442Y-6.2671
X5.4528Y-4.752
X5.4646Y-6.1764
X5.468Y-6.2515
X5.4685Y-4.5748
X5.4685Y-4.6417
X5.4762Y-3.1852
X5.4762Y-3.264
X5.4762Y-3.3427
X5.4762Y-3.5002
X5.4762Y-3.5789
X5.4762Y-3.6577
X5.4762Y-3.8151
X5.4762Y-3.8939
X5.4762Y-3.9726
X5.4762Y-4.1301
X5.4762Y-4.2088
X5.4762Y-4.2876
X5.4762Y-4.4451
X5.4764Y-3.1063
X5.4764Y-3.4212
X5.4764Y-3.7362
X5.4764Y-4.0512
X5.4764Y-4.3661
X5.4921Y-4.5748
X5.4921Y-4.6417
X5.4961Y-6.1803
X5.4961Y-6.237
X5.5118Y-4.4685
X5.5157Y-4.5748
X5.5157Y-4.6417
X5.5548Y-3.1066
X5.5548Y-3.1853
X5.5548Y-3.2641
X5.5548Y-3.3428
X5.5548Y-3.4215
X5.5548Y-3.5003
X5.5548Y-3.579
X5.5548Y-3.6578
X5.5548Y-3.7365
X5.5548Y-3.8152
X5.5548Y-3.894
X5.5548Y-3.9727
X5.5548Y-4.0515
X5.5548Y-4.1302
X5.5548Y-4.2089
X5.5548Y-4.2877
X5.5548Y-4.3664
X5.5548Y-4.4452
X5.5551Y-4.748
X5.5591Y-4.8031
X5.5591Y-4.8819
X5.5591Y-4.9606
X5.5591Y-5.0394
X5.5591Y-5.1181
X5.5591Y-5.1969
X5.5591Y-5.2756
X5.5591Y-5.3543
X5.5591Y-5.4331
X5.5591Y-5.5118
X5.5591Y-5.5906
X5.5591Y-5.6693
X5.5591Y-5.748
X5.5591Y-5.8268
X5.5591Y-5.8976
X5.5787Y-5.937
X5.5788Y-5.9686
X5.5906Y-6.0354
X5.5906Y-6.0591
X5.5906Y-6.0827
X5.5906Y-6.1063
X5.5906Y-6.1299
X5.6004Y-5.0787
X5.6098Y-5.9833
X5.6102Y-3.0217
X5.6102Y-5.8661
X5.6102Y-6.1732
X5.6299Y-4.9705
X5.6337Y-3.1065
X5.6337Y-3.1852
X5.6337Y-3.264
X5.6337Y-3.3427
X5.6337Y-3.4214
X5.6337Y-3.5002
X5.6337Y-3.5789
X5.6337Y-3.6577
X5.6337Y-3.7364
X5.6337Y-3.8151
X5.6337Y-3.8939
X5.6337Y-3.9726
X5.6337Y-4.0514
X5.6337Y-4.1301
X5.6337Y-4.2088
X5.6337Y-4.2876
X5.6337Y-4.3663
X5.6337Y-4.4451
X5.6457Y-6.0354
X5.6457Y-6.0591
X5.6457Y-6.0827
X5.6457Y-6.1063
X5.6457Y-6.1299
X5.6476Y-5.5492
X5.6496Y-5.1575
X5.6673Y-5.3878
X5.6673Y-5.4272
X5.6693Y-4.4688
X5.6693Y-5.7874
X5.689Y-4.752
X5.7028Y-5.3878
X5.7028Y-5.4272
X5.7047Y-5.5315
X5.7087Y-5.2362
X5.7124Y-3.1065
X5.7124Y-3.1852
X5.7124Y-3.264
X5.7124Y-3.3427
X5.7124Y-3.4214
X5.7124Y-3.5002
X5.7124Y-3.5789
X5.7124Y-3.6577
X5.7124Y-3.7364
X5.7124Y-3.8151
X5.7124Y-3.8939
X5.7124Y-3.9726
X5.7124Y-4.0514
X5.7124Y-4.1301
X5.7124Y-4.2088
X5.7124Y-4.2876
X5.7124Y-4.3663
X5.7124Y-4.4451
X5.7283Y-5.7087
X5.7331Y-5.5171
X5.7351Y-5.5657
X5.7638Y-5.5185
X5.7677Y-3.0217
X5.7677Y-5.315
X5.7677Y-6.1732
X5.7776Y-5.6398
X5.7911Y-3.1853
X5.7911Y-3.2641
X5.7911Y-3.3428
X5.7911Y-3.5003
X5.7911Y-3.579
X5.7911Y-3.6578
X5.7911Y-3.8152
X5.7911Y-3.894
X5.7911Y-3.9727
X5.7911Y-4.1302
X5.7911Y-4.2089
X5.7911Y-4.2877
X5.7911Y-4.4452
X5.7913Y-3.1064
X5.7913Y-3.4213
X5.7913Y-3.7363
X5.7913Y-4.0513
X5.7913Y-4.3662
X5.8268Y-4.4688
X5.8465Y-4.752
X5.8504Y-5.4173
X5.8504Y-5.4449
X5.8504Y-5.4724
X5.8504Y-5.5
X5.8504Y-5.5276
X5.8699Y-3.1852
X5.8699Y-3.264
X5.8699Y-3.3427
X5.8699Y-3.5002
X5.8699Y-3.5789
X5.8699Y-3.6577
X5.8699Y-3.8151
X5.8699Y-3.8939
X5.8699Y-3.9726
X5.8699Y-4.1301
X5.8699Y-4.2088
X5.8699Y-4.2876
X5.8699Y-4.4451
X5.8701Y-3.1063
X5.8701Y-3.4212
X5.8701Y-3.7362
X5.8701Y-4.0512
X5.8701Y-4.3661
X5.878Y-5.4173
X5.878Y-5.4449
X5.878Y-5.4724
X5.878Y-5.5
X5.878Y-5.5276
X5.9055Y-5.4173
X5.9055Y-5.4449
X5.9055Y-5.4724
X5.9055Y-5.5
X5.9055Y-5.5276
X5.9252Y-3.0217
X5.9252Y-6.1732
X5.9331Y-5.4173
X5.9331Y-5.4449
X5.9331Y-5.4724
X5.9331Y-5.5
X5.9331Y-5.5276
X5.9485Y-3.1066
X5.9485Y-3.1853
X5.9485Y-3.2641
X5.9485Y-3.3428
X5.9485Y-3.4215
X5.9485Y-3.5003
X5.9485Y-3.579
X5.9485Y-3.6578
X5.9485Y-3.7365
X5.9485Y-3.8152
X5.9485Y-3.894
X5.9485Y-3.9727
X5.9485Y-4.0515
X5.9485Y-4.1302
X5.9485Y-4.2089
X5.9485Y-4.2877
X5.9485Y-4.3664
X5.9485Y-4.4452
X5.9606Y-5.4173
X5.9606Y-5.4449
X5.9606Y-5.4724
X5.9606Y-5.5
X5.9606Y-5.5276
X5.9646Y-4.8228
X5.9744Y-5.315
X5.9744Y-5.6496
X5.9744Y-6.0335
X5.9843Y-4.4688
X6.0039Y-4.752
X6.0138Y-6.1122
X6.0274Y-3.1065
X6.0274Y-3.1852
X6.0274Y-3.264
X6.0274Y-3.3427
X6.0274Y-3.4214
X6.0274Y-3.5002
X6.0274Y-3.5789
X6.0274Y-3.6577
X6.0274Y-3.7364
X6.0274Y-3.8151
X6.0274Y-3.8939
X6.0274Y-3.9726
X6.0274Y-4.0514
X6.0274Y-4.1301
X6.0274Y-4.2088
X6.0274Y-4.2876
X6.0274Y-4.3663
X6.0274Y-4.4451
X6.0728Y-4.813
X6.0827Y-3.0217
X6.0827Y-6.1732
X6.1024Y-4.8819
X6.1024Y-5.5748
X6.1024Y-5.6654
X6.1024Y-6.1122
X6.1061Y-3.1065
X6.1061Y-3.1852
X6.1061Y-3.264
X6.1061Y-3.3427
X6.1061Y-3.4214
X6.1061Y-3.5002
X6.1061Y-3.5789
X6.1061Y-3.6577
X6.1061Y-3.7364
X6.1061Y-3.8151
X6.1061Y-3.8939
X6.1061Y-3.9726
X6.1061Y-4.0514
X6.1061Y-4.1301
X6.1061Y-4.2088
X6.1061Y-4.2876
X6.1061Y-4.3663
X6.1061Y-4.4451
X6.1181Y-6.1429
X6.123Y-6.2706
X6.1378Y-5.5748
X6.1417Y-4.4689
X6.1469Y-6.252
X6.1484Y-6.1429
X6.1575Y-5.3386
X6.1575Y-5.378
X6.1575Y-5.4252
X6.1614Y-4.752
X6.1732Y-5.5
X6.1732Y-5.5748
X6.1732Y-6.237
X6.1787Y-6.1429
X6.1848Y-3.1853
X6.1848Y-3.2641
X6.1848Y-3.3428
X6.1848Y-3.5003
X6.1848Y-3.579
X6.1848Y-3.6578
X6.1848Y-3.8152
X6.1848Y-3.894
X6.1848Y-3.9727
X6.1848Y-4.1302
X6.1848Y-4.2089
X6.1848Y-4.2877
X6.1848Y-4.4452
X6.185Y-3.1064
X6.185Y-3.4213
X6.185Y-3.7363
X6.185Y-4.0513
X6.185Y-4.3662
X6.2087Y-5.4213
X6.2087Y-5.5
X6.2087Y-5.5748
X6.2402Y-3.0217
X6.2402Y-6.1732
X6.2441Y-5.4213
X6.2441Y-5.5
X6.2441Y-5.6496
X6.2636Y-3.1852
X6.2636Y-3.264
X6.2636Y-3.3427
X6.2636Y-3.5002
X6.2636Y-3.5789
X6.2636Y-3.6577
X6.2636Y-3.8151
X6.2636Y-3.8939
X6.2636Y-3.9726
X6.2636Y-4.1301
X6.2636Y-4.2088
X6.2636Y-4.2876
X6.2636Y-4.4451
X6.2638Y-3.1063
X6.2638Y-3.4212
X6.2638Y-3.7362
X6.2638Y-4.0512
X6.2638Y-4.3661
X6.2992Y-4.4685
X6.3189Y-4.752
X6.3422Y-3.1066
X6.3422Y-3.1853
X6.3422Y-3.2641
X6.3422Y-3.3428
X6.3422Y-3.4215
X6.3422Y-3.5003
X6.3422Y-3.579
X6.3422Y-3.6578
X6.3422Y-3.7365
X6.3422Y-3.8152
X6.3422Y-3.894
X6.3422Y-3.9727
X6.3422Y-4.0515
X6.3422Y-4.1302
X6.3422Y-4.2089
X6.3422Y-4.2877
X6.3422Y-4.3664
X6.3422Y-4.4452
X6.378Y-4.4685
X6.3976Y-4.752
X6.4211Y-3.1065
X6.4211Y-3.1852
X6.4211Y-3.264
X6.4211Y-3.3427
X6.4211Y-3.4214
X6.4211Y-3.5002
X6.4211Y-3.5789
X6.4211Y-3.6577
X6.4211Y-3.7364
X6.4211Y-3.8151
X6.4211Y-3.8939
X6.4211Y-3.9726
X6.4211Y-4.0514
X6.4211Y-4.1301
X6.4211Y-4.2088
X6.4211Y-4.2876
X6.4211Y-4.3663
X6.4211Y-4.4451
X6.4252Y-4.8031
X6.4252Y-4.8819
X6.4252Y-4.9606
X6.4252Y-5.0394
X6.4252Y-5.1181
X6.4252Y-5.1969
X6.4252Y-5.2756
X6.4252Y-5.3543
X6.4252Y-5.4331
X6.4252Y-5.5118
X6.4252Y-5.5906
X6.4252Y-5.6693
X6.4252Y-5.748
X6.4252Y-5.8268
X6.4252Y-5.9055
X6.4252Y-5.9843
X6.4252Y-6.063
X6.4252Y-6.1417
X6.4665Y-5.0787
X6.4764Y-3.0217
X6.4764Y-6.1602
X6.4862Y-5.8661
X6.4961Y-4.9606
X6.4961Y-5.4961
X6.4961Y-6.0039
X6.4998Y-3.1065
X6.4998Y-3.1852
X6.4998Y-3.264
X6.4998Y-3.3427
X6.4998Y-3.4214
X6.4998Y-3.5002
X6.4998Y-3.5789
X6.4998Y-3.6577
X6.4998Y-3.7364
X6.4998Y-3.8151
X6.4998Y-3.8939
X6.4998Y-3.9726
X6.4998Y-4.0514
X6.4998Y-4.1301
X6.4998Y-4.2088
X6.4998Y-4.2876
X6.4998Y-4.3663
X6.4998Y-4.4451
X6.5138Y-5.5492
X6.5157Y-5.1575
X6.5335Y-5.3898
X6.5335Y-5.4272
X6.5354Y-4.4688
X6.5354Y-5.7874
X6.5551Y-4.752
X6.5689Y-5.3898
X6.5689Y-5.4272
X6.5709Y-5.5315
X6.5748Y-5.2362
X6.5785Y-3.1853
X6.5785Y-3.2641
X6.5785Y-3.3428
X6.5785Y-3.5003
X6.5785Y-3.579
X6.5785Y-3.6578
X6.5785Y-3.8152
X6.5785Y-3.894
X6.5785Y-3.9727
X6.5785Y-4.1302
X6.5785Y-4.2089
X6.5785Y-4.2877
X6.5785Y-4.4452
X6.5787Y-3.1064
X6.5787Y-3.4213
X6.5787Y-3.7363
X6.5787Y-4.0513
X6.5787Y-4.3662
X6.5945Y-5.7087
X6.5982Y-5.5185
X6.6054Y-5.5633
X6.6285Y-5.5185
X6.6339Y-3.0217
X6.6339Y-5.315
X6.6339Y-6.1602
X6.6437Y-5.6398
X6.6573Y-3.1852
X6.6573Y-3.264
X6.6573Y-3.3427
X6.6573Y-3.5002
X6.6573Y-3.5789
X6.6573Y-3.6577
X6.6573Y-3.8151
X6.6573Y-3.8939
X6.6573Y-3.9726
X6.6573Y-4.1301
X6.6573Y-4.2088
X6.6573Y-4.2876
X6.6573Y-4.4451
X6.6575Y-3.1063
X6.6575Y-3.4212
X6.6575Y-3.7362
X6.6575Y-4.0512
X6.6575Y-4.3661
X6.6929Y-4.4688
X6.7126Y-4.752
X6.7165Y-5.4173
X6.7165Y-5.4449
X6.7165Y-5.4724
X6.7165Y-5.5
X6.7165Y-5.5276
X6.7359Y-3.1066
X6.7359Y-3.1853
X6.7359Y-3.2641
X6.7359Y-3.3428
X6.7359Y-3.4215
X6.7359Y-3.5003
X6.7359Y-3.579
X6.7359Y-3.6578
X6.7359Y-3.7365
X6.7359Y-3.8152
X6.7359Y-3.894
X6.7359Y-3.9727
X6.7359Y-4.0515
X6.7359Y-4.1302
X6.7359Y-4.2089
X6.7359Y-4.2877
X6.7359Y-4.3664
X6.7359Y-4.4452
X6.7441Y-5.4173
X6.7441Y-5.4449
X6.7441Y-5.4724
X6.7441Y-5.5
X6.7441Y-5.5276
X6.752Y-6.1122
X6.7717Y-5.4173
X6.7717Y-5.4449
X6.7717Y-5.4724
X6.7717Y-5.5
X6.7717Y-5.5276
X6.7913Y-3.0217
X6.7913Y-6.1602
X6.7992Y-5.4173
X6.7992Y-5.4449
X6.7992Y-5.4724
X6.7992Y-5.5
X6.7992Y-5.5276
X6.8148Y-3.1065
X6.8148Y-3.1852
X6.8148Y-3.264
X6.8148Y-3.3427
X6.8148Y-3.4214
X6.8148Y-3.5002
X6.8148Y-3.5789
X6.8148Y-3.6577
X6.8148Y-3.7364
X6.8148Y-3.8151
X6.8148Y-3.8939
X6.8148Y-3.9726
X6.8148Y-4.0514
X6.8148Y-4.1301
X6.8148Y-4.2088
X6.8148Y-4.2876
X6.8148Y-4.3663
X6.8148Y-4.4451
X6.8268Y-5.4173
X6.8268Y-5.4449
X6.8268Y-5.4724
X6.8268Y-5.5
X6.8268Y-5.5276
X6.8307Y-4.8228
X6.8406Y-5.315
X6.8406Y-5.6496
X6.8504Y-4.4688
X6.8701Y-4.752
X6.8799Y-6.1024
X6.8935Y-3.1065
X6.8935Y-3.1852
X6.8935Y-3.264
X6.8935Y-3.3427
X6.8935Y-3.4214
X6.8935Y-3.5002
X6.8935Y-3.5789
X6.8935Y-3.6577
X6.8935Y-3.7364
X6.8935Y-3.8151
X6.8935Y-3.8939
X6.8935Y-3.9726
X6.8935Y-4.0514
X6.8935Y-4.1301
X6.8935Y-4.2088
X6.8935Y-4.2876
X6.8935Y-4.3663
X6.8935Y-4.4451
X6.939Y-4.813
X6.9409Y-4.5748
X6.9409Y-4.6417
X6.9488Y-3.0217
X6.9488Y-6.1602
X6.9587Y-6.0925
X6.9646Y-4.5748
X6.9646Y-4.6417
X6.9646Y-5.6614
X6.9685Y-4.8819
X6.9685Y-5.5748
X6.9722Y-3.1853
X6.9722Y-3.2641
X6.9722Y-3.5003
X6.9722Y-3.579
X6.9722Y-3.6578
X6.9722Y-3.8152
X6.9722Y-3.894
X6.9722Y-3.9727
X6.9722Y-4.1302
X6.9722Y-4.2089
X6.9722Y-4.2877
X6.9722Y-4.4452
X6.9724Y-3.1064
X6.9724Y-3.4213
X6.9724Y-3.7363
X6.9724Y-4.0513
X6.9724Y-4.3662
X6.9728Y-3.3422
X6.9827Y-6.1299
X6.9882Y-4.5748
X6.9882Y-4.6417
X6.9884Y-6.2708
X7.0039Y-5.5748
X7.0079Y-4.4689
X7.0118Y-6.2515
X7.013Y-6.1299
X7.0236Y-5.3386
X7.0236Y-5.378
X7.0236Y-5.4252
X7.0276Y-4.752
X7.0394Y-5.5
X7.0394Y-5.5748
X7.0394Y-6.237
X7.0433Y-6.1299
X7.051Y-3.1852
X7.051Y-3.264
X7.051Y-3.3427
X7.051Y-3.5002
X7.051Y-3.5789
X7.051Y-3.6577
X7.051Y-3.8151
X7.051Y-3.8939
X7.051Y-3.9726
X7.051Y-4.1301
X7.051Y-4.2088
X7.051Y-4.2876
X7.051Y-4.4451
X7.0512Y-3.1063
X7.0512Y-3.4212
X7.0512Y-3.7362
X7.0512Y-4.0512
X7.0512Y-4.3661
X7.0748Y-5.4213
X7.0748Y-5.5
X7.0748Y-5.5748
X7.0768Y-6.122
X7.1063Y-3.0217
X7.1063Y-6.1602
X7.1102Y-5.4213
X7.1102Y-5.5
X7.1102Y-5.6496
X7.1296Y-3.1066
X7.1296Y-3.1853
X7.1296Y-3.2641
X7.1296Y-3.3428
X7.1296Y-3.4215
X7.1296Y-3.5003
X7.1296Y-3.579
X7.1296Y-3.6578
X7.1296Y-3.7365
X7.1296Y-3.8152
X7.1296Y-3.894
X7.1296Y-3.9727
X7.1296Y-4.0515
X7.1296Y-4.1302
X7.1296Y-4.2089
X7.1296Y-4.2877
X7.1296Y-4.3664
X7.1296Y-4.4452
X7.1654Y-4.4685
X7.185Y-4.752
T0
M30
