G04 #@! TF.GenerationSoftware,KiCad,Pcbnew,(6.0.2-0)*
G04 #@! TF.CreationDate,2022-05-19T22:51:58+02:00*
G04 #@! TF.ProjectId,nixie,6e697869-652e-46b6-9963-61645f706362,rev?*
G04 #@! TF.SameCoordinates,Original*
G04 #@! TF.FileFunction,Profile,NP*
%FSLAX46Y46*%
G04 Gerber Fmt 4.6, Leading zero omitted, Abs format (unit mm)*
G04 Created by KiCad (PCBNEW (6.0.2-0)) date 2022-05-19 22:51:58*
%MOMM*%
%LPD*%
G01*
G04 APERTURE LIST*
G04 #@! TA.AperFunction,Profile*
%ADD10C,0.100000*%
G04 #@! TD*
G04 APERTURE END LIST*
D10*
X94500000Y-118000000D02*
X94500000Y-160000000D01*
X94500000Y-116000000D02*
X94500000Y-74000000D01*
X141000000Y-116000000D02*
X140500000Y-116000000D01*
X183500000Y-74000000D02*
X94500000Y-74000000D01*
X138000000Y-116000000D02*
X138500000Y-116000000D01*
X94500000Y-160000000D02*
X183500000Y-160000000D01*
X177900000Y-118000000D02*
X183500000Y-118000000D01*
X183500000Y-160000000D02*
X183500000Y-118000000D01*
X94500000Y-116000000D02*
X99000000Y-116000000D01*
X138000000Y-118000000D02*
X101000000Y-118000000D01*
X138500000Y-118000000D02*
X138000000Y-118000000D01*
X175900000Y-116000000D02*
X141000000Y-116000000D01*
X101000000Y-116000000D02*
X138000000Y-116000000D01*
X141000000Y-118000000D02*
X175900000Y-118000000D01*
X101000000Y-116000000D02*
X101000000Y-118000000D01*
X140500000Y-118000000D02*
X141000000Y-118000000D01*
X177900000Y-116000000D02*
X183500000Y-116000000D01*
X138500000Y-116000000D02*
X138500000Y-118000000D01*
X99000000Y-116000000D02*
X99000000Y-118000000D01*
X175900000Y-116000000D02*
X175900000Y-118000000D01*
X183500000Y-116000000D02*
X183500000Y-74000000D01*
X177900000Y-116000000D02*
X177900000Y-118000000D01*
X140500000Y-116000000D02*
X140500000Y-118000000D01*
X99000000Y-118000000D02*
X94500000Y-118000000D01*
M02*
