G04 #@! TF.GenerationSoftware,KiCad,Pcbnew,(6.0.2-0)*
G04 #@! TF.CreationDate,2022-08-25T13:36:14+02:00*
G04 #@! TF.ProjectId,nixie,6e697869-652e-46b6-9963-61645f706362,rev?*
G04 #@! TF.SameCoordinates,Original*
G04 #@! TF.FileFunction,Profile,NP*
%FSLAX46Y46*%
G04 Gerber Fmt 4.6, Leading zero omitted, Abs format (unit mm)*
G04 Created by KiCad (PCBNEW (6.0.2-0)) date 2022-08-25 13:36:14*
%MOMM*%
%LPD*%
G01*
G04 APERTURE LIST*
G04 #@! TA.AperFunction,Profile*
%ADD10C,0.100000*%
G04 #@! TD*
G04 APERTURE END LIST*
D10*
X27500000Y-42850000D02*
X27500000Y-41000000D01*
X58300000Y-42800000D02*
X27500000Y-42850000D01*
X91900000Y-42850000D02*
X61100000Y-42850000D01*
X61100000Y-41000000D02*
X91900000Y-41000000D01*
X27500000Y-41000000D02*
X58300000Y-41000000D01*
X105000000Y-41000000D02*
X94700000Y-41000000D01*
X94700000Y-41000000D02*
X94700000Y-42850000D01*
X94700000Y-42850000D02*
X105000000Y-42850000D01*
X105000000Y-42850000D02*
X105000000Y-70350000D01*
X105000000Y-70350000D02*
X14400000Y-70350000D01*
X14400000Y-70350000D02*
X14400000Y-42850000D01*
X14400000Y-42850000D02*
X24700000Y-42850000D01*
X24700000Y-42850000D02*
X24700000Y-41000000D01*
X24700000Y-41000000D02*
X14400000Y-41000000D01*
X14400000Y-41000000D02*
X14400000Y-13800000D01*
X14400000Y-13800000D02*
X105000000Y-13800000D01*
X105000000Y-13800000D02*
X105000000Y-41000000D01*
X91900000Y-42850000D02*
X91900000Y-41000000D01*
X61100000Y-42850000D02*
X61100000Y-41000000D01*
X58300000Y-42800000D02*
X58300000Y-41000000D01*
M02*
