M48
; DRILL file {KiCad (6.0.2-0)} date 2022 December 29, Thursday 00:03:29
; FORMAT={-:-/ absolute / inch / decimal}
; #@! TF.CreationDate,2022-12-29T00:03:29+01:00
; #@! TF.GenerationSoftware,Kicad,Pcbnew,(6.0.2-0)
; #@! TF.FileFunction,Plated,1,2,PTH
FMAT,2
INCH
; #@! TA.AperFunction,Plated,PTH,ViaDrill
T1C0.0118
; #@! TA.AperFunction,Plated,PTH,ComponentDrill
T2C0.0197
; #@! TA.AperFunction,Plated,PTH,ComponentDrill
T3C0.1063
%
G90
G05
T1
X0.5777Y-1.1193
X0.5778Y-2.1949
X0.5974Y-2.1526
X0.5984Y-1.1624
X0.6152Y-1.2057
X0.6171Y-2.1063
X0.6319Y-1.25
X0.6329Y-2.062
X0.6476Y-1.2943
X0.6476Y-2.0167
X0.6604Y-1.3396
X0.6604Y-1.9715
X0.6703Y-1.3858
X0.6713Y-1.9262
X0.6811Y-1.4321
X0.6811Y-1.8799
X0.688Y-1.4793
X0.688Y-1.8327
X0.6939Y-1.5266
X0.6949Y-1.7854
X0.6978Y-1.5738
X0.6978Y-1.7382
X0.7071Y-0.9069
X0.7239Y-1.6334
X0.7323Y-2.4085
X0.752Y-0.9055
X0.7795Y-2.4104
X0.7963Y-0.9026
X0.8012Y-1.6339
X0.8012Y-1.6575
X0.8219Y-1.6457
X0.8268Y-2.4154
X0.8435Y-0.8976
X0.8726Y-1.6009
X0.874Y-2.4213
X0.8759Y-2.2912
X0.8898Y-0.8907
X0.9213Y-2.4291
X0.935Y-0.8829
X0.9509Y-1.6301
X0.9542Y-1.714
X0.9542Y-1.8006
X0.9542Y-1.8873
X0.9542Y-1.9739
X0.9542Y-2.0605
X0.9542Y-2.1471
X0.9542Y-2.2337
X0.9542Y-2.3203
X0.9592Y-0.9946
X0.9592Y-1.0812
X0.9592Y-1.1679
X0.9592Y-1.2545
X0.9592Y-1.3411
X0.9592Y-1.4277
X0.9592Y-1.5143
X0.9592Y-1.6009
X0.9623Y-2.2045
X0.9665Y-2.439
X0.9813Y-0.873
X1.0118Y-2.4498
X1.0266Y-0.8602
X1.0377Y-1.5435
X1.0408Y-1.714
X1.0408Y-1.8006
X1.0408Y-1.8873
X1.0408Y-1.9739
X1.0408Y-2.0605
X1.0408Y-2.1471
X1.0408Y-2.2337
X1.0408Y-2.3203
X1.0458Y-0.9946
X1.0458Y-1.0812
X1.0458Y-1.1679
X1.0458Y-1.2545
X1.0458Y-1.3411
X1.0458Y-1.4277
X1.0458Y-1.5143
X1.0458Y-1.6009
X1.0489Y-2.1179
X1.0571Y-2.4636
X1.0719Y-0.8474
X1.1014Y-2.4783
X1.1152Y-0.8317
X1.1243Y-1.4569
X1.1274Y-1.714
X1.1274Y-1.8006
X1.1274Y-1.8873
X1.1274Y-1.9739
X1.1274Y-2.0605
X1.1274Y-2.1471
X1.1274Y-2.2337
X1.1274Y-2.3203
X1.1324Y-0.9946
X1.1324Y-1.0812
X1.1324Y-1.1679
X1.1324Y-1.2545
X1.1324Y-1.3411
X1.1324Y-1.4277
X1.1324Y-1.5143
X1.1324Y-1.6009
X1.1355Y-2.0313
X1.1457Y-2.4951
X1.1594Y-0.815
X1.189Y-2.5128
X1.2028Y-0.7953
X1.2109Y-1.3703
X1.214Y-1.714
X1.214Y-1.8006
X1.214Y-1.8873
X1.214Y-1.9739
X1.214Y-2.0605
X1.214Y-2.1471
X1.214Y-2.2337
X1.214Y-2.3203
X1.219Y-0.9946
X1.219Y-1.0812
X1.219Y-1.1679
X1.219Y-1.2545
X1.219Y-1.3411
X1.219Y-1.4277
X1.219Y-1.5143
X1.219Y-1.6009
X1.2221Y-1.9447
X1.2323Y-2.5325
X1.2451Y-0.7746
X1.2736Y-2.5551
X1.2874Y-0.752
X1.2975Y-1.2837
X1.3006Y-1.714
X1.3006Y-1.8006
X1.3006Y-1.8873
X1.3006Y-1.9739
X1.3006Y-2.0605
X1.3006Y-2.1471
X1.3006Y-2.2337
X1.3006Y-2.3203
X1.3057Y-0.9946
X1.3057Y-1.0812
X1.3057Y-1.1679
X1.3057Y-1.2545
X1.3057Y-1.3411
X1.3057Y-1.4277
X1.3057Y-1.5143
X1.3057Y-1.6009
X1.3088Y-1.8581
X1.315Y-2.5787
X1.3287Y-0.7283
X1.3553Y-2.6033
X1.3691Y-0.7037
X1.3842Y-1.197
X1.3873Y-1.714
X1.3873Y-1.8006
X1.3873Y-1.8873
X1.3873Y-1.9739
X1.3873Y-2.0605
X1.3873Y-2.1471
X1.3873Y-2.2337
X1.3873Y-2.3203
X1.3923Y-0.9946
X1.3923Y-1.0812
X1.3923Y-1.1679
X1.3923Y-1.2545
X1.3923Y-1.3411
X1.3923Y-1.4277
X1.3923Y-1.5143
X1.3923Y-1.6009
X1.3947Y-2.6289
X1.3954Y-1.7715
X1.4075Y-0.6762
X1.4331Y-2.6575
X1.4449Y-0.6476
X1.4708Y-1.1104
X1.4739Y-1.714
X1.4739Y-1.8006
X1.4739Y-1.8873
X1.4739Y-1.9739
X1.4739Y-2.0605
X1.4739Y-2.1471
X1.4739Y-2.2337
X1.4739Y-2.3203
X1.4789Y-0.9946
X1.4789Y-1.0812
X1.4789Y-1.1679
X1.4789Y-1.2545
X1.4789Y-1.3411
X1.4789Y-1.4277
X1.4789Y-1.5143
X1.4789Y-1.6009
X1.4822Y-1.6849
X1.4879Y-0.9372
X1.4961Y-2.5984
X1.52Y-2.5981
X1.5345Y-0.8874
X1.5413Y-0.6693
X1.5572Y-1.0238
X1.5605Y-1.714
X1.5605Y-1.8006
X1.5605Y-1.8873
X1.5605Y-1.9739
X1.5605Y-2.0605
X1.5605Y-2.1471
X1.5605Y-2.2337
X1.5605Y-2.311
X1.5629Y-2.4009
X1.5649Y-2.644
X1.5655Y-0.9946
X1.5655Y-1.0812
X1.5655Y-1.1679
X1.5655Y-1.2545
X1.5655Y-1.3411
X1.5655Y-1.4277
X1.5655Y-1.5143
X1.5655Y-1.6009
X1.5778Y-0.7751
X1.5778Y-0.8322
X1.5778Y-2.4833
X1.5778Y-2.5404
X1.5857Y-2.3877
X1.6019Y-2.3669
X1.6063Y-0.8037
X1.6063Y-2.5118
X1.6122Y-0.9221
X1.6329Y-2.6545
X1.6348Y-0.7751
X1.6348Y-0.8322
X1.6348Y-2.4833
X1.6348Y-2.5404
X1.6445Y-0.6726
X1.6471Y-1.714
X1.6471Y-1.8006
X1.6471Y-1.8873
X1.6471Y-1.9739
X1.6471Y-2.0605
X1.6471Y-2.1471
X1.6471Y-2.2337
X1.6471Y-2.3203
X1.6521Y-1.0812
X1.6521Y-1.1679
X1.6521Y-1.2545
X1.6521Y-1.3411
X1.6521Y-1.4277
X1.6521Y-1.5143
X1.6521Y-1.6009
X1.6554Y-2.2912
X1.6634Y-0.9267
X1.665Y-0.9892
X1.6752Y-2.6417
X1.6762Y-0.9033
X1.6763Y-2.4276
X1.685Y-0.7047
X1.7066Y-0.6764
X1.7087Y-0.7047
X1.7304Y-1.6301
X1.7337Y-1.714
X1.7337Y-1.8006
X1.7337Y-1.8873
X1.7337Y-1.9739
X1.7337Y-2.0605
X1.7337Y-2.1471
X1.7337Y-2.2337
X1.7337Y-2.3203
X1.7371Y-1.0
X1.7387Y-1.0812
X1.7387Y-1.1679
X1.7387Y-1.2545
X1.7387Y-1.3411
X1.7387Y-1.4277
X1.7387Y-1.5143
X1.7387Y-1.6009
X1.7418Y-2.2045
X1.7512Y-0.9331
X1.7648Y-2.6624
X1.7825Y-0.6644
X1.8051Y-2.6378
X1.8172Y-1.5435
X1.8203Y-1.714
X1.8203Y-1.8006
X1.8203Y-1.8873
X1.8203Y-1.9739
X1.8203Y-2.0605
X1.8203Y-2.1471
X1.8203Y-2.2337
X1.8203Y-2.3203
X1.8228Y-1.0
X1.8238Y-0.688
X1.8253Y-1.0812
X1.8253Y-1.1679
X1.8253Y-1.2545
X1.8253Y-1.3411
X1.8253Y-1.4277
X1.8253Y-1.5143
X1.8253Y-1.6009
X1.8284Y-2.1179
X1.8474Y-2.6142
X1.8491Y-2.4911
X1.8652Y-0.7106
X1.8782Y-0.8329
X1.8807Y-2.4801
X1.8888Y-2.5925
X1.9038Y-1.4569
X1.9069Y-1.714
X1.9069Y-1.8006
X1.9069Y-1.8873
X1.9069Y-1.9739
X1.9069Y-2.0605
X1.9069Y-2.1471
X1.9069Y-2.2337
X1.9069Y-2.3203
X1.9083Y-1.0
X1.9085Y-0.7313
X1.9092Y-0.8639
X1.912Y-1.0812
X1.912Y-1.1679
X1.912Y-1.2545
X1.912Y-1.3411
X1.912Y-1.4277
X1.912Y-1.5143
X1.912Y-1.6009
X1.9151Y-2.0313
X1.9321Y-2.5728
X1.9518Y-0.75
X1.9754Y-2.5551
X1.9905Y-1.3703
X1.9936Y-1.714
X1.9936Y-1.8006
X1.9936Y-1.8873
X1.9936Y-1.9739
X1.9936Y-2.0605
X1.9936Y-2.1471
X1.9936Y-2.2337
X1.9936Y-2.3203
X1.997Y-0.7677
X1.998Y-1.0
X1.9986Y-1.0812
X1.9986Y-1.1679
X1.9986Y-1.2545
X1.9986Y-1.3411
X1.9986Y-1.4277
X1.9986Y-1.5143
X1.9986Y-1.6009
X2.0017Y-1.9447
X2.0207Y-2.5394
X2.0423Y-0.7825
X2.0659Y-2.5256
X2.0771Y-1.2837
X2.0802Y-1.714
X2.0802Y-1.8006
X2.0802Y-1.8873
X2.0802Y-1.9739
X2.0802Y-2.0605
X2.0802Y-2.1471
X2.0802Y-2.2337
X2.0802Y-2.3203
X2.0837Y-1.0
X2.0852Y-1.0812
X2.0852Y-1.1679
X2.0852Y-1.2545
X2.0852Y-1.3411
X2.0852Y-1.4277
X2.0852Y-1.5143
X2.0852Y-1.6009
X2.0876Y-0.7963
X2.0883Y-1.8581
X2.1112Y-2.5128
X2.1329Y-0.8071
X2.1556Y-2.3584
X2.1575Y-2.503
X2.1624Y-1.0009
X2.1637Y-1.197
X2.1668Y-1.714
X2.1668Y-1.8006
X2.1668Y-1.8873
X2.1668Y-1.9739
X2.1668Y-2.0605
X2.1668Y-2.1471
X2.1668Y-2.2337
X2.1718Y-1.0812
X2.1718Y-1.1679
X2.1718Y-1.2545
X2.1718Y-1.3411
X2.1718Y-1.4277
X2.1718Y-1.5143
X2.1718Y-1.6009
X2.1749Y-1.7715
X2.1801Y-0.8169
X2.2037Y-2.4941
X2.2274Y-0.8238
X2.2322Y-1.007
X2.2392Y-2.4409
X2.2413Y-0.8624
X2.2503Y-1.1104
X2.251Y-2.4872
X2.2534Y-1.714
X2.2534Y-1.8006
X2.2534Y-1.8873
X2.2534Y-1.9739
X2.2534Y-2.0605
X2.2534Y-2.1471
X2.2534Y-2.2337
X2.2534Y-2.3203
X2.2584Y-1.0812
X2.2584Y-1.1679
X2.2584Y-1.2545
X2.2584Y-1.3411
X2.2584Y-1.4277
X2.2584Y-1.5143
X2.2584Y-1.6009
X2.2617Y-1.6849
X2.2746Y-0.8297
X2.2982Y-2.4833
X2.3112Y-0.8802
X2.3122Y-1.0159
X2.313Y-2.3622
X2.3138Y-2.4333
X2.3219Y-0.8334
X2.34Y-1.714
X2.34Y-1.8006
X2.34Y-1.8873
X2.34Y-1.9739
X2.34Y-2.0605
X2.34Y-2.1471
X2.34Y-2.2337
X2.3418Y-1.0302
X2.345Y-1.0812
X2.345Y-1.1679
X2.345Y-1.2545
X2.345Y-1.3411
X2.345Y-1.4277
X2.345Y-1.5143
X2.345Y-1.6009
X2.3455Y-2.4803
X2.3691Y-0.8346
X2.3864Y-2.4307
X2.3864Y-0.8842
X2.3927Y-2.4793
X2.4163Y-0.8346
X2.4266Y-1.714
X2.4266Y-1.8006
X2.4266Y-1.8873
X2.4266Y-1.9739
X2.4266Y-2.0605
X2.4266Y-2.1471
X2.4266Y-2.2337
X2.4316Y-1.0812
X2.4316Y-1.1679
X2.4316Y-1.2545
X2.4316Y-1.3411
X2.4316Y-1.4277
X2.4316Y-1.5143
X2.4316Y-1.6009
X2.4329Y-2.2872
X2.44Y-2.4813
X2.4578Y-0.8817
X2.4596Y-0.9528
X2.4604Y-2.4344
X2.4624Y-2.2991
X2.4636Y-0.8327
X2.4872Y-2.4843
X2.5099Y-1.6301
X2.5108Y-0.8287
X2.5132Y-1.714
X2.5132Y-1.8006
X2.5132Y-1.8873
X2.5132Y-1.9739
X2.5132Y-2.0605
X2.5132Y-2.1471
X2.5132Y-2.2337
X2.5183Y-1.0812
X2.5183Y-1.1679
X2.5183Y-1.2545
X2.5183Y-1.3411
X2.5183Y-1.4277
X2.5183Y-1.5143
X2.5183Y-1.6009
X2.5187Y-1.0
X2.5214Y-2.2045
X2.5326Y-0.8747
X2.5326Y-2.4403
X2.5344Y-2.4892
X2.5581Y-0.8228
X2.5719Y-2.3319
X2.5797Y-0.867
X2.5817Y-2.497
X2.5968Y-1.5435
X2.5999Y-1.714
X2.5999Y-1.8006
X2.5999Y-1.8873
X2.5999Y-1.9739
X2.5999Y-2.0605
X2.5999Y-2.1471
X2.5999Y-2.2337
X2.5999Y-2.3203
X2.6033Y-0.815
X2.6049Y-1.0812
X2.6049Y-1.1679
X2.6049Y-1.2545
X2.6049Y-1.3411
X2.6049Y-1.4277
X2.6049Y-1.5143
X2.6049Y-1.6009
X2.608Y-2.1179
X2.6171Y-0.9541
X2.6289Y-2.5059
X2.6496Y-0.8051
X2.6742Y-2.5167
X2.6834Y-1.4569
X2.6865Y-1.714
X2.6865Y-1.8006
X2.6865Y-1.8873
X2.6865Y-1.9739
X2.6865Y-2.0605
X2.6865Y-2.1471
X2.6865Y-2.2337
X2.6865Y-2.3203
X2.6915Y-0.9946
X2.6915Y-1.0812
X2.6915Y-1.1679
X2.6915Y-1.2545
X2.6915Y-1.3411
X2.6915Y-1.4277
X2.6915Y-1.5143
X2.6915Y-1.6009
X2.6946Y-2.0313
X2.6959Y-0.7933
X2.7195Y-2.5295
X2.7411Y-0.7795
X2.7648Y-2.5443
X2.77Y-1.3703
X2.7731Y-1.714
X2.7731Y-1.8006
X2.7731Y-1.8873
X2.7731Y-1.9739
X2.7731Y-2.0605
X2.7731Y-2.1471
X2.7731Y-2.2337
X2.7731Y-2.3203
X2.7781Y-0.9946
X2.7781Y-1.0812
X2.7781Y-1.1679
X2.7781Y-1.2545
X2.7781Y-1.3411
X2.7781Y-1.4277
X2.7781Y-1.5143
X2.7781Y-1.6009
X2.7812Y-1.9447
X2.7864Y-0.7638
X2.8081Y-2.56
X2.8297Y-0.7461
X2.8514Y-2.5787
X2.8545Y-0.8058
X2.8566Y-1.2837
X2.8597Y-1.714
X2.8597Y-1.8006
X2.8597Y-1.8873
X2.8597Y-1.9739
X2.8597Y-2.0605
X2.8597Y-2.1471
X2.8597Y-2.2337
X2.8597Y-2.3203
X2.8647Y-0.9946
X2.8647Y-1.0812
X2.8647Y-1.1679
X2.8647Y-1.2545
X2.8647Y-1.3411
X2.8647Y-1.4277
X2.8647Y-1.5143
X2.8647Y-1.6009
X2.8678Y-1.8581
X2.874Y-0.7264
X2.8777Y-2.4658
X2.8937Y-2.5984
X2.8967Y-0.8494
X2.9068Y-2.4743
X2.9173Y-0.7057
X2.9183Y-0.8282
X2.936Y-2.6191
X2.9432Y-1.197
X2.9463Y-1.714
X2.9463Y-1.8006
X2.9463Y-1.8873
X2.9463Y-1.9739
X2.9463Y-2.0605
X2.9463Y-2.1471
X2.9463Y-2.2337
X2.9463Y-2.3203
X2.9513Y-0.9946
X2.9513Y-1.0812
X2.9513Y-1.1679
X2.9513Y-1.2545
X2.9513Y-1.3411
X2.9513Y-1.4277
X2.9513Y-1.5143
X2.9513Y-1.6009
X2.9544Y-1.7715
X2.9577Y-0.6831
X2.9715Y-2.6407
X2.9982Y-0.6585
X3.0079Y-2.6624
X3.0298Y-1.1104
X3.0329Y-1.714
X3.0329Y-1.8006
X3.0329Y-1.8873
X3.0329Y-1.9739
X3.0329Y-2.0605
X3.0329Y-2.1471
X3.0329Y-2.2337
X3.0329Y-2.3203
X3.0379Y-0.9946
X3.0379Y-1.0812
X3.0379Y-1.1679
X3.0379Y-1.2545
X3.0379Y-1.3411
X3.0379Y-1.4277
X3.0379Y-1.5143
X3.0379Y-1.6009
X3.0413Y-1.6849
X3.0492Y-0.7189
X3.0728Y-2.6073
X3.09Y-0.8874
X3.0963Y-2.6073
X3.1095Y-1.024
X3.1152Y-0.6774
X3.1195Y-1.714
X3.1195Y-1.8006
X3.1195Y-1.8873
X3.1195Y-1.9739
X3.1195Y-2.0605
X3.1195Y-2.1471
X3.1195Y-2.2337
X3.1195Y-2.3203
X3.122Y-2.4009
X3.1246Y-0.9946
X3.1246Y-1.0812
X3.1246Y-1.1679
X3.1246Y-1.2545
X3.1246Y-1.3411
X3.1246Y-1.4277
X3.1246Y-1.5143
X3.1246Y-1.6009
X3.128Y-2.6535
X3.1368Y-0.7746
X3.1368Y-0.8317
X3.1368Y-2.4833
X3.1368Y-2.5404
X3.1388Y-0.6772
X3.1448Y-2.3877
X3.161Y-2.3669
X3.1654Y-0.8031
X3.1654Y-2.5118
X3.1697Y-0.948
X3.1859Y-0.9272
X3.1939Y-0.7746
X3.1939Y-0.8317
X3.1939Y-2.4833
X3.1939Y-2.5404
X3.2062Y-1.714
X3.2062Y-1.8006
X3.2062Y-1.8873
X3.2062Y-1.9739
X3.2062Y-2.0605
X3.2062Y-2.1471
X3.2062Y-2.2337
X3.2062Y-2.3203
X3.2068Y-0.6762
X3.2087Y-0.914
X3.2112Y-1.0812
X3.2112Y-1.1679
X3.2112Y-1.2545
X3.2112Y-1.3411
X3.2112Y-1.4277
X3.2112Y-1.5143
X3.2112Y-1.6009
X3.2145Y-2.2912
X3.2192Y-0.9962
X3.2352Y-2.4276
X3.2362Y-2.5974
X3.2421Y-2.6951
X3.2451Y-2.6427
X3.2516Y-0.6762
X3.252Y-0.7165
X3.2756Y-0.7165
X3.2864Y-2.596
X3.2895Y-1.6301
X3.2928Y-1.714
X3.2928Y-1.8006
X3.2928Y-1.8873
X3.2928Y-1.9739
X3.2928Y-2.0605
X3.2928Y-2.1471
X3.2928Y-2.2337
X3.2928Y-2.3203
X3.2978Y-0.9946
X3.2978Y-1.0812
X3.2978Y-1.1679
X3.2978Y-1.2545
X3.2978Y-1.3411
X3.2978Y-1.4277
X3.2978Y-1.5143
X3.2978Y-1.6009
X3.3009Y-2.2045
X3.3157Y-0.7325
X3.3267Y-2.6671
X3.3376Y-0.6555
X3.3642Y-2.6388
X3.3661Y-0.6772
X3.3763Y-1.5435
X3.3794Y-1.714
X3.3794Y-1.8006
X3.3794Y-1.8873
X3.3794Y-1.9739
X3.3794Y-2.0605
X3.3794Y-2.1471
X3.3794Y-2.2337
X3.3794Y-2.3203
X3.3844Y-0.9946
X3.3844Y-1.0812
X3.3844Y-1.1679
X3.3844Y-1.2545
X3.3844Y-1.3411
X3.3844Y-1.4277
X3.3844Y-1.5143
X3.3844Y-1.6009
X3.3875Y-2.1179
X3.4006Y-0.7008
X3.4026Y-2.6122
X3.435Y-0.7234
X3.4419Y-2.5866
X3.4629Y-1.4569
X3.466Y-1.714
X3.466Y-1.8006
X3.466Y-1.8873
X3.466Y-1.9739
X3.466Y-2.0605
X3.466Y-2.1471
X3.466Y-2.2337
X3.466Y-2.3203
X3.471Y-0.9946
X3.471Y-1.0812
X3.471Y-1.1679
X3.471Y-1.2545
X3.471Y-1.3411
X3.471Y-1.4277
X3.471Y-1.5143
X3.471Y-1.6009
X3.4741Y-2.0313
X3.4754Y-0.748
X3.4823Y-2.563
X3.5167Y-0.7697
X3.5236Y-2.5404
X3.5495Y-1.3703
X3.5526Y-1.714
X3.5526Y-1.8006
X3.5526Y-1.8873
X3.5526Y-1.9739
X3.5526Y-2.0605
X3.5526Y-2.1471
X3.5526Y-2.2337
X3.5526Y-2.3203
X3.5576Y-0.9946
X3.5576Y-1.0812
X3.5576Y-1.1679
X3.5576Y-1.2545
X3.5576Y-1.3411
X3.5576Y-1.4277
X3.5576Y-1.5143
X3.5576Y-1.6009
X3.5591Y-0.7904
X3.5607Y-1.9447
X3.5669Y-2.5207
X3.6024Y-0.81
X3.6102Y-2.502
X3.6361Y-1.2837
X3.6392Y-1.714
X3.6392Y-1.8006
X3.6392Y-1.8873
X3.6392Y-1.9739
X3.6392Y-2.0605
X3.6392Y-2.1471
X3.6392Y-2.2337
X3.6392Y-2.3203
X3.6442Y-0.9946
X3.6442Y-1.0812
X3.6442Y-1.1679
X3.6442Y-1.2545
X3.6442Y-1.3411
X3.6442Y-1.4277
X3.6442Y-1.5143
X3.6442Y-1.6009
X3.6457Y-0.8278
X3.6473Y-1.8581
X3.6535Y-2.4823
X3.6909Y-0.8445
X3.6988Y-2.4685
X3.7227Y-1.197
X3.7258Y-1.714
X3.7258Y-1.8006
X3.7258Y-1.8873
X3.7258Y-1.9739
X3.7258Y-2.0605
X3.7258Y-2.1471
X3.7258Y-2.2337
X3.7258Y-2.3203
X3.7309Y-0.9946
X3.7309Y-1.0812
X3.7309Y-1.1679
X3.7309Y-1.2545
X3.7309Y-1.3411
X3.7309Y-1.4277
X3.7309Y-1.5143
X3.7309Y-1.6009
X3.734Y-1.7715
X3.7362Y-0.8583
X3.7451Y-2.4547
X3.7815Y-0.8711
X3.7904Y-2.4419
X3.8094Y-1.1104
X3.8125Y-1.714
X3.8125Y-1.8006
X3.8125Y-1.8873
X3.8125Y-1.9739
X3.8125Y-2.0605
X3.8125Y-2.1471
X3.8125Y-2.2337
X3.8125Y-2.3203
X3.8175Y-0.9946
X3.8175Y-1.0812
X3.8175Y-1.1679
X3.8175Y-1.2545
X3.8175Y-1.3411
X3.8175Y-1.4277
X3.8175Y-1.5143
X3.8175Y-1.6009
X3.8208Y-1.6849
X3.8278Y-0.8809
X3.8356Y-2.4321
X3.874Y-0.8898
X3.8829Y-2.4232
X3.8958Y-1.0238
X3.8991Y-1.714
X3.9213Y-0.8967
X3.9301Y-2.4163
X3.9488Y-1.6703
X3.9685Y-0.9026
X3.9695Y-1.6585
X3.9695Y-1.6821
X3.9724Y-2.4124
X4.0157Y-0.9055
X4.0187Y-2.4094
X4.0478Y-1.6339
X4.063Y-0.9075
X4.0642Y-2.4079
X4.0728Y-1.5719
X4.0738Y-1.7451
X4.0778Y-1.5246
X4.0778Y-1.7923
X4.0837Y-1.4774
X4.0837Y-1.8386
X4.0915Y-1.4321
X4.0915Y-1.8848
X4.1004Y-1.3868
X4.1014Y-1.9301
X4.1112Y-1.3415
X4.1122Y-1.9754
X4.124Y-1.2963
X4.125Y-2.0207
X4.1398Y-1.252
X4.1407Y-2.0659
X4.1545Y-1.2077
X4.1565Y-2.1102
X4.1732Y-1.1654
X4.1752Y-2.1535
X4.1929Y-1.122
X4.1949Y-2.1959
T2
X0.5541Y-1.0079
X0.5541Y-2.3071
X0.5775Y-0.9515
X0.5775Y-1.0642
X0.5775Y-2.2507
X0.5775Y-2.3635
X0.6339Y-0.9281
X0.6339Y-1.0876
X0.6339Y-2.2274
X0.6339Y-2.3868
X0.6902Y-0.9515
X0.6902Y-1.0642
X0.6902Y-2.2507
X0.6902Y-2.3635
X0.7136Y-1.0079
X0.7136Y-2.3071
X4.0581Y-1.0079
X4.0581Y-2.3071
X4.0814Y-0.9515
X4.0814Y-1.0642
X4.0814Y-2.2507
X4.0814Y-2.3635
X4.1378Y-0.9281
X4.1378Y-1.0876
X4.1378Y-2.2274
X4.1378Y-2.3868
X4.1942Y-0.9515
X4.1942Y-1.0642
X4.1942Y-2.2507
X4.1942Y-2.3635
X4.2175Y-1.0079
X4.2175Y-2.3071
T3
X0.6339Y-1.0079
X0.6339Y-2.3071
X4.1378Y-1.0079
X4.1378Y-2.3071
T0
M30
