G04 #@! TF.GenerationSoftware,KiCad,Pcbnew,(6.0.2-0)*
G04 #@! TF.CreationDate,2022-12-29T00:03:26+01:00*
G04 #@! TF.ProjectId,nixie-panel,6e697869-652d-4706-916e-656c2e6b6963,rev?*
G04 #@! TF.SameCoordinates,Original*
G04 #@! TF.FileFunction,Soldermask,Bot*
G04 #@! TF.FilePolarity,Negative*
%FSLAX46Y46*%
G04 Gerber Fmt 4.6, Leading zero omitted, Abs format (unit mm)*
G04 Created by KiCad (PCBNEW (6.0.2-0)) date 2022-12-29 00:03:26*
%MOMM*%
%LPD*%
G01*
G04 APERTURE LIST*
%ADD10C,0.800000*%
%ADD11C,5.400000*%
%ADD12R,0.850000X2.350000*%
G04 APERTURE END LIST*
D10*
G04 #@! TO.C,REF\u002A\u002A*
X105100000Y-56575000D03*
X103075000Y-58600000D03*
X105100000Y-60625000D03*
X106531891Y-57168109D03*
X103668109Y-60031891D03*
X107125000Y-58600000D03*
X106531891Y-60031891D03*
D11*
X105100000Y-58600000D03*
D10*
X103668109Y-57168109D03*
G04 #@! TD*
G04 #@! TO.C,REF\u002A\u002A*
X103668109Y-27031891D03*
X106531891Y-24168109D03*
X103075000Y-25600000D03*
D11*
X105100000Y-25600000D03*
D10*
X105100000Y-23575000D03*
X106531891Y-27031891D03*
X107125000Y-25600000D03*
X103668109Y-24168109D03*
X105100000Y-27625000D03*
G04 #@! TD*
G04 #@! TO.C,REF\u002A\u002A*
X16100000Y-56575000D03*
X17531891Y-60031891D03*
X14075000Y-58600000D03*
D11*
X16100000Y-58600000D03*
D10*
X14668109Y-60031891D03*
X17531891Y-57168109D03*
X18125000Y-58600000D03*
X16100000Y-60625000D03*
X14668109Y-57168109D03*
G04 #@! TD*
G04 #@! TO.C,REF\u002A\u002A*
X14668109Y-27031891D03*
X17531891Y-24168109D03*
X16100000Y-23575000D03*
X17531891Y-27031891D03*
D11*
X16100000Y-25600000D03*
D10*
X14075000Y-25600000D03*
X16100000Y-27625000D03*
X18125000Y-25600000D03*
X14668109Y-24168109D03*
G04 #@! TD*
D12*
G04 #@! TO.C,J1*
X55600000Y-23325000D03*
X57600000Y-25675000D03*
X59600000Y-23325000D03*
X61600000Y-25675000D03*
X63600000Y-23325000D03*
X65600000Y-25675000D03*
G04 #@! TD*
G04 #@! TO.C,J2*
X65600000Y-60875000D03*
X63600000Y-58525000D03*
X61600000Y-60875000D03*
X59600000Y-58525000D03*
X57600000Y-60875000D03*
X55600000Y-58525000D03*
G04 #@! TD*
M02*
