G04 #@! TF.GenerationSoftware,KiCad,Pcbnew,(6.0.2-0)*
G04 #@! TF.CreationDate,2022-08-25T13:36:13+02:00*
G04 #@! TF.ProjectId,nixie,6e697869-652e-46b6-9963-61645f706362,rev?*
G04 #@! TF.SameCoordinates,Original*
G04 #@! TF.FileFunction,Paste,Top*
G04 #@! TF.FilePolarity,Positive*
%FSLAX46Y46*%
G04 Gerber Fmt 4.6, Leading zero omitted, Abs format (unit mm)*
G04 Created by KiCad (PCBNEW (6.0.2-0)) date 2022-08-25 13:36:13*
%MOMM*%
%LPD*%
G01*
G04 APERTURE LIST*
G04 Aperture macros list*
%AMRoundRect*
0 Rectangle with rounded corners*
0 $1 Rounding radius*
0 $2 $3 $4 $5 $6 $7 $8 $9 X,Y pos of 4 corners*
0 Add a 4 corners polygon primitive as box body*
4,1,4,$2,$3,$4,$5,$6,$7,$8,$9,$2,$3,0*
0 Add four circle primitives for the rounded corners*
1,1,$1+$1,$2,$3*
1,1,$1+$1,$4,$5*
1,1,$1+$1,$6,$7*
1,1,$1+$1,$8,$9*
0 Add four rect primitives between the rounded corners*
20,1,$1+$1,$2,$3,$4,$5,0*
20,1,$1+$1,$4,$5,$6,$7,0*
20,1,$1+$1,$6,$7,$8,$9,0*
20,1,$1+$1,$8,$9,$2,$3,0*%
%AMRotRect*
0 Rectangle, with rotation*
0 The origin of the aperture is its center*
0 $1 length*
0 $2 width*
0 $3 Rotation angle, in degrees counterclockwise*
0 Add horizontal line*
21,1,$1,$2,0,0,$3*%
G04 Aperture macros list end*
%ADD10RotRect,0.500000X0.500000X225.000000*%
%ADD11RotRect,0.500000X0.500000X45.000000*%
%ADD12RoundRect,0.125000X0.125000X0.175000X-0.125000X0.175000X-0.125000X-0.175000X0.125000X-0.175000X0*%
%ADD13RoundRect,0.125000X-0.175000X0.125000X-0.175000X-0.125000X0.175000X-0.125000X0.175000X0.125000X0*%
%ADD14RoundRect,0.242500X-0.242500X0.242500X-0.242500X-0.242500X0.242500X-0.242500X0.242500X0.242500X0*%
%ADD15RoundRect,0.055000X-0.055000X0.357500X-0.055000X-0.357500X0.055000X-0.357500X0.055000X0.357500X0*%
%ADD16RoundRect,0.055000X-0.357500X-0.055000X0.357500X-0.055000X0.357500X0.055000X-0.357500X0.055000X0*%
%ADD17RoundRect,0.055000X-0.357500X0.055000X-0.357500X-0.055000X0.357500X-0.055000X0.357500X0.055000X0*%
%ADD18RoundRect,0.055000X-0.055000X-0.357500X0.055000X-0.357500X0.055000X0.357500X-0.055000X0.357500X0*%
%ADD19RoundRect,0.125000X-0.125000X-0.175000X0.125000X-0.175000X0.125000X0.175000X-0.125000X0.175000X0*%
%ADD20RoundRect,0.187500X-0.187500X-0.262500X0.187500X-0.262500X0.187500X0.262500X-0.187500X0.262500X0*%
%ADD21RoundRect,0.125000X0.175000X-0.125000X0.175000X0.125000X-0.175000X0.125000X-0.175000X-0.125000X0*%
%ADD22RoundRect,0.187500X0.262500X-0.187500X0.262500X0.187500X-0.262500X0.187500X-0.262500X-0.187500X0*%
%ADD23RoundRect,0.250000X0.435000X0.615000X-0.435000X0.615000X-0.435000X-0.615000X0.435000X-0.615000X0*%
%ADD24RoundRect,0.125000X0.375000X0.125000X-0.375000X0.125000X-0.375000X-0.125000X0.375000X-0.125000X0*%
%ADD25RoundRect,0.150000X-0.700000X0.150000X-0.700000X-0.150000X0.700000X-0.150000X0.700000X0.150000X0*%
%ADD26RoundRect,0.250000X-1.150000X0.250000X-1.150000X-0.250000X1.150000X-0.250000X1.150000X0.250000X0*%
%ADD27RoundRect,0.242500X0.242500X-0.242500X0.242500X0.242500X-0.242500X0.242500X-0.242500X-0.242500X0*%
%ADD28RoundRect,0.055000X0.055000X-0.357500X0.055000X0.357500X-0.055000X0.357500X-0.055000X-0.357500X0*%
%ADD29RoundRect,0.055000X0.357500X0.055000X-0.357500X0.055000X-0.357500X-0.055000X0.357500X-0.055000X0*%
%ADD30RoundRect,0.055000X0.357500X-0.055000X0.357500X0.055000X-0.357500X0.055000X-0.357500X-0.055000X0*%
%ADD31RoundRect,0.055000X0.055000X0.357500X-0.055000X0.357500X-0.055000X-0.357500X0.055000X-0.357500X0*%
%ADD32RoundRect,0.275000X-0.275000X-1.575000X0.275000X-1.575000X0.275000X1.575000X-0.275000X1.575000X0*%
%ADD33RoundRect,0.250000X0.250000X0.250000X-0.250000X0.250000X-0.250000X-0.250000X0.250000X-0.250000X0*%
%ADD34RoundRect,0.062500X0.350000X0.062500X-0.350000X0.062500X-0.350000X-0.062500X0.350000X-0.062500X0*%
%ADD35RoundRect,0.062500X0.062500X0.350000X-0.062500X0.350000X-0.062500X-0.350000X0.062500X-0.350000X0*%
%ADD36RoundRect,0.150000X0.700000X-0.150000X0.700000X0.150000X-0.700000X0.150000X-0.700000X-0.150000X0*%
%ADD37RoundRect,0.250000X1.150000X-0.250000X1.150000X0.250000X-1.150000X0.250000X-1.150000X-0.250000X0*%
%ADD38RoundRect,0.150000X-0.350000X-0.225000X0.350000X-0.225000X0.350000X0.225000X-0.350000X0.225000X0*%
%ADD39RoundRect,0.250000X-0.315000X-0.315000X0.315000X-0.315000X0.315000X0.315000X-0.315000X0.315000X0*%
%ADD40RoundRect,0.050000X-0.387500X-0.050000X0.387500X-0.050000X0.387500X0.050000X-0.387500X0.050000X0*%
%ADD41RoundRect,0.050000X-0.050000X-0.387500X0.050000X-0.387500X0.050000X0.387500X-0.050000X0.387500X0*%
%ADD42RoundRect,0.100000X0.100000X-0.850000X0.100000X0.850000X-0.100000X0.850000X-0.100000X-0.850000X0*%
G04 APERTURE END LIST*
D10*
G04 #@! TO.C,D323*
X38353553Y-17946447D03*
X37646447Y-18653553D03*
G04 #@! TD*
G04 #@! TO.C,D992*
X101353553Y-24946447D03*
X100646447Y-25653553D03*
G04 #@! TD*
D11*
G04 #@! TO.C,D206*
X20846447Y-35453553D03*
X21553553Y-34746447D03*
G04 #@! TD*
G04 #@! TO.C,D1138*
X82446447Y-29853553D03*
X83153553Y-29146447D03*
G04 #@! TD*
D12*
G04 #@! TO.C,R11*
X69550000Y-54050000D03*
X68550000Y-54050000D03*
G04 #@! TD*
D10*
G04 #@! TO.C,D671*
X77553553Y-22146447D03*
X76846447Y-22853553D03*
G04 #@! TD*
D13*
G04 #@! TO.C,C35*
X41200000Y-66050000D03*
X41200000Y-67050000D03*
G04 #@! TD*
D11*
G04 #@! TO.C,D809*
X72646447Y-32653553D03*
X73353553Y-31946447D03*
G04 #@! TD*
G04 #@! TO.C,D1153*
X83846447Y-28453553D03*
X84553553Y-27746447D03*
G04 #@! TD*
D10*
G04 #@! TO.C,D589*
X74753553Y-15146447D03*
X74046447Y-15853553D03*
G04 #@! TD*
G04 #@! TO.C,D342*
X42553553Y-19346447D03*
X41846447Y-20053553D03*
G04 #@! TD*
G04 #@! TO.C,D37*
X18753553Y-17946447D03*
X18046447Y-18653553D03*
G04 #@! TD*
D11*
G04 #@! TO.C,D1066*
X93646447Y-35453553D03*
X94353553Y-34746447D03*
G04 #@! TD*
D10*
G04 #@! TO.C,D678*
X64953553Y-23546447D03*
X64246447Y-24253553D03*
G04 #@! TD*
G04 #@! TO.C,D872*
X90153553Y-15146447D03*
X89446447Y-15853553D03*
G04 #@! TD*
D11*
G04 #@! TO.C,D852*
X79646447Y-28453553D03*
X80353553Y-27746447D03*
G04 #@! TD*
D10*
G04 #@! TO.C,D333*
X52353553Y-17946447D03*
X51646447Y-18653553D03*
G04 #@! TD*
D11*
G04 #@! TO.C,D812*
X68446447Y-32653553D03*
X69153553Y-31946447D03*
G04 #@! TD*
D10*
G04 #@! TO.C,D316*
X50953553Y-16546447D03*
X50246447Y-17253553D03*
G04 #@! TD*
G04 #@! TO.C,D98*
X36953553Y-22146447D03*
X36246447Y-22853553D03*
G04 #@! TD*
D11*
G04 #@! TO.C,D450*
X37646447Y-39653553D03*
X38353553Y-38946447D03*
G04 #@! TD*
D10*
G04 #@! TO.C,D96*
X34153553Y-22146447D03*
X33446447Y-22853553D03*
G04 #@! TD*
G04 #@! TO.C,D890*
X92953553Y-16546447D03*
X92246447Y-17253553D03*
G04 #@! TD*
G04 #@! TO.C,D621*
X74753553Y-17946447D03*
X74046447Y-18653553D03*
G04 #@! TD*
G04 #@! TO.C,D908*
X95753553Y-17946447D03*
X95046447Y-18653553D03*
G04 #@! TD*
D11*
G04 #@! TO.C,D1037*
X89446447Y-38253553D03*
X90153553Y-37546447D03*
G04 #@! TD*
D10*
G04 #@! TO.C,D606*
X76153553Y-16546447D03*
X75446447Y-17253553D03*
G04 #@! TD*
D11*
G04 #@! TO.C,D436*
X57246447Y-39653553D03*
X57953553Y-38946447D03*
G04 #@! TD*
D10*
G04 #@! TO.C,D137*
X24353553Y-26346447D03*
X23646447Y-27053553D03*
G04 #@! TD*
G04 #@! TO.C,D43*
X27153553Y-17946447D03*
X26446447Y-18653553D03*
G04 #@! TD*
D14*
G04 #@! TO.C,U7*
X47900000Y-47950000D03*
X47900000Y-49150000D03*
X49100000Y-49150000D03*
X49100000Y-47950000D03*
D15*
X49700000Y-46700000D03*
X49300000Y-46700000D03*
X48900000Y-46700000D03*
X48500000Y-46700000D03*
X48100000Y-46700000D03*
X47700000Y-46700000D03*
X47300000Y-46700000D03*
D16*
X46450000Y-47350000D03*
X46450000Y-47750000D03*
X46450000Y-48150000D03*
D17*
X46462500Y-48550000D03*
X46462500Y-48950000D03*
X46462500Y-49350000D03*
X46462500Y-49750000D03*
D18*
X47300000Y-50600000D03*
X47700000Y-50600000D03*
X48100000Y-50600000D03*
X48500000Y-50600000D03*
X48900000Y-50600000D03*
X49300000Y-50600000D03*
D15*
X49700000Y-50600000D03*
D16*
X50350000Y-49750000D03*
X50350000Y-49350000D03*
X50350000Y-48950000D03*
X50350000Y-48550000D03*
X50350000Y-48150000D03*
X50350000Y-47750000D03*
X50350000Y-47350000D03*
G04 #@! TD*
D11*
G04 #@! TO.C,D1036*
X90846447Y-38253553D03*
X91553553Y-37546447D03*
G04 #@! TD*
G04 #@! TO.C,D725*
X78246447Y-39653553D03*
X78953553Y-38946447D03*
G04 #@! TD*
D10*
G04 #@! TO.C,D423*
X43953553Y-26346447D03*
X43246447Y-27053553D03*
G04 #@! TD*
G04 #@! TO.C,D139*
X27153553Y-26346447D03*
X26446447Y-27053553D03*
G04 #@! TD*
D11*
G04 #@! TO.C,D191*
X19446447Y-36853553D03*
X20153553Y-36146447D03*
G04 #@! TD*
D10*
G04 #@! TO.C,D661*
X63553553Y-22146447D03*
X62846447Y-22853553D03*
G04 #@! TD*
G04 #@! TO.C,D74*
X25753553Y-20746447D03*
X25046447Y-21453553D03*
G04 #@! TD*
G04 #@! TO.C,D351*
X55153553Y-19346447D03*
X54446447Y-20053553D03*
G04 #@! TD*
D11*
G04 #@! TO.C,D189*
X22246447Y-36853553D03*
X22953553Y-36146447D03*
G04 #@! TD*
D19*
G04 #@! TO.C,R47*
X41200000Y-48950000D03*
X42200000Y-48950000D03*
G04 #@! TD*
D10*
G04 #@! TO.C,D968*
X90153553Y-23546447D03*
X89446447Y-24253553D03*
G04 #@! TD*
D11*
G04 #@! TO.C,D163*
X36246447Y-38253553D03*
X36953553Y-37546447D03*
G04 #@! TD*
D10*
G04 #@! TO.C,D962*
X104153553Y-22146447D03*
X103446447Y-22853553D03*
G04 #@! TD*
D11*
G04 #@! TO.C,D512*
X40446447Y-34053553D03*
X41153553Y-33346447D03*
G04 #@! TD*
G04 #@! TO.C,D519*
X53046447Y-32653553D03*
X53753553Y-31946447D03*
G04 #@! TD*
D10*
G04 #@! TO.C,D366*
X53753553Y-20746447D03*
X53046447Y-21453553D03*
G04 #@! TD*
D11*
G04 #@! TO.C,D518*
X54446447Y-32653553D03*
X55153553Y-31946447D03*
G04 #@! TD*
D10*
G04 #@! TO.C,D584*
X67753553Y-15146447D03*
X67046447Y-15853553D03*
G04 #@! TD*
D11*
G04 #@! TO.C,D467*
X58646447Y-36853553D03*
X59353553Y-36146447D03*
G04 #@! TD*
D10*
G04 #@! TO.C,D420*
X39753553Y-26346447D03*
X39046447Y-27053553D03*
G04 #@! TD*
D11*
G04 #@! TO.C,D447*
X41846447Y-39653553D03*
X42553553Y-38946447D03*
G04 #@! TD*
D10*
G04 #@! TO.C,D410*
X48153553Y-24946447D03*
X47446447Y-25653553D03*
G04 #@! TD*
G04 #@! TO.C,D412*
X50953553Y-24946447D03*
X50246447Y-25653553D03*
G04 #@! TD*
D11*
G04 #@! TO.C,D1102*
X88046447Y-32653553D03*
X88753553Y-31946447D03*
G04 #@! TD*
D10*
G04 #@! TO.C,D889*
X91553553Y-16546447D03*
X90846447Y-17253553D03*
G04 #@! TD*
G04 #@! TO.C,D876*
X95753553Y-15146447D03*
X95046447Y-15853553D03*
G04 #@! TD*
G04 #@! TO.C,D642*
X81753553Y-19346447D03*
X81046447Y-20053553D03*
G04 #@! TD*
D11*
G04 #@! TO.C,D742*
X76846447Y-38253553D03*
X77553553Y-37546447D03*
G04 #@! TD*
D10*
G04 #@! TO.C,D675*
X60753553Y-23546447D03*
X60046447Y-24253553D03*
G04 #@! TD*
G04 #@! TO.C,D71*
X21553553Y-20746447D03*
X20846447Y-21453553D03*
G04 #@! TD*
G04 #@! TO.C,D634*
X70553553Y-19346447D03*
X69846447Y-20053553D03*
G04 #@! TD*
G04 #@! TO.C,D67*
X15953553Y-20746447D03*
X15246447Y-21453553D03*
G04 #@! TD*
G04 #@! TO.C,D26*
X25753553Y-16546447D03*
X25046447Y-17253553D03*
G04 #@! TD*
D11*
G04 #@! TO.C,D462*
X43246447Y-38253553D03*
X43953553Y-37546447D03*
G04 #@! TD*
D19*
G04 #@! TO.C,R54*
X41200000Y-49750000D03*
X42200000Y-49750000D03*
G04 #@! TD*
D11*
G04 #@! TO.C,D457*
X50246447Y-38253553D03*
X50953553Y-37546447D03*
G04 #@! TD*
G04 #@! TO.C,D559*
X41846447Y-29853553D03*
X42553553Y-29146447D03*
G04 #@! TD*
G04 #@! TO.C,D482*
X37646447Y-36853553D03*
X38353553Y-36146447D03*
G04 #@! TD*
D10*
G04 #@! TO.C,D912*
X101353553Y-17946447D03*
X100646447Y-18653553D03*
G04 #@! TD*
D11*
G04 #@! TO.C,D241*
X16646447Y-32653553D03*
X17353553Y-31946447D03*
G04 #@! TD*
D19*
G04 #@! TO.C,R22*
X19750000Y-64750000D03*
X20750000Y-64750000D03*
G04 #@! TD*
D11*
G04 #@! TO.C,D198*
X32046447Y-35453553D03*
X32753553Y-34746447D03*
G04 #@! TD*
D19*
G04 #@! TO.C,R33*
X18800000Y-47350000D03*
X19800000Y-47350000D03*
G04 #@! TD*
D11*
G04 #@! TO.C,D752*
X62846447Y-38253553D03*
X63553553Y-37546447D03*
G04 #@! TD*
D10*
G04 #@! TO.C,D99*
X15953553Y-23546447D03*
X15246447Y-24253553D03*
G04 #@! TD*
D11*
G04 #@! TO.C,D491*
X47446447Y-35453553D03*
X48153553Y-34746447D03*
G04 #@! TD*
G04 #@! TO.C,D444*
X46046447Y-39653553D03*
X46753553Y-38946447D03*
G04 #@! TD*
D10*
G04 #@! TO.C,D302*
X53753553Y-15146447D03*
X53046447Y-15853553D03*
G04 #@! TD*
G04 #@! TO.C,D963*
X83153553Y-23546447D03*
X82446447Y-24253553D03*
G04 #@! TD*
D11*
G04 #@! TO.C,D150*
X32046447Y-39653553D03*
X32753553Y-38946447D03*
G04 #@! TD*
D10*
G04 #@! TO.C,D896*
X101353553Y-16546447D03*
X100646447Y-17253553D03*
G04 #@! TD*
D20*
G04 #@! TO.C,D1*
X68350000Y-58100000D03*
X69750000Y-58100000D03*
G04 #@! TD*
D10*
G04 #@! TO.C,D48*
X34153553Y-17946447D03*
X33446447Y-18653553D03*
G04 #@! TD*
D11*
G04 #@! TO.C,D245*
X33446447Y-31253553D03*
X34153553Y-30546447D03*
G04 #@! TD*
D12*
G04 #@! TO.C,R18*
X33400000Y-65050000D03*
X32400000Y-65050000D03*
G04 #@! TD*
D10*
G04 #@! TO.C,D414*
X53753553Y-24946447D03*
X53046447Y-25653553D03*
G04 #@! TD*
G04 #@! TO.C,D1003*
X94353553Y-26346447D03*
X93646447Y-27053553D03*
G04 #@! TD*
D11*
G04 #@! TO.C,D784*
X62846447Y-35453553D03*
X63553553Y-34746447D03*
G04 #@! TD*
D12*
G04 #@! TO.C,R52*
X54850000Y-48450000D03*
X53850000Y-48450000D03*
G04 #@! TD*
D11*
G04 #@! TO.C,D1055*
X86646447Y-36853553D03*
X87353553Y-36146447D03*
G04 #@! TD*
G04 #@! TO.C,D1106*
X82446447Y-32653553D03*
X83153553Y-31946447D03*
G04 #@! TD*
G04 #@! TO.C,D723*
X81046447Y-39653553D03*
X81753553Y-38946447D03*
G04 #@! TD*
G04 #@! TO.C,D1024*
X85246447Y-39653553D03*
X85953553Y-38946447D03*
G04 #@! TD*
D10*
G04 #@! TO.C,D82*
X36953553Y-20746447D03*
X36246447Y-21453553D03*
G04 #@! TD*
G04 #@! TO.C,D948*
X84553553Y-22146447D03*
X83846447Y-22853553D03*
G04 #@! TD*
G04 #@! TO.C,D922*
X92953553Y-19346447D03*
X92246447Y-20053553D03*
G04 #@! TD*
D11*
G04 #@! TO.C,D1073*
X83846447Y-35453553D03*
X84553553Y-34746447D03*
G04 #@! TD*
D10*
G04 #@! TO.C,D627*
X60753553Y-19346447D03*
X60046447Y-20053553D03*
G04 #@! TD*
D11*
G04 #@! TO.C,D1149*
X89446447Y-28453553D03*
X90153553Y-27746447D03*
G04 #@! TD*
G04 #@! TO.C,D556*
X46046447Y-29853553D03*
X46753553Y-29146447D03*
G04 #@! TD*
D10*
G04 #@! TO.C,D888*
X90153553Y-16546447D03*
X89446447Y-17253553D03*
G04 #@! TD*
D11*
G04 #@! TO.C,D226*
X15246447Y-34053553D03*
X15953553Y-33346447D03*
G04 #@! TD*
G04 #@! TO.C,D818*
X60046447Y-32653553D03*
X60753553Y-31946447D03*
G04 #@! TD*
D14*
G04 #@! TO.C,U9*
X71500000Y-47950000D03*
X71500000Y-49150000D03*
X70300000Y-49150000D03*
X70300000Y-47950000D03*
D15*
X72100000Y-46700000D03*
X71700000Y-46700000D03*
X71300000Y-46700000D03*
X70900000Y-46700000D03*
X70500000Y-46700000D03*
X70100000Y-46700000D03*
X69700000Y-46700000D03*
D16*
X68850000Y-47350000D03*
X68850000Y-47750000D03*
X68850000Y-48150000D03*
D17*
X68862500Y-48550000D03*
X68862500Y-48950000D03*
X68862500Y-49350000D03*
X68862500Y-49750000D03*
D18*
X69700000Y-50600000D03*
X70100000Y-50600000D03*
X70500000Y-50600000D03*
X70900000Y-50600000D03*
X71300000Y-50600000D03*
X71700000Y-50600000D03*
D15*
X72100000Y-50600000D03*
D16*
X72750000Y-49750000D03*
X72750000Y-49350000D03*
X72750000Y-48950000D03*
X72750000Y-48550000D03*
X72750000Y-48150000D03*
X72750000Y-47750000D03*
X72750000Y-47350000D03*
G04 #@! TD*
D11*
G04 #@! TO.C,D488*
X51646447Y-35453553D03*
X52353553Y-34746447D03*
G04 #@! TD*
G04 #@! TO.C,D728*
X74046447Y-39653553D03*
X74753553Y-38946447D03*
G04 #@! TD*
G04 #@! TO.C,D1028*
X102046447Y-38253553D03*
X102753553Y-37546447D03*
G04 #@! TD*
G04 #@! TO.C,D746*
X71246447Y-38253553D03*
X71953553Y-37546447D03*
G04 #@! TD*
D10*
G04 #@! TO.C,D125*
X29953553Y-24946447D03*
X29246447Y-25653553D03*
G04 #@! TD*
G04 #@! TO.C,D925*
X97153553Y-19346447D03*
X96446447Y-20053553D03*
G04 #@! TD*
D13*
G04 #@! TO.C,C52*
X84400000Y-66050000D03*
X84400000Y-67050000D03*
G04 #@! TD*
D11*
G04 #@! TO.C,D242*
X15246447Y-32653553D03*
X15953553Y-31946447D03*
G04 #@! TD*
D10*
G04 #@! TO.C,D378*
X48153553Y-22146447D03*
X47446447Y-22853553D03*
G04 #@! TD*
D11*
G04 #@! TO.C,D153*
X27846447Y-39653553D03*
X28553553Y-38946447D03*
G04 #@! TD*
D10*
G04 #@! TO.C,D718*
X76153553Y-26346447D03*
X75446447Y-27053553D03*
G04 #@! TD*
G04 #@! TO.C,D996*
X84553553Y-26346447D03*
X83846447Y-27053553D03*
G04 #@! TD*
D11*
G04 #@! TO.C,D194*
X15246447Y-36853553D03*
X15953553Y-36146447D03*
G04 #@! TD*
G04 #@! TO.C,D1076*
X102046447Y-34053553D03*
X102753553Y-33346447D03*
G04 #@! TD*
D10*
G04 #@! TO.C,D999*
X88753553Y-26346447D03*
X88046447Y-27053553D03*
G04 #@! TD*
G04 #@! TO.C,D614*
X64953553Y-17946447D03*
X64246447Y-18653553D03*
G04 #@! TD*
D11*
G04 #@! TO.C,D174*
X20846447Y-38253553D03*
X21553553Y-37546447D03*
G04 #@! TD*
D12*
G04 #@! TO.C,R72*
X77250000Y-48450000D03*
X76250000Y-48450000D03*
G04 #@! TD*
D10*
G04 #@! TO.C,D95*
X32753553Y-22146447D03*
X32046447Y-22853553D03*
G04 #@! TD*
G04 #@! TO.C,D910*
X98553553Y-17946447D03*
X97846447Y-18653553D03*
G04 #@! TD*
G04 #@! TO.C,D427*
X49553553Y-26346447D03*
X48846447Y-27053553D03*
G04 #@! TD*
D11*
G04 #@! TO.C,D1022*
X88046447Y-39653553D03*
X88753553Y-38946447D03*
G04 #@! TD*
G04 #@! TO.C,D529*
X39046447Y-32653553D03*
X39753553Y-31946447D03*
G04 #@! TD*
G04 #@! TO.C,D562*
X37646447Y-29853553D03*
X38353553Y-29146447D03*
G04 #@! TD*
D21*
G04 #@! TO.C,C39*
X56600000Y-47150000D03*
X56600000Y-46150000D03*
G04 #@! TD*
D10*
G04 #@! TO.C,D592*
X78953553Y-15146447D03*
X78246447Y-15853553D03*
G04 #@! TD*
D11*
G04 #@! TO.C,D855*
X75446447Y-28453553D03*
X76153553Y-27746447D03*
G04 #@! TD*
D10*
G04 #@! TO.C,D657*
X80353553Y-20746447D03*
X79646447Y-21453553D03*
G04 #@! TD*
D11*
G04 #@! TO.C,D202*
X26446447Y-35453553D03*
X27153553Y-34746447D03*
G04 #@! TD*
D10*
G04 #@! TO.C,D320*
X56553553Y-16546447D03*
X55846447Y-17253553D03*
G04 #@! TD*
G04 #@! TO.C,D594*
X81753553Y-15146447D03*
X81046447Y-15853553D03*
G04 #@! TD*
D11*
G04 #@! TO.C,D766*
X65646447Y-36853553D03*
X66353553Y-36146447D03*
G04 #@! TD*
G04 #@! TO.C,D442*
X48846447Y-39653553D03*
X49553553Y-38946447D03*
G04 #@! TD*
D19*
G04 #@! TO.C,R34*
X18800000Y-49750000D03*
X19800000Y-49750000D03*
G04 #@! TD*
D11*
G04 #@! TO.C,D266*
X26446447Y-29853553D03*
X27153553Y-29146447D03*
G04 #@! TD*
D10*
G04 #@! TO.C,D580*
X62153553Y-15146447D03*
X61446447Y-15853553D03*
G04 #@! TD*
D13*
G04 #@! TO.C,C50*
X85200000Y-66050000D03*
X85200000Y-67050000D03*
G04 #@! TD*
D10*
G04 #@! TO.C,D617*
X69153553Y-17946447D03*
X68446447Y-18653553D03*
G04 #@! TD*
D11*
G04 #@! TO.C,D1051*
X92246447Y-36853553D03*
X92953553Y-36146447D03*
G04 #@! TD*
D10*
G04 #@! TO.C,D108*
X28553553Y-23546447D03*
X27846447Y-24253553D03*
G04 #@! TD*
G04 #@! TO.C,D141*
X29953553Y-26346447D03*
X29246447Y-27053553D03*
G04 #@! TD*
D11*
G04 #@! TO.C,D229*
X33446447Y-32653553D03*
X34153553Y-31946447D03*
G04 #@! TD*
D10*
G04 #@! TO.C,D111*
X32753553Y-23546447D03*
X32046447Y-24253553D03*
G04 #@! TD*
D11*
G04 #@! TO.C,D767*
X64246447Y-36853553D03*
X64953553Y-36146447D03*
G04 #@! TD*
D10*
G04 #@! TO.C,D624*
X78953553Y-17946447D03*
X78246447Y-18653553D03*
G04 #@! TD*
G04 #@! TO.C,D142*
X31353553Y-26346447D03*
X30646447Y-27053553D03*
G04 #@! TD*
D11*
G04 #@! TO.C,D272*
X18046447Y-29853553D03*
X18753553Y-29146447D03*
G04 #@! TD*
D12*
G04 #@! TO.C,R91*
X99650000Y-50050000D03*
X98650000Y-50050000D03*
G04 #@! TD*
D10*
G04 #@! TO.C,D873*
X91553553Y-15146447D03*
X90846447Y-15853553D03*
G04 #@! TD*
D11*
G04 #@! TO.C,D748*
X68446447Y-38253553D03*
X69153553Y-37546447D03*
G04 #@! TD*
G04 #@! TO.C,D1075*
X103446447Y-34053553D03*
X104153553Y-33346447D03*
G04 #@! TD*
G04 #@! TO.C,D829*
X67046447Y-31253553D03*
X67753553Y-30546447D03*
G04 #@! TD*
G04 #@! TO.C,D446*
X43246447Y-39653553D03*
X43953553Y-38946447D03*
G04 #@! TD*
G04 #@! TO.C,D565*
X55846447Y-28453553D03*
X56553553Y-27746447D03*
G04 #@! TD*
G04 #@! TO.C,D466*
X37646447Y-38253553D03*
X38353553Y-37546447D03*
G04 #@! TD*
G04 #@! TO.C,D1152*
X85246447Y-28453553D03*
X85953553Y-27746447D03*
G04 #@! TD*
G04 #@! TO.C,D500*
X57246447Y-34053553D03*
X57953553Y-33346447D03*
G04 #@! TD*
D10*
G04 #@! TO.C,D30*
X31353553Y-16546447D03*
X30646447Y-17253553D03*
G04 #@! TD*
D12*
G04 #@! TO.C,R77*
X100600000Y-64250000D03*
X99600000Y-64250000D03*
G04 #@! TD*
D11*
G04 #@! TO.C,D255*
X19446447Y-31253553D03*
X20153553Y-30546447D03*
G04 #@! TD*
D10*
G04 #@! TO.C,D660*
X62153553Y-22146447D03*
X61446447Y-22853553D03*
G04 #@! TD*
G04 #@! TO.C,D885*
X85953553Y-16546447D03*
X85246447Y-17253553D03*
G04 #@! TD*
D11*
G04 #@! TO.C,D154*
X26446447Y-39653553D03*
X27153553Y-38946447D03*
G04 #@! TD*
D10*
G04 #@! TO.C,D105*
X24353553Y-23546447D03*
X23646447Y-24253553D03*
G04 #@! TD*
D21*
G04 #@! TO.C,C22*
X41550000Y-58500000D03*
X41550000Y-57500000D03*
G04 #@! TD*
D11*
G04 #@! TO.C,D155*
X25046447Y-39653553D03*
X25753553Y-38946447D03*
G04 #@! TD*
G04 #@! TO.C,D1052*
X90846447Y-36853553D03*
X91553553Y-36146447D03*
G04 #@! TD*
D10*
G04 #@! TO.C,D666*
X70553553Y-22146447D03*
X69846447Y-22853553D03*
G04 #@! TD*
G04 #@! TO.C,D679*
X66353553Y-23546447D03*
X65646447Y-24253553D03*
G04 #@! TD*
G04 #@! TO.C,D41*
X24353553Y-17946447D03*
X23646447Y-18653553D03*
G04 #@! TD*
G04 #@! TO.C,D887*
X88753553Y-16546447D03*
X88046447Y-17253553D03*
G04 #@! TD*
D11*
G04 #@! TO.C,D267*
X25046447Y-29853553D03*
X25753553Y-29146447D03*
G04 #@! TD*
G04 #@! TO.C,D806*
X76846447Y-32653553D03*
X77553553Y-31946447D03*
G04 #@! TD*
G04 #@! TO.C,D783*
X64246447Y-35453553D03*
X64953553Y-34746447D03*
G04 #@! TD*
D12*
G04 #@! TO.C,R89*
X99650000Y-47650000D03*
X98650000Y-47650000D03*
G04 #@! TD*
D11*
G04 #@! TO.C,D793*
X72646447Y-34053553D03*
X73353553Y-33346447D03*
G04 #@! TD*
D10*
G04 #@! TO.C,D703*
X77553553Y-24946447D03*
X76846447Y-25653553D03*
G04 #@! TD*
G04 #@! TO.C,D318*
X53753553Y-16546447D03*
X53046447Y-17253553D03*
G04 #@! TD*
G04 #@! TO.C,D15*
X32753553Y-15146447D03*
X32046447Y-15853553D03*
G04 #@! TD*
G04 #@! TO.C,D995*
X83153553Y-26346447D03*
X82446447Y-27053553D03*
G04 #@! TD*
D11*
G04 #@! TO.C,D758*
X76846447Y-36853553D03*
X77553553Y-36146447D03*
G04 #@! TD*
G04 #@! TO.C,D523*
X47446447Y-32653553D03*
X48153553Y-31946447D03*
G04 #@! TD*
G04 #@! TO.C,D280*
X29246447Y-28453553D03*
X29953553Y-27746447D03*
G04 #@! TD*
G04 #@! TO.C,D1140*
X102046447Y-28453553D03*
X102753553Y-27746447D03*
G04 #@! TD*
D12*
G04 #@! TO.C,R8*
X65350000Y-60450000D03*
X64350000Y-60450000D03*
G04 #@! TD*
D11*
G04 #@! TO.C,D244*
X34846447Y-31253553D03*
X35553553Y-30546447D03*
G04 #@! TD*
D10*
G04 #@! TO.C,D319*
X55153553Y-16546447D03*
X54446447Y-17253553D03*
G04 #@! TD*
D11*
G04 #@! TO.C,D1146*
X93646447Y-28453553D03*
X94353553Y-27746447D03*
G04 #@! TD*
G04 #@! TO.C,D178*
X15246447Y-38253553D03*
X15953553Y-37546447D03*
G04 #@! TD*
G04 #@! TO.C,D186*
X26446447Y-36853553D03*
X27153553Y-36146447D03*
G04 #@! TD*
D10*
G04 #@! TO.C,D354*
X59353553Y-19346447D03*
X58646447Y-20053553D03*
G04 #@! TD*
G04 #@! TO.C,D338*
X59353553Y-17946447D03*
X58646447Y-18653553D03*
G04 #@! TD*
D11*
G04 #@! TO.C,D555*
X47446447Y-29853553D03*
X48153553Y-29146447D03*
G04 #@! TD*
G04 #@! TO.C,D485*
X55846447Y-35453553D03*
X56553553Y-34746447D03*
G04 #@! TD*
G04 #@! TO.C,D768*
X62846447Y-36853553D03*
X63553553Y-36146447D03*
G04 #@! TD*
G04 #@! TO.C,D790*
X76846447Y-34053553D03*
X77553553Y-33346447D03*
G04 #@! TD*
D10*
G04 #@! TO.C,D882*
X104153553Y-15146447D03*
X103446447Y-15853553D03*
G04 #@! TD*
G04 #@! TO.C,D314*
X48153553Y-16546447D03*
X47446447Y-17253553D03*
G04 #@! TD*
D11*
G04 #@! TO.C,D508*
X46046447Y-34053553D03*
X46753553Y-33346447D03*
G04 #@! TD*
G04 #@! TO.C,D184*
X29246447Y-36853553D03*
X29953553Y-36146447D03*
G04 #@! TD*
D10*
G04 #@! TO.C,D88*
X22953553Y-22146447D03*
X22246447Y-22853553D03*
G04 #@! TD*
D21*
G04 #@! TO.C,C54*
X101400000Y-47150000D03*
X101400000Y-46150000D03*
G04 #@! TD*
D11*
G04 #@! TO.C,D1016*
X96446447Y-39653553D03*
X97153553Y-38946447D03*
G04 #@! TD*
D10*
G04 #@! TO.C,D600*
X67753553Y-16546447D03*
X67046447Y-17253553D03*
G04 #@! TD*
D11*
G04 #@! TO.C,D786*
X60046447Y-35453553D03*
X60753553Y-34746447D03*
G04 #@! TD*
D10*
G04 #@! TO.C,D607*
X77553553Y-16546447D03*
X76846447Y-17253553D03*
G04 #@! TD*
G04 #@! TO.C,D676*
X62153553Y-23546447D03*
X61446447Y-24253553D03*
G04 #@! TD*
D11*
G04 #@! TO.C,D792*
X74046447Y-34053553D03*
X74753553Y-33346447D03*
G04 #@! TD*
G04 #@! TO.C,D552*
X51646447Y-29853553D03*
X52353553Y-29146447D03*
G04 #@! TD*
G04 #@! TO.C,D1103*
X86646447Y-32653553D03*
X87353553Y-31946447D03*
G04 #@! TD*
D21*
G04 #@! TO.C,C40*
X57400000Y-47150000D03*
X57400000Y-46150000D03*
G04 #@! TD*
D10*
G04 #@! TO.C,D983*
X88753553Y-24946447D03*
X88046447Y-25653553D03*
G04 #@! TD*
D11*
G04 #@! TO.C,D286*
X20846447Y-28453553D03*
X21553553Y-27746447D03*
G04 #@! TD*
G04 #@! TO.C,D197*
X33446447Y-35453553D03*
X34153553Y-34746447D03*
G04 #@! TD*
D10*
G04 #@! TO.C,D669*
X74753553Y-22146447D03*
X74046447Y-22853553D03*
G04 #@! TD*
D11*
G04 #@! TO.C,D1014*
X99246447Y-39653553D03*
X99953553Y-38946447D03*
G04 #@! TD*
D19*
G04 #@! TO.C,R56*
X41200000Y-46550000D03*
X42200000Y-46550000D03*
G04 #@! TD*
D10*
G04 #@! TO.C,D317*
X52353553Y-16546447D03*
X51646447Y-17253553D03*
G04 #@! TD*
D11*
G04 #@! TO.C,D277*
X33446447Y-28453553D03*
X34153553Y-27746447D03*
G04 #@! TD*
G04 #@! TO.C,D860*
X68446447Y-28453553D03*
X69153553Y-27746447D03*
G04 #@! TD*
D10*
G04 #@! TO.C,D1006*
X98553553Y-26346447D03*
X97846447Y-27053553D03*
G04 #@! TD*
D11*
G04 #@! TO.C,D1126*
X99246447Y-29853553D03*
X99953553Y-29146447D03*
G04 #@! TD*
G04 #@! TO.C,D474*
X48846447Y-36853553D03*
X49553553Y-36146447D03*
G04 #@! TD*
G04 #@! TO.C,D542*
X43246447Y-31253553D03*
X43953553Y-30546447D03*
G04 #@! TD*
G04 #@! TO.C,D1154*
X82446447Y-28453553D03*
X83153553Y-27746447D03*
G04 #@! TD*
G04 #@! TO.C,D455*
X53046447Y-38253553D03*
X53753553Y-37546447D03*
G04 #@! TD*
D12*
G04 #@! TO.C,R45*
X52600000Y-61700000D03*
X51600000Y-61700000D03*
G04 #@! TD*
D11*
G04 #@! TO.C,D1019*
X92246447Y-39653553D03*
X92953553Y-38946447D03*
G04 #@! TD*
D13*
G04 #@! TO.C,R2*
X94700000Y-53050000D03*
X94700000Y-54050000D03*
G04 #@! TD*
D10*
G04 #@! TO.C,D937*
X91553553Y-20746447D03*
X90846447Y-21453553D03*
G04 #@! TD*
G04 #@! TO.C,D392*
X45353553Y-23546447D03*
X44646447Y-24253553D03*
G04 #@! TD*
G04 #@! TO.C,D114*
X36953553Y-23546447D03*
X36246447Y-24253553D03*
G04 #@! TD*
D11*
G04 #@! TO.C,D853*
X78246447Y-28453553D03*
X78953553Y-27746447D03*
G04 #@! TD*
G04 #@! TO.C,D285*
X22246447Y-28453553D03*
X22953553Y-27746447D03*
G04 #@! TD*
G04 #@! TO.C,D1054*
X88046447Y-36853553D03*
X88753553Y-36146447D03*
G04 #@! TD*
D10*
G04 #@! TO.C,D368*
X56553553Y-20746447D03*
X55846447Y-21453553D03*
G04 #@! TD*
D12*
G04 #@! TO.C,R44*
X55800000Y-63450000D03*
X54800000Y-63450000D03*
G04 #@! TD*
D11*
G04 #@! TO.C,D797*
X67046447Y-34053553D03*
X67753553Y-33346447D03*
G04 #@! TD*
G04 #@! TO.C,D727*
X75446447Y-39653553D03*
X76153553Y-38946447D03*
G04 #@! TD*
G04 #@! TO.C,D265*
X27846447Y-29853553D03*
X28553553Y-29146447D03*
G04 #@! TD*
D10*
G04 #@! TO.C,D358*
X42553553Y-20746447D03*
X41846447Y-21453553D03*
G04 #@! TD*
G04 #@! TO.C,D61*
X29953553Y-19346447D03*
X29246447Y-20053553D03*
G04 #@! TD*
G04 #@! TO.C,D124*
X28553553Y-24946447D03*
X27846447Y-25653553D03*
G04 #@! TD*
D19*
G04 #@! TO.C,R88*
X86000000Y-48150000D03*
X87000000Y-48150000D03*
G04 #@! TD*
D10*
G04 #@! TO.C,D371*
X38353553Y-22146447D03*
X37646447Y-22853553D03*
G04 #@! TD*
D13*
G04 #@! TO.C,C36*
X39600000Y-66050000D03*
X39600000Y-67050000D03*
G04 #@! TD*
D10*
G04 #@! TO.C,D898*
X104153553Y-16546447D03*
X103446447Y-17253553D03*
G04 #@! TD*
G04 #@! TO.C,D721*
X80353553Y-26346447D03*
X79646447Y-27053553D03*
G04 #@! TD*
D11*
G04 #@! TO.C,D1057*
X83846447Y-36853553D03*
X84553553Y-36146447D03*
G04 #@! TD*
G04 #@! TO.C,D200*
X29246447Y-35453553D03*
X29953553Y-34746447D03*
G04 #@! TD*
G04 #@! TO.C,D230*
X32046447Y-32653553D03*
X32753553Y-31946447D03*
G04 #@! TD*
G04 #@! TO.C,D268*
X23646447Y-29853553D03*
X24353553Y-29146447D03*
G04 #@! TD*
D10*
G04 #@! TO.C,D585*
X69153553Y-15146447D03*
X68446447Y-15853553D03*
G04 #@! TD*
D11*
G04 #@! TO.C,D862*
X65646447Y-28453553D03*
X66353553Y-27746447D03*
G04 #@! TD*
G04 #@! TO.C,D801*
X61446447Y-34053553D03*
X62153553Y-33346447D03*
G04 #@! TD*
D10*
G04 #@! TO.C,D998*
X87353553Y-26346447D03*
X86646447Y-27053553D03*
G04 #@! TD*
G04 #@! TO.C,D93*
X29953553Y-22146447D03*
X29246447Y-22853553D03*
G04 #@! TD*
D11*
G04 #@! TO.C,D554*
X48846447Y-29853553D03*
X49553553Y-29146447D03*
G04 #@! TD*
D10*
G04 #@! TO.C,D428*
X50953553Y-26346447D03*
X50246447Y-27053553D03*
G04 #@! TD*
D11*
G04 #@! TO.C,D811*
X69846447Y-32653553D03*
X70553553Y-31946447D03*
G04 #@! TD*
G04 #@! TO.C,D493*
X44646447Y-35453553D03*
X45353553Y-34746447D03*
G04 #@! TD*
D12*
G04 #@! TO.C,R25*
X30200000Y-61700000D03*
X29200000Y-61700000D03*
G04 #@! TD*
D11*
G04 #@! TO.C,D549*
X55846447Y-29853553D03*
X56553553Y-29146447D03*
G04 #@! TD*
G04 #@! TO.C,D775*
X75446447Y-35453553D03*
X76153553Y-34746447D03*
G04 #@! TD*
D10*
G04 #@! TO.C,D106*
X25753553Y-23546447D03*
X25046447Y-24253553D03*
G04 #@! TD*
D11*
G04 #@! TO.C,D180*
X34846447Y-36853553D03*
X35553553Y-36146447D03*
G04 #@! TD*
D19*
G04 #@! TO.C,R73*
X63600000Y-47350000D03*
X64600000Y-47350000D03*
G04 #@! TD*
D10*
G04 #@! TO.C,D315*
X49553553Y-16546447D03*
X48846447Y-17253553D03*
G04 #@! TD*
G04 #@! TO.C,D598*
X64953553Y-16546447D03*
X64246447Y-17253553D03*
G04 #@! TD*
D11*
G04 #@! TO.C,D1131*
X92246447Y-29853553D03*
X92953553Y-29146447D03*
G04 #@! TD*
D10*
G04 #@! TO.C,D662*
X64953553Y-22146447D03*
X64246447Y-22853553D03*
G04 #@! TD*
G04 #@! TO.C,D722*
X81753553Y-26346447D03*
X81046447Y-27053553D03*
G04 #@! TD*
G04 #@! TO.C,D345*
X46753553Y-19346447D03*
X46046447Y-20053553D03*
G04 #@! TD*
G04 #@! TO.C,D976*
X101353553Y-23546447D03*
X100646447Y-24253553D03*
G04 #@! TD*
D11*
G04 #@! TO.C,D861*
X67046447Y-28453553D03*
X67753553Y-27746447D03*
G04 #@! TD*
D22*
G04 #@! TO.C,S2*
X15350000Y-57300000D03*
X15350000Y-55900000D03*
G04 #@! TD*
D10*
G04 #@! TO.C,D700*
X73353553Y-24946447D03*
X72646447Y-25653553D03*
G04 #@! TD*
D11*
G04 #@! TO.C,D749*
X67046447Y-38253553D03*
X67753553Y-37546447D03*
G04 #@! TD*
D10*
G04 #@! TO.C,D101*
X18753553Y-23546447D03*
X18046447Y-24253553D03*
G04 #@! TD*
D11*
G04 #@! TO.C,D780*
X68446447Y-35453553D03*
X69153553Y-34746447D03*
G04 #@! TD*
G04 #@! TO.C,D506*
X48846447Y-34053553D03*
X49553553Y-33346447D03*
G04 #@! TD*
G04 #@! TO.C,D840*
X74046447Y-29853553D03*
X74753553Y-29146447D03*
G04 #@! TD*
D10*
G04 #@! TO.C,D353*
X57953553Y-19346447D03*
X57246447Y-20053553D03*
G04 #@! TD*
G04 #@! TO.C,D311*
X43953553Y-16546447D03*
X43246447Y-17253553D03*
G04 #@! TD*
G04 #@! TO.C,D352*
X56553553Y-19346447D03*
X55846447Y-20053553D03*
G04 #@! TD*
D11*
G04 #@! TO.C,D1100*
X90846447Y-32653553D03*
X91553553Y-31946447D03*
G04 #@! TD*
D12*
G04 #@! TO.C,C33*
X23000000Y-50700000D03*
X22000000Y-50700000D03*
G04 #@! TD*
D11*
G04 #@! TO.C,D739*
X81046447Y-38253553D03*
X81753553Y-37546447D03*
G04 #@! TD*
D10*
G04 #@! TO.C,D986*
X92953553Y-24946447D03*
X92246447Y-25653553D03*
G04 #@! TD*
D11*
G04 #@! TO.C,D159*
X19446447Y-39653553D03*
X20153553Y-38946447D03*
G04 #@! TD*
D10*
G04 #@! TO.C,D394*
X48153553Y-23546447D03*
X47446447Y-24253553D03*
G04 #@! TD*
G04 #@! TO.C,D77*
X29953553Y-20746447D03*
X29246447Y-21453553D03*
G04 #@! TD*
G04 #@! TO.C,D934*
X87353553Y-20746447D03*
X86646447Y-21453553D03*
G04 #@! TD*
D11*
G04 #@! TO.C,D490*
X48846447Y-35453553D03*
X49553553Y-34746447D03*
G04 #@! TD*
G04 #@! TO.C,D838*
X76846447Y-29853553D03*
X77553553Y-29146447D03*
G04 #@! TD*
D21*
G04 #@! TO.C,R3*
X92150000Y-54050000D03*
X92150000Y-53050000D03*
G04 #@! TD*
D11*
G04 #@! TO.C,D517*
X55846447Y-32653553D03*
X56553553Y-31946447D03*
G04 #@! TD*
G04 #@! TO.C,D261*
X33446447Y-29853553D03*
X34153553Y-29146447D03*
G04 #@! TD*
D10*
G04 #@! TO.C,D69*
X18753553Y-20746447D03*
X18046447Y-21453553D03*
G04 #@! TD*
G04 #@! TO.C,D714*
X70553553Y-26346447D03*
X69846447Y-27053553D03*
G04 #@! TD*
D11*
G04 #@! TO.C,D574*
X43246447Y-28453553D03*
X43953553Y-27746447D03*
G04 #@! TD*
D19*
G04 #@! TO.C,R75*
X66800000Y-51500000D03*
X67800000Y-51500000D03*
G04 #@! TD*
D10*
G04 #@! TO.C,D900*
X84553553Y-17946447D03*
X83846447Y-18653553D03*
G04 #@! TD*
D11*
G04 #@! TO.C,D759*
X75446447Y-36853553D03*
X76153553Y-36146447D03*
G04 #@! TD*
G04 #@! TO.C,D533*
X55846447Y-31253553D03*
X56553553Y-30546447D03*
G04 #@! TD*
G04 #@! TO.C,D1096*
X96446447Y-32653553D03*
X97153553Y-31946447D03*
G04 #@! TD*
D10*
G04 #@! TO.C,D303*
X55153553Y-15146447D03*
X54446447Y-15853553D03*
G04 #@! TD*
D11*
G04 #@! TO.C,D1025*
X83846447Y-39653553D03*
X84553553Y-38946447D03*
G04 #@! TD*
D10*
G04 #@! TO.C,D321*
X57953553Y-16546447D03*
X57246447Y-17253553D03*
G04 #@! TD*
D12*
G04 #@! TO.C,R31*
X32450000Y-50050000D03*
X31450000Y-50050000D03*
G04 #@! TD*
D11*
G04 #@! TO.C,D1040*
X85246447Y-38253553D03*
X85953553Y-37546447D03*
G04 #@! TD*
D10*
G04 #@! TO.C,D46*
X31353553Y-17946447D03*
X30646447Y-18653553D03*
G04 #@! TD*
G04 #@! TO.C,D297*
X46753553Y-15146447D03*
X46046447Y-15853553D03*
G04 #@! TD*
G04 #@! TO.C,D389*
X41153553Y-23546447D03*
X40446447Y-24253553D03*
G04 #@! TD*
G04 #@! TO.C,D628*
X62153553Y-19346447D03*
X61446447Y-20053553D03*
G04 #@! TD*
D11*
G04 #@! TO.C,D1080*
X96446447Y-34053553D03*
X97153553Y-33346447D03*
G04 #@! TD*
D10*
G04 #@! TO.C,D652*
X73353553Y-20746447D03*
X72646447Y-21453553D03*
G04 #@! TD*
G04 #@! TO.C,D47*
X32753553Y-17946447D03*
X32046447Y-18653553D03*
G04 #@! TD*
D19*
G04 #@! TO.C,R68*
X63600000Y-48150000D03*
X64600000Y-48150000D03*
G04 #@! TD*
D11*
G04 #@! TO.C,D842*
X71246447Y-29853553D03*
X71953553Y-29146447D03*
G04 #@! TD*
D10*
G04 #@! TO.C,D341*
X41153553Y-19346447D03*
X40446447Y-20053553D03*
G04 #@! TD*
D11*
G04 #@! TO.C,D816*
X62846447Y-32653553D03*
X63553553Y-31946447D03*
G04 #@! TD*
D10*
G04 #@! TO.C,D972*
X95753553Y-23546447D03*
X95046447Y-24253553D03*
G04 #@! TD*
D11*
G04 #@! TO.C,D1083*
X92246447Y-34053553D03*
X92953553Y-33346447D03*
G04 #@! TD*
G04 #@! TO.C,D170*
X26446447Y-38253553D03*
X27153553Y-37546447D03*
G04 #@! TD*
G04 #@! TO.C,D744*
X74046447Y-38253553D03*
X74753553Y-37546447D03*
G04 #@! TD*
D12*
G04 #@! TO.C,R10*
X69550000Y-53150000D03*
X68550000Y-53150000D03*
G04 #@! TD*
D10*
G04 #@! TO.C,D693*
X63553553Y-24946447D03*
X62846447Y-25653553D03*
G04 #@! TD*
G04 #@! TO.C,D904*
X90153553Y-17946447D03*
X89446447Y-18653553D03*
G04 #@! TD*
G04 #@! TO.C,D928*
X101353553Y-19346447D03*
X100646447Y-20053553D03*
G04 #@! TD*
D11*
G04 #@! TO.C,D1067*
X92246447Y-35453553D03*
X92953553Y-34746447D03*
G04 #@! TD*
D13*
G04 #@! TO.C,C2*
X91650000Y-59150000D03*
X91650000Y-60150000D03*
G04 #@! TD*
D11*
G04 #@! TO.C,D822*
X76846447Y-31253553D03*
X77553553Y-30546447D03*
G04 #@! TD*
G04 #@! TO.C,D1035*
X92246447Y-38253553D03*
X92953553Y-37546447D03*
G04 #@! TD*
G04 #@! TO.C,D1059*
X103446447Y-35453553D03*
X104153553Y-34746447D03*
G04 #@! TD*
D10*
G04 #@! TO.C,D65*
X35553553Y-19346447D03*
X34846447Y-20053553D03*
G04 #@! TD*
D11*
G04 #@! TO.C,D161*
X16646447Y-39653553D03*
X17353553Y-38946447D03*
G04 #@! TD*
G04 #@! TO.C,D439*
X53046447Y-39653553D03*
X53753553Y-38946447D03*
G04 #@! TD*
G04 #@! TO.C,D172*
X23646447Y-38253553D03*
X24353553Y-37546447D03*
G04 #@! TD*
G04 #@! TO.C,D443*
X47446447Y-39653553D03*
X48153553Y-38946447D03*
G04 #@! TD*
G04 #@! TO.C,D1101*
X89446447Y-32653553D03*
X90153553Y-31946447D03*
G04 #@! TD*
G04 #@! TO.C,D524*
X46046447Y-32653553D03*
X46753553Y-31946447D03*
G04 #@! TD*
D10*
G04 #@! TO.C,D396*
X50953553Y-23546447D03*
X50246447Y-24253553D03*
G04 #@! TD*
D11*
G04 #@! TO.C,D570*
X48846447Y-28453553D03*
X49553553Y-27746447D03*
G04 #@! TD*
G04 #@! TO.C,D522*
X48846447Y-32653553D03*
X49553553Y-31946447D03*
G04 #@! TD*
D10*
G04 #@! TO.C,D298*
X48153553Y-15146447D03*
X47446447Y-15853553D03*
G04 #@! TD*
D11*
G04 #@! TO.C,D538*
X48846447Y-31253553D03*
X49553553Y-30546447D03*
G04 #@! TD*
D10*
G04 #@! TO.C,D699*
X71953553Y-24946447D03*
X71246447Y-25653553D03*
G04 #@! TD*
D11*
G04 #@! TO.C,D856*
X74046447Y-28453553D03*
X74753553Y-27746447D03*
G04 #@! TD*
D10*
G04 #@! TO.C,D626*
X81753553Y-17946447D03*
X81046447Y-18653553D03*
G04 #@! TD*
D11*
G04 #@! TO.C,D738*
X60046447Y-39653553D03*
X60753553Y-38946447D03*
G04 #@! TD*
G04 #@! TO.C,D1058*
X82446447Y-36853553D03*
X83153553Y-36146447D03*
G04 #@! TD*
G04 #@! TO.C,D487*
X53046447Y-35453553D03*
X53753553Y-34746447D03*
G04 #@! TD*
D10*
G04 #@! TO.C,D92*
X28553553Y-22146447D03*
X27846447Y-22853553D03*
G04 #@! TD*
D11*
G04 #@! TO.C,D220*
X23646447Y-34053553D03*
X24353553Y-33346447D03*
G04 #@! TD*
D10*
G04 #@! TO.C,D79*
X32753553Y-20746447D03*
X32046447Y-21453553D03*
G04 #@! TD*
D11*
G04 #@! TO.C,D858*
X71246447Y-28453553D03*
X71953553Y-27746447D03*
G04 #@! TD*
D10*
G04 #@! TO.C,D946*
X104153553Y-20746447D03*
X103446447Y-21453553D03*
G04 #@! TD*
G04 #@! TO.C,D367*
X55153553Y-20746447D03*
X54446447Y-21453553D03*
G04 #@! TD*
G04 #@! TO.C,D927*
X99953553Y-19346447D03*
X99246447Y-20053553D03*
G04 #@! TD*
D11*
G04 #@! TO.C,D1027*
X103446447Y-38253553D03*
X104153553Y-37546447D03*
G04 #@! TD*
D13*
G04 #@! TO.C,C28*
X17200000Y-66050000D03*
X17200000Y-67050000D03*
G04 #@! TD*
G04 #@! TO.C,R1*
X95600000Y-53050000D03*
X95600000Y-54050000D03*
G04 #@! TD*
D11*
G04 #@! TO.C,D1124*
X102046447Y-29853553D03*
X102753553Y-29146447D03*
G04 #@! TD*
D10*
G04 #@! TO.C,D44*
X28553553Y-17946447D03*
X27846447Y-18653553D03*
G04 #@! TD*
G04 #@! TO.C,D80*
X34153553Y-20746447D03*
X33446447Y-21453553D03*
G04 #@! TD*
G04 #@! TO.C,D386*
X59353553Y-22146447D03*
X58646447Y-22853553D03*
G04 #@! TD*
D19*
G04 #@! TO.C,C37*
X51600000Y-62500000D03*
X52600000Y-62500000D03*
G04 #@! TD*
D11*
G04 #@! TO.C,D751*
X64246447Y-38253553D03*
X64953553Y-37546447D03*
G04 #@! TD*
G04 #@! TO.C,D539*
X47446447Y-31253553D03*
X48153553Y-30546447D03*
G04 #@! TD*
D10*
G04 #@! TO.C,D322*
X59353553Y-16546447D03*
X58646447Y-17253553D03*
G04 #@! TD*
G04 #@! TO.C,D411*
X49553553Y-24946447D03*
X48846447Y-25653553D03*
G04 #@! TD*
D11*
G04 #@! TO.C,D501*
X55846447Y-34053553D03*
X56553553Y-33346447D03*
G04 #@! TD*
G04 #@! TO.C,D845*
X67046447Y-29853553D03*
X67753553Y-29146447D03*
G04 #@! TD*
G04 #@! TO.C,D851*
X81046447Y-28453553D03*
X81753553Y-27746447D03*
G04 #@! TD*
D10*
G04 #@! TO.C,D878*
X98553553Y-15146447D03*
X97846447Y-15853553D03*
G04 #@! TD*
D11*
G04 #@! TO.C,D1074*
X82446447Y-35453553D03*
X83153553Y-34746447D03*
G04 #@! TD*
G04 #@! TO.C,D528*
X40446447Y-32653553D03*
X41153553Y-31946447D03*
G04 #@! TD*
D10*
G04 #@! TO.C,D688*
X78953553Y-23546447D03*
X78246447Y-24253553D03*
G04 #@! TD*
D23*
G04 #@! TO.C,U3*
X45550000Y-57675000D03*
X47250000Y-55525000D03*
X45550000Y-55525000D03*
X47250000Y-57675000D03*
D24*
X49175000Y-58505000D03*
X49175000Y-57235000D03*
X49175000Y-55965000D03*
X49175000Y-54695000D03*
X43625000Y-54695000D03*
X43625000Y-55965000D03*
X43625000Y-57235000D03*
X43625000Y-58505000D03*
G04 #@! TD*
D11*
G04 #@! TO.C,D288*
X18046447Y-28453553D03*
X18753553Y-27746447D03*
G04 #@! TD*
G04 #@! TO.C,D569*
X50246447Y-28453553D03*
X50953553Y-27746447D03*
G04 #@! TD*
D10*
G04 #@! TO.C,D310*
X42553553Y-16546447D03*
X41846447Y-17253553D03*
G04 #@! TD*
D11*
G04 #@! TO.C,D770*
X60046447Y-36853553D03*
X60753553Y-36146447D03*
G04 #@! TD*
G04 #@! TO.C,D527*
X41846447Y-32653553D03*
X42553553Y-31946447D03*
G04 #@! TD*
G04 #@! TO.C,D1132*
X90846447Y-29853553D03*
X91553553Y-29146447D03*
G04 #@! TD*
D10*
G04 #@! TO.C,D16*
X34153553Y-15146447D03*
X33446447Y-15853553D03*
G04 #@! TD*
D11*
G04 #@! TO.C,D1135*
X86646447Y-29853553D03*
X87353553Y-29146447D03*
G04 #@! TD*
D10*
G04 #@! TO.C,D712*
X67753553Y-26346447D03*
X67046447Y-27053553D03*
G04 #@! TD*
D11*
G04 #@! TO.C,D1045*
X100646447Y-36853553D03*
X101353553Y-36146447D03*
G04 #@! TD*
D10*
G04 #@! TO.C,D629*
X63553553Y-19346447D03*
X62846447Y-20053553D03*
G04 #@! TD*
G04 #@! TO.C,D143*
X32753553Y-26346447D03*
X32046447Y-27053553D03*
G04 #@! TD*
D12*
G04 #@! TO.C,R6*
X65350000Y-59600000D03*
X64350000Y-59600000D03*
G04 #@! TD*
D10*
G04 #@! TO.C,D307*
X38353553Y-16546447D03*
X37646447Y-17253553D03*
G04 #@! TD*
D11*
G04 #@! TO.C,D190*
X20846447Y-36853553D03*
X21553553Y-36146447D03*
G04 #@! TD*
D10*
G04 #@! TO.C,D919*
X88753553Y-19346447D03*
X88046447Y-20053553D03*
G04 #@! TD*
D11*
G04 #@! TO.C,D561*
X39046447Y-29853553D03*
X39753553Y-29146447D03*
G04 #@! TD*
D19*
G04 #@! TO.C,R55*
X44400000Y-51500000D03*
X45400000Y-51500000D03*
G04 #@! TD*
D10*
G04 #@! TO.C,D681*
X69153553Y-23546447D03*
X68446447Y-24253553D03*
G04 #@! TD*
D11*
G04 #@! TO.C,D1044*
X102046447Y-36853553D03*
X102753553Y-36146447D03*
G04 #@! TD*
D10*
G04 #@! TO.C,D867*
X83153553Y-15146447D03*
X82446447Y-15853553D03*
G04 #@! TD*
D13*
G04 #@! TO.C,C25*
X17300000Y-56100000D03*
X17300000Y-57100000D03*
G04 #@! TD*
D10*
G04 #@! TO.C,D709*
X63553553Y-26346447D03*
X62846447Y-27053553D03*
G04 #@! TD*
G04 #@! TO.C,D595*
X60753553Y-16546447D03*
X60046447Y-17253553D03*
G04 #@! TD*
D11*
G04 #@! TO.C,D251*
X25046447Y-31253553D03*
X25753553Y-30546447D03*
G04 #@! TD*
D10*
G04 #@! TO.C,D1001*
X91553553Y-26346447D03*
X90846447Y-27053553D03*
G04 #@! TD*
D11*
G04 #@! TO.C,D1071*
X86646447Y-35453553D03*
X87353553Y-34746447D03*
G04 #@! TD*
G04 #@! TO.C,D1130*
X93646447Y-29853553D03*
X94353553Y-29146447D03*
G04 #@! TD*
D10*
G04 #@! TO.C,D294*
X42553553Y-15146447D03*
X41846447Y-15853553D03*
G04 #@! TD*
G04 #@! TO.C,D1000*
X90153553Y-26346447D03*
X89446447Y-27053553D03*
G04 #@! TD*
G04 #@! TO.C,D599*
X66353553Y-16546447D03*
X65646447Y-17253553D03*
G04 #@! TD*
D11*
G04 #@! TO.C,D1122*
X82446447Y-31253553D03*
X83153553Y-30546447D03*
G04 #@! TD*
D10*
G04 #@! TO.C,D78*
X31353553Y-20746447D03*
X30646447Y-21453553D03*
G04 #@! TD*
D11*
G04 #@! TO.C,D817*
X61446447Y-32653553D03*
X62153553Y-31946447D03*
G04 #@! TD*
D14*
G04 #@! TO.C,U5*
X25500000Y-49150000D03*
X26700000Y-47950000D03*
X25500000Y-47950000D03*
X26700000Y-49150000D03*
D15*
X27300000Y-46700000D03*
X26900000Y-46700000D03*
X26500000Y-46700000D03*
X26100000Y-46700000D03*
X25700000Y-46700000D03*
X25300000Y-46700000D03*
X24900000Y-46700000D03*
D16*
X24050000Y-47350000D03*
X24050000Y-47750000D03*
X24050000Y-48150000D03*
D17*
X24062500Y-48550000D03*
X24062500Y-48950000D03*
X24062500Y-49350000D03*
X24062500Y-49750000D03*
D18*
X24900000Y-50600000D03*
X25300000Y-50600000D03*
X25700000Y-50600000D03*
X26100000Y-50600000D03*
X26500000Y-50600000D03*
X26900000Y-50600000D03*
D15*
X27300000Y-50600000D03*
D16*
X27950000Y-49750000D03*
X27950000Y-49350000D03*
X27950000Y-48950000D03*
X27950000Y-48550000D03*
X27950000Y-48150000D03*
X27950000Y-47750000D03*
X27950000Y-47350000D03*
G04 #@! TD*
D11*
G04 #@! TO.C,D743*
X75446447Y-38253553D03*
X76153553Y-37546447D03*
G04 #@! TD*
D10*
G04 #@! TO.C,D360*
X45353553Y-20746447D03*
X44646447Y-21453553D03*
G04 #@! TD*
D11*
G04 #@! TO.C,D819*
X81046447Y-31253553D03*
X81753553Y-30546447D03*
G04 #@! TD*
D10*
G04 #@! TO.C,D990*
X98553553Y-24946447D03*
X97846447Y-25653553D03*
G04 #@! TD*
D11*
G04 #@! TO.C,D830*
X65646447Y-31253553D03*
X66353553Y-30546447D03*
G04 #@! TD*
D10*
G04 #@! TO.C,D146*
X36953553Y-26346447D03*
X36246447Y-27053553D03*
G04 #@! TD*
D11*
G04 #@! TO.C,D193*
X16646447Y-36853553D03*
X17353553Y-36146447D03*
G04 #@! TD*
D10*
G04 #@! TO.C,D384*
X56553553Y-22146447D03*
X55846447Y-22853553D03*
G04 #@! TD*
D11*
G04 #@! TO.C,D568*
X51646447Y-28453553D03*
X52353553Y-27746447D03*
G04 #@! TD*
G04 #@! TO.C,D1098*
X93646447Y-32653553D03*
X94353553Y-31946447D03*
G04 #@! TD*
G04 #@! TO.C,D270*
X20846447Y-29853553D03*
X21553553Y-29146447D03*
G04 #@! TD*
D10*
G04 #@! TO.C,D339*
X38353553Y-19346447D03*
X37646447Y-20053553D03*
G04 #@! TD*
D11*
G04 #@! TO.C,D779*
X69846447Y-35453553D03*
X70553553Y-34746447D03*
G04 #@! TD*
D10*
G04 #@! TO.C,D31*
X32753553Y-16546447D03*
X32046447Y-17253553D03*
G04 #@! TD*
D11*
G04 #@! TO.C,D563*
X58646447Y-28453553D03*
X59353553Y-27746447D03*
G04 #@! TD*
D12*
G04 #@! TO.C,R14*
X39100000Y-58450000D03*
X38100000Y-58450000D03*
G04 #@! TD*
D10*
G04 #@! TO.C,D683*
X71953553Y-23546447D03*
X71246447Y-24253553D03*
G04 #@! TD*
G04 #@! TO.C,D357*
X41153553Y-20746447D03*
X40446447Y-21453553D03*
G04 #@! TD*
G04 #@! TO.C,D356*
X39753553Y-20746447D03*
X39046447Y-21453553D03*
G04 #@! TD*
G04 #@! TO.C,D680*
X67753553Y-23546447D03*
X67046447Y-24253553D03*
G04 #@! TD*
D19*
G04 #@! TO.C,R67*
X63600000Y-48950000D03*
X64600000Y-48950000D03*
G04 #@! TD*
D10*
G04 #@! TO.C,D601*
X69153553Y-16546447D03*
X68446447Y-17253553D03*
G04 #@! TD*
D11*
G04 #@! TO.C,D795*
X69846447Y-34053553D03*
X70553553Y-33346447D03*
G04 #@! TD*
G04 #@! TO.C,D203*
X25046447Y-35453553D03*
X25753553Y-34746447D03*
G04 #@! TD*
D10*
G04 #@! TO.C,D304*
X56553553Y-15146447D03*
X55846447Y-15853553D03*
G04 #@! TD*
G04 #@! TO.C,D651*
X71953553Y-20746447D03*
X71246447Y-21453553D03*
G04 #@! TD*
D11*
G04 #@! TO.C,D247*
X30646447Y-31253553D03*
X31353553Y-30546447D03*
G04 #@! TD*
G04 #@! TO.C,D521*
X50246447Y-32653553D03*
X50953553Y-31946447D03*
G04 #@! TD*
D25*
G04 #@! TO.C,J2*
X83600000Y-54725000D03*
X83600000Y-55975000D03*
X83600000Y-57225000D03*
X83600000Y-58475000D03*
D26*
X86950000Y-52875000D03*
X86950000Y-60325000D03*
G04 #@! TD*
D10*
G04 #@! TO.C,D619*
X71953553Y-17946447D03*
X71246447Y-18653553D03*
G04 #@! TD*
D11*
G04 #@! TO.C,D777*
X72646447Y-35453553D03*
X73353553Y-34746447D03*
G04 #@! TD*
D10*
G04 #@! TO.C,D49*
X35553553Y-17946447D03*
X34846447Y-18653553D03*
G04 #@! TD*
D12*
G04 #@! TO.C,R65*
X75000000Y-61700000D03*
X74000000Y-61700000D03*
G04 #@! TD*
D10*
G04 #@! TO.C,D640*
X78953553Y-19346447D03*
X78246447Y-20053553D03*
G04 #@! TD*
D11*
G04 #@! TO.C,D179*
X36246447Y-36853553D03*
X36953553Y-36146447D03*
G04 #@! TD*
D10*
G04 #@! TO.C,D128*
X34153553Y-24946447D03*
X33446447Y-25653553D03*
G04 #@! TD*
G04 #@! TO.C,D329*
X46753553Y-17946447D03*
X46046447Y-18653553D03*
G04 #@! TD*
G04 #@! TO.C,D706*
X81753553Y-24946447D03*
X81046447Y-25653553D03*
G04 #@! TD*
G04 #@! TO.C,D110*
X31353553Y-23546447D03*
X30646447Y-24253553D03*
G04 #@! TD*
D11*
G04 #@! TO.C,D227*
X36246447Y-32653553D03*
X36953553Y-31946447D03*
G04 #@! TD*
D19*
G04 #@! TO.C,R12*
X68550000Y-57050000D03*
X69550000Y-57050000D03*
G04 #@! TD*
D11*
G04 #@! TO.C,D843*
X69846447Y-29853553D03*
X70553553Y-29146447D03*
G04 #@! TD*
G04 #@! TO.C,D1047*
X97846447Y-36853553D03*
X98553553Y-36146447D03*
G04 #@! TD*
G04 #@! TO.C,D1144*
X96446447Y-28453553D03*
X97153553Y-27746447D03*
G04 #@! TD*
G04 #@! TO.C,D824*
X74046447Y-31253553D03*
X74753553Y-30546447D03*
G04 #@! TD*
G04 #@! TO.C,D222*
X20846447Y-34053553D03*
X21553553Y-33346447D03*
G04 #@! TD*
D12*
G04 #@! TO.C,R17*
X33400000Y-64250000D03*
X32400000Y-64250000D03*
G04 #@! TD*
D19*
G04 #@! TO.C,R36*
X18800000Y-46550000D03*
X19800000Y-46550000D03*
G04 #@! TD*
D11*
G04 #@! TO.C,D160*
X18046447Y-39653553D03*
X18753553Y-38946447D03*
G04 #@! TD*
G04 #@! TO.C,D511*
X41846447Y-34053553D03*
X42553553Y-33346447D03*
G04 #@! TD*
G04 #@! TO.C,D208*
X18046447Y-35453553D03*
X18753553Y-34746447D03*
G04 #@! TD*
G04 #@! TO.C,D152*
X29246447Y-39653553D03*
X29953553Y-38946447D03*
G04 #@! TD*
D10*
G04 #@! TO.C,D299*
X49553553Y-15146447D03*
X48846447Y-15853553D03*
G04 #@! TD*
G04 #@! TO.C,D330*
X48153553Y-17946447D03*
X47446447Y-18653553D03*
G04 #@! TD*
D11*
G04 #@! TO.C,D209*
X16646447Y-35453553D03*
X17353553Y-34746447D03*
G04 #@! TD*
G04 #@! TO.C,D530*
X37646447Y-32653553D03*
X38353553Y-31946447D03*
G04 #@! TD*
G04 #@! TO.C,D1069*
X89446447Y-35453553D03*
X90153553Y-34746447D03*
G04 #@! TD*
G04 #@! TO.C,D729*
X72646447Y-39653553D03*
X73353553Y-38946447D03*
G04 #@! TD*
D13*
G04 #@! TO.C,C14*
X64250000Y-53400000D03*
X64250000Y-54400000D03*
G04 #@! TD*
D10*
G04 #@! TO.C,D650*
X70553553Y-20746447D03*
X69846447Y-21453553D03*
G04 #@! TD*
D11*
G04 #@! TO.C,D440*
X51646447Y-39653553D03*
X52353553Y-38946447D03*
G04 #@! TD*
D10*
G04 #@! TO.C,D971*
X94353553Y-23546447D03*
X93646447Y-24253553D03*
G04 #@! TD*
G04 #@! TO.C,D72*
X22953553Y-20746447D03*
X22246447Y-21453553D03*
G04 #@! TD*
G04 #@! TO.C,D719*
X77553553Y-26346447D03*
X76846447Y-27053553D03*
G04 #@! TD*
D12*
G04 #@! TO.C,R50*
X54850000Y-49250000D03*
X53850000Y-49250000D03*
G04 #@! TD*
D11*
G04 #@! TO.C,D454*
X54446447Y-38253553D03*
X55153553Y-37546447D03*
G04 #@! TD*
D10*
G04 #@! TO.C,D118*
X20153553Y-24946447D03*
X19446447Y-25653553D03*
G04 #@! TD*
G04 #@! TO.C,D76*
X28553553Y-20746447D03*
X27846447Y-21453553D03*
G04 #@! TD*
D19*
G04 #@! TO.C,C45*
X74000000Y-62500000D03*
X75000000Y-62500000D03*
G04 #@! TD*
D11*
G04 #@! TO.C,D1123*
X103446447Y-29853553D03*
X104153553Y-29146447D03*
G04 #@! TD*
D10*
G04 #@! TO.C,D720*
X78953553Y-26346447D03*
X78246447Y-27053553D03*
G04 #@! TD*
G04 #@! TO.C,D355*
X38353553Y-20746447D03*
X37646447Y-21453553D03*
G04 #@! TD*
D11*
G04 #@! TO.C,D782*
X65646447Y-35453553D03*
X66353553Y-34746447D03*
G04 #@! TD*
G04 #@! TO.C,D514*
X37646447Y-34053553D03*
X38353553Y-33346447D03*
G04 #@! TD*
G04 #@! TO.C,D471*
X53046447Y-36853553D03*
X53753553Y-36146447D03*
G04 #@! TD*
D10*
G04 #@! TO.C,D28*
X28553553Y-16546447D03*
X27846447Y-17253553D03*
G04 #@! TD*
G04 #@! TO.C,D431*
X55153553Y-26346447D03*
X54446447Y-27053553D03*
G04 #@! TD*
D11*
G04 #@! TO.C,D753*
X61446447Y-38253553D03*
X62153553Y-37546447D03*
G04 #@! TD*
D12*
G04 #@! TO.C,R38*
X55800000Y-65050000D03*
X54800000Y-65050000D03*
G04 #@! TD*
D11*
G04 #@! TO.C,D1046*
X99246447Y-36853553D03*
X99953553Y-36146447D03*
G04 #@! TD*
D10*
G04 #@! TO.C,D677*
X63553553Y-23546447D03*
X62846447Y-24253553D03*
G04 #@! TD*
G04 #@! TO.C,D62*
X31353553Y-19346447D03*
X30646447Y-20053553D03*
G04 #@! TD*
D11*
G04 #@! TO.C,D825*
X72646447Y-31253553D03*
X73353553Y-30546447D03*
G04 #@! TD*
D10*
G04 #@! TO.C,D1004*
X95753553Y-26346447D03*
X95046447Y-27053553D03*
G04 #@! TD*
D11*
G04 #@! TO.C,D1114*
X93646447Y-31253553D03*
X94353553Y-30546447D03*
G04 #@! TD*
D10*
G04 #@! TO.C,D615*
X66353553Y-17946447D03*
X65646447Y-18653553D03*
G04 #@! TD*
G04 #@! TO.C,D647*
X66353553Y-20746447D03*
X65646447Y-21453553D03*
G04 #@! TD*
D11*
G04 #@! TO.C,D231*
X30646447Y-32653553D03*
X31353553Y-31946447D03*
G04 #@! TD*
G04 #@! TO.C,D1056*
X85246447Y-36853553D03*
X85953553Y-36146447D03*
G04 #@! TD*
D10*
G04 #@! TO.C,D19*
X15953553Y-16546447D03*
X15246447Y-17253553D03*
G04 #@! TD*
G04 #@! TO.C,D83*
X15953553Y-22146447D03*
X15246447Y-22853553D03*
G04 #@! TD*
G04 #@! TO.C,D415*
X55153553Y-24946447D03*
X54446447Y-25653553D03*
G04 #@! TD*
G04 #@! TO.C,D645*
X63553553Y-20746447D03*
X62846447Y-21453553D03*
G04 #@! TD*
G04 #@! TO.C,D644*
X62153553Y-20746447D03*
X61446447Y-21453553D03*
G04 #@! TD*
D11*
G04 #@! TO.C,D513*
X39046447Y-34053553D03*
X39753553Y-33346447D03*
G04 #@! TD*
G04 #@! TO.C,D1029*
X100646447Y-38253553D03*
X101353553Y-37546447D03*
G04 #@! TD*
G04 #@! TO.C,D282*
X26446447Y-28453553D03*
X27153553Y-27746447D03*
G04 #@! TD*
D10*
G04 #@! TO.C,D75*
X27153553Y-20746447D03*
X26446447Y-21453553D03*
G04 #@! TD*
D11*
G04 #@! TO.C,D866*
X60046447Y-28453553D03*
X60753553Y-27746447D03*
G04 #@! TD*
G04 #@! TO.C,D567*
X53046447Y-28453553D03*
X53753553Y-27746447D03*
G04 #@! TD*
G04 #@! TO.C,D234*
X26446447Y-32653553D03*
X27153553Y-31946447D03*
G04 #@! TD*
D20*
G04 #@! TO.C,D2*
X68350000Y-55100000D03*
X69750000Y-55100000D03*
G04 #@! TD*
D10*
G04 #@! TO.C,D687*
X77553553Y-23546447D03*
X76846447Y-24253553D03*
G04 #@! TD*
D12*
G04 #@! TO.C,R69*
X77250000Y-47650000D03*
X76250000Y-47650000D03*
G04 #@! TD*
D10*
G04 #@! TO.C,D695*
X66353553Y-24946447D03*
X65646447Y-25653553D03*
G04 #@! TD*
G04 #@! TO.C,D85*
X18753553Y-22146447D03*
X18046447Y-22853553D03*
G04 #@! TD*
D11*
G04 #@! TO.C,D755*
X81046447Y-36853553D03*
X81753553Y-36146447D03*
G04 #@! TD*
D10*
G04 #@! TO.C,D55*
X21553553Y-19346447D03*
X20846447Y-20053553D03*
G04 #@! TD*
D11*
G04 #@! TO.C,D1015*
X97846447Y-39653553D03*
X98553553Y-38946447D03*
G04 #@! TD*
D10*
G04 #@! TO.C,D343*
X43953553Y-19346447D03*
X43246447Y-20053553D03*
G04 #@! TD*
D11*
G04 #@! TO.C,D815*
X64246447Y-32653553D03*
X64953553Y-31946447D03*
G04 #@! TD*
D10*
G04 #@! TO.C,D970*
X92953553Y-23546447D03*
X92246447Y-24253553D03*
G04 #@! TD*
G04 #@! TO.C,D369*
X57953553Y-20746447D03*
X57246447Y-21453553D03*
G04 #@! TD*
D27*
G04 #@! TO.C,U10*
X93900000Y-64050000D03*
X92700000Y-64050000D03*
X92700000Y-65250000D03*
X93900000Y-65250000D03*
D28*
X92100000Y-66500000D03*
X92500000Y-66500000D03*
X92900000Y-66500000D03*
X93300000Y-66500000D03*
X93700000Y-66500000D03*
X94100000Y-66500000D03*
X94500000Y-66500000D03*
D29*
X95350000Y-65850000D03*
X95350000Y-65450000D03*
X95350000Y-65050000D03*
D30*
X95337500Y-64650000D03*
X95337500Y-64250000D03*
X95337500Y-63850000D03*
X95337500Y-63450000D03*
D31*
X94500000Y-62600000D03*
X94100000Y-62600000D03*
X93700000Y-62600000D03*
X93300000Y-62600000D03*
X92900000Y-62600000D03*
X92500000Y-62600000D03*
D28*
X92100000Y-62600000D03*
D29*
X91450000Y-63450000D03*
X91450000Y-63850000D03*
X91450000Y-64250000D03*
X91450000Y-64650000D03*
X91450000Y-65050000D03*
X91450000Y-65450000D03*
X91450000Y-65850000D03*
G04 #@! TD*
D22*
G04 #@! TO.C,S1*
X23200000Y-57300000D03*
X23200000Y-55900000D03*
G04 #@! TD*
D11*
G04 #@! TO.C,D810*
X71246447Y-32653553D03*
X71953553Y-31946447D03*
G04 #@! TD*
G04 #@! TO.C,D1020*
X90846447Y-39653553D03*
X91553553Y-38946447D03*
G04 #@! TD*
D19*
G04 #@! TO.C,R76*
X63600000Y-46550000D03*
X64600000Y-46550000D03*
G04 #@! TD*
D10*
G04 #@! TO.C,D931*
X83153553Y-20746447D03*
X82446447Y-21453553D03*
G04 #@! TD*
G04 #@! TO.C,D984*
X90153553Y-24946447D03*
X89446447Y-25653553D03*
G04 #@! TD*
D11*
G04 #@! TO.C,D773*
X78246447Y-35453553D03*
X78953553Y-34746447D03*
G04 #@! TD*
G04 #@! TO.C,D1048*
X96446447Y-36853553D03*
X97153553Y-36146447D03*
G04 #@! TD*
D10*
G04 #@! TO.C,D955*
X94353553Y-22146447D03*
X93646447Y-22853553D03*
G04 #@! TD*
G04 #@! TO.C,D388*
X39753553Y-23546447D03*
X39046447Y-24253553D03*
G04 #@! TD*
G04 #@! TO.C,D704*
X78953553Y-24946447D03*
X78246447Y-25653553D03*
G04 #@! TD*
G04 #@! TO.C,D959*
X99953553Y-22146447D03*
X99246447Y-22853553D03*
G04 #@! TD*
G04 #@! TO.C,D390*
X42553553Y-23546447D03*
X41846447Y-24253553D03*
G04 #@! TD*
D11*
G04 #@! TO.C,D841*
X72646447Y-29853553D03*
X73353553Y-29146447D03*
G04 #@! TD*
D10*
G04 #@! TO.C,D707*
X60753553Y-26346447D03*
X60046447Y-27053553D03*
G04 #@! TD*
G04 #@! TO.C,D685*
X74753553Y-23546447D03*
X74046447Y-24253553D03*
G04 #@! TD*
G04 #@! TO.C,D301*
X52353553Y-15146447D03*
X51646447Y-15853553D03*
G04 #@! TD*
G04 #@! TO.C,D670*
X76153553Y-22146447D03*
X75446447Y-22853553D03*
G04 #@! TD*
D19*
G04 #@! TO.C,R13*
X68550000Y-56150000D03*
X69550000Y-56150000D03*
G04 #@! TD*
D11*
G04 #@! TO.C,D1088*
X85246447Y-34053553D03*
X85953553Y-33346447D03*
G04 #@! TD*
D10*
G04 #@! TO.C,D691*
X60753553Y-24946447D03*
X60046447Y-25653553D03*
G04 #@! TD*
G04 #@! TO.C,D377*
X46753553Y-22146447D03*
X46046447Y-22853553D03*
G04 #@! TD*
G04 #@! TO.C,D697*
X69153553Y-24946447D03*
X68446447Y-25653553D03*
G04 #@! TD*
G04 #@! TO.C,D880*
X101353553Y-15146447D03*
X100646447Y-15853553D03*
G04 #@! TD*
G04 #@! TO.C,D403*
X38353553Y-24946447D03*
X37646447Y-25653553D03*
G04 #@! TD*
D12*
G04 #@! TO.C,R71*
X77250000Y-50050000D03*
X76250000Y-50050000D03*
G04 #@! TD*
D11*
G04 #@! TO.C,D1089*
X83846447Y-34053553D03*
X84553553Y-33346447D03*
G04 #@! TD*
D10*
G04 #@! TO.C,D408*
X45353553Y-24946447D03*
X44646447Y-25653553D03*
G04 #@! TD*
D19*
G04 #@! TO.C,R80*
X86950000Y-63950000D03*
X87950000Y-63950000D03*
G04 #@! TD*
D11*
G04 #@! TO.C,D1061*
X100646447Y-35453553D03*
X101353553Y-34746447D03*
G04 #@! TD*
D12*
G04 #@! TO.C,R49*
X54850000Y-47650000D03*
X53850000Y-47650000D03*
G04 #@! TD*
D10*
G04 #@! TO.C,D116*
X17353553Y-24946447D03*
X16646447Y-25653553D03*
G04 #@! TD*
G04 #@! TO.C,D33*
X35553553Y-16546447D03*
X34846447Y-17253553D03*
G04 #@! TD*
D11*
G04 #@! TO.C,D526*
X43246447Y-32653553D03*
X43953553Y-31946447D03*
G04 #@! TD*
G04 #@! TO.C,D764*
X68446447Y-36853553D03*
X69153553Y-36146447D03*
G04 #@! TD*
G04 #@! TO.C,D1038*
X88046447Y-38253553D03*
X88753553Y-37546447D03*
G04 #@! TD*
G04 #@! TO.C,D1127*
X97846447Y-29853553D03*
X98553553Y-29146447D03*
G04 #@! TD*
D10*
G04 #@! TO.C,D993*
X102753553Y-24946447D03*
X102046447Y-25653553D03*
G04 #@! TD*
G04 #@! TO.C,D613*
X63553553Y-17946447D03*
X62846447Y-18653553D03*
G04 #@! TD*
D11*
G04 #@! TO.C,D540*
X46046447Y-31253553D03*
X46753553Y-30546447D03*
G04 #@! TD*
D21*
G04 #@! TO.C,C10*
X103150000Y-55850000D03*
X103150000Y-54850000D03*
G04 #@! TD*
D10*
G04 #@! TO.C,D305*
X57953553Y-15146447D03*
X57246447Y-15853553D03*
G04 #@! TD*
D12*
G04 #@! TO.C,R32*
X32450000Y-48450000D03*
X31450000Y-48450000D03*
G04 #@! TD*
D10*
G04 #@! TO.C,D977*
X102753553Y-23546447D03*
X102046447Y-24253553D03*
G04 #@! TD*
D11*
G04 #@! TO.C,D1079*
X97846447Y-34053553D03*
X98553553Y-33346447D03*
G04 #@! TD*
G04 #@! TO.C,D826*
X71246447Y-31253553D03*
X71953553Y-30546447D03*
G04 #@! TD*
G04 #@! TO.C,D794*
X71246447Y-34053553D03*
X71953553Y-33346447D03*
G04 #@! TD*
D10*
G04 #@! TO.C,D296*
X45353553Y-15146447D03*
X44646447Y-15853553D03*
G04 #@! TD*
D12*
G04 #@! TO.C,R58*
X78200000Y-65050000D03*
X77200000Y-65050000D03*
G04 #@! TD*
G04 #@! TO.C,R9*
X60650000Y-61650000D03*
X59650000Y-61650000D03*
G04 #@! TD*
D10*
G04 #@! TO.C,D965*
X85953553Y-23546447D03*
X85246447Y-24253553D03*
G04 #@! TD*
G04 #@! TO.C,D632*
X67753553Y-19346447D03*
X67046447Y-20053553D03*
G04 #@! TD*
G04 #@! TO.C,D425*
X46753553Y-26346447D03*
X46046447Y-27053553D03*
G04 #@! TD*
G04 #@! TO.C,D663*
X66353553Y-22146447D03*
X65646447Y-22853553D03*
G04 #@! TD*
G04 #@! TO.C,D870*
X87353553Y-15146447D03*
X86646447Y-15853553D03*
G04 #@! TD*
D21*
G04 #@! TO.C,C7*
X102250000Y-55850000D03*
X102250000Y-54850000D03*
G04 #@! TD*
D11*
G04 #@! TO.C,D259*
X36246447Y-29853553D03*
X36953553Y-29146447D03*
G04 #@! TD*
G04 #@! TO.C,D1115*
X92246447Y-31253553D03*
X92953553Y-30546447D03*
G04 #@! TD*
G04 #@! TO.C,D228*
X34846447Y-32653553D03*
X35553553Y-31946447D03*
G04 #@! TD*
D13*
G04 #@! TO.C,C1*
X92500000Y-59150000D03*
X92500000Y-60150000D03*
G04 #@! TD*
D11*
G04 #@! TO.C,D839*
X75446447Y-29853553D03*
X76153553Y-29146447D03*
G04 #@! TD*
D10*
G04 #@! TO.C,D643*
X60753553Y-20746447D03*
X60046447Y-21453553D03*
G04 #@! TD*
D11*
G04 #@! TO.C,D248*
X29246447Y-31253553D03*
X29953553Y-30546447D03*
G04 #@! TD*
D10*
G04 #@! TO.C,D380*
X50953553Y-22146447D03*
X50246447Y-22853553D03*
G04 #@! TD*
D11*
G04 #@! TO.C,D472*
X51646447Y-36853553D03*
X52353553Y-36146447D03*
G04 #@! TD*
G04 #@! TO.C,D476*
X46046447Y-36853553D03*
X46753553Y-36146447D03*
G04 #@! TD*
D10*
G04 #@! TO.C,D112*
X34153553Y-23546447D03*
X33446447Y-24253553D03*
G04 #@! TD*
D11*
G04 #@! TO.C,D468*
X57246447Y-36853553D03*
X57953553Y-36146447D03*
G04 #@! TD*
D10*
G04 #@! TO.C,D641*
X80353553Y-19346447D03*
X79646447Y-20053553D03*
G04 #@! TD*
D11*
G04 #@! TO.C,D279*
X30646447Y-28453553D03*
X31353553Y-27746447D03*
G04 #@! TD*
D10*
G04 #@! TO.C,D56*
X22953553Y-19346447D03*
X22246447Y-20053553D03*
G04 #@! TD*
G04 #@! TO.C,D6*
X20153553Y-15146447D03*
X19446447Y-15853553D03*
G04 #@! TD*
G04 #@! TO.C,D407*
X43953553Y-24946447D03*
X43246447Y-25653553D03*
G04 #@! TD*
D11*
G04 #@! TO.C,D831*
X64246447Y-31253553D03*
X64953553Y-30546447D03*
G04 #@! TD*
D10*
G04 #@! TO.C,D874*
X92953553Y-15146447D03*
X92246447Y-15853553D03*
G04 #@! TD*
D11*
G04 #@! TO.C,D576*
X40446447Y-28453553D03*
X41153553Y-27746447D03*
G04 #@! TD*
G04 #@! TO.C,D1090*
X82446447Y-34053553D03*
X83153553Y-33346447D03*
G04 #@! TD*
D10*
G04 #@! TO.C,D309*
X41153553Y-16546447D03*
X40446447Y-17253553D03*
G04 #@! TD*
D11*
G04 #@! TO.C,D854*
X76846447Y-28453553D03*
X77553553Y-27746447D03*
G04 #@! TD*
D10*
G04 #@! TO.C,D9*
X24353553Y-15146447D03*
X23646447Y-15853553D03*
G04 #@! TD*
D21*
G04 #@! TO.C,C5*
X101350000Y-55850000D03*
X101350000Y-54850000D03*
G04 #@! TD*
D11*
G04 #@! TO.C,D1063*
X97846447Y-35453553D03*
X98553553Y-34746447D03*
G04 #@! TD*
D10*
G04 #@! TO.C,D582*
X64953553Y-15146447D03*
X64246447Y-15853553D03*
G04 #@! TD*
D11*
G04 #@! TO.C,D212*
X34846447Y-34053553D03*
X35553553Y-33346447D03*
G04 #@! TD*
D10*
G04 #@! TO.C,D432*
X56553553Y-26346447D03*
X55846447Y-27053553D03*
G04 #@! TD*
D11*
G04 #@! TO.C,D566*
X54446447Y-28453553D03*
X55153553Y-27746447D03*
G04 #@! TD*
D10*
G04 #@! TO.C,D612*
X62153553Y-17946447D03*
X61446447Y-18653553D03*
G04 #@! TD*
G04 #@! TO.C,D991*
X99953553Y-24946447D03*
X99246447Y-25653553D03*
G04 #@! TD*
D11*
G04 #@! TO.C,D177*
X16646447Y-38253553D03*
X17353553Y-37546447D03*
G04 #@! TD*
G04 #@! TO.C,D572*
X46046447Y-28453553D03*
X46753553Y-27746447D03*
G04 #@! TD*
G04 #@! TO.C,D489*
X50246447Y-35453553D03*
X50953553Y-34746447D03*
G04 #@! TD*
D10*
G04 #@! TO.C,D127*
X32753553Y-24946447D03*
X32046447Y-25653553D03*
G04 #@! TD*
D11*
G04 #@! TO.C,D168*
X29246447Y-38253553D03*
X29953553Y-37546447D03*
G04 #@! TD*
D10*
G04 #@! TO.C,D29*
X29953553Y-16546447D03*
X29246447Y-17253553D03*
G04 #@! TD*
D11*
G04 #@! TO.C,D274*
X15246447Y-29853553D03*
X15953553Y-29146447D03*
G04 #@! TD*
G04 #@! TO.C,D578*
X37646447Y-28453553D03*
X38353553Y-27746447D03*
G04 #@! TD*
D10*
G04 #@! TO.C,D51*
X15953553Y-19346447D03*
X15246447Y-20053553D03*
G04 #@! TD*
D12*
G04 #@! TO.C,R24*
X33400000Y-63450000D03*
X32400000Y-63450000D03*
G04 #@! TD*
D10*
G04 #@! TO.C,D107*
X27153553Y-23546447D03*
X26446447Y-24253553D03*
G04 #@! TD*
G04 #@! TO.C,D916*
X84553553Y-19346447D03*
X83846447Y-20053553D03*
G04 #@! TD*
D11*
G04 #@! TO.C,D754*
X60046447Y-38253553D03*
X60753553Y-37546447D03*
G04 #@! TD*
G04 #@! TO.C,D863*
X64246447Y-28453553D03*
X64953553Y-27746447D03*
G04 #@! TD*
G04 #@! TO.C,D1062*
X99246447Y-35453553D03*
X99953553Y-34746447D03*
G04 #@! TD*
D10*
G04 #@! TO.C,D692*
X62153553Y-24946447D03*
X61446447Y-25653553D03*
G04 #@! TD*
D11*
G04 #@! TO.C,D544*
X40446447Y-31253553D03*
X41153553Y-30546447D03*
G04 #@! TD*
D10*
G04 #@! TO.C,D122*
X25753553Y-24946447D03*
X25046447Y-25653553D03*
G04 #@! TD*
D11*
G04 #@! TO.C,D756*
X79646447Y-36853553D03*
X80353553Y-36146447D03*
G04 #@! TD*
D27*
G04 #@! TO.C,U8*
X70300000Y-65250000D03*
X71500000Y-65250000D03*
X70300000Y-64050000D03*
X71500000Y-64050000D03*
D28*
X69700000Y-66500000D03*
X70100000Y-66500000D03*
X70500000Y-66500000D03*
X70900000Y-66500000D03*
X71300000Y-66500000D03*
X71700000Y-66500000D03*
X72100000Y-66500000D03*
D29*
X72950000Y-65850000D03*
X72950000Y-65450000D03*
X72950000Y-65050000D03*
D30*
X72937500Y-64650000D03*
X72937500Y-64250000D03*
X72937500Y-63850000D03*
X72937500Y-63450000D03*
D31*
X72100000Y-62600000D03*
X71700000Y-62600000D03*
X71300000Y-62600000D03*
X70900000Y-62600000D03*
X70500000Y-62600000D03*
X70100000Y-62600000D03*
D28*
X69700000Y-62600000D03*
D29*
X69050000Y-63450000D03*
X69050000Y-63850000D03*
X69050000Y-64250000D03*
X69050000Y-64650000D03*
X69050000Y-65050000D03*
X69050000Y-65450000D03*
X69050000Y-65850000D03*
G04 #@! TD*
D11*
G04 #@! TO.C,D1082*
X93646447Y-34053553D03*
X94353553Y-33346447D03*
G04 #@! TD*
D10*
G04 #@! TO.C,D591*
X77553553Y-15146447D03*
X76846447Y-15853553D03*
G04 #@! TD*
G04 #@! TO.C,D399*
X55153553Y-23546447D03*
X54446447Y-24253553D03*
G04 #@! TD*
G04 #@! TO.C,D89*
X24353553Y-22146447D03*
X23646447Y-22853553D03*
G04 #@! TD*
D11*
G04 #@! TO.C,D1078*
X99246447Y-34053553D03*
X99953553Y-33346447D03*
G04 #@! TD*
G04 #@! TO.C,D246*
X32046447Y-31253553D03*
X32753553Y-30546447D03*
G04 #@! TD*
G04 #@! TO.C,D175*
X19446447Y-38253553D03*
X20153553Y-37546447D03*
G04 #@! TD*
G04 #@! TO.C,D1134*
X88046447Y-29853553D03*
X88753553Y-29146447D03*
G04 #@! TD*
D10*
G04 #@! TO.C,D974*
X98553553Y-23546447D03*
X97846447Y-24253553D03*
G04 #@! TD*
G04 #@! TO.C,D426*
X48153553Y-26346447D03*
X47446447Y-27053553D03*
G04 #@! TD*
D21*
G04 #@! TO.C,C19*
X61050000Y-51550000D03*
X61050000Y-50550000D03*
G04 #@! TD*
D10*
G04 #@! TO.C,D379*
X49553553Y-22146447D03*
X48846447Y-22853553D03*
G04 #@! TD*
D11*
G04 #@! TO.C,D805*
X78246447Y-32653553D03*
X78953553Y-31946447D03*
G04 #@! TD*
G04 #@! TO.C,D769*
X61446447Y-36853553D03*
X62153553Y-36146447D03*
G04 #@! TD*
G04 #@! TO.C,D441*
X50246447Y-39653553D03*
X50953553Y-38946447D03*
G04 #@! TD*
D19*
G04 #@! TO.C,C11*
X64350000Y-58750000D03*
X65350000Y-58750000D03*
G04 #@! TD*
D10*
G04 #@! TO.C,D930*
X104153553Y-19346447D03*
X103446447Y-20053553D03*
G04 #@! TD*
D11*
G04 #@! TO.C,D217*
X27846447Y-34053553D03*
X28553553Y-33346447D03*
G04 #@! TD*
G04 #@! TO.C,D470*
X54446447Y-36853553D03*
X55153553Y-36146447D03*
G04 #@! TD*
D10*
G04 #@! TO.C,D42*
X25753553Y-17946447D03*
X25046447Y-18653553D03*
G04 #@! TD*
D11*
G04 #@! TO.C,D1072*
X85246447Y-35453553D03*
X85953553Y-34746447D03*
G04 #@! TD*
G04 #@! TO.C,D201*
X27846447Y-35453553D03*
X28553553Y-34746447D03*
G04 #@! TD*
D10*
G04 #@! TO.C,D945*
X102753553Y-20746447D03*
X102046447Y-21453553D03*
G04 #@! TD*
G04 #@! TO.C,D979*
X83153553Y-24946447D03*
X82446447Y-25653553D03*
G04 #@! TD*
D11*
G04 #@! TO.C,D507*
X47446447Y-34053553D03*
X48153553Y-33346447D03*
G04 #@! TD*
G04 #@! TO.C,D1068*
X90846447Y-35453553D03*
X91553553Y-34746447D03*
G04 #@! TD*
G04 #@! TO.C,D772*
X79646447Y-35453553D03*
X80353553Y-34746447D03*
G04 #@! TD*
G04 #@! TO.C,D205*
X22246447Y-35453553D03*
X22953553Y-34746447D03*
G04 #@! TD*
D10*
G04 #@! TO.C,D10*
X25753553Y-15146447D03*
X25046447Y-15853553D03*
G04 #@! TD*
D11*
G04 #@! TO.C,D762*
X71246447Y-36853553D03*
X71953553Y-36146447D03*
G04 #@! TD*
D10*
G04 #@! TO.C,D50*
X36953553Y-17946447D03*
X36246447Y-18653553D03*
G04 #@! TD*
D11*
G04 #@! TO.C,D1050*
X93646447Y-36853553D03*
X94353553Y-36146447D03*
G04 #@! TD*
D10*
G04 #@! TO.C,D418*
X59353553Y-24946447D03*
X58646447Y-25653553D03*
G04 #@! TD*
G04 #@! TO.C,D653*
X74753553Y-20746447D03*
X74046447Y-21453553D03*
G04 #@! TD*
D11*
G04 #@! TO.C,D771*
X81046447Y-35453553D03*
X81753553Y-34746447D03*
G04 #@! TD*
D10*
G04 #@! TO.C,D38*
X20153553Y-17946447D03*
X19446447Y-18653553D03*
G04 #@! TD*
D11*
G04 #@! TO.C,D1026*
X82446447Y-39653553D03*
X83153553Y-38946447D03*
G04 #@! TD*
G04 #@! TO.C,D449*
X39046447Y-39653553D03*
X39753553Y-38946447D03*
G04 #@! TD*
G04 #@! TO.C,D1030*
X99246447Y-38253553D03*
X99953553Y-37546447D03*
G04 #@! TD*
D10*
G04 #@! TO.C,D622*
X76153553Y-17946447D03*
X75446447Y-18653553D03*
G04 #@! TD*
G04 #@! TO.C,D87*
X21553553Y-22146447D03*
X20846447Y-22853553D03*
G04 #@! TD*
D11*
G04 #@! TO.C,D823*
X75446447Y-31253553D03*
X76153553Y-30546447D03*
G04 #@! TD*
G04 #@! TO.C,D1137*
X83846447Y-29853553D03*
X84553553Y-29146447D03*
G04 #@! TD*
D13*
G04 #@! TO.C,R16*
X16450000Y-56100000D03*
X16450000Y-57100000D03*
G04 #@! TD*
D11*
G04 #@! TO.C,D275*
X36246447Y-28453553D03*
X36953553Y-27746447D03*
G04 #@! TD*
G04 #@! TO.C,D787*
X81046447Y-34053553D03*
X81753553Y-33346447D03*
G04 #@! TD*
D19*
G04 #@! TO.C,R53*
X41200000Y-47350000D03*
X42200000Y-47350000D03*
G04 #@! TD*
D11*
G04 #@! TO.C,D458*
X48846447Y-38253553D03*
X49553553Y-37546447D03*
G04 #@! TD*
G04 #@! TO.C,D269*
X22246447Y-29853553D03*
X22953553Y-29146447D03*
G04 #@! TD*
G04 #@! TO.C,D503*
X53046447Y-34053553D03*
X53753553Y-33346447D03*
G04 #@! TD*
D10*
G04 #@! TO.C,D336*
X56553553Y-17946447D03*
X55846447Y-18653553D03*
G04 #@! TD*
D11*
G04 #@! TO.C,D494*
X43246447Y-35453553D03*
X43953553Y-34746447D03*
G04 #@! TD*
G04 #@! TO.C,D1064*
X96446447Y-35453553D03*
X97153553Y-34746447D03*
G04 #@! TD*
G04 #@! TO.C,D820*
X79646447Y-31253553D03*
X80353553Y-30546447D03*
G04 #@! TD*
D10*
G04 #@! TO.C,D393*
X46753553Y-23546447D03*
X46046447Y-24253553D03*
G04 #@! TD*
G04 #@! TO.C,D711*
X66353553Y-26346447D03*
X65646447Y-27053553D03*
G04 #@! TD*
G04 #@! TO.C,D871*
X88753553Y-15146447D03*
X88046447Y-15853553D03*
G04 #@! TD*
G04 #@! TO.C,D892*
X95753553Y-16546447D03*
X95046447Y-17253553D03*
G04 #@! TD*
G04 #@! TO.C,D944*
X101353553Y-20746447D03*
X100646447Y-21453553D03*
G04 #@! TD*
D13*
G04 #@! TO.C,C26*
X18000000Y-66050000D03*
X18000000Y-67050000D03*
G04 #@! TD*
D11*
G04 #@! TO.C,D278*
X32046447Y-28453553D03*
X32753553Y-27746447D03*
G04 #@! TD*
D10*
G04 #@! TO.C,D985*
X91553553Y-24946447D03*
X90846447Y-25653553D03*
G04 #@! TD*
D19*
G04 #@! TO.C,R94*
X86000000Y-49750000D03*
X87000000Y-49750000D03*
G04 #@! TD*
D11*
G04 #@! TO.C,D257*
X16646447Y-31253553D03*
X17353553Y-30546447D03*
G04 #@! TD*
G04 #@! TO.C,D1105*
X83846447Y-32653553D03*
X84553553Y-31946447D03*
G04 #@! TD*
D12*
G04 #@! TO.C,R70*
X77250000Y-49250000D03*
X76250000Y-49250000D03*
G04 #@! TD*
D10*
G04 #@! TO.C,D957*
X97153553Y-22146447D03*
X96446447Y-22853553D03*
G04 #@! TD*
D11*
G04 #@! TO.C,D289*
X16646447Y-28453553D03*
X17353553Y-27746447D03*
G04 #@! TD*
D19*
G04 #@! TO.C,R79*
X86950000Y-65550000D03*
X87950000Y-65550000D03*
G04 #@! TD*
D10*
G04 #@! TO.C,D416*
X56553553Y-24946447D03*
X55846447Y-25653553D03*
G04 #@! TD*
G04 #@! TO.C,D664*
X67753553Y-22146447D03*
X67046447Y-22853553D03*
G04 #@! TD*
G04 #@! TO.C,D952*
X90153553Y-22146447D03*
X89446447Y-22853553D03*
G04 #@! TD*
D11*
G04 #@! TO.C,D236*
X23646447Y-32653553D03*
X24353553Y-31946447D03*
G04 #@! TD*
D10*
G04 #@! TO.C,D59*
X27153553Y-19346447D03*
X26446447Y-20053553D03*
G04 #@! TD*
D11*
G04 #@! TO.C,D807*
X75446447Y-32653553D03*
X76153553Y-31946447D03*
G04 #@! TD*
D10*
G04 #@! TO.C,D674*
X81753553Y-22146447D03*
X81046447Y-22853553D03*
G04 #@! TD*
D11*
G04 #@! TO.C,D557*
X44646447Y-29853553D03*
X45353553Y-29146447D03*
G04 #@! TD*
D10*
G04 #@! TO.C,D886*
X87353553Y-16546447D03*
X86646447Y-17253553D03*
G04 #@! TD*
G04 #@! TO.C,D117*
X18753553Y-24946447D03*
X18046447Y-25653553D03*
G04 #@! TD*
D21*
G04 #@! TO.C,C46*
X79000000Y-47150000D03*
X79000000Y-46150000D03*
G04 #@! TD*
D10*
G04 #@! TO.C,D136*
X22953553Y-26346447D03*
X22246447Y-27053553D03*
G04 #@! TD*
G04 #@! TO.C,D334*
X53753553Y-17946447D03*
X53046447Y-18653553D03*
G04 #@! TD*
G04 #@! TO.C,D293*
X41153553Y-15146447D03*
X40446447Y-15853553D03*
G04 #@! TD*
D27*
G04 #@! TO.C,U6*
X49100000Y-64050000D03*
X47900000Y-65250000D03*
X49100000Y-65250000D03*
X47900000Y-64050000D03*
D28*
X47300000Y-66500000D03*
X47700000Y-66500000D03*
X48100000Y-66500000D03*
X48500000Y-66500000D03*
X48900000Y-66500000D03*
X49300000Y-66500000D03*
X49700000Y-66500000D03*
D29*
X50550000Y-65850000D03*
X50550000Y-65450000D03*
X50550000Y-65050000D03*
D30*
X50537500Y-64650000D03*
X50537500Y-64250000D03*
X50537500Y-63850000D03*
X50537500Y-63450000D03*
D31*
X49700000Y-62600000D03*
X49300000Y-62600000D03*
X48900000Y-62600000D03*
X48500000Y-62600000D03*
X48100000Y-62600000D03*
X47700000Y-62600000D03*
D28*
X47300000Y-62600000D03*
D29*
X46650000Y-63450000D03*
X46650000Y-63850000D03*
X46650000Y-64250000D03*
X46650000Y-64650000D03*
X46650000Y-65050000D03*
X46650000Y-65450000D03*
X46650000Y-65850000D03*
G04 #@! TD*
D10*
G04 #@! TO.C,D422*
X42553553Y-26346447D03*
X41846447Y-27053553D03*
G04 #@! TD*
D11*
G04 #@! TO.C,D750*
X65646447Y-38253553D03*
X66353553Y-37546447D03*
G04 #@! TD*
G04 #@! TO.C,D1108*
X102046447Y-31253553D03*
X102753553Y-30546447D03*
G04 #@! TD*
D10*
G04 #@! TO.C,D90*
X25753553Y-22146447D03*
X25046447Y-22853553D03*
G04 #@! TD*
D19*
G04 #@! TO.C,R87*
X86000000Y-48950000D03*
X87000000Y-48950000D03*
G04 #@! TD*
D11*
G04 #@! TO.C,D1023*
X86646447Y-39653553D03*
X87353553Y-38946447D03*
G04 #@! TD*
G04 #@! TO.C,D1119*
X86646447Y-31253553D03*
X87353553Y-30546447D03*
G04 #@! TD*
G04 #@! TO.C,D808*
X74046447Y-32653553D03*
X74753553Y-31946447D03*
G04 #@! TD*
D19*
G04 #@! TO.C,R62*
X64550000Y-64750000D03*
X65550000Y-64750000D03*
G04 #@! TD*
D11*
G04 #@! TO.C,D733*
X67046447Y-39653553D03*
X67753553Y-38946447D03*
G04 #@! TD*
D10*
G04 #@! TO.C,D920*
X90153553Y-19346447D03*
X89446447Y-20053553D03*
G04 #@! TD*
G04 #@! TO.C,D421*
X41153553Y-26346447D03*
X40446447Y-27053553D03*
G04 #@! TD*
D11*
G04 #@! TO.C,D182*
X32046447Y-36853553D03*
X32753553Y-36146447D03*
G04 #@! TD*
G04 #@! TO.C,D1142*
X99246447Y-28453553D03*
X99953553Y-27746447D03*
G04 #@! TD*
D10*
G04 #@! TO.C,D300*
X50953553Y-15146447D03*
X50246447Y-15853553D03*
G04 #@! TD*
G04 #@! TO.C,D60*
X28553553Y-19346447D03*
X27846447Y-20053553D03*
G04 #@! TD*
G04 #@! TO.C,D135*
X21553553Y-26346447D03*
X20846447Y-27053553D03*
G04 #@! TD*
G04 #@! TO.C,D656*
X78953553Y-20746447D03*
X78246447Y-21453553D03*
G04 #@! TD*
D11*
G04 #@! TO.C,D1077*
X100646447Y-34053553D03*
X101353553Y-33346447D03*
G04 #@! TD*
D13*
G04 #@! TO.C,C8*
X103150000Y-57350000D03*
X103150000Y-58350000D03*
G04 #@! TD*
D10*
G04 #@! TO.C,D21*
X18753553Y-16546447D03*
X18046447Y-17253553D03*
G04 #@! TD*
G04 #@! TO.C,D308*
X39753553Y-16546447D03*
X39046447Y-17253553D03*
G04 #@! TD*
D11*
G04 #@! TO.C,D846*
X65646447Y-29853553D03*
X66353553Y-29146447D03*
G04 #@! TD*
G04 #@! TO.C,D199*
X30646447Y-35453553D03*
X31353553Y-34746447D03*
G04 #@! TD*
G04 #@! TO.C,D1065*
X95046447Y-35453553D03*
X95753553Y-34746447D03*
G04 #@! TD*
D19*
G04 #@! TO.C,R95*
X89200000Y-51500000D03*
X90200000Y-51500000D03*
G04 #@! TD*
D11*
G04 #@! TO.C,D537*
X50246447Y-31253553D03*
X50953553Y-30546447D03*
G04 #@! TD*
D10*
G04 #@! TO.C,D949*
X85953553Y-22146447D03*
X85246447Y-22853553D03*
G04 #@! TD*
D11*
G04 #@! TO.C,D850*
X60046447Y-29853553D03*
X60753553Y-29146447D03*
G04 #@! TD*
D10*
G04 #@! TO.C,D12*
X28553553Y-15146447D03*
X27846447Y-15853553D03*
G04 #@! TD*
D13*
G04 #@! TO.C,C3*
X90800000Y-59150000D03*
X90800000Y-60150000D03*
G04 #@! TD*
D11*
G04 #@! TO.C,D188*
X23646447Y-36853553D03*
X24353553Y-36146447D03*
G04 #@! TD*
G04 #@! TO.C,D237*
X22246447Y-32653553D03*
X22953553Y-31946447D03*
G04 #@! TD*
G04 #@! TO.C,D864*
X62846447Y-28453553D03*
X63553553Y-27746447D03*
G04 #@! TD*
D32*
G04 #@! TO.C,L1*
X96850000Y-56600000D03*
X99850000Y-56600000D03*
G04 #@! TD*
D11*
G04 #@! TO.C,D813*
X67046447Y-32653553D03*
X67753553Y-31946447D03*
G04 #@! TD*
D10*
G04 #@! TO.C,D1005*
X97153553Y-26346447D03*
X96446447Y-27053553D03*
G04 #@! TD*
D11*
G04 #@! TO.C,D256*
X18046447Y-31253553D03*
X18753553Y-30546447D03*
G04 #@! TD*
G04 #@! TO.C,D176*
X18046447Y-38253553D03*
X18753553Y-37546447D03*
G04 #@! TD*
D10*
G04 #@! TO.C,D588*
X73353553Y-15146447D03*
X72646447Y-15853553D03*
G04 #@! TD*
D11*
G04 #@! TO.C,D497*
X39046447Y-35453553D03*
X39753553Y-34746447D03*
G04 #@! TD*
D10*
G04 #@! TO.C,D14*
X31353553Y-15146447D03*
X30646447Y-15853553D03*
G04 #@! TD*
D11*
G04 #@! TO.C,D196*
X34846447Y-35453553D03*
X35553553Y-34746447D03*
G04 #@! TD*
G04 #@! TO.C,D183*
X30646447Y-36853553D03*
X31353553Y-36146447D03*
G04 #@! TD*
G04 #@! TO.C,D192*
X18046447Y-36853553D03*
X18753553Y-36146447D03*
G04 #@! TD*
D10*
G04 #@! TO.C,D372*
X39753553Y-22146447D03*
X39046447Y-22853553D03*
G04 #@! TD*
G04 #@! TO.C,D20*
X17353553Y-16546447D03*
X16646447Y-17253553D03*
G04 #@! TD*
G04 #@! TO.C,D926*
X98553553Y-19346447D03*
X97846447Y-20053553D03*
G04 #@! TD*
D11*
G04 #@! TO.C,D730*
X71246447Y-39653553D03*
X71953553Y-38946447D03*
G04 #@! TD*
G04 #@! TO.C,D250*
X26446447Y-31253553D03*
X27153553Y-30546447D03*
G04 #@! TD*
D33*
G04 #@! TO.C,U1*
X93400000Y-56600000D03*
D34*
X94925000Y-57350000D03*
X94925000Y-56850000D03*
X94925000Y-56350000D03*
X94925000Y-55850000D03*
D35*
X94150000Y-55075000D03*
X93650000Y-55075000D03*
X93150000Y-55075000D03*
X92650000Y-55075000D03*
D34*
X91875000Y-55850000D03*
X91875000Y-56350000D03*
X91875000Y-56850000D03*
X91875000Y-57350000D03*
D35*
X92650000Y-58125000D03*
X93150000Y-58125000D03*
X93650000Y-58125000D03*
X94150000Y-58125000D03*
G04 #@! TD*
D10*
G04 #@! TO.C,D893*
X97153553Y-16546447D03*
X96446447Y-17253553D03*
G04 #@! TD*
D11*
G04 #@! TO.C,D734*
X65646447Y-39653553D03*
X66353553Y-38946447D03*
G04 #@! TD*
D12*
G04 #@! TO.C,R46*
X55800000Y-66650000D03*
X54800000Y-66650000D03*
G04 #@! TD*
D10*
G04 #@! TO.C,D950*
X87353553Y-22146447D03*
X86646447Y-22853553D03*
G04 #@! TD*
D11*
G04 #@! TO.C,D785*
X61446447Y-35453553D03*
X62153553Y-34746447D03*
G04 #@! TD*
G04 #@! TO.C,D803*
X81046447Y-32653553D03*
X81753553Y-31946447D03*
G04 #@! TD*
D10*
G04 #@! TO.C,D951*
X88753553Y-22146447D03*
X88046447Y-22853553D03*
G04 #@! TD*
G04 #@! TO.C,D313*
X46753553Y-16546447D03*
X46046447Y-17253553D03*
G04 #@! TD*
D12*
G04 #@! TO.C,R83*
X100600000Y-65850000D03*
X99600000Y-65850000D03*
G04 #@! TD*
D11*
G04 #@! TO.C,D240*
X18046447Y-32653553D03*
X18753553Y-31946447D03*
G04 #@! TD*
D10*
G04 #@! TO.C,D658*
X81753553Y-20746447D03*
X81046447Y-21453553D03*
G04 #@! TD*
D21*
G04 #@! TO.C,C32*
X34200000Y-47150000D03*
X34200000Y-46150000D03*
G04 #@! TD*
D11*
G04 #@! TO.C,D166*
X32046447Y-38253553D03*
X32753553Y-37546447D03*
G04 #@! TD*
D10*
G04 #@! TO.C,D347*
X49553553Y-19346447D03*
X48846447Y-20053553D03*
G04 #@! TD*
D12*
G04 #@! TO.C,R92*
X99650000Y-48450000D03*
X98650000Y-48450000D03*
G04 #@! TD*
D10*
G04 #@! TO.C,D917*
X85953553Y-19346447D03*
X85246447Y-20053553D03*
G04 #@! TD*
G04 #@! TO.C,D374*
X42553553Y-22146447D03*
X41846447Y-22853553D03*
G04 #@! TD*
G04 #@! TO.C,D24*
X22953553Y-16546447D03*
X22246447Y-17253553D03*
G04 #@! TD*
G04 #@! TO.C,D587*
X71953553Y-15146447D03*
X71246447Y-15853553D03*
G04 #@! TD*
D11*
G04 #@! TO.C,D760*
X74046447Y-36853553D03*
X74753553Y-36146447D03*
G04 #@! TD*
D10*
G04 #@! TO.C,D875*
X94353553Y-15146447D03*
X93646447Y-15853553D03*
G04 #@! TD*
G04 #@! TO.C,D705*
X80353553Y-24946447D03*
X79646447Y-25653553D03*
G04 #@! TD*
D19*
G04 #@! TO.C,R93*
X86000000Y-47350000D03*
X87000000Y-47350000D03*
G04 #@! TD*
D10*
G04 #@! TO.C,D994*
X104153553Y-24946447D03*
X103446447Y-25653553D03*
G04 #@! TD*
D11*
G04 #@! TO.C,D747*
X69846447Y-38253553D03*
X70553553Y-37546447D03*
G04 #@! TD*
D10*
G04 #@! TO.C,D132*
X17353553Y-26346447D03*
X16646447Y-27053553D03*
G04 #@! TD*
D11*
G04 #@! TO.C,D834*
X60046447Y-31253553D03*
X60753553Y-30546447D03*
G04 #@! TD*
D10*
G04 #@! TO.C,D359*
X43953553Y-20746447D03*
X43246447Y-21453553D03*
G04 #@! TD*
G04 #@! TO.C,D933*
X85953553Y-20746447D03*
X85246447Y-21453553D03*
G04 #@! TD*
G04 #@! TO.C,D978*
X104153553Y-23546447D03*
X103446447Y-24253553D03*
G04 #@! TD*
D21*
G04 #@! TO.C,C31*
X35000000Y-47150000D03*
X35000000Y-46150000D03*
G04 #@! TD*
D13*
G04 #@! TO.C,R15*
X24300000Y-56100000D03*
X24300000Y-57100000D03*
G04 #@! TD*
D12*
G04 #@! TO.C,R7*
X65350000Y-61300000D03*
X64350000Y-61300000D03*
G04 #@! TD*
D10*
G04 #@! TO.C,D395*
X49553553Y-23546447D03*
X48846447Y-24253553D03*
G04 #@! TD*
G04 #@! TO.C,D602*
X70553553Y-16546447D03*
X69846447Y-17253553D03*
G04 #@! TD*
D11*
G04 #@! TO.C,D480*
X40446447Y-36853553D03*
X41153553Y-36146447D03*
G04 #@! TD*
D10*
G04 #@! TO.C,D654*
X76153553Y-20746447D03*
X75446447Y-21453553D03*
G04 #@! TD*
D11*
G04 #@! TO.C,D1118*
X88046447Y-31253553D03*
X88753553Y-30546447D03*
G04 #@! TD*
G04 #@! TO.C,D515*
X58646447Y-32653553D03*
X59353553Y-31946447D03*
G04 #@! TD*
D21*
G04 #@! TO.C,C20*
X60200000Y-51550000D03*
X60200000Y-50550000D03*
G04 #@! TD*
D11*
G04 #@! TO.C,D281*
X27846447Y-28453553D03*
X28553553Y-27746447D03*
G04 #@! TD*
D10*
G04 #@! TO.C,D5*
X18753553Y-15146447D03*
X18046447Y-15853553D03*
G04 #@! TD*
D11*
G04 #@! TO.C,D1117*
X89446447Y-31253553D03*
X90153553Y-30546447D03*
G04 #@! TD*
G04 #@! TO.C,D167*
X30646447Y-38253553D03*
X31353553Y-37546447D03*
G04 #@! TD*
D10*
G04 #@! TO.C,D3*
X15953553Y-15146447D03*
X15246447Y-15853553D03*
G04 #@! TD*
G04 #@! TO.C,D138*
X25753553Y-26346447D03*
X25046447Y-27053553D03*
G04 #@! TD*
D11*
G04 #@! TO.C,D798*
X65646447Y-34053553D03*
X66353553Y-33346447D03*
G04 #@! TD*
D10*
G04 #@! TO.C,D119*
X21553553Y-24946447D03*
X20846447Y-25653553D03*
G04 #@! TD*
D11*
G04 #@! TO.C,D478*
X43246447Y-36853553D03*
X43953553Y-36146447D03*
G04 #@! TD*
G04 #@! TO.C,D213*
X33446447Y-34053553D03*
X34153553Y-33346447D03*
G04 #@! TD*
D10*
G04 #@! TO.C,D94*
X31353553Y-22146447D03*
X30646447Y-22853553D03*
G04 #@! TD*
G04 #@! TO.C,D292*
X39753553Y-15146447D03*
X39046447Y-15853553D03*
G04 #@! TD*
G04 #@! TO.C,D34*
X36953553Y-16546447D03*
X36246447Y-17253553D03*
G04 #@! TD*
D11*
G04 #@! TO.C,D1136*
X85246447Y-29853553D03*
X85953553Y-29146447D03*
G04 #@! TD*
D10*
G04 #@! TO.C,D967*
X88753553Y-23546447D03*
X88046447Y-24253553D03*
G04 #@! TD*
G04 #@! TO.C,D708*
X62153553Y-26346447D03*
X61446447Y-27053553D03*
G04 #@! TD*
D11*
G04 #@! TO.C,D1099*
X92246447Y-32653553D03*
X92953553Y-31946447D03*
G04 #@! TD*
D10*
G04 #@! TO.C,D713*
X69153553Y-26346447D03*
X68446447Y-27053553D03*
G04 #@! TD*
G04 #@! TO.C,D593*
X80353553Y-15146447D03*
X79646447Y-15853553D03*
G04 #@! TD*
D11*
G04 #@! TO.C,D857*
X72646447Y-28453553D03*
X73353553Y-27746447D03*
G04 #@! TD*
D10*
G04 #@! TO.C,D39*
X21553553Y-17946447D03*
X20846447Y-18653553D03*
G04 #@! TD*
G04 #@! TO.C,D57*
X24353553Y-19346447D03*
X23646447Y-20053553D03*
G04 #@! TD*
G04 #@! TO.C,D68*
X17353553Y-20746447D03*
X16646447Y-21453553D03*
G04 #@! TD*
D11*
G04 #@! TO.C,D543*
X41846447Y-31253553D03*
X42553553Y-30546447D03*
G04 #@! TD*
D13*
G04 #@! TO.C,C15*
X65100000Y-53400000D03*
X65100000Y-54400000D03*
G04 #@! TD*
D11*
G04 #@! TO.C,D173*
X22246447Y-38253553D03*
X22953553Y-37546447D03*
G04 #@! TD*
D10*
G04 #@! TO.C,D25*
X24353553Y-16546447D03*
X23646447Y-17253553D03*
G04 #@! TD*
G04 #@! TO.C,D649*
X69153553Y-20746447D03*
X68446447Y-21453553D03*
G04 #@! TD*
G04 #@! TO.C,D130*
X36953553Y-24946447D03*
X36246447Y-25653553D03*
G04 #@! TD*
G04 #@! TO.C,D13*
X29953553Y-15146447D03*
X29246447Y-15853553D03*
G04 #@! TD*
G04 #@! TO.C,D131*
X15953553Y-26346447D03*
X15246447Y-27053553D03*
G04 #@! TD*
G04 #@! TO.C,D902*
X87353553Y-17946447D03*
X86646447Y-18653553D03*
G04 #@! TD*
G04 #@! TO.C,D895*
X99953553Y-16546447D03*
X99246447Y-17253553D03*
G04 #@! TD*
D11*
G04 #@! TO.C,D726*
X76846447Y-39653553D03*
X77553553Y-38946447D03*
G04 #@! TD*
D12*
G04 #@! TO.C,R78*
X100600000Y-65050000D03*
X99600000Y-65050000D03*
G04 #@! TD*
D11*
G04 #@! TO.C,D185*
X27846447Y-36853553D03*
X28553553Y-36146447D03*
G04 #@! TD*
D12*
G04 #@! TO.C,R37*
X55800000Y-64250000D03*
X54800000Y-64250000D03*
G04 #@! TD*
D10*
G04 #@! TO.C,D610*
X81753553Y-16546447D03*
X81046447Y-17253553D03*
G04 #@! TD*
D11*
G04 #@! TO.C,D233*
X27846447Y-32653553D03*
X28553553Y-31946447D03*
G04 #@! TD*
D10*
G04 #@! TO.C,D586*
X70553553Y-15146447D03*
X69846447Y-15853553D03*
G04 #@! TD*
G04 #@! TO.C,D939*
X94353553Y-20746447D03*
X93646447Y-21453553D03*
G04 #@! TD*
D21*
G04 #@! TO.C,C23*
X42450000Y-58500000D03*
X42450000Y-57500000D03*
G04 #@! TD*
D11*
G04 #@! TO.C,D765*
X67046447Y-36853553D03*
X67753553Y-36146447D03*
G04 #@! TD*
G04 #@! TO.C,D791*
X75446447Y-34053553D03*
X76153553Y-33346447D03*
G04 #@! TD*
D10*
G04 #@! TO.C,D129*
X35553553Y-24946447D03*
X34846447Y-25653553D03*
G04 #@! TD*
G04 #@! TO.C,D884*
X84553553Y-16546447D03*
X83846447Y-17253553D03*
G04 #@! TD*
D11*
G04 #@! TO.C,D461*
X44646447Y-38253553D03*
X45353553Y-37546447D03*
G04 #@! TD*
D19*
G04 #@! TO.C,C9*
X64350000Y-57900000D03*
X65350000Y-57900000D03*
G04 #@! TD*
D11*
G04 #@! TO.C,D492*
X46046447Y-35453553D03*
X46753553Y-34746447D03*
G04 #@! TD*
D10*
G04 #@! TO.C,D376*
X45353553Y-22146447D03*
X44646447Y-22853553D03*
G04 #@! TD*
D11*
G04 #@! TO.C,D509*
X44646447Y-34053553D03*
X45353553Y-33346447D03*
G04 #@! TD*
G04 #@! TO.C,D550*
X54446447Y-29853553D03*
X55153553Y-29146447D03*
G04 #@! TD*
G04 #@! TO.C,D802*
X60046447Y-34053553D03*
X60753553Y-33346447D03*
G04 #@! TD*
D10*
G04 #@! TO.C,D954*
X92953553Y-22146447D03*
X92246447Y-22853553D03*
G04 #@! TD*
G04 #@! TO.C,D942*
X98553553Y-20746447D03*
X97846447Y-21453553D03*
G04 #@! TD*
D11*
G04 #@! TO.C,D1113*
X95046447Y-31253553D03*
X95753553Y-30546447D03*
G04 #@! TD*
G04 #@! TO.C,D558*
X43246447Y-29853553D03*
X43953553Y-29146447D03*
G04 #@! TD*
G04 #@! TO.C,D210*
X15246447Y-35453553D03*
X15953553Y-34746447D03*
G04 #@! TD*
G04 #@! TO.C,D216*
X29246447Y-34053553D03*
X29953553Y-33346447D03*
G04 #@! TD*
D10*
G04 #@! TO.C,D665*
X69153553Y-22146447D03*
X68446447Y-22853553D03*
G04 #@! TD*
D19*
G04 #@! TO.C,R61*
X64550000Y-63150000D03*
X65550000Y-63150000D03*
G04 #@! TD*
D11*
G04 #@! TO.C,D1093*
X100646447Y-32653553D03*
X101353553Y-31946447D03*
G04 #@! TD*
D10*
G04 #@! TO.C,D918*
X87353553Y-19346447D03*
X86646447Y-20053553D03*
G04 #@! TD*
D13*
G04 #@! TO.C,C16*
X65950000Y-53400000D03*
X65950000Y-54400000D03*
G04 #@! TD*
D10*
G04 #@! TO.C,D956*
X95753553Y-22146447D03*
X95046447Y-22853553D03*
G04 #@! TD*
G04 #@! TO.C,D638*
X76153553Y-19346447D03*
X75446447Y-20053553D03*
G04 #@! TD*
G04 #@! TO.C,D1009*
X102753553Y-26346447D03*
X102046447Y-27053553D03*
G04 #@! TD*
D11*
G04 #@! TO.C,D1049*
X95046447Y-36853553D03*
X95753553Y-36146447D03*
G04 #@! TD*
G04 #@! TO.C,D847*
X64246447Y-29853553D03*
X64953553Y-29146447D03*
G04 #@! TD*
D10*
G04 #@! TO.C,D869*
X85953553Y-15146447D03*
X85246447Y-15853553D03*
G04 #@! TD*
D11*
G04 #@! TO.C,D1125*
X100646447Y-29853553D03*
X101353553Y-29146447D03*
G04 #@! TD*
G04 #@! TO.C,D731*
X69846447Y-39653553D03*
X70553553Y-38946447D03*
G04 #@! TD*
D10*
G04 #@! TO.C,D911*
X99953553Y-17946447D03*
X99246447Y-18653553D03*
G04 #@! TD*
D11*
G04 #@! TO.C,D456*
X51646447Y-38253553D03*
X52353553Y-37546447D03*
G04 #@! TD*
D10*
G04 #@! TO.C,D1007*
X99953553Y-26346447D03*
X99246447Y-27053553D03*
G04 #@! TD*
D11*
G04 #@! TO.C,D253*
X22246447Y-31253553D03*
X22953553Y-30546447D03*
G04 #@! TD*
D10*
G04 #@! TO.C,D633*
X69153553Y-19346447D03*
X68446447Y-20053553D03*
G04 #@! TD*
D12*
G04 #@! TO.C,C57*
X90200000Y-50700000D03*
X89200000Y-50700000D03*
G04 #@! TD*
D11*
G04 #@! TO.C,D238*
X20846447Y-32653553D03*
X21553553Y-31946447D03*
G04 #@! TD*
D10*
G04 #@! TO.C,D597*
X63553553Y-16546447D03*
X62846447Y-17253553D03*
G04 #@! TD*
D11*
G04 #@! TO.C,D1086*
X88046447Y-34053553D03*
X88753553Y-33346447D03*
G04 #@! TD*
D10*
G04 #@! TO.C,D982*
X87353553Y-24946447D03*
X86646447Y-25653553D03*
G04 #@! TD*
D11*
G04 #@! TO.C,D732*
X68446447Y-39653553D03*
X69153553Y-38946447D03*
G04 #@! TD*
G04 #@! TO.C,D475*
X47446447Y-36853553D03*
X48153553Y-36146447D03*
G04 #@! TD*
D10*
G04 #@! TO.C,D655*
X77553553Y-20746447D03*
X76846447Y-21453553D03*
G04 #@! TD*
D21*
G04 #@! TO.C,C21*
X40700000Y-58500000D03*
X40700000Y-57500000D03*
G04 #@! TD*
D11*
G04 #@! TO.C,D477*
X44646447Y-36853553D03*
X45353553Y-36146447D03*
G04 #@! TD*
G04 #@! TO.C,D479*
X41846447Y-36853553D03*
X42553553Y-36146447D03*
G04 #@! TD*
D36*
G04 #@! TO.C,J1*
X81550000Y-58475000D03*
X81550000Y-57225000D03*
X81550000Y-55975000D03*
X81550000Y-54725000D03*
D37*
X78200000Y-52875000D03*
X78200000Y-60325000D03*
G04 #@! TD*
D11*
G04 #@! TO.C,D821*
X78246447Y-31253553D03*
X78953553Y-30546447D03*
G04 #@! TD*
D19*
G04 #@! TO.C,R59*
X64550000Y-65550000D03*
X65550000Y-65550000D03*
G04 #@! TD*
D11*
G04 #@! TO.C,D283*
X25046447Y-28453553D03*
X25753553Y-27746447D03*
G04 #@! TD*
D10*
G04 #@! TO.C,D716*
X73353553Y-26346447D03*
X72646447Y-27053553D03*
G04 #@! TD*
D11*
G04 #@! TO.C,D1091*
X103446447Y-32653553D03*
X104153553Y-31946447D03*
G04 #@! TD*
G04 #@! TO.C,D740*
X79646447Y-38253553D03*
X80353553Y-37546447D03*
G04 #@! TD*
G04 #@! TO.C,D577*
X39046447Y-28453553D03*
X39753553Y-27746447D03*
G04 #@! TD*
G04 #@! TO.C,D169*
X27846447Y-38253553D03*
X28553553Y-37546447D03*
G04 #@! TD*
D10*
G04 #@! TO.C,D337*
X57953553Y-17946447D03*
X57246447Y-18653553D03*
G04 #@! TD*
D11*
G04 #@! TO.C,D1107*
X103446447Y-31253553D03*
X104153553Y-30546447D03*
G04 #@! TD*
D19*
G04 #@! TO.C,R42*
X42150000Y-64750000D03*
X43150000Y-64750000D03*
G04 #@! TD*
D10*
G04 #@! TO.C,D935*
X88753553Y-20746447D03*
X88046447Y-21453553D03*
G04 #@! TD*
G04 #@! TO.C,D717*
X74753553Y-26346447D03*
X74046447Y-27053553D03*
G04 #@! TD*
D11*
G04 #@! TO.C,D290*
X15246447Y-28453553D03*
X15953553Y-27746447D03*
G04 #@! TD*
G04 #@! TO.C,D252*
X23646447Y-31253553D03*
X24353553Y-30546447D03*
G04 #@! TD*
D12*
G04 #@! TO.C,R29*
X32450000Y-47650000D03*
X31450000Y-47650000D03*
G04 #@! TD*
D11*
G04 #@! TO.C,D510*
X43246447Y-34053553D03*
X43953553Y-33346447D03*
G04 #@! TD*
G04 #@! TO.C,D736*
X62846447Y-39653553D03*
X63553553Y-38946447D03*
G04 #@! TD*
D10*
G04 #@! TO.C,D344*
X45353553Y-19346447D03*
X44646447Y-20053553D03*
G04 #@! TD*
G04 #@! TO.C,D941*
X97153553Y-20746447D03*
X96446447Y-21453553D03*
G04 #@! TD*
D19*
G04 #@! TO.C,R27*
X18800000Y-48950000D03*
X19800000Y-48950000D03*
G04 #@! TD*
D10*
G04 #@! TO.C,D980*
X84553553Y-24946447D03*
X83846447Y-25653553D03*
G04 #@! TD*
D11*
G04 #@! TO.C,D735*
X64246447Y-39653553D03*
X64953553Y-38946447D03*
G04 #@! TD*
D10*
G04 #@! TO.C,D923*
X94353553Y-19346447D03*
X93646447Y-20053553D03*
G04 #@! TD*
G04 #@! TO.C,D32*
X34153553Y-16546447D03*
X33446447Y-17253553D03*
G04 #@! TD*
D21*
G04 #@! TO.C,C48*
X79800000Y-47150000D03*
X79800000Y-46150000D03*
G04 #@! TD*
D10*
G04 #@! TO.C,D362*
X48153553Y-20746447D03*
X47446447Y-21453553D03*
G04 #@! TD*
D11*
G04 #@! TO.C,D264*
X29246447Y-29853553D03*
X29953553Y-29146447D03*
G04 #@! TD*
G04 #@! TO.C,D525*
X44646447Y-32653553D03*
X45353553Y-31946447D03*
G04 #@! TD*
D10*
G04 #@! TO.C,D1010*
X104153553Y-26346447D03*
X103446447Y-27053553D03*
G04 #@! TD*
G04 #@! TO.C,D430*
X53753553Y-26346447D03*
X53046447Y-27053553D03*
G04 #@! TD*
G04 #@! TO.C,D133*
X18753553Y-26346447D03*
X18046447Y-27053553D03*
G04 #@! TD*
G04 #@! TO.C,D958*
X98553553Y-22146447D03*
X97846447Y-22853553D03*
G04 #@! TD*
D11*
G04 #@! TO.C,D541*
X44646447Y-31253553D03*
X45353553Y-30546447D03*
G04 #@! TD*
G04 #@! TO.C,D453*
X55846447Y-38253553D03*
X56553553Y-37546447D03*
G04 #@! TD*
G04 #@! TO.C,D254*
X20846447Y-31253553D03*
X21553553Y-30546447D03*
G04 #@! TD*
G04 #@! TO.C,D445*
X44646447Y-39653553D03*
X45353553Y-38946447D03*
G04 #@! TD*
D10*
G04 #@! TO.C,D684*
X73353553Y-23546447D03*
X72646447Y-24253553D03*
G04 #@! TD*
G04 #@! TO.C,D348*
X50953553Y-19346447D03*
X50246447Y-20053553D03*
G04 #@! TD*
D13*
G04 #@! TO.C,C4*
X101350000Y-57350000D03*
X101350000Y-58350000D03*
G04 #@! TD*
D10*
G04 #@! TO.C,D73*
X24353553Y-20746447D03*
X23646447Y-21453553D03*
G04 #@! TD*
D11*
G04 #@! TO.C,D1092*
X102046447Y-32653553D03*
X102753553Y-31946447D03*
G04 #@! TD*
D10*
G04 #@! TO.C,D1002*
X92953553Y-26346447D03*
X92246447Y-27053553D03*
G04 #@! TD*
D12*
G04 #@! TO.C,R43*
X55800000Y-65850000D03*
X54800000Y-65850000D03*
G04 #@! TD*
D10*
G04 #@! TO.C,D899*
X83153553Y-17946447D03*
X82446447Y-18653553D03*
G04 #@! TD*
D11*
G04 #@! TO.C,D223*
X19446447Y-34053553D03*
X20153553Y-33346447D03*
G04 #@! TD*
D38*
G04 #@! TO.C,BTN1*
X30950000Y-54675000D03*
X36950000Y-54675000D03*
X30950000Y-58425000D03*
X36950000Y-58425000D03*
G04 #@! TD*
D10*
G04 #@! TO.C,D906*
X92953553Y-17946447D03*
X92246447Y-18653553D03*
G04 #@! TD*
D11*
G04 #@! TO.C,D531*
X58646447Y-31253553D03*
X59353553Y-30546447D03*
G04 #@! TD*
G04 #@! TO.C,D243*
X36246447Y-31253553D03*
X36953553Y-30546447D03*
G04 #@! TD*
D10*
G04 #@! TO.C,D596*
X62153553Y-16546447D03*
X61446447Y-17253553D03*
G04 #@! TD*
D12*
G04 #@! TO.C,R85*
X97400000Y-61700000D03*
X96400000Y-61700000D03*
G04 #@! TD*
D11*
G04 #@! TO.C,D1034*
X93646447Y-38253553D03*
X94353553Y-37546447D03*
G04 #@! TD*
D10*
G04 #@! TO.C,D398*
X53753553Y-23546447D03*
X53046447Y-24253553D03*
G04 #@! TD*
D11*
G04 #@! TO.C,D534*
X54446447Y-31253553D03*
X55153553Y-30546447D03*
G04 #@! TD*
D27*
G04 #@! TO.C,U4*
X26700000Y-65250000D03*
X26700000Y-64050000D03*
X25500000Y-65250000D03*
X25500000Y-64050000D03*
D28*
X24900000Y-66500000D03*
X25300000Y-66500000D03*
X25700000Y-66500000D03*
X26100000Y-66500000D03*
X26500000Y-66500000D03*
X26900000Y-66500000D03*
X27300000Y-66500000D03*
D29*
X28150000Y-65850000D03*
X28150000Y-65450000D03*
X28150000Y-65050000D03*
D30*
X28137500Y-64650000D03*
X28137500Y-64250000D03*
X28137500Y-63850000D03*
X28137500Y-63450000D03*
D31*
X27300000Y-62600000D03*
X26900000Y-62600000D03*
X26500000Y-62600000D03*
X26100000Y-62600000D03*
X25700000Y-62600000D03*
X25300000Y-62600000D03*
D28*
X24900000Y-62600000D03*
D29*
X24250000Y-63450000D03*
X24250000Y-63850000D03*
X24250000Y-64250000D03*
X24250000Y-64650000D03*
X24250000Y-65050000D03*
X24250000Y-65450000D03*
X24250000Y-65850000D03*
G04 #@! TD*
D11*
G04 #@! TO.C,D571*
X47446447Y-28453553D03*
X48153553Y-27746447D03*
G04 #@! TD*
G04 #@! TO.C,D149*
X33446447Y-39653553D03*
X34153553Y-38946447D03*
G04 #@! TD*
G04 #@! TO.C,D157*
X22246447Y-39653553D03*
X22953553Y-38946447D03*
G04 #@! TD*
D19*
G04 #@! TO.C,R60*
X64550000Y-63950000D03*
X65550000Y-63950000D03*
G04 #@! TD*
D21*
G04 #@! TO.C,C47*
X78200000Y-47150000D03*
X78200000Y-46150000D03*
G04 #@! TD*
D11*
G04 #@! TO.C,D865*
X61446447Y-28453553D03*
X62153553Y-27746447D03*
G04 #@! TD*
D10*
G04 #@! TO.C,D973*
X97153553Y-23546447D03*
X96446447Y-24253553D03*
G04 #@! TD*
D13*
G04 #@! TO.C,C27*
X18800000Y-66050000D03*
X18800000Y-67050000D03*
G04 #@! TD*
D11*
G04 #@! TO.C,D499*
X58646447Y-34053553D03*
X59353553Y-33346447D03*
G04 #@! TD*
G04 #@! TO.C,D165*
X33446447Y-38253553D03*
X34153553Y-37546447D03*
G04 #@! TD*
D10*
G04 #@! TO.C,D387*
X38353553Y-23546447D03*
X37646447Y-24253553D03*
G04 #@! TD*
D11*
G04 #@! TO.C,D546*
X37646447Y-31253553D03*
X38353553Y-30546447D03*
G04 #@! TD*
D10*
G04 #@! TO.C,D668*
X73353553Y-22146447D03*
X72646447Y-22853553D03*
G04 #@! TD*
G04 #@! TO.C,D115*
X15953553Y-24946447D03*
X15246447Y-25653553D03*
G04 #@! TD*
D11*
G04 #@! TO.C,D187*
X25046447Y-36853553D03*
X25753553Y-36146447D03*
G04 #@! TD*
D10*
G04 #@! TO.C,D375*
X43953553Y-22146447D03*
X43246447Y-22853553D03*
G04 #@! TD*
D11*
G04 #@! TO.C,D1094*
X99246447Y-32653553D03*
X99953553Y-31946447D03*
G04 #@! TD*
D10*
G04 #@! TO.C,D385*
X57953553Y-22146447D03*
X57246447Y-22853553D03*
G04 #@! TD*
D11*
G04 #@! TO.C,D1081*
X95046447Y-34053553D03*
X95753553Y-33346447D03*
G04 #@! TD*
D10*
G04 #@! TO.C,D52*
X17353553Y-19346447D03*
X16646447Y-20053553D03*
G04 #@! TD*
G04 #@! TO.C,D325*
X41153553Y-17946447D03*
X40446447Y-18653553D03*
G04 #@! TD*
G04 #@! TO.C,D17*
X35553553Y-15146447D03*
X34846447Y-15853553D03*
G04 #@! TD*
D11*
G04 #@! TO.C,D789*
X78246447Y-34053553D03*
X78953553Y-33346447D03*
G04 #@! TD*
D10*
G04 #@! TO.C,D434*
X59353553Y-26346447D03*
X58646447Y-27053553D03*
G04 #@! TD*
G04 #@! TO.C,D7*
X21553553Y-15146447D03*
X20846447Y-15853553D03*
G04 #@! TD*
G04 #@! TO.C,D964*
X84553553Y-23546447D03*
X83846447Y-24253553D03*
G04 #@! TD*
D11*
G04 #@! TO.C,D218*
X26446447Y-34053553D03*
X27153553Y-33346447D03*
G04 #@! TD*
D10*
G04 #@! TO.C,D70*
X20153553Y-20746447D03*
X19446447Y-21453553D03*
G04 #@! TD*
D11*
G04 #@! TO.C,D1147*
X92246447Y-28453553D03*
X92953553Y-27746447D03*
G04 #@! TD*
G04 #@! TO.C,D1133*
X89446447Y-29853553D03*
X90153553Y-29146447D03*
G04 #@! TD*
G04 #@! TO.C,D1012*
X102046447Y-39653553D03*
X102753553Y-38946447D03*
G04 #@! TD*
G04 #@! TO.C,D763*
X69846447Y-36853553D03*
X70553553Y-36146447D03*
G04 #@! TD*
D10*
G04 #@! TO.C,D605*
X74753553Y-16546447D03*
X74046447Y-17253553D03*
G04 #@! TD*
G04 #@! TO.C,D404*
X39753553Y-24946447D03*
X39046447Y-25653553D03*
G04 #@! TD*
D11*
G04 #@! TO.C,D276*
X34846447Y-28453553D03*
X35553553Y-27746447D03*
G04 #@! TD*
D10*
G04 #@! TO.C,D583*
X66353553Y-15146447D03*
X65646447Y-15853553D03*
G04 #@! TD*
D11*
G04 #@! TO.C,D464*
X40446447Y-38253553D03*
X41153553Y-37546447D03*
G04 #@! TD*
G04 #@! TO.C,D828*
X68446447Y-31253553D03*
X69153553Y-30546447D03*
G04 #@! TD*
D10*
G04 #@! TO.C,D648*
X67753553Y-20746447D03*
X67046447Y-21453553D03*
G04 #@! TD*
G04 #@! TO.C,D966*
X87353553Y-23546447D03*
X86646447Y-24253553D03*
G04 #@! TD*
G04 #@! TO.C,D64*
X34153553Y-19346447D03*
X33446447Y-20053553D03*
G04 #@! TD*
D21*
G04 #@! TO.C,C30*
X33400000Y-47150000D03*
X33400000Y-46150000D03*
G04 #@! TD*
D10*
G04 #@! TO.C,D4*
X17353553Y-15146447D03*
X16646447Y-15853553D03*
G04 #@! TD*
D11*
G04 #@! TO.C,D459*
X47446447Y-38253553D03*
X48153553Y-37546447D03*
G04 #@! TD*
D10*
G04 #@! TO.C,D961*
X102753553Y-22146447D03*
X102046447Y-22853553D03*
G04 #@! TD*
G04 #@! TO.C,D907*
X94353553Y-17946447D03*
X93646447Y-18653553D03*
G04 #@! TD*
D11*
G04 #@! TO.C,D204*
X23646447Y-35453553D03*
X24353553Y-34746447D03*
G04 #@! TD*
G04 #@! TO.C,D207*
X19446447Y-35453553D03*
X20153553Y-34746447D03*
G04 #@! TD*
D10*
G04 #@! TO.C,D373*
X41153553Y-22146447D03*
X40446447Y-22853553D03*
G04 #@! TD*
D13*
G04 #@! TO.C,C42*
X62800000Y-66050000D03*
X62800000Y-67050000D03*
G04 #@! TD*
D10*
G04 #@! TO.C,D909*
X97153553Y-17946447D03*
X96446447Y-18653553D03*
G04 #@! TD*
D11*
G04 #@! TO.C,D215*
X30646447Y-34053553D03*
X31353553Y-33346447D03*
G04 #@! TD*
D10*
G04 #@! TO.C,D58*
X25753553Y-19346447D03*
X25046447Y-20053553D03*
G04 #@! TD*
D11*
G04 #@! TO.C,D1053*
X89446447Y-36853553D03*
X90153553Y-36146447D03*
G04 #@! TD*
D10*
G04 #@! TO.C,D969*
X91553553Y-23546447D03*
X90846447Y-24253553D03*
G04 #@! TD*
D11*
G04 #@! TO.C,D564*
X57246447Y-28453553D03*
X57953553Y-27746447D03*
G04 #@! TD*
G04 #@! TO.C,D271*
X19446447Y-29853553D03*
X20153553Y-29146447D03*
G04 #@! TD*
G04 #@! TO.C,D481*
X39046447Y-36853553D03*
X39753553Y-36146447D03*
G04 #@! TD*
D10*
G04 #@! TO.C,D639*
X77553553Y-19346447D03*
X76846447Y-20053553D03*
G04 #@! TD*
D11*
G04 #@! TO.C,D435*
X58646447Y-39653553D03*
X59353553Y-38946447D03*
G04 #@! TD*
D10*
G04 #@! TO.C,D924*
X95753553Y-19346447D03*
X95046447Y-20053553D03*
G04 #@! TD*
D19*
G04 #@! TO.C,R39*
X42150000Y-65550000D03*
X43150000Y-65550000D03*
G04 #@! TD*
D10*
G04 #@! TO.C,D40*
X22953553Y-17946447D03*
X22246447Y-18653553D03*
G04 #@! TD*
G04 #@! TO.C,D63*
X32753553Y-19346447D03*
X32046447Y-20053553D03*
G04 #@! TD*
G04 #@! TO.C,D45*
X29953553Y-17946447D03*
X29246447Y-18653553D03*
G04 #@! TD*
G04 #@! TO.C,D997*
X85953553Y-26346447D03*
X85246447Y-27053553D03*
G04 #@! TD*
G04 #@! TO.C,D625*
X80353553Y-17946447D03*
X79646447Y-18653553D03*
G04 #@! TD*
G04 #@! TO.C,D381*
X52353553Y-22146447D03*
X51646447Y-22853553D03*
G04 #@! TD*
G04 #@! TO.C,D635*
X71953553Y-19346447D03*
X71246447Y-20053553D03*
G04 #@! TD*
D11*
G04 #@! TO.C,D536*
X51646447Y-31253553D03*
X52353553Y-30546447D03*
G04 #@! TD*
D12*
G04 #@! TO.C,C41*
X45400000Y-50700000D03*
X44400000Y-50700000D03*
G04 #@! TD*
D10*
G04 #@! TO.C,D123*
X27153553Y-24946447D03*
X26446447Y-25653553D03*
G04 #@! TD*
G04 #@! TO.C,D419*
X38353553Y-26346447D03*
X37646447Y-27053553D03*
G04 #@! TD*
D12*
G04 #@! TO.C,C49*
X67800000Y-50700000D03*
X66800000Y-50700000D03*
G04 #@! TD*
D10*
G04 #@! TO.C,D18*
X36953553Y-15146447D03*
X36246447Y-15853553D03*
G04 #@! TD*
D11*
G04 #@! TO.C,D1070*
X88046447Y-35453553D03*
X88753553Y-34746447D03*
G04 #@! TD*
G04 #@! TO.C,D836*
X79646447Y-29853553D03*
X80353553Y-29146447D03*
G04 #@! TD*
D14*
G04 #@! TO.C,U11*
X92700000Y-47950000D03*
X93900000Y-47950000D03*
X92700000Y-49150000D03*
X93900000Y-49150000D03*
D15*
X94500000Y-46700000D03*
X94100000Y-46700000D03*
X93700000Y-46700000D03*
X93300000Y-46700000D03*
X92900000Y-46700000D03*
X92500000Y-46700000D03*
X92100000Y-46700000D03*
D16*
X91250000Y-47350000D03*
X91250000Y-47750000D03*
X91250000Y-48150000D03*
D17*
X91262500Y-48550000D03*
X91262500Y-48950000D03*
X91262500Y-49350000D03*
X91262500Y-49750000D03*
D18*
X92100000Y-50600000D03*
X92500000Y-50600000D03*
X92900000Y-50600000D03*
X93300000Y-50600000D03*
X93700000Y-50600000D03*
X94100000Y-50600000D03*
D15*
X94500000Y-50600000D03*
D16*
X95150000Y-49750000D03*
X95150000Y-49350000D03*
X95150000Y-48950000D03*
X95150000Y-48550000D03*
X95150000Y-48150000D03*
X95150000Y-47750000D03*
X95150000Y-47350000D03*
G04 #@! TD*
D10*
G04 #@! TO.C,D659*
X60753553Y-22146447D03*
X60046447Y-22853553D03*
G04 #@! TD*
D11*
G04 #@! TO.C,D1011*
X103446447Y-39653553D03*
X104153553Y-38946447D03*
G04 #@! TD*
G04 #@! TO.C,D774*
X76846447Y-35453553D03*
X77553553Y-34746447D03*
G04 #@! TD*
D12*
G04 #@! TO.C,R64*
X78200000Y-63450000D03*
X77200000Y-63450000D03*
G04 #@! TD*
D10*
G04 #@! TO.C,D696*
X67753553Y-24946447D03*
X67046447Y-25653553D03*
G04 #@! TD*
D12*
G04 #@! TO.C,R86*
X100600000Y-66650000D03*
X99600000Y-66650000D03*
G04 #@! TD*
D11*
G04 #@! TO.C,D788*
X79646447Y-34053553D03*
X80353553Y-33346447D03*
G04 #@! TD*
D10*
G04 #@! TO.C,D975*
X99953553Y-23546447D03*
X99246447Y-24253553D03*
G04 #@! TD*
D19*
G04 #@! TO.C,R21*
X19750000Y-63150000D03*
X20750000Y-63150000D03*
G04 #@! TD*
D11*
G04 #@! TO.C,D1129*
X95046447Y-29853553D03*
X95753553Y-29146447D03*
G04 #@! TD*
D19*
G04 #@! TO.C,R19*
X19750000Y-65550000D03*
X20750000Y-65550000D03*
G04 #@! TD*
D21*
G04 #@! TO.C,C38*
X55800000Y-47150000D03*
X55800000Y-46150000D03*
G04 #@! TD*
D10*
G04 #@! TO.C,D22*
X20153553Y-16546447D03*
X19446447Y-17253553D03*
G04 #@! TD*
G04 #@! TO.C,D312*
X45353553Y-16546447D03*
X44646447Y-17253553D03*
G04 #@! TD*
D11*
G04 #@! TO.C,D1148*
X90846447Y-28453553D03*
X91553553Y-27746447D03*
G04 #@! TD*
G04 #@! TO.C,D545*
X39046447Y-31253553D03*
X39753553Y-30546447D03*
G04 #@! TD*
D10*
G04 #@! TO.C,D364*
X50953553Y-20746447D03*
X50246447Y-21453553D03*
G04 #@! TD*
G04 #@! TO.C,D943*
X99953553Y-20746447D03*
X99246447Y-21453553D03*
G04 #@! TD*
D11*
G04 #@! TO.C,D1128*
X96446447Y-29853553D03*
X97153553Y-29146447D03*
G04 #@! TD*
D12*
G04 #@! TO.C,R51*
X54850000Y-50050000D03*
X53850000Y-50050000D03*
G04 #@! TD*
D11*
G04 #@! TO.C,D796*
X68446447Y-34053553D03*
X69153553Y-33346447D03*
G04 #@! TD*
G04 #@! TO.C,D224*
X18046447Y-34053553D03*
X18753553Y-33346447D03*
G04 #@! TD*
G04 #@! TO.C,D211*
X36246447Y-34053553D03*
X36953553Y-33346447D03*
G04 #@! TD*
D10*
G04 #@! TO.C,D401*
X57953553Y-23546447D03*
X57246447Y-24253553D03*
G04 #@! TD*
D11*
G04 #@! TO.C,D235*
X25046447Y-32653553D03*
X25753553Y-31946447D03*
G04 #@! TD*
D10*
G04 #@! TO.C,D915*
X83153553Y-19346447D03*
X82446447Y-20053553D03*
G04 #@! TD*
G04 #@! TO.C,D710*
X64953553Y-26346447D03*
X64246447Y-27053553D03*
G04 #@! TD*
D11*
G04 #@! TO.C,D498*
X37646447Y-35453553D03*
X38353553Y-34746447D03*
G04 #@! TD*
G04 #@! TO.C,D437*
X55846447Y-39653553D03*
X56553553Y-38946447D03*
G04 #@! TD*
G04 #@! TO.C,D258*
X15246447Y-31253553D03*
X15953553Y-30546447D03*
G04 #@! TD*
G04 #@! TO.C,D148*
X34846447Y-39653553D03*
X35553553Y-38946447D03*
G04 #@! TD*
D10*
G04 #@! TO.C,D604*
X73353553Y-16546447D03*
X72646447Y-17253553D03*
G04 #@! TD*
G04 #@! TO.C,D646*
X64953553Y-20746447D03*
X64246447Y-21453553D03*
G04 #@! TD*
D11*
G04 #@! TO.C,D849*
X61446447Y-29853553D03*
X62153553Y-29146447D03*
G04 #@! TD*
G04 #@! TO.C,D502*
X54446447Y-34053553D03*
X55153553Y-33346447D03*
G04 #@! TD*
G04 #@! TO.C,D575*
X41846447Y-28453553D03*
X42553553Y-27746447D03*
G04 #@! TD*
D10*
G04 #@! TO.C,D103*
X21553553Y-23546447D03*
X20846447Y-24253553D03*
G04 #@! TD*
D11*
G04 #@! TO.C,D452*
X57246447Y-38253553D03*
X57953553Y-37546447D03*
G04 #@! TD*
G04 #@! TO.C,D1084*
X90846447Y-34053553D03*
X91553553Y-33346447D03*
G04 #@! TD*
G04 #@! TO.C,D273*
X16646447Y-29853553D03*
X17353553Y-29146447D03*
G04 #@! TD*
D10*
G04 #@! TO.C,D881*
X102753553Y-15146447D03*
X102046447Y-15853553D03*
G04 #@! TD*
D11*
G04 #@! TO.C,D473*
X50246447Y-36853553D03*
X50953553Y-36146447D03*
G04 #@! TD*
D10*
G04 #@! TO.C,D424*
X45353553Y-26346447D03*
X44646447Y-27053553D03*
G04 #@! TD*
G04 #@! TO.C,D988*
X95753553Y-24946447D03*
X95046447Y-25653553D03*
G04 #@! TD*
D11*
G04 #@! TO.C,D465*
X39046447Y-38253553D03*
X39753553Y-37546447D03*
G04 #@! TD*
D10*
G04 #@! TO.C,D690*
X81753553Y-23546447D03*
X81046447Y-24253553D03*
G04 #@! TD*
G04 #@! TO.C,D100*
X17353553Y-23546447D03*
X16646447Y-24253553D03*
G04 #@! TD*
G04 #@! TO.C,D104*
X22953553Y-23546447D03*
X22246447Y-24253553D03*
G04 #@! TD*
G04 #@! TO.C,D433*
X57953553Y-26346447D03*
X57246447Y-27053553D03*
G04 #@! TD*
G04 #@! TO.C,D608*
X78953553Y-16546447D03*
X78246447Y-17253553D03*
G04 #@! TD*
G04 #@! TO.C,D914*
X104153553Y-17946447D03*
X103446447Y-18653553D03*
G04 #@! TD*
D11*
G04 #@! TO.C,D1041*
X83846447Y-38253553D03*
X84553553Y-37546447D03*
G04 #@! TD*
D10*
G04 #@! TO.C,D636*
X73353553Y-19346447D03*
X72646447Y-20053553D03*
G04 #@! TD*
D11*
G04 #@! TO.C,D1018*
X93646447Y-39653553D03*
X94353553Y-38946447D03*
G04 #@! TD*
G04 #@! TO.C,D158*
X20846447Y-39653553D03*
X21553553Y-38946447D03*
G04 #@! TD*
G04 #@! TO.C,D547*
X58646447Y-29853553D03*
X59353553Y-29146447D03*
G04 #@! TD*
G04 #@! TO.C,D171*
X25046447Y-38253553D03*
X25753553Y-37546447D03*
G04 #@! TD*
D10*
G04 #@! TO.C,D346*
X48153553Y-19346447D03*
X47446447Y-20053553D03*
G04 #@! TD*
D11*
G04 #@! TO.C,D195*
X36246447Y-35453553D03*
X36953553Y-34746447D03*
G04 #@! TD*
G04 #@! TO.C,D1087*
X86646447Y-34053553D03*
X87353553Y-33346447D03*
G04 #@! TD*
G04 #@! TO.C,D214*
X32046447Y-34053553D03*
X32753553Y-33346447D03*
G04 #@! TD*
D10*
G04 #@! TO.C,D694*
X64953553Y-24946447D03*
X64246447Y-25653553D03*
G04 #@! TD*
D13*
G04 #@! TO.C,C51*
X86000000Y-66050000D03*
X86000000Y-67050000D03*
G04 #@! TD*
D10*
G04 #@! TO.C,D402*
X59353553Y-23546447D03*
X58646447Y-24253553D03*
G04 #@! TD*
G04 #@! TO.C,D121*
X24353553Y-24946447D03*
X23646447Y-25653553D03*
G04 #@! TD*
G04 #@! TO.C,D324*
X39753553Y-17946447D03*
X39046447Y-18653553D03*
G04 #@! TD*
G04 #@! TO.C,D603*
X71953553Y-16546447D03*
X71246447Y-17253553D03*
G04 #@! TD*
D11*
G04 #@! TO.C,D496*
X40446447Y-35453553D03*
X41153553Y-34746447D03*
G04 #@! TD*
G04 #@! TO.C,D535*
X53046447Y-31253553D03*
X53753553Y-30546447D03*
G04 #@! TD*
G04 #@! TO.C,D548*
X57246447Y-29853553D03*
X57953553Y-29146447D03*
G04 #@! TD*
D10*
G04 #@! TO.C,D686*
X76153553Y-23546447D03*
X75446447Y-24253553D03*
G04 #@! TD*
D19*
G04 #@! TO.C,R20*
X19750000Y-63950000D03*
X20750000Y-63950000D03*
G04 #@! TD*
D11*
G04 #@! TO.C,D859*
X69846447Y-28453553D03*
X70553553Y-27746447D03*
G04 #@! TD*
G04 #@! TO.C,D1017*
X95046447Y-39653553D03*
X95753553Y-38946447D03*
G04 #@! TD*
G04 #@! TO.C,D463*
X41846447Y-38253553D03*
X42553553Y-37546447D03*
G04 #@! TD*
D10*
G04 #@! TO.C,D938*
X92953553Y-20746447D03*
X92246447Y-21453553D03*
G04 #@! TD*
G04 #@! TO.C,D637*
X74753553Y-19346447D03*
X74046447Y-20053553D03*
G04 #@! TD*
D11*
G04 #@! TO.C,D1139*
X103446447Y-28453553D03*
X104153553Y-27746447D03*
G04 #@! TD*
D10*
G04 #@! TO.C,D901*
X85953553Y-17946447D03*
X85246447Y-18653553D03*
G04 #@! TD*
D11*
G04 #@! TO.C,D1043*
X103446447Y-36853553D03*
X104153553Y-36146447D03*
G04 #@! TD*
G04 #@! TO.C,D505*
X50246447Y-34053553D03*
X50953553Y-33346447D03*
G04 #@! TD*
G04 #@! TO.C,D741*
X78246447Y-38253553D03*
X78953553Y-37546447D03*
G04 #@! TD*
G04 #@! TO.C,D1112*
X96446447Y-31253553D03*
X97153553Y-30546447D03*
G04 #@! TD*
G04 #@! TO.C,D737*
X61446447Y-39653553D03*
X62153553Y-38946447D03*
G04 #@! TD*
D10*
G04 #@! TO.C,D672*
X78953553Y-22146447D03*
X78246447Y-22853553D03*
G04 #@! TD*
G04 #@! TO.C,D328*
X45353553Y-17946447D03*
X44646447Y-18653553D03*
G04 #@! TD*
G04 #@! TO.C,D891*
X94353553Y-16546447D03*
X93646447Y-17253553D03*
G04 #@! TD*
G04 #@! TO.C,D667*
X71953553Y-22146447D03*
X71246447Y-22853553D03*
G04 #@! TD*
D11*
G04 #@! TO.C,D263*
X30646447Y-29853553D03*
X31353553Y-29146447D03*
G04 #@! TD*
G04 #@! TO.C,D833*
X61446447Y-31253553D03*
X62153553Y-30546447D03*
G04 #@! TD*
G04 #@! TO.C,D1085*
X89446447Y-34053553D03*
X90153553Y-33346447D03*
G04 #@! TD*
D10*
G04 #@! TO.C,D363*
X49553553Y-20746447D03*
X48846447Y-21453553D03*
G04 #@! TD*
D12*
G04 #@! TO.C,R26*
X33400000Y-66650000D03*
X32400000Y-66650000D03*
G04 #@! TD*
D10*
G04 #@! TO.C,D144*
X34153553Y-26346447D03*
X33446447Y-27053553D03*
G04 #@! TD*
G04 #@! TO.C,D611*
X60753553Y-17946447D03*
X60046447Y-18653553D03*
G04 #@! TD*
G04 #@! TO.C,D405*
X41153553Y-24946447D03*
X40446447Y-25653553D03*
G04 #@! TD*
D11*
G04 #@! TO.C,D164*
X34846447Y-38253553D03*
X35553553Y-37546447D03*
G04 #@! TD*
D13*
G04 #@! TO.C,C24*
X25200000Y-56100000D03*
X25200000Y-57100000D03*
G04 #@! TD*
D11*
G04 #@! TO.C,D560*
X40446447Y-29853553D03*
X41153553Y-29146447D03*
G04 #@! TD*
D10*
G04 #@! TO.C,D579*
X60753553Y-15146447D03*
X60046447Y-15853553D03*
G04 #@! TD*
D19*
G04 #@! TO.C,R40*
X42150000Y-63950000D03*
X43150000Y-63950000D03*
G04 #@! TD*
D11*
G04 #@! TO.C,D776*
X74046447Y-35453553D03*
X74753553Y-34746447D03*
G04 #@! TD*
D19*
G04 #@! TO.C,R81*
X86950000Y-63150000D03*
X87950000Y-63150000D03*
G04 #@! TD*
D11*
G04 #@! TO.C,D1116*
X90846447Y-31253553D03*
X91553553Y-30546447D03*
G04 #@! TD*
G04 #@! TO.C,D1151*
X86646447Y-28453553D03*
X87353553Y-27746447D03*
G04 #@! TD*
D10*
G04 #@! TO.C,D113*
X35553553Y-23546447D03*
X34846447Y-24253553D03*
G04 #@! TD*
G04 #@! TO.C,D953*
X91553553Y-22146447D03*
X90846447Y-22853553D03*
G04 #@! TD*
D11*
G04 #@! TO.C,D1109*
X100646447Y-31253553D03*
X101353553Y-30546447D03*
G04 #@! TD*
D19*
G04 #@! TO.C,C29*
X29200000Y-62500000D03*
X30200000Y-62500000D03*
G04 #@! TD*
D11*
G04 #@! TO.C,D551*
X53046447Y-29853553D03*
X53753553Y-29146447D03*
G04 #@! TD*
D10*
G04 #@! TO.C,D340*
X39753553Y-19346447D03*
X39046447Y-20053553D03*
G04 #@! TD*
D11*
G04 #@! TO.C,D520*
X51646447Y-32653553D03*
X52353553Y-31946447D03*
G04 #@! TD*
G04 #@! TO.C,D1013*
X100646447Y-39653553D03*
X101353553Y-38946447D03*
G04 #@! TD*
G04 #@! TO.C,D1145*
X95046447Y-28453553D03*
X95753553Y-27746447D03*
G04 #@! TD*
G04 #@! TO.C,D516*
X57246447Y-32653553D03*
X57953553Y-31946447D03*
G04 #@! TD*
G04 #@! TO.C,D1110*
X99246447Y-31253553D03*
X99953553Y-30546447D03*
G04 #@! TD*
G04 #@! TO.C,D848*
X62846447Y-29853553D03*
X63553553Y-29146447D03*
G04 #@! TD*
D10*
G04 #@! TO.C,D715*
X71953553Y-26346447D03*
X71246447Y-27053553D03*
G04 #@! TD*
D39*
G04 #@! TO.C,U2*
X60400000Y-55900000D03*
X60400000Y-57300000D03*
X59000000Y-57300000D03*
X59000000Y-55900000D03*
D40*
X56262500Y-54000000D03*
X56262500Y-54400000D03*
X56262500Y-54800000D03*
X56262500Y-55200000D03*
X56262500Y-55600000D03*
X56262500Y-56000000D03*
X56262500Y-56400000D03*
X56262500Y-56800000D03*
X56262500Y-57200000D03*
X56262500Y-57600000D03*
X56262500Y-58000000D03*
X56262500Y-58400000D03*
X56262500Y-58800000D03*
X56262500Y-59200000D03*
D41*
X57100000Y-60037500D03*
X57500000Y-60037500D03*
X57900000Y-60037500D03*
X58300000Y-60037500D03*
X58700000Y-60037500D03*
X59100000Y-60037500D03*
X59500000Y-60037500D03*
X59900000Y-60037500D03*
X60300000Y-60037500D03*
X60700000Y-60037500D03*
X61100000Y-60037500D03*
X61500000Y-60037500D03*
X61900000Y-60037500D03*
X62300000Y-60037500D03*
D40*
X63137500Y-59200000D03*
X63137500Y-58800000D03*
X63137500Y-58400000D03*
X63137500Y-58000000D03*
X63137500Y-57600000D03*
X63137500Y-57200000D03*
X63137500Y-56800000D03*
X63137500Y-56400000D03*
X63137500Y-56000000D03*
X63137500Y-55600000D03*
X63137500Y-55200000D03*
X63137500Y-54800000D03*
X63137500Y-54400000D03*
X63137500Y-54000000D03*
D41*
X62300000Y-53162500D03*
X61900000Y-53162500D03*
X61500000Y-53162500D03*
X61100000Y-53162500D03*
X60700000Y-53162500D03*
X60300000Y-53162500D03*
X59900000Y-53162500D03*
X59500000Y-53162500D03*
X59100000Y-53162500D03*
X58700000Y-53162500D03*
X58300000Y-53162500D03*
X57900000Y-53162500D03*
X57500000Y-53162500D03*
X57100000Y-53162500D03*
G04 #@! TD*
D11*
G04 #@! TO.C,D804*
X79646447Y-32653553D03*
X80353553Y-31946447D03*
G04 #@! TD*
G04 #@! TO.C,D147*
X36246447Y-39653553D03*
X36953553Y-38946447D03*
G04 #@! TD*
D10*
G04 #@! TO.C,D295*
X43953553Y-15146447D03*
X43246447Y-15853553D03*
G04 #@! TD*
D11*
G04 #@! TO.C,D451*
X58646447Y-38253553D03*
X59353553Y-37546447D03*
G04 #@! TD*
D12*
G04 #@! TO.C,R90*
X99650000Y-49250000D03*
X98650000Y-49250000D03*
G04 #@! TD*
D10*
G04 #@! TO.C,D332*
X50953553Y-17946447D03*
X50246447Y-18653553D03*
G04 #@! TD*
G04 #@! TO.C,D701*
X74753553Y-24946447D03*
X74046447Y-25653553D03*
G04 #@! TD*
D11*
G04 #@! TO.C,D532*
X57246447Y-31253553D03*
X57953553Y-30546447D03*
G04 #@! TD*
D10*
G04 #@! TO.C,D960*
X101353553Y-22146447D03*
X100646447Y-22853553D03*
G04 #@! TD*
G04 #@! TO.C,D413*
X52353553Y-24946447D03*
X51646447Y-25653553D03*
G04 #@! TD*
G04 #@! TO.C,D702*
X76153553Y-24946447D03*
X75446447Y-25653553D03*
G04 #@! TD*
D12*
G04 #@! TO.C,R84*
X100600000Y-63450000D03*
X99600000Y-63450000D03*
G04 #@! TD*
D11*
G04 #@! TO.C,D1021*
X89446447Y-39653553D03*
X90153553Y-38946447D03*
G04 #@! TD*
D10*
G04 #@! TO.C,D86*
X20153553Y-22146447D03*
X19446447Y-22853553D03*
G04 #@! TD*
G04 #@! TO.C,D54*
X20153553Y-19346447D03*
X19446447Y-20053553D03*
G04 #@! TD*
D13*
G04 #@! TO.C,C43*
X63600000Y-66050000D03*
X63600000Y-67050000D03*
G04 #@! TD*
D11*
G04 #@! TO.C,D837*
X78246447Y-29853553D03*
X78953553Y-29146447D03*
G04 #@! TD*
D10*
G04 #@! TO.C,D145*
X35553553Y-26346447D03*
X34846447Y-27053553D03*
G04 #@! TD*
D11*
G04 #@! TO.C,D1095*
X97846447Y-32653553D03*
X98553553Y-31946447D03*
G04 #@! TD*
G04 #@! TO.C,D181*
X33446447Y-36853553D03*
X34153553Y-36146447D03*
G04 #@! TD*
G04 #@! TO.C,D225*
X16646447Y-34053553D03*
X17353553Y-33346447D03*
G04 #@! TD*
G04 #@! TO.C,D284*
X23646447Y-28453553D03*
X24353553Y-27746447D03*
G04 #@! TD*
D10*
G04 #@! TO.C,D940*
X95753553Y-20746447D03*
X95046447Y-21453553D03*
G04 #@! TD*
D11*
G04 #@! TO.C,D835*
X81046447Y-29853553D03*
X81753553Y-29146447D03*
G04 #@! TD*
G04 #@! TO.C,D832*
X62846447Y-31253553D03*
X63553553Y-30546447D03*
G04 #@! TD*
G04 #@! TO.C,D814*
X65646447Y-32653553D03*
X66353553Y-31946447D03*
G04 #@! TD*
D10*
G04 #@! TO.C,D1008*
X101353553Y-26346447D03*
X100646447Y-27053553D03*
G04 #@! TD*
D11*
G04 #@! TO.C,D469*
X55846447Y-36853553D03*
X56553553Y-36146447D03*
G04 #@! TD*
D10*
G04 #@! TO.C,D921*
X91553553Y-19346447D03*
X90846447Y-20053553D03*
G04 #@! TD*
D12*
G04 #@! TO.C,R66*
X78200000Y-66650000D03*
X77200000Y-66650000D03*
G04 #@! TD*
D11*
G04 #@! TO.C,D151*
X30646447Y-39653553D03*
X31353553Y-38946447D03*
G04 #@! TD*
G04 #@! TO.C,D262*
X32046447Y-29853553D03*
X32753553Y-29146447D03*
G04 #@! TD*
G04 #@! TO.C,D156*
X23646447Y-39653553D03*
X24353553Y-38946447D03*
G04 #@! TD*
D12*
G04 #@! TO.C,R57*
X78200000Y-64250000D03*
X77200000Y-64250000D03*
G04 #@! TD*
D42*
G04 #@! TO.C,Y1*
X59100000Y-63250000D03*
X60300000Y-63250000D03*
X61500000Y-63250000D03*
G04 #@! TD*
D11*
G04 #@! TO.C,D745*
X72646447Y-38253553D03*
X73353553Y-37546447D03*
G04 #@! TD*
D10*
G04 #@! TO.C,D391*
X43953553Y-23546447D03*
X43246447Y-24253553D03*
G04 #@! TD*
D13*
G04 #@! TO.C,C13*
X54750000Y-57700000D03*
X54750000Y-58700000D03*
G04 #@! TD*
D10*
G04 #@! TO.C,D698*
X70553553Y-24946447D03*
X69846447Y-25653553D03*
G04 #@! TD*
D13*
G04 #@! TO.C,C44*
X62000000Y-66050000D03*
X62000000Y-67050000D03*
G04 #@! TD*
D10*
G04 #@! TO.C,D932*
X84553553Y-20746447D03*
X83846447Y-21453553D03*
G04 #@! TD*
D11*
G04 #@! TO.C,D573*
X44646447Y-28453553D03*
X45353553Y-27746447D03*
G04 #@! TD*
G04 #@! TO.C,D287*
X19446447Y-28453553D03*
X20153553Y-27746447D03*
G04 #@! TD*
G04 #@! TO.C,D1060*
X102046447Y-35453553D03*
X102753553Y-34746447D03*
G04 #@! TD*
D10*
G04 #@! TO.C,D400*
X56553553Y-23546447D03*
X55846447Y-24253553D03*
G04 #@! TD*
G04 #@! TO.C,D383*
X55153553Y-22146447D03*
X54446447Y-22853553D03*
G04 #@! TD*
G04 #@! TO.C,D879*
X99953553Y-15146447D03*
X99246447Y-15853553D03*
G04 #@! TD*
G04 #@! TO.C,D326*
X42553553Y-17946447D03*
X41846447Y-18653553D03*
G04 #@! TD*
G04 #@! TO.C,D987*
X94353553Y-24946447D03*
X93646447Y-25653553D03*
G04 #@! TD*
G04 #@! TO.C,D335*
X55153553Y-17946447D03*
X54446447Y-18653553D03*
G04 #@! TD*
G04 #@! TO.C,D306*
X59353553Y-15146447D03*
X58646447Y-15853553D03*
G04 #@! TD*
G04 #@! TO.C,D66*
X36953553Y-19346447D03*
X36246447Y-20053553D03*
G04 #@! TD*
D11*
G04 #@! TO.C,D1031*
X97846447Y-38253553D03*
X98553553Y-37546447D03*
G04 #@! TD*
G04 #@! TO.C,D1042*
X82446447Y-38253553D03*
X83153553Y-37546447D03*
G04 #@! TD*
D10*
G04 #@! TO.C,D620*
X73353553Y-17946447D03*
X72646447Y-18653553D03*
G04 #@! TD*
G04 #@! TO.C,D883*
X83153553Y-16546447D03*
X82446447Y-17253553D03*
G04 #@! TD*
D11*
G04 #@! TO.C,D1097*
X95046447Y-32653553D03*
X95753553Y-31946447D03*
G04 #@! TD*
D10*
G04 #@! TO.C,D120*
X22953553Y-24946447D03*
X22246447Y-25653553D03*
G04 #@! TD*
D11*
G04 #@! TO.C,D724*
X79646447Y-39653553D03*
X80353553Y-38946447D03*
G04 #@! TD*
D10*
G04 #@! TO.C,D27*
X27153553Y-16546447D03*
X26446447Y-17253553D03*
G04 #@! TD*
D11*
G04 #@! TO.C,D781*
X67046447Y-35453553D03*
X67753553Y-34746447D03*
G04 #@! TD*
D10*
G04 #@! TO.C,D947*
X83153553Y-22146447D03*
X82446447Y-22853553D03*
G04 #@! TD*
G04 #@! TO.C,D84*
X17353553Y-22146447D03*
X16646447Y-22853553D03*
G04 #@! TD*
D11*
G04 #@! TO.C,D260*
X34846447Y-29853553D03*
X35553553Y-29146447D03*
G04 #@! TD*
G04 #@! TO.C,D232*
X29246447Y-32653553D03*
X29953553Y-31946447D03*
G04 #@! TD*
D10*
G04 #@! TO.C,D327*
X43953553Y-17946447D03*
X43246447Y-18653553D03*
G04 #@! TD*
G04 #@! TO.C,D903*
X88753553Y-17946447D03*
X88046447Y-18653553D03*
G04 #@! TD*
D21*
G04 #@! TO.C,R5*
X93850000Y-54050000D03*
X93850000Y-53050000D03*
G04 #@! TD*
D11*
G04 #@! TO.C,D800*
X62846447Y-34053553D03*
X63553553Y-33346447D03*
G04 #@! TD*
G04 #@! TO.C,D1120*
X85246447Y-31253553D03*
X85953553Y-30546447D03*
G04 #@! TD*
D10*
G04 #@! TO.C,D673*
X80353553Y-22146447D03*
X79646447Y-22853553D03*
G04 #@! TD*
D19*
G04 #@! TO.C,R82*
X86950000Y-64750000D03*
X87950000Y-64750000D03*
G04 #@! TD*
D10*
G04 #@! TO.C,D989*
X97153553Y-24946447D03*
X96446447Y-25653553D03*
G04 #@! TD*
G04 #@! TO.C,D134*
X20153553Y-26346447D03*
X19446447Y-27053553D03*
G04 #@! TD*
D11*
G04 #@! TO.C,D483*
X58646447Y-35453553D03*
X59353553Y-34746447D03*
G04 #@! TD*
D10*
G04 #@! TO.C,D397*
X52353553Y-23546447D03*
X51646447Y-24253553D03*
G04 #@! TD*
D11*
G04 #@! TO.C,D1150*
X88046447Y-28453553D03*
X88753553Y-27746447D03*
G04 #@! TD*
D10*
G04 #@! TO.C,D102*
X20153553Y-23546447D03*
X19446447Y-24253553D03*
G04 #@! TD*
G04 #@! TO.C,D409*
X46753553Y-24946447D03*
X46046447Y-25653553D03*
G04 #@! TD*
G04 #@! TO.C,D894*
X98553553Y-16546447D03*
X97846447Y-17253553D03*
G04 #@! TD*
D19*
G04 #@! TO.C,R74*
X63600000Y-49750000D03*
X64600000Y-49750000D03*
G04 #@! TD*
G04 #@! TO.C,R35*
X22000000Y-51500000D03*
X23000000Y-51500000D03*
G04 #@! TD*
D10*
G04 #@! TO.C,D616*
X67753553Y-17946447D03*
X67046447Y-18653553D03*
G04 #@! TD*
G04 #@! TO.C,D581*
X63553553Y-15146447D03*
X62846447Y-15853553D03*
G04 #@! TD*
G04 #@! TO.C,D877*
X97153553Y-15146447D03*
X96446447Y-15853553D03*
G04 #@! TD*
D11*
G04 #@! TO.C,D1032*
X96446447Y-38253553D03*
X97153553Y-37546447D03*
G04 #@! TD*
D10*
G04 #@! TO.C,D682*
X70553553Y-23546447D03*
X69846447Y-24253553D03*
G04 #@! TD*
G04 #@! TO.C,D631*
X66353553Y-19346447D03*
X65646447Y-20053553D03*
G04 #@! TD*
D12*
G04 #@! TO.C,R63*
X78200000Y-65850000D03*
X77200000Y-65850000D03*
G04 #@! TD*
D10*
G04 #@! TO.C,D897*
X102753553Y-16546447D03*
X102046447Y-17253553D03*
G04 #@! TD*
D11*
G04 #@! TO.C,D1111*
X97846447Y-31253553D03*
X98553553Y-30546447D03*
G04 #@! TD*
D19*
G04 #@! TO.C,C53*
X96400000Y-62500000D03*
X97400000Y-62500000D03*
G04 #@! TD*
D10*
G04 #@! TO.C,D81*
X35553553Y-20746447D03*
X34846447Y-21453553D03*
G04 #@! TD*
D11*
G04 #@! TO.C,D219*
X25046447Y-34053553D03*
X25753553Y-33346447D03*
G04 #@! TD*
D12*
G04 #@! TO.C,R30*
X32450000Y-49250000D03*
X31450000Y-49250000D03*
G04 #@! TD*
D11*
G04 #@! TO.C,D495*
X41846447Y-35453553D03*
X42553553Y-34746447D03*
G04 #@! TD*
G04 #@! TO.C,D1141*
X100646447Y-28453553D03*
X101353553Y-27746447D03*
G04 #@! TD*
D10*
G04 #@! TO.C,D331*
X49553553Y-17946447D03*
X48846447Y-18653553D03*
G04 #@! TD*
G04 #@! TO.C,D417*
X57953553Y-24946447D03*
X57246447Y-25653553D03*
G04 #@! TD*
D11*
G04 #@! TO.C,D249*
X27846447Y-31253553D03*
X28553553Y-30546447D03*
G04 #@! TD*
D19*
G04 #@! TO.C,R41*
X42150000Y-63150000D03*
X43150000Y-63150000D03*
G04 #@! TD*
D10*
G04 #@! TO.C,D936*
X90153553Y-20746447D03*
X89446447Y-21453553D03*
G04 #@! TD*
G04 #@! TO.C,D140*
X28553553Y-26346447D03*
X27846447Y-27053553D03*
G04 #@! TD*
D19*
G04 #@! TO.C,R48*
X41200000Y-48150000D03*
X42200000Y-48150000D03*
G04 #@! TD*
D10*
G04 #@! TO.C,D23*
X21553553Y-16546447D03*
X20846447Y-17253553D03*
G04 #@! TD*
D11*
G04 #@! TO.C,D239*
X19446447Y-32653553D03*
X20153553Y-31946447D03*
G04 #@! TD*
D10*
G04 #@! TO.C,D429*
X52353553Y-26346447D03*
X51646447Y-27053553D03*
G04 #@! TD*
D21*
G04 #@! TO.C,C55*
X100600000Y-47150000D03*
X100600000Y-46150000D03*
G04 #@! TD*
D10*
G04 #@! TO.C,D913*
X102753553Y-17946447D03*
X102046447Y-18653553D03*
G04 #@! TD*
G04 #@! TO.C,D291*
X38353553Y-15146447D03*
X37646447Y-15853553D03*
G04 #@! TD*
D11*
G04 #@! TO.C,D221*
X22246447Y-34053553D03*
X22953553Y-33346447D03*
G04 #@! TD*
D10*
G04 #@! TO.C,D623*
X77553553Y-17946447D03*
X76846447Y-18653553D03*
G04 #@! TD*
D21*
G04 #@! TO.C,R4*
X93000000Y-54050000D03*
X93000000Y-53050000D03*
G04 #@! TD*
D11*
G04 #@! TO.C,D778*
X71246447Y-35453553D03*
X71953553Y-34746447D03*
G04 #@! TD*
G04 #@! TO.C,D448*
X40446447Y-39653553D03*
X41153553Y-38946447D03*
G04 #@! TD*
D10*
G04 #@! TO.C,D53*
X18753553Y-19346447D03*
X18046447Y-20053553D03*
G04 #@! TD*
D11*
G04 #@! TO.C,D1104*
X85246447Y-32653553D03*
X85953553Y-31946447D03*
G04 #@! TD*
D10*
G04 #@! TO.C,D349*
X52353553Y-19346447D03*
X51646447Y-20053553D03*
G04 #@! TD*
D13*
G04 #@! TO.C,C17*
X91300000Y-53050000D03*
X91300000Y-54050000D03*
G04 #@! TD*
D10*
G04 #@! TO.C,D11*
X27153553Y-15146447D03*
X26446447Y-15853553D03*
G04 #@! TD*
D21*
G04 #@! TO.C,C18*
X59350000Y-51550000D03*
X59350000Y-50550000D03*
G04 #@! TD*
D19*
G04 #@! TO.C,R96*
X86000000Y-46550000D03*
X87000000Y-46550000D03*
G04 #@! TD*
D10*
G04 #@! TO.C,D630*
X64953553Y-19346447D03*
X64246447Y-20053553D03*
G04 #@! TD*
G04 #@! TO.C,D36*
X17353553Y-17946447D03*
X16646447Y-18653553D03*
G04 #@! TD*
G04 #@! TO.C,D406*
X42553553Y-24946447D03*
X41846447Y-25653553D03*
G04 #@! TD*
D11*
G04 #@! TO.C,D827*
X69846447Y-31253553D03*
X70553553Y-30546447D03*
G04 #@! TD*
D13*
G04 #@! TO.C,C6*
X102250000Y-57350000D03*
X102250000Y-58350000D03*
G04 #@! TD*
D11*
G04 #@! TO.C,D799*
X64246447Y-34053553D03*
X64953553Y-33346447D03*
G04 #@! TD*
G04 #@! TO.C,D438*
X54446447Y-39653553D03*
X55153553Y-38946447D03*
G04 #@! TD*
D10*
G04 #@! TO.C,D8*
X22953553Y-15146447D03*
X22246447Y-15853553D03*
G04 #@! TD*
D11*
G04 #@! TO.C,D1039*
X86646447Y-38253553D03*
X87353553Y-37546447D03*
G04 #@! TD*
D10*
G04 #@! TO.C,D689*
X80353553Y-23546447D03*
X79646447Y-24253553D03*
G04 #@! TD*
D19*
G04 #@! TO.C,R28*
X18800000Y-48150000D03*
X19800000Y-48150000D03*
G04 #@! TD*
D11*
G04 #@! TO.C,D1121*
X83846447Y-31253553D03*
X84553553Y-30546447D03*
G04 #@! TD*
D10*
G04 #@! TO.C,D382*
X53753553Y-22146447D03*
X53046447Y-22853553D03*
G04 #@! TD*
G04 #@! TO.C,D365*
X52353553Y-20746447D03*
X51646447Y-21453553D03*
G04 #@! TD*
G04 #@! TO.C,D609*
X80353553Y-16546447D03*
X79646447Y-17253553D03*
G04 #@! TD*
G04 #@! TO.C,D126*
X31353553Y-24946447D03*
X30646447Y-25653553D03*
G04 #@! TD*
D11*
G04 #@! TO.C,D486*
X54446447Y-35453553D03*
X55153553Y-34746447D03*
G04 #@! TD*
D13*
G04 #@! TO.C,C12*
X53900000Y-57700000D03*
X53900000Y-58700000D03*
G04 #@! TD*
D11*
G04 #@! TO.C,D504*
X51646447Y-34053553D03*
X52353553Y-33346447D03*
G04 #@! TD*
D21*
G04 #@! TO.C,C56*
X102200000Y-47150000D03*
X102200000Y-46150000D03*
G04 #@! TD*
D10*
G04 #@! TO.C,D350*
X53753553Y-19346447D03*
X53046447Y-20053553D03*
G04 #@! TD*
D11*
G04 #@! TO.C,D757*
X78246447Y-36853553D03*
X78953553Y-36146447D03*
G04 #@! TD*
D10*
G04 #@! TO.C,D905*
X91553553Y-17946447D03*
X90846447Y-18653553D03*
G04 #@! TD*
G04 #@! TO.C,D109*
X29953553Y-23546447D03*
X29246447Y-24253553D03*
G04 #@! TD*
G04 #@! TO.C,D97*
X35553553Y-22146447D03*
X34846447Y-22853553D03*
G04 #@! TD*
G04 #@! TO.C,D618*
X70553553Y-17946447D03*
X69846447Y-18653553D03*
G04 #@! TD*
G04 #@! TO.C,D361*
X46753553Y-20746447D03*
X46046447Y-21453553D03*
G04 #@! TD*
G04 #@! TO.C,D929*
X102753553Y-19346447D03*
X102046447Y-20053553D03*
G04 #@! TD*
G04 #@! TO.C,D370*
X59353553Y-20746447D03*
X58646447Y-21453553D03*
G04 #@! TD*
D11*
G04 #@! TO.C,D1033*
X95046447Y-38253553D03*
X95753553Y-37546447D03*
G04 #@! TD*
D10*
G04 #@! TO.C,D35*
X15953553Y-17946447D03*
X15246447Y-18653553D03*
G04 #@! TD*
G04 #@! TO.C,D981*
X85953553Y-24946447D03*
X85246447Y-25653553D03*
G04 #@! TD*
D11*
G04 #@! TO.C,D484*
X57246447Y-35453553D03*
X57953553Y-34746447D03*
G04 #@! TD*
D10*
G04 #@! TO.C,D590*
X76153553Y-15146447D03*
X75446447Y-15853553D03*
G04 #@! TD*
D11*
G04 #@! TO.C,D553*
X50246447Y-29853553D03*
X50953553Y-29146447D03*
G04 #@! TD*
G04 #@! TO.C,D1143*
X97846447Y-28453553D03*
X98553553Y-27746447D03*
G04 #@! TD*
D12*
G04 #@! TO.C,R23*
X33400000Y-65850000D03*
X32400000Y-65850000D03*
G04 #@! TD*
D11*
G04 #@! TO.C,D844*
X68446447Y-29853553D03*
X69153553Y-29146447D03*
G04 #@! TD*
D10*
G04 #@! TO.C,D91*
X27153553Y-22146447D03*
X26446447Y-22853553D03*
G04 #@! TD*
G04 #@! TO.C,D868*
X84553553Y-15146447D03*
X83846447Y-15853553D03*
G04 #@! TD*
D11*
G04 #@! TO.C,D761*
X72646447Y-36853553D03*
X73353553Y-36146447D03*
G04 #@! TD*
G04 #@! TO.C,D162*
X15246447Y-39653553D03*
X15953553Y-38946447D03*
G04 #@! TD*
G04 #@! TO.C,D460*
X46046447Y-38253553D03*
X46753553Y-37546447D03*
G04 #@! TD*
D13*
G04 #@! TO.C,C34*
X40400000Y-66050000D03*
X40400000Y-67050000D03*
G04 #@! TD*
M02*
