G04 #@! TF.GenerationSoftware,KiCad,Pcbnew,(6.0.2-0)*
G04 #@! TF.CreationDate,2022-08-25T13:36:14+02:00*
G04 #@! TF.ProjectId,nixie,6e697869-652e-46b6-9963-61645f706362,rev?*
G04 #@! TF.SameCoordinates,Original*
G04 #@! TF.FileFunction,Soldermask,Bot*
G04 #@! TF.FilePolarity,Negative*
%FSLAX46Y46*%
G04 Gerber Fmt 4.6, Leading zero omitted, Abs format (unit mm)*
G04 Created by KiCad (PCBNEW (6.0.2-0)) date 2022-08-25 13:36:14*
%MOMM*%
%LPD*%
G01*
G04 APERTURE LIST*
G04 Aperture macros list*
%AMRoundRect*
0 Rectangle with rounded corners*
0 $1 Rounding radius*
0 $2 $3 $4 $5 $6 $7 $8 $9 X,Y pos of 4 corners*
0 Add a 4 corners polygon primitive as box body*
4,1,4,$2,$3,$4,$5,$6,$7,$8,$9,$2,$3,0*
0 Add four circle primitives for the rounded corners*
1,1,$1+$1,$2,$3*
1,1,$1+$1,$4,$5*
1,1,$1+$1,$6,$7*
1,1,$1+$1,$8,$9*
0 Add four rect primitives between the rounded corners*
20,1,$1+$1,$2,$3,$4,$5,0*
20,1,$1+$1,$4,$5,$6,$7,0*
20,1,$1+$1,$6,$7,$8,$9,0*
20,1,$1+$1,$8,$9,$2,$3,0*%
%AMOutline5P*
0 Free polygon, 5 corners , with rotation*
0 The origin of the aperture is its center*
0 number of corners: always 5*
0 $1 to $10 corner X, Y*
0 $11 Rotation angle, in degrees counterclockwise*
0 create outline with 5 corners*
4,1,5,$1,$2,$3,$4,$5,$6,$7,$8,$9,$10,$1,$2,$11*%
%AMOutline6P*
0 Free polygon, 6 corners , with rotation*
0 The origin of the aperture is its center*
0 number of corners: always 6*
0 $1 to $12 corner X, Y*
0 $13 Rotation angle, in degrees counterclockwise*
0 create outline with 6 corners*
4,1,6,$1,$2,$3,$4,$5,$6,$7,$8,$9,$10,$11,$12,$1,$2,$13*%
%AMOutline7P*
0 Free polygon, 7 corners , with rotation*
0 The origin of the aperture is its center*
0 number of corners: always 7*
0 $1 to $14 corner X, Y*
0 $15 Rotation angle, in degrees counterclockwise*
0 create outline with 7 corners*
4,1,7,$1,$2,$3,$4,$5,$6,$7,$8,$9,$10,$11,$12,$13,$14,$1,$2,$15*%
%AMOutline8P*
0 Free polygon, 8 corners , with rotation*
0 The origin of the aperture is its center*
0 number of corners: always 8*
0 $1 to $16 corner X, Y*
0 $17 Rotation angle, in degrees counterclockwise*
0 create outline with 8 corners*
4,1,8,$1,$2,$3,$4,$5,$6,$7,$8,$9,$10,$11,$12,$13,$14,$15,$16,$1,$2,$17*%
G04 Aperture macros list end*
%ADD10R,1.000000X1.000000*%
%ADD11Outline5P,-0.250000X0.150000X-0.150000X0.250000X0.250000X0.250000X0.250000X-0.250000X-0.250000X-0.250000X270.000000*%
%ADD12Outline5P,-0.250000X0.150000X-0.150000X0.250000X0.250000X0.250000X0.250000X-0.250000X-0.250000X-0.250000X0.000000*%
%ADD13Outline5P,-0.250000X0.150000X-0.150000X0.250000X0.250000X0.250000X0.250000X-0.250000X-0.250000X-0.250000X90.000000*%
%ADD14Outline5P,-0.250000X0.150000X-0.150000X0.250000X0.250000X0.250000X0.250000X-0.250000X-0.250000X-0.250000X180.000000*%
%ADD15RoundRect,0.250000X0.250000X0.500000X-0.250000X0.500000X-0.250000X-0.500000X0.250000X-0.500000X0*%
%ADD16RoundRect,0.250000X-0.250000X-0.500000X0.250000X-0.500000X0.250000X0.500000X-0.250000X0.500000X0*%
G04 APERTURE END LIST*
D10*
G04 #@! TO.C,*
X26750000Y-41900000D03*
G04 #@! TD*
G04 #@! TO.C,*
X25450000Y-41900000D03*
G04 #@! TD*
G04 #@! TO.C,*
X60350000Y-41900000D03*
G04 #@! TD*
G04 #@! TO.C,*
X59050000Y-41900000D03*
G04 #@! TD*
G04 #@! TO.C,*
X93950000Y-41900000D03*
G04 #@! TD*
G04 #@! TO.C,*
X92650000Y-41900000D03*
G04 #@! TD*
D11*
G04 #@! TO.C,CH124*
X101550000Y-68850000D03*
D10*
X101300000Y-69600000D03*
D12*
X101050000Y-68850000D03*
G04 #@! TD*
G04 #@! TO.C,CH52*
X56250000Y-68850000D03*
D11*
X56750000Y-68850000D03*
D10*
X56500000Y-69600000D03*
G04 #@! TD*
D13*
G04 #@! TO.C,CH27*
X26650000Y-44350000D03*
D14*
X27150000Y-44350000D03*
D10*
X26900000Y-43600000D03*
G04 #@! TD*
G04 #@! TO.C,CH83*
X72900000Y-69600000D03*
D12*
X72650000Y-68850000D03*
D11*
X73150000Y-68850000D03*
G04 #@! TD*
G04 #@! TO.C,CH77*
X65550000Y-68850000D03*
D12*
X65050000Y-68850000D03*
D10*
X65300000Y-69600000D03*
G04 #@! TD*
D12*
G04 #@! TO.C,CH75*
X62650000Y-68850000D03*
D11*
X63150000Y-68850000D03*
D10*
X62900000Y-69600000D03*
G04 #@! TD*
D14*
G04 #@! TO.C,CH62*
X50750000Y-44350000D03*
D10*
X50500000Y-43600000D03*
D13*
X50250000Y-44350000D03*
G04 #@! TD*
D12*
G04 #@! TO.C,CH117*
X92250000Y-68850000D03*
D10*
X92500000Y-69600000D03*
D11*
X92750000Y-68850000D03*
G04 #@! TD*
D12*
G04 #@! TO.C,CH118*
X93850000Y-68850000D03*
D10*
X94100000Y-69600000D03*
D11*
X94350000Y-68850000D03*
G04 #@! TD*
D10*
G04 #@! TO.C,CH11*
X28100000Y-69600000D03*
D11*
X28350000Y-68850000D03*
D12*
X27850000Y-68850000D03*
G04 #@! TD*
D13*
G04 #@! TO.C,CH36*
X15450000Y-44350000D03*
D10*
X15700000Y-43600000D03*
D14*
X15950000Y-44350000D03*
G04 #@! TD*
D10*
G04 #@! TO.C,CH54*
X58900000Y-69600000D03*
D12*
X58650000Y-68850000D03*
D11*
X59150000Y-68850000D03*
G04 #@! TD*
D10*
G04 #@! TO.C,CH84*
X74100000Y-69600000D03*
D11*
X74350000Y-68850000D03*
D12*
X73850000Y-68850000D03*
G04 #@! TD*
D11*
G04 #@! TO.C,CH87*
X77950000Y-68850000D03*
D10*
X77700000Y-69600000D03*
D12*
X77450000Y-68850000D03*
G04 #@! TD*
D13*
G04 #@! TO.C,CH107*
X61450000Y-44350000D03*
D10*
X61700000Y-43600000D03*
D14*
X61950000Y-44350000D03*
G04 #@! TD*
D10*
G04 #@! TO.C,CH40*
X41700000Y-69600000D03*
D11*
X41950000Y-68850000D03*
D12*
X41450000Y-68850000D03*
G04 #@! TD*
G04 #@! TO.C,CH81*
X69850000Y-68850000D03*
D10*
X70100000Y-69600000D03*
D11*
X70350000Y-68850000D03*
G04 #@! TD*
D14*
G04 #@! TO.C,CH132*
X97950000Y-44350000D03*
D13*
X97450000Y-44350000D03*
D10*
X97700000Y-43600000D03*
G04 #@! TD*
G04 #@! TO.C,CH122*
X98900000Y-69600000D03*
D11*
X99150000Y-68850000D03*
D12*
X98650000Y-68850000D03*
G04 #@! TD*
D10*
G04 #@! TO.C,CH37*
X38100000Y-69600000D03*
D11*
X38350000Y-68850000D03*
D12*
X37850000Y-68850000D03*
G04 #@! TD*
D14*
G04 #@! TO.C,CH28*
X25550000Y-44350000D03*
D10*
X25300000Y-43600000D03*
D13*
X25050000Y-44350000D03*
G04 #@! TD*
D12*
G04 #@! TO.C,CH48*
X51450000Y-68850000D03*
D11*
X51950000Y-68850000D03*
D10*
X51700000Y-69600000D03*
G04 #@! TD*
D13*
G04 #@! TO.C,CH105*
X63850000Y-44350000D03*
D14*
X64350000Y-44350000D03*
D10*
X64100000Y-43600000D03*
G04 #@! TD*
G04 #@! TO.C,CH131*
X98900000Y-43600000D03*
D14*
X99150000Y-44350000D03*
D13*
X98650000Y-44350000D03*
G04 #@! TD*
D10*
G04 #@! TO.C,CH57*
X56500000Y-43600000D03*
D13*
X56250000Y-44350000D03*
D14*
X56750000Y-44350000D03*
G04 #@! TD*
D10*
G04 #@! TO.C,CH98*
X72900000Y-43600000D03*
D13*
X72650000Y-44350000D03*
D14*
X73150000Y-44350000D03*
G04 #@! TD*
D10*
G04 #@! TO.C,CH73*
X60500000Y-69600000D03*
D11*
X60750000Y-68850000D03*
D12*
X60250000Y-68850000D03*
G04 #@! TD*
D10*
G04 #@! TO.C,CH92*
X80100000Y-43600000D03*
D14*
X80350000Y-44350000D03*
D13*
X79850000Y-44350000D03*
G04 #@! TD*
D10*
G04 #@! TO.C,CH31*
X21700000Y-43600000D03*
D13*
X21450000Y-44350000D03*
D14*
X21950000Y-44350000D03*
G04 #@! TD*
D11*
G04 #@! TO.C,CH38*
X39550000Y-68850000D03*
D10*
X39300000Y-69600000D03*
D12*
X39050000Y-68850000D03*
G04 #@! TD*
D10*
G04 #@! TO.C,CH103*
X66500000Y-43600000D03*
D13*
X66250000Y-44350000D03*
D14*
X66750000Y-44350000D03*
G04 #@! TD*
D10*
G04 #@! TO.C,CH106*
X62900000Y-43600000D03*
D14*
X63150000Y-44350000D03*
D13*
X62650000Y-44350000D03*
G04 #@! TD*
D12*
G04 #@! TO.C,CH5*
X20250000Y-68850000D03*
D10*
X20500000Y-69600000D03*
D11*
X20750000Y-68850000D03*
G04 #@! TD*
D10*
G04 #@! TO.C,CH82*
X71700000Y-69600000D03*
D11*
X71950000Y-68850000D03*
D12*
X71450000Y-68850000D03*
G04 #@! TD*
D10*
G04 #@! TO.C,CH9*
X25300000Y-69600000D03*
D11*
X25550000Y-68850000D03*
D12*
X25050000Y-68850000D03*
G04 #@! TD*
D11*
G04 #@! TO.C,CH89*
X80350000Y-68850000D03*
D10*
X80100000Y-69600000D03*
D12*
X79850000Y-68850000D03*
G04 #@! TD*
G04 #@! TO.C,CH126*
X103450000Y-68850000D03*
D10*
X103700000Y-69600000D03*
D11*
X103950000Y-68850000D03*
G04 #@! TD*
D10*
G04 #@! TO.C,CH7*
X22900000Y-69600000D03*
D12*
X22650000Y-68850000D03*
D11*
X23150000Y-68850000D03*
G04 #@! TD*
G04 #@! TO.C,CH13*
X30750000Y-68850000D03*
D12*
X30250000Y-68850000D03*
D10*
X30500000Y-69600000D03*
G04 #@! TD*
G04 #@! TO.C,CH86*
X76500000Y-69600000D03*
D11*
X76750000Y-68850000D03*
D12*
X76250000Y-68850000D03*
G04 #@! TD*
D14*
G04 #@! TO.C,CH95*
X76750000Y-44350000D03*
D13*
X76250000Y-44350000D03*
D10*
X76500000Y-43600000D03*
G04 #@! TD*
D14*
G04 #@! TO.C,CH19*
X36750000Y-44350000D03*
D10*
X36500000Y-43600000D03*
D13*
X36250000Y-44350000D03*
G04 #@! TD*
D10*
G04 #@! TO.C,CH25*
X29300000Y-43600000D03*
D13*
X29050000Y-44350000D03*
D14*
X29550000Y-44350000D03*
G04 #@! TD*
D13*
G04 #@! TO.C,CH137*
X91050000Y-44350000D03*
D10*
X91300000Y-43600000D03*
D14*
X91550000Y-44350000D03*
G04 #@! TD*
D12*
G04 #@! TO.C,CH12*
X29050000Y-68850000D03*
D11*
X29550000Y-68850000D03*
D10*
X29300000Y-69600000D03*
G04 #@! TD*
D12*
G04 #@! TO.C,CH76*
X63850000Y-68850000D03*
D10*
X64100000Y-69600000D03*
D11*
X64350000Y-68850000D03*
G04 #@! TD*
D10*
G04 #@! TO.C,CH80*
X68900000Y-69600000D03*
D11*
X69150000Y-68850000D03*
D12*
X68650000Y-68850000D03*
G04 #@! TD*
D14*
G04 #@! TO.C,CH29*
X24350000Y-44350000D03*
D10*
X24100000Y-43600000D03*
D13*
X23850000Y-44350000D03*
G04 #@! TD*
D11*
G04 #@! TO.C,CH115*
X90350000Y-68850000D03*
D10*
X90100000Y-69600000D03*
D12*
X89850000Y-68850000D03*
G04 #@! TD*
D10*
G04 #@! TO.C,CH135*
X94100000Y-43600000D03*
D14*
X94350000Y-44350000D03*
D13*
X93850000Y-44350000D03*
G04 #@! TD*
D10*
G04 #@! TO.C,CH26*
X28100000Y-43600000D03*
D13*
X27850000Y-44350000D03*
D14*
X28350000Y-44350000D03*
G04 #@! TD*
D13*
G04 #@! TO.C,CH20*
X35050000Y-44350000D03*
D14*
X35550000Y-44350000D03*
D10*
X35300000Y-43600000D03*
G04 #@! TD*
G04 #@! TO.C,CH2*
X16900000Y-69600000D03*
D11*
X17150000Y-68850000D03*
D12*
X16650000Y-68850000D03*
G04 #@! TD*
D11*
G04 #@! TO.C,CH119*
X95550000Y-68850000D03*
D10*
X95300000Y-69600000D03*
D12*
X95050000Y-68850000D03*
G04 #@! TD*
D10*
G04 #@! TO.C,CH61*
X51700000Y-43600000D03*
D14*
X51950000Y-44350000D03*
D13*
X51450000Y-44350000D03*
G04 #@! TD*
G04 #@! TO.C,CH133*
X96250000Y-44350000D03*
D10*
X96500000Y-43600000D03*
D14*
X96750000Y-44350000D03*
G04 #@! TD*
D11*
G04 #@! TO.C,CH79*
X67950000Y-68850000D03*
D10*
X67700000Y-69600000D03*
D12*
X67450000Y-68850000D03*
G04 #@! TD*
D14*
G04 #@! TO.C,CH63*
X49550000Y-44350000D03*
D10*
X49300000Y-43600000D03*
D13*
X49050000Y-44350000D03*
G04 #@! TD*
D11*
G04 #@! TO.C,CH53*
X57950000Y-68850000D03*
D10*
X57700000Y-69600000D03*
D12*
X57450000Y-68850000D03*
G04 #@! TD*
G04 #@! TO.C,CH41*
X42650000Y-68850000D03*
D10*
X42900000Y-69600000D03*
D11*
X43150000Y-68850000D03*
G04 #@! TD*
D10*
G04 #@! TO.C,CH21*
X34100000Y-43600000D03*
D14*
X34350000Y-44350000D03*
D13*
X33850000Y-44350000D03*
G04 #@! TD*
D14*
G04 #@! TO.C,CH65*
X46750000Y-44350000D03*
D13*
X46250000Y-44350000D03*
D10*
X46500000Y-43600000D03*
G04 #@! TD*
D13*
G04 #@! TO.C,CH104*
X65050000Y-44350000D03*
D14*
X65550000Y-44350000D03*
D10*
X65300000Y-43600000D03*
G04 #@! TD*
D12*
G04 #@! TO.C,CH47*
X50250000Y-68850000D03*
D11*
X50750000Y-68850000D03*
D10*
X50500000Y-69600000D03*
G04 #@! TD*
D14*
G04 #@! TO.C,CH102*
X67950000Y-44350000D03*
D10*
X67700000Y-43600000D03*
D13*
X67450000Y-44350000D03*
G04 #@! TD*
G04 #@! TO.C,CH23*
X31450000Y-44350000D03*
D14*
X31950000Y-44350000D03*
D10*
X31700000Y-43600000D03*
G04 #@! TD*
D12*
G04 #@! TO.C,CH46*
X49050000Y-68850000D03*
D11*
X49550000Y-68850000D03*
D10*
X49300000Y-69600000D03*
G04 #@! TD*
D12*
G04 #@! TO.C,CH111*
X85050000Y-68850000D03*
D11*
X85550000Y-68850000D03*
D10*
X85300000Y-69600000D03*
G04 #@! TD*
D14*
G04 #@! TO.C,CH64*
X47950000Y-44350000D03*
D13*
X47450000Y-44350000D03*
D10*
X47700000Y-43600000D03*
G04 #@! TD*
G04 #@! TO.C,CH93*
X78900000Y-43600000D03*
D13*
X78650000Y-44350000D03*
D14*
X79150000Y-44350000D03*
G04 #@! TD*
G04 #@! TO.C,CH134*
X95550000Y-44350000D03*
D10*
X95300000Y-43600000D03*
D13*
X95050000Y-44350000D03*
G04 #@! TD*
D12*
G04 #@! TO.C,CH116*
X91050000Y-68850000D03*
D10*
X91300000Y-69600000D03*
D11*
X91550000Y-68850000D03*
G04 #@! TD*
D10*
G04 #@! TO.C,CH17*
X35300000Y-69600000D03*
D12*
X35050000Y-68850000D03*
D11*
X35550000Y-68850000D03*
G04 #@! TD*
D12*
G04 #@! TO.C,CH74*
X61450000Y-68850000D03*
D10*
X61700000Y-69600000D03*
D11*
X61950000Y-68850000D03*
G04 #@! TD*
D10*
G04 #@! TO.C,CH59*
X54100000Y-43600000D03*
D13*
X53850000Y-44350000D03*
D14*
X54350000Y-44350000D03*
G04 #@! TD*
G04 #@! TO.C,CH97*
X74350000Y-44350000D03*
D13*
X73850000Y-44350000D03*
D10*
X74100000Y-43600000D03*
G04 #@! TD*
G04 #@! TO.C,CH100*
X70100000Y-43600000D03*
D13*
X69850000Y-44350000D03*
D14*
X70350000Y-44350000D03*
G04 #@! TD*
D13*
G04 #@! TO.C,CH30*
X22650000Y-44350000D03*
D10*
X22900000Y-43600000D03*
D14*
X23150000Y-44350000D03*
G04 #@! TD*
D12*
G04 #@! TO.C,CH42*
X43850000Y-68850000D03*
D11*
X44350000Y-68850000D03*
D10*
X44100000Y-69600000D03*
G04 #@! TD*
D11*
G04 #@! TO.C,CH125*
X102750000Y-68850000D03*
D10*
X102500000Y-69600000D03*
D12*
X102250000Y-68850000D03*
G04 #@! TD*
D11*
G04 #@! TO.C,CH90*
X81550000Y-68850000D03*
D10*
X81300000Y-69600000D03*
D12*
X81050000Y-68850000D03*
G04 #@! TD*
D14*
G04 #@! TO.C,CH108*
X60750000Y-44350000D03*
D13*
X60250000Y-44350000D03*
D10*
X60500000Y-43600000D03*
G04 #@! TD*
D12*
G04 #@! TO.C,CH49*
X52650000Y-68850000D03*
D10*
X52900000Y-69600000D03*
D11*
X53150000Y-68850000D03*
G04 #@! TD*
G04 #@! TO.C,CH6*
X21950000Y-68850000D03*
D10*
X21700000Y-69600000D03*
D12*
X21450000Y-68850000D03*
G04 #@! TD*
D11*
G04 #@! TO.C,CH109*
X83150000Y-68850000D03*
D12*
X82650000Y-68850000D03*
D10*
X82900000Y-69600000D03*
G04 #@! TD*
G04 #@! TO.C,CH144*
X82900000Y-43600000D03*
D13*
X82650000Y-44350000D03*
D14*
X83150000Y-44350000D03*
G04 #@! TD*
D10*
G04 #@! TO.C,CH68*
X42900000Y-43600000D03*
D14*
X43150000Y-44350000D03*
D13*
X42650000Y-44350000D03*
G04 #@! TD*
D10*
G04 #@! TO.C,CH39*
X40500000Y-69600000D03*
D12*
X40250000Y-68850000D03*
D11*
X40750000Y-68850000D03*
G04 #@! TD*
D12*
G04 #@! TO.C,CH78*
X66250000Y-68850000D03*
D10*
X66500000Y-69600000D03*
D11*
X66750000Y-68850000D03*
G04 #@! TD*
D10*
G04 #@! TO.C,CH33*
X19300000Y-43600000D03*
D14*
X19550000Y-44350000D03*
D13*
X19050000Y-44350000D03*
G04 #@! TD*
G04 #@! TO.C,CH70*
X40250000Y-44350000D03*
D10*
X40500000Y-43600000D03*
D14*
X40750000Y-44350000D03*
G04 #@! TD*
D10*
G04 #@! TO.C,CH140*
X87700000Y-43600000D03*
D13*
X87450000Y-44350000D03*
D14*
X87950000Y-44350000D03*
G04 #@! TD*
D10*
G04 #@! TO.C,CH136*
X92500000Y-43600000D03*
D13*
X92250000Y-44350000D03*
D14*
X92750000Y-44350000D03*
G04 #@! TD*
D11*
G04 #@! TO.C,CH113*
X87950000Y-68850000D03*
D12*
X87450000Y-68850000D03*
D10*
X87700000Y-69600000D03*
G04 #@! TD*
D14*
G04 #@! TO.C,CH69*
X41950000Y-44350000D03*
D10*
X41700000Y-43600000D03*
D13*
X41450000Y-44350000D03*
G04 #@! TD*
D11*
G04 #@! TO.C,CH1*
X15950000Y-68850000D03*
D10*
X15700000Y-69600000D03*
D12*
X15450000Y-68850000D03*
G04 #@! TD*
D11*
G04 #@! TO.C,CH16*
X34350000Y-68850000D03*
D10*
X34100000Y-69600000D03*
D12*
X33850000Y-68850000D03*
G04 #@! TD*
D10*
G04 #@! TO.C,CH139*
X88900000Y-43600000D03*
D14*
X89150000Y-44350000D03*
D13*
X88650000Y-44350000D03*
G04 #@! TD*
D10*
G04 #@! TO.C,CH44*
X46500000Y-69600000D03*
D12*
X46250000Y-68850000D03*
D11*
X46750000Y-68850000D03*
G04 #@! TD*
G04 #@! TO.C,CH3*
X18350000Y-68850000D03*
D10*
X18100000Y-69600000D03*
D12*
X17850000Y-68850000D03*
G04 #@! TD*
D13*
G04 #@! TO.C,CH138*
X89850000Y-44350000D03*
D10*
X90100000Y-43600000D03*
D14*
X90350000Y-44350000D03*
G04 #@! TD*
D11*
G04 #@! TO.C,CH45*
X47950000Y-68850000D03*
D10*
X47700000Y-69600000D03*
D12*
X47450000Y-68850000D03*
G04 #@! TD*
D11*
G04 #@! TO.C,CH18*
X36750000Y-68850000D03*
D12*
X36250000Y-68850000D03*
D10*
X36500000Y-69600000D03*
G04 #@! TD*
D14*
G04 #@! TO.C,CH141*
X86750000Y-44350000D03*
D10*
X86500000Y-43600000D03*
D13*
X86250000Y-44350000D03*
G04 #@! TD*
D11*
G04 #@! TO.C,CH85*
X75550000Y-68850000D03*
D12*
X75050000Y-68850000D03*
D10*
X75300000Y-69600000D03*
G04 #@! TD*
D12*
G04 #@! TO.C,CH120*
X96250000Y-68850000D03*
D10*
X96500000Y-69600000D03*
D11*
X96750000Y-68850000D03*
G04 #@! TD*
D10*
G04 #@! TO.C,CH101*
X68900000Y-43600000D03*
D13*
X68650000Y-44350000D03*
D14*
X69150000Y-44350000D03*
G04 #@! TD*
D12*
G04 #@! TO.C,CH110*
X83850000Y-68850000D03*
D10*
X84100000Y-69600000D03*
D11*
X84350000Y-68850000D03*
G04 #@! TD*
D13*
G04 #@! TO.C,CH24*
X30250000Y-44350000D03*
D14*
X30750000Y-44350000D03*
D10*
X30500000Y-43600000D03*
G04 #@! TD*
D14*
G04 #@! TO.C,CH35*
X17150000Y-44350000D03*
D10*
X16900000Y-43600000D03*
D13*
X16650000Y-44350000D03*
G04 #@! TD*
D11*
G04 #@! TO.C,CH121*
X97950000Y-68850000D03*
D10*
X97700000Y-69600000D03*
D12*
X97450000Y-68850000D03*
G04 #@! TD*
D13*
G04 #@! TO.C,CH56*
X57450000Y-44350000D03*
D14*
X57950000Y-44350000D03*
D10*
X57700000Y-43600000D03*
G04 #@! TD*
D13*
G04 #@! TO.C,CH60*
X52650000Y-44350000D03*
D14*
X53150000Y-44350000D03*
D10*
X52900000Y-43600000D03*
G04 #@! TD*
D12*
G04 #@! TO.C,CH50*
X53850000Y-68850000D03*
D10*
X54100000Y-69600000D03*
D11*
X54350000Y-68850000D03*
G04 #@! TD*
D12*
G04 #@! TO.C,CH4*
X19050000Y-68850000D03*
D11*
X19550000Y-68850000D03*
D10*
X19300000Y-69600000D03*
G04 #@! TD*
G04 #@! TO.C,CH128*
X102500000Y-43600000D03*
D13*
X102250000Y-44350000D03*
D14*
X102750000Y-44350000D03*
G04 #@! TD*
D11*
G04 #@! TO.C,CH10*
X27150000Y-68850000D03*
D12*
X26650000Y-68850000D03*
D10*
X26900000Y-69600000D03*
G04 #@! TD*
G04 #@! TO.C,CH34*
X18100000Y-43600000D03*
D13*
X17850000Y-44350000D03*
D14*
X18350000Y-44350000D03*
G04 #@! TD*
D10*
G04 #@! TO.C,CH123*
X100100000Y-69600000D03*
D12*
X99850000Y-68850000D03*
D11*
X100350000Y-68850000D03*
G04 #@! TD*
D12*
G04 #@! TO.C,CH43*
X45050000Y-68850000D03*
D11*
X45550000Y-68850000D03*
D10*
X45300000Y-69600000D03*
G04 #@! TD*
D12*
G04 #@! TO.C,CH114*
X88650000Y-68850000D03*
D11*
X89150000Y-68850000D03*
D10*
X88900000Y-69600000D03*
G04 #@! TD*
G04 #@! TO.C,CH8*
X24100000Y-69600000D03*
D11*
X24350000Y-68850000D03*
D12*
X23850000Y-68850000D03*
G04 #@! TD*
D11*
G04 #@! TO.C,CH51*
X55550000Y-68850000D03*
D10*
X55300000Y-69600000D03*
D12*
X55050000Y-68850000D03*
G04 #@! TD*
D10*
G04 #@! TO.C,CH91*
X81300000Y-43600000D03*
D13*
X81050000Y-44350000D03*
D14*
X81550000Y-44350000D03*
G04 #@! TD*
G04 #@! TO.C,CH72*
X38350000Y-44350000D03*
D13*
X37850000Y-44350000D03*
D10*
X38100000Y-43600000D03*
G04 #@! TD*
D14*
G04 #@! TO.C,CH22*
X33150000Y-44350000D03*
D13*
X32650000Y-44350000D03*
D10*
X32900000Y-43600000D03*
G04 #@! TD*
G04 #@! TO.C,CH142*
X85300000Y-43600000D03*
D14*
X85550000Y-44350000D03*
D13*
X85050000Y-44350000D03*
G04 #@! TD*
D14*
G04 #@! TO.C,CH55*
X59150000Y-44350000D03*
D10*
X58900000Y-43600000D03*
D13*
X58650000Y-44350000D03*
G04 #@! TD*
D10*
G04 #@! TO.C,CH96*
X75300000Y-43600000D03*
D14*
X75550000Y-44350000D03*
D13*
X75050000Y-44350000D03*
G04 #@! TD*
D11*
G04 #@! TO.C,CH14*
X31950000Y-68850000D03*
D10*
X31700000Y-69600000D03*
D12*
X31450000Y-68850000D03*
G04 #@! TD*
D14*
G04 #@! TO.C,CH71*
X39550000Y-44350000D03*
D10*
X39300000Y-43600000D03*
D13*
X39050000Y-44350000D03*
G04 #@! TD*
G04 #@! TO.C,CH99*
X71450000Y-44350000D03*
D14*
X71950000Y-44350000D03*
D10*
X71700000Y-43600000D03*
G04 #@! TD*
G04 #@! TO.C,CH127*
X103700000Y-43600000D03*
D13*
X103450000Y-44350000D03*
D14*
X103950000Y-44350000D03*
G04 #@! TD*
G04 #@! TO.C,CH32*
X20750000Y-44350000D03*
D10*
X20500000Y-43600000D03*
D13*
X20250000Y-44350000D03*
G04 #@! TD*
G04 #@! TO.C,CH143*
X83850000Y-44350000D03*
D14*
X84350000Y-44350000D03*
D10*
X84100000Y-43600000D03*
G04 #@! TD*
D13*
G04 #@! TO.C,CH94*
X77450000Y-44350000D03*
D14*
X77950000Y-44350000D03*
D10*
X77700000Y-43600000D03*
G04 #@! TD*
D13*
G04 #@! TO.C,CH58*
X55050000Y-44350000D03*
D14*
X55550000Y-44350000D03*
D10*
X55300000Y-43600000D03*
G04 #@! TD*
D14*
G04 #@! TO.C,CH129*
X101550000Y-44350000D03*
D13*
X101050000Y-44350000D03*
D10*
X101300000Y-43600000D03*
G04 #@! TD*
D14*
G04 #@! TO.C,CH130*
X100350000Y-44350000D03*
D10*
X100100000Y-43600000D03*
D13*
X99850000Y-44350000D03*
G04 #@! TD*
D11*
G04 #@! TO.C,CH15*
X33150000Y-68850000D03*
D12*
X32650000Y-68850000D03*
D10*
X32900000Y-69600000D03*
G04 #@! TD*
G04 #@! TO.C,CH88*
X78900000Y-69600000D03*
D11*
X79150000Y-68850000D03*
D12*
X78650000Y-68850000D03*
G04 #@! TD*
D10*
G04 #@! TO.C,CH112*
X86500000Y-69600000D03*
D12*
X86250000Y-68850000D03*
D11*
X86750000Y-68850000D03*
G04 #@! TD*
D13*
G04 #@! TO.C,CH66*
X45050000Y-44350000D03*
D10*
X45300000Y-43600000D03*
D14*
X45550000Y-44350000D03*
G04 #@! TD*
D13*
G04 #@! TO.C,CH67*
X43850000Y-44350000D03*
D14*
X44350000Y-44350000D03*
D10*
X44100000Y-43600000D03*
G04 #@! TD*
D15*
G04 #@! TO.C,CP64*
X47700000Y-40150000D03*
G04 #@! TD*
G04 #@! TO.C,CP104*
X65300000Y-40150000D03*
G04 #@! TD*
G04 #@! TO.C,CP142*
X85300000Y-40150000D03*
G04 #@! TD*
D16*
G04 #@! TO.C,CP12*
X29300000Y-14650000D03*
G04 #@! TD*
G04 #@! TO.C,CP4*
X19300000Y-14650000D03*
G04 #@! TD*
D15*
G04 #@! TO.C,CP32*
X20500000Y-40150000D03*
G04 #@! TD*
D16*
G04 #@! TO.C,CP126*
X103700000Y-14650000D03*
G04 #@! TD*
D15*
G04 #@! TO.C,CP35*
X16900000Y-40150000D03*
G04 #@! TD*
D16*
G04 #@! TO.C,CP85*
X75300000Y-14650000D03*
G04 #@! TD*
D15*
G04 #@! TO.C,CP106*
X62900000Y-40150000D03*
G04 #@! TD*
G04 #@! TO.C,CP130*
X100100000Y-40150000D03*
G04 #@! TD*
D16*
G04 #@! TO.C,CP49*
X52900000Y-14650000D03*
G04 #@! TD*
G04 #@! TO.C,CP1*
X15700000Y-14650000D03*
G04 #@! TD*
G04 #@! TO.C,CP47*
X50500000Y-14650000D03*
G04 #@! TD*
D15*
G04 #@! TO.C,CP101*
X68900000Y-40150000D03*
G04 #@! TD*
D16*
G04 #@! TO.C,CP73*
X60500000Y-14650000D03*
G04 #@! TD*
G04 #@! TO.C,CP43*
X45300000Y-14650000D03*
G04 #@! TD*
D15*
G04 #@! TO.C,CP102*
X67700000Y-40150000D03*
G04 #@! TD*
G04 #@! TO.C,CP139*
X88900000Y-40150000D03*
G04 #@! TD*
G04 #@! TO.C,CP138*
X90100000Y-40150000D03*
G04 #@! TD*
G04 #@! TO.C,CP140*
X87700000Y-40150000D03*
G04 #@! TD*
G04 #@! TO.C,CP97*
X74100000Y-40150000D03*
G04 #@! TD*
G04 #@! TO.C,CP127*
X103700000Y-40150000D03*
G04 #@! TD*
D16*
G04 #@! TO.C,CP122*
X98900000Y-14650000D03*
G04 #@! TD*
G04 #@! TO.C,CP40*
X41700000Y-14650000D03*
G04 #@! TD*
G04 #@! TO.C,CP7*
X22900000Y-14650000D03*
G04 #@! TD*
D15*
G04 #@! TO.C,CP131*
X98900000Y-40150000D03*
G04 #@! TD*
G04 #@! TO.C,CP29*
X24100000Y-40150000D03*
G04 #@! TD*
D16*
G04 #@! TO.C,CP37*
X38100000Y-14650000D03*
G04 #@! TD*
G04 #@! TO.C,CP81*
X70100000Y-14650000D03*
G04 #@! TD*
G04 #@! TO.C,CP45*
X47700000Y-14650000D03*
G04 #@! TD*
D15*
G04 #@! TO.C,CP28*
X25300000Y-40150000D03*
G04 #@! TD*
G04 #@! TO.C,CP129*
X101300000Y-40150000D03*
G04 #@! TD*
D16*
G04 #@! TO.C,CP86*
X76500000Y-14650000D03*
G04 #@! TD*
G04 #@! TO.C,CP76*
X64100000Y-14650000D03*
G04 #@! TD*
G04 #@! TO.C,CP77*
X65300000Y-14650000D03*
G04 #@! TD*
G04 #@! TO.C,CP116*
X91300000Y-14650000D03*
G04 #@! TD*
G04 #@! TO.C,CP120*
X96500000Y-14650000D03*
G04 #@! TD*
D15*
G04 #@! TO.C,CP100*
X70100000Y-40150000D03*
G04 #@! TD*
D16*
G04 #@! TO.C,CP39*
X40500000Y-14650000D03*
G04 #@! TD*
D15*
G04 #@! TO.C,CP132*
X97700000Y-40150000D03*
G04 #@! TD*
G04 #@! TO.C,CP31*
X21700000Y-40150000D03*
G04 #@! TD*
G04 #@! TO.C,CP71*
X39300000Y-40150000D03*
G04 #@! TD*
G04 #@! TO.C,CP56*
X57700000Y-40150000D03*
G04 #@! TD*
D16*
G04 #@! TO.C,CP110*
X84100000Y-14650000D03*
G04 #@! TD*
D15*
G04 #@! TO.C,CP135*
X94100000Y-40150000D03*
G04 #@! TD*
G04 #@! TO.C,CP96*
X75300000Y-40150000D03*
G04 #@! TD*
G04 #@! TO.C,CP20*
X35300000Y-40150000D03*
G04 #@! TD*
G04 #@! TO.C,CP107*
X61700000Y-40150000D03*
G04 #@! TD*
G04 #@! TO.C,CP27*
X26900000Y-40150000D03*
G04 #@! TD*
G04 #@! TO.C,CP143*
X84100000Y-40150000D03*
G04 #@! TD*
D16*
G04 #@! TO.C,CP79*
X67700000Y-14650000D03*
G04 #@! TD*
G04 #@! TO.C,CP83*
X72900000Y-14650000D03*
G04 #@! TD*
D15*
G04 #@! TO.C,CP103*
X66500000Y-40150000D03*
G04 #@! TD*
D16*
G04 #@! TO.C,CP113*
X87700000Y-14650000D03*
G04 #@! TD*
D15*
G04 #@! TO.C,CP105*
X64100000Y-40150000D03*
G04 #@! TD*
D16*
G04 #@! TO.C,CP44*
X46500000Y-14650000D03*
G04 #@! TD*
D15*
G04 #@! TO.C,CP25*
X29300000Y-40150000D03*
G04 #@! TD*
D16*
G04 #@! TO.C,CP80*
X68900000Y-14650000D03*
G04 #@! TD*
D15*
G04 #@! TO.C,CP92*
X80100000Y-40150000D03*
G04 #@! TD*
D16*
G04 #@! TO.C,CP118*
X94100000Y-14650000D03*
G04 #@! TD*
D15*
G04 #@! TO.C,CP70*
X40500000Y-40150000D03*
G04 #@! TD*
G04 #@! TO.C,CP93*
X78900000Y-40150000D03*
G04 #@! TD*
G04 #@! TO.C,CP66*
X45300000Y-40150000D03*
G04 #@! TD*
G04 #@! TO.C,CP128*
X102500000Y-40150000D03*
G04 #@! TD*
D16*
G04 #@! TO.C,CP48*
X51700000Y-14650000D03*
G04 #@! TD*
D15*
G04 #@! TO.C,CP72*
X38100000Y-40150000D03*
G04 #@! TD*
D16*
G04 #@! TO.C,CP11*
X28100000Y-14650000D03*
G04 #@! TD*
G04 #@! TO.C,CP117*
X92500000Y-14650000D03*
G04 #@! TD*
D15*
G04 #@! TO.C,CP34*
X18100000Y-40150000D03*
G04 #@! TD*
D16*
G04 #@! TO.C,CP50*
X54100000Y-14650000D03*
G04 #@! TD*
D15*
G04 #@! TO.C,CP21*
X34100000Y-40150000D03*
G04 #@! TD*
D16*
G04 #@! TO.C,CP125*
X102500000Y-14650000D03*
G04 #@! TD*
D15*
G04 #@! TO.C,CP62*
X50500000Y-40150000D03*
G04 #@! TD*
D16*
G04 #@! TO.C,CP52*
X56500000Y-14650000D03*
G04 #@! TD*
G04 #@! TO.C,CP119*
X95300000Y-14650000D03*
G04 #@! TD*
D15*
G04 #@! TO.C,CP60*
X52900000Y-40150000D03*
G04 #@! TD*
D16*
G04 #@! TO.C,CP121*
X97700000Y-14650000D03*
G04 #@! TD*
D15*
G04 #@! TO.C,CP94*
X77700000Y-40150000D03*
G04 #@! TD*
D16*
G04 #@! TO.C,CP123*
X100100000Y-14650000D03*
G04 #@! TD*
G04 #@! TO.C,CP84*
X74100000Y-14650000D03*
G04 #@! TD*
D15*
G04 #@! TO.C,CP55*
X58900000Y-40150000D03*
G04 #@! TD*
D16*
G04 #@! TO.C,CP124*
X101300000Y-14650000D03*
G04 #@! TD*
G04 #@! TO.C,CP15*
X32900000Y-14650000D03*
G04 #@! TD*
D15*
G04 #@! TO.C,CP69*
X41700000Y-40150000D03*
G04 #@! TD*
G04 #@! TO.C,CP65*
X46500000Y-40150000D03*
G04 #@! TD*
D16*
G04 #@! TO.C,CP18*
X36500000Y-14650000D03*
G04 #@! TD*
G04 #@! TO.C,CP6*
X21700000Y-14650000D03*
G04 #@! TD*
D15*
G04 #@! TO.C,CP22*
X32900000Y-40150000D03*
G04 #@! TD*
G04 #@! TO.C,CP23*
X31700000Y-40150000D03*
G04 #@! TD*
G04 #@! TO.C,CP67*
X44100000Y-40150000D03*
G04 #@! TD*
D16*
G04 #@! TO.C,CP17*
X35300000Y-14650000D03*
G04 #@! TD*
G04 #@! TO.C,CP111*
X85300000Y-14650000D03*
G04 #@! TD*
G04 #@! TO.C,CP75*
X62900000Y-14650000D03*
G04 #@! TD*
G04 #@! TO.C,CP3*
X18100000Y-14650000D03*
G04 #@! TD*
D15*
G04 #@! TO.C,CP144*
X82900000Y-40150000D03*
G04 #@! TD*
G04 #@! TO.C,CP63*
X49300000Y-40150000D03*
G04 #@! TD*
G04 #@! TO.C,CP141*
X86500000Y-40150000D03*
G04 #@! TD*
G04 #@! TO.C,CP133*
X96500000Y-40150000D03*
G04 #@! TD*
D16*
G04 #@! TO.C,CP14*
X31700000Y-14650000D03*
G04 #@! TD*
G04 #@! TO.C,CP2*
X16900000Y-14650000D03*
G04 #@! TD*
G04 #@! TO.C,CP90*
X81300000Y-14650000D03*
G04 #@! TD*
G04 #@! TO.C,CP112*
X86500000Y-14650000D03*
G04 #@! TD*
G04 #@! TO.C,CP16*
X34100000Y-14650000D03*
G04 #@! TD*
G04 #@! TO.C,CP5*
X20500000Y-14650000D03*
G04 #@! TD*
G04 #@! TO.C,CP89*
X80100000Y-14650000D03*
G04 #@! TD*
G04 #@! TO.C,CP87*
X77700000Y-14650000D03*
G04 #@! TD*
G04 #@! TO.C,CP13*
X30500000Y-14650000D03*
G04 #@! TD*
G04 #@! TO.C,CP82*
X71700000Y-14650000D03*
G04 #@! TD*
D15*
G04 #@! TO.C,CP108*
X60500000Y-40150000D03*
G04 #@! TD*
G04 #@! TO.C,CP36*
X15700000Y-40150000D03*
G04 #@! TD*
G04 #@! TO.C,CP61*
X51700000Y-40150000D03*
G04 #@! TD*
G04 #@! TO.C,CP57*
X56500000Y-40150000D03*
G04 #@! TD*
G04 #@! TO.C,CP95*
X76500000Y-40150000D03*
G04 #@! TD*
G04 #@! TO.C,CP30*
X22900000Y-40150000D03*
G04 #@! TD*
D16*
G04 #@! TO.C,CP10*
X26900000Y-14650000D03*
G04 #@! TD*
D15*
G04 #@! TO.C,CP99*
X71700000Y-40150000D03*
G04 #@! TD*
D16*
G04 #@! TO.C,CP78*
X66500000Y-14650000D03*
G04 #@! TD*
G04 #@! TO.C,CP51*
X55300000Y-14650000D03*
G04 #@! TD*
D15*
G04 #@! TO.C,CP33*
X19300000Y-40150000D03*
G04 #@! TD*
G04 #@! TO.C,CP68*
X42900000Y-40150000D03*
G04 #@! TD*
D16*
G04 #@! TO.C,CP54*
X58900000Y-14650000D03*
G04 #@! TD*
D15*
G04 #@! TO.C,CP24*
X30500000Y-40150000D03*
G04 #@! TD*
G04 #@! TO.C,CP26*
X28100000Y-40150000D03*
G04 #@! TD*
G04 #@! TO.C,CP19*
X36500000Y-40150000D03*
G04 #@! TD*
D16*
G04 #@! TO.C,CP88*
X78900000Y-14650000D03*
G04 #@! TD*
G04 #@! TO.C,CP46*
X49300000Y-14650000D03*
G04 #@! TD*
D15*
G04 #@! TO.C,CP134*
X95300000Y-40150000D03*
G04 #@! TD*
D16*
G04 #@! TO.C,CP41*
X42900000Y-14650000D03*
G04 #@! TD*
D15*
G04 #@! TO.C,CP91*
X81300000Y-40150000D03*
G04 #@! TD*
G04 #@! TO.C,CP137*
X91300000Y-40150000D03*
G04 #@! TD*
G04 #@! TO.C,CP98*
X72900000Y-40150000D03*
G04 #@! TD*
D16*
G04 #@! TO.C,CP114*
X88900000Y-14650000D03*
G04 #@! TD*
G04 #@! TO.C,CP109*
X82900000Y-14650000D03*
G04 #@! TD*
G04 #@! TO.C,CP115*
X90100000Y-14650000D03*
G04 #@! TD*
D15*
G04 #@! TO.C,CP136*
X92500000Y-40150000D03*
G04 #@! TD*
D16*
G04 #@! TO.C,CP74*
X61700000Y-14650000D03*
G04 #@! TD*
G04 #@! TO.C,CP9*
X25300000Y-14650000D03*
G04 #@! TD*
G04 #@! TO.C,CP38*
X39300000Y-14650000D03*
G04 #@! TD*
D15*
G04 #@! TO.C,CP59*
X54100000Y-40150000D03*
G04 #@! TD*
D16*
G04 #@! TO.C,CP42*
X44100000Y-14650000D03*
G04 #@! TD*
D15*
G04 #@! TO.C,CP58*
X55300000Y-40150000D03*
G04 #@! TD*
D16*
G04 #@! TO.C,CP53*
X57700000Y-14650000D03*
G04 #@! TD*
G04 #@! TO.C,CP8*
X24100000Y-14650000D03*
G04 #@! TD*
M02*
